<svg width="280" height="383" viewBox="0 0 280 383" fill="none" xmlns="http://www.w3.org/2000/svg">
<path d="M127.036 193.056C126.918 191.732 127.091 190.397 127.544 189.147C127.997 187.897 128.718 186.761 129.657 185.82C130.597 184.879 131.731 184.155 132.98 183.7C134.229 183.244 135.563 183.068 136.888 183.184L146.494 164.753L159.119 167.859L145.187 193.697C144.845 195.909 143.703 197.919 141.978 199.346C140.253 200.773 138.064 201.517 135.827 201.438C133.59 201.359 131.459 200.462 129.839 198.917C128.219 197.372 127.221 195.287 127.036 193.056H127.036Z" fill="#FFB7B7"/>
<path d="M184.379 372.612L173.726 372.611L168.658 331.522L184.381 331.523L184.379 372.612Z" fill="#FFB7B7"/>
<path d="M187.095 382.938L152.746 382.937V382.502C152.746 378.956 154.155 375.556 156.662 373.049C159.169 370.542 162.57 369.133 166.116 369.133H166.116L187.096 369.134L187.095 382.938Z" fill="#2F2E41"/>
<path d="M270.057 364.654L259.779 367.456L244.078 329.148L259.247 325.012L270.057 364.654Z" fill="#FFB7B7"/>
<path d="M275.394 373.901L242.255 382.938L242.141 382.518C241.208 379.098 241.672 375.446 243.432 372.368C245.191 369.289 248.101 367.036 251.522 366.102L251.522 366.102L271.762 360.583L275.394 373.901Z" fill="#2F2E41"/>
<path d="M164.931 195.118L159.617 275.812L171.032 366.346L189.729 360.639L190.517 279.748L205.474 233.103L249.758 357.687L270.029 350.208L253.3 269.317L243.853 193.347L164.931 195.118Z" fill="#2F2E41"/>
<path d="M216.592 53.4189L185.107 58.0617L173.764 69.2798L170.242 109.587L172.429 145.289L163.311 208.248C163.311 208.248 186.241 195.518 204.011 211.453C221.781 227.387 246.647 214.269 247.158 203.669L216.592 53.4189Z" fill="#CBCBCB"/>
<path d="M200.604 103.97L200.604 103.925L216.245 52.9409L216.447 52.9277C217.56 52.8552 243.784 51.3097 249.649 64.2578L249.678 64.3202L247.896 117.303L250.35 200.283L201.849 210.787L201.497 210.864L200.604 103.97Z" fill="#2F2E41"/>
<path d="M183.271 100.447L186.14 57.2256C165.733 58.495 166.04 72.9635 166.064 73.5943L165.841 138.244L161.754 207.408L176.614 206.294L183.271 100.447Z" fill="#2F2E41"/>
<path d="M137.254 179.09L155.371 137.043L168.017 113.821L174.619 155.711L151.696 190.094L137.254 179.09Z" fill="#2F2E41"/>
<path d="M212.13 163.62C212.407 162.319 212.966 161.095 213.768 160.034C214.569 158.973 215.594 158.101 216.769 157.479C217.944 156.857 219.241 156.5 220.569 156.433C221.897 156.366 223.224 156.592 224.455 157.093L239.071 142.316L250.218 149.009L229.283 169.586C228.304 171.599 226.62 173.183 224.551 174.038C222.482 174.892 220.171 174.958 218.056 174.222C215.942 173.487 214.171 172.001 213.078 170.047C211.986 168.093 211.649 165.806 212.13 163.62Z" fill="#FFB7B7"/>
<path d="M224.42 151.699L254.221 119.006L234.495 90.8576L236.525 77.0956L248.152 62.7334L248.378 63.0268C249.618 64.6305 278.741 102.466 279.576 116.789C280.415 131.166 238.556 167.531 236.773 169.072L236.525 169.286L224.42 151.699Z" fill="#2F2E41"/>
<path d="M198.423 49.8783C210.122 49.8783 219.605 40.3951 219.605 28.697C219.605 16.9988 210.122 7.51562 198.423 7.51562C186.725 7.51562 177.242 16.9988 177.242 28.697C177.242 40.3951 186.725 49.8783 198.423 49.8783Z" fill="#FFB7B7"/>
<path d="M218.345 11.7638L219.372 9.69706L214.205 7.12993C214.205 7.12993 208.505 -2.14444 198.191 0.461865C187.876 3.06817 183.236 4.62797 183.236 4.62797L178.082 7.2212L180.669 9.79487L176.028 11.3547L179.129 12.895L175.521 14.9683L177.463 25.5966C177.463 25.5966 180.688 17.5354 186.889 20.616C193.089 23.6965 204.43 19.0235 204.43 19.0235L214.283 38.0921C214.283 38.0921 216.316 31.4076 219.94 33.19C219.94 33.1901 229.199 18.4449 218.345 11.7638Z" fill="#2F2E41"/>
<path d="M68.2934 248.587C106.011 248.587 136.587 218.011 136.587 180.293C136.587 142.576 106.011 112 68.2934 112C30.576 112 0 142.576 0 180.293C0 218.011 30.576 248.587 68.2934 248.587Z" fill="#4848FE"/>
<path d="M87.2145 175.937V162.87C87.2163 160.384 86.7283 157.922 85.7782 155.625C84.8281 153.327 83.4347 151.24 81.6776 149.481C79.9204 147.723 77.8339 146.328 75.5374 145.376C73.2408 144.424 70.7793 143.935 68.2933 143.935C65.8074 143.935 63.3458 144.424 61.0493 145.376C58.7528 146.328 56.6663 147.723 54.9091 149.481C53.1519 151.24 51.7585 153.327 50.8085 155.625C49.8584 157.922 49.3703 160.384 49.3721 162.87V175.937C46.8429 176.051 44.455 177.135 42.705 178.965C40.9551 180.794 39.9778 183.228 39.9766 185.76V216.639H96.6101V185.76C96.6089 183.228 95.6316 180.794 93.8817 178.965C92.1317 177.135 89.7437 176.051 87.2145 175.937ZM68.2933 150.61C71.5435 150.614 74.6593 151.907 76.9575 154.205C79.2556 156.503 80.5482 159.619 80.5518 162.87V175.914H56.0349V162.87C56.0385 159.619 57.3311 156.503 59.6292 154.205C61.9273 151.907 65.0432 150.614 68.2933 150.61Z" fill="white"/>
<path d="M73.3844 191.185C73.3847 190.307 73.158 189.444 72.7264 188.68C72.2948 187.916 71.6729 187.276 70.9211 186.823C70.1693 186.37 69.3132 186.119 68.4358 186.095C67.5584 186.07 66.6896 186.273 65.9137 186.683C65.1378 187.094 64.4812 187.698 64.0077 188.437C63.5341 189.176 63.2596 190.025 63.211 190.901C63.1623 191.777 63.341 192.652 63.7298 193.438C64.1186 194.225 64.7043 194.898 65.43 195.392V206.457H71.1566V195.392C71.8431 194.926 72.405 194.299 72.7933 193.565C73.1816 192.832 73.3845 192.015 73.3844 191.185Z" fill="#4848FE"/>
</svg>
