<svg width="16" height="17" viewBox="0 0 16 17" fill="none" xmlns="http://www.w3.org/2000/svg">
<path d="M15.3908 16.4165C15.0083 16.7839 14.4896 16.9903 13.9487 16.9903C13.4078 16.9903 12.8891 16.7839 12.5066 16.4165L8.00085 11.4697L3.49513 16.4149C3.30631 16.5992 3.08136 16.7458 2.83325 16.8463C2.58514 16.9467 2.31879 16.9989 2.04956 17C1.78033 17.001 1.51354 16.9509 1.26459 16.8524C1.01564 16.7539 0.78945 16.6091 0.599071 16.4262C0.408693 16.2433 0.257892 16.026 0.155366 15.7869C0.052841 15.5478 0.000620122 15.2915 0.00171642 15.0329C0.00281271 14.7743 0.0572042 14.5184 0.161754 14.2801C0.266303 14.0418 0.418941 13.8257 0.610864 13.6443L5.29844 8.50163L0.609164 3.35567C0.417242 3.17429 0.264603 2.95821 0.160054 2.71989C0.0555047 2.48157 0.0011132 2.22572 1.69095e-05 1.9671C-0.00107938 1.70848 0.0511415 1.45222 0.153667 1.21309C0.256192 0.973953 0.406993 0.756685 0.597372 0.573814C0.78775 0.390943 1.01394 0.246089 1.26289 0.147607C1.51184 0.0491247 1.77863 -0.00103682 2.04786 1.62427e-05C2.31709 0.0010693 2.58345 0.0533158 2.83155 0.153742C3.07966 0.254169 3.30461 0.400788 3.49343 0.585142L8.00085 5.53356L12.5066 0.585142C12.6954 0.400788 12.9203 0.254169 13.1684 0.153742C13.4166 0.0533158 13.6829 0.0010693 13.9521 1.62427e-05C14.2214 -0.00103682 14.4882 0.0491247 14.7371 0.147607C14.9861 0.246089 15.2122 0.390943 15.4026 0.573814C15.593 0.756685 15.7438 0.973953 15.8463 1.21309C15.9489 1.45222 16.0011 1.70848 16 1.9671C15.9989 2.22572 15.9445 2.48157 15.8399 2.71989C15.7354 2.95821 15.5828 3.17429 15.3908 3.35567L10.7033 8.50163L15.3908 13.6443C15.5805 13.8263 15.7309 14.0424 15.8335 14.2802C15.9362 14.518 15.989 14.773 15.989 15.0304C15.989 15.2879 15.9362 15.5428 15.8335 15.7806C15.7309 16.0185 15.5805 16.2345 15.3908 16.4165Z" fill="black"/>
</svg>
