<svg width="535" height="458" viewBox="0 0 535 458" fill="none" xmlns="http://www.w3.org/2000/svg">
<path d="M311.059 445.593H298.799L292.967 398.305L311.061 398.306L311.059 445.593Z" fill="#FFB8B8"/>
<path d="M275.154 456.976L313.685 456.977L313.686 442.09L290.042 442.089C288.087 442.089 286.151 442.474 284.345 443.222C282.539 443.97 280.897 445.067 279.515 446.449C278.133 447.831 277.036 449.473 276.288 451.279C275.54 453.085 275.154 455.021 275.154 456.976Z" fill="#2F2E41"/>
<path d="M424.201 438.56L412.195 441.042L396.907 395.915L414.626 392.251L424.201 438.56Z" fill="#FFB8B8"/>
<path d="M391.348 456.978L429.08 449.176L426.066 434.597L402.912 439.385C399.045 440.184 395.655 442.487 393.486 445.786C391.317 449.085 390.548 453.111 391.348 456.977L391.348 456.978Z" fill="#2F2E41"/>
<path d="M390.948 286.411C391.982 285.366 392.774 284.107 393.269 282.723C393.764 281.338 393.949 279.862 393.811 278.399C393.674 276.935 393.217 275.519 392.473 274.251C391.729 272.983 390.717 271.894 389.506 271.06L399.02 236.614L381.355 242.341L375.029 274.173C373.762 276.299 373.32 278.817 373.785 281.248C374.25 283.679 375.591 285.854 377.553 287.363C379.515 288.872 381.963 289.608 384.432 289.432C386.9 289.257 389.219 288.182 390.948 286.411Z" fill="#FFB8B8"/>
<path d="M314.641 428.255C315.711 428.257 316.746 427.876 317.56 427.183C318.375 426.49 318.916 425.528 319.085 424.472L341.933 298.574C341.983 298.252 342.136 297.955 342.368 297.728C342.601 297.501 342.902 297.355 343.225 297.314C343.548 297.273 343.875 297.337 344.158 297.498C344.441 297.659 344.664 297.908 344.793 298.206L395.694 415.974C396.147 417.006 396.968 417.832 397.996 418.291C399.025 418.749 400.188 418.808 401.258 418.455L419.138 412.448C419.721 412.252 420.258 411.938 420.715 411.527C421.172 411.116 421.54 410.615 421.796 410.056C422.052 409.497 422.191 408.891 422.204 408.276C422.217 407.661 422.104 407.05 421.871 406.481L397.262 346.199L376.718 255.244L376.573 255.134C376.177 254.833 336.654 225.333 309.646 248.93C284.931 270.523 289.531 393.915 290.704 418.431C290.746 419.4 291.102 420.329 291.719 421.077C292.336 421.826 293.179 422.353 294.122 422.579L313.549 428.122C313.906 428.21 314.273 428.255 314.641 428.255Z" fill="#2F2E41"/>
<path d="M353.371 148.559C339.806 148.559 328.81 137.562 328.81 123.998C328.81 110.433 339.806 99.4365 353.371 99.4365C366.935 99.4365 377.932 110.433 377.932 123.998C377.932 137.562 366.935 148.559 353.371 148.559Z" fill="#FFB8B8"/>
<path d="M305.614 275.411C306.648 274.366 307.44 273.107 307.935 271.723C308.43 270.338 308.615 268.862 308.477 267.399C308.34 265.935 307.883 264.519 307.139 263.251C306.395 261.983 305.383 260.894 304.172 260.06L313.686 225.614L296.021 231.341L289.695 263.173C288.428 265.299 287.986 267.817 288.451 270.248C288.916 272.679 290.257 274.854 292.219 276.363C294.181 277.871 296.629 278.608 299.098 278.432C301.566 278.257 303.885 277.182 305.614 275.411V275.411Z" fill="#FFB8B8"/>
<path d="M380.593 265.593C380.934 265.592 381.272 265.525 381.587 265.396C391.96 261.18 383.689 178.881 383.332 175.38L383.292 175.23C383.036 174.645 382.777 174.071 382.515 173.509C379.959 167.827 375.678 163.095 370.28 159.984C364.882 156.872 358.641 155.541 352.443 156.178C346.145 156.662 340.153 159.089 335.293 163.124C330.433 167.16 326.946 172.604 325.313 178.706L306.093 249.122C305.888 249.87 305.88 250.659 306.07 251.411C306.26 252.163 306.641 252.853 307.176 253.414C307.712 253.976 308.383 254.389 309.126 254.614C309.868 254.839 310.656 254.868 311.413 254.699C326.366 251.359 362.605 245.43 376.114 262.466C377.774 264.56 379.25 265.593 380.593 265.593Z" fill="#4848FE"/>
<path d="M306.119 258.832C306.612 258.832 307.101 258.75 307.568 258.592C308.143 258.399 308.673 258.092 309.125 257.687C309.578 257.283 309.943 256.791 310.199 256.24L326.925 220.582L343.2 173.733C343.897 171.718 344 169.546 343.495 167.475C342.991 165.404 341.901 163.523 340.356 162.054C339.079 160.844 337.533 159.955 335.845 159.461C334.156 158.967 332.374 158.882 330.647 159.213C328.919 159.544 327.295 160.281 325.908 161.365C324.522 162.448 323.414 163.845 322.675 165.442L301.019 212.232L284.121 242.755C283.83 243.28 283.647 243.859 283.583 244.456C283.519 245.054 283.576 245.658 283.749 246.233C283.923 246.808 284.21 247.343 284.593 247.805C284.976 248.268 285.449 248.649 285.982 248.926L304.049 258.322C304.688 258.656 305.398 258.831 306.119 258.832Z" fill="#4848FE"/>
<path d="M379.204 267.599C379.366 267.599 379.528 267.591 379.689 267.573L399.939 265.425C400.542 265.361 401.126 265.176 401.656 264.881C402.186 264.586 402.65 264.186 403.022 263.707C403.393 263.227 403.664 262.678 403.818 262.091C403.972 261.505 404.005 260.893 403.917 260.293L398.163 221.329L385.853 173.286C385.322 171.222 384.207 169.354 382.643 167.907C381.079 166.459 379.131 165.492 377.032 165.122C375.299 164.818 373.519 164.931 371.838 165.452C370.158 165.972 368.626 166.885 367.368 168.116C366.111 169.346 365.164 170.858 364.607 172.527C364.05 174.196 363.898 175.973 364.164 177.712L371.956 228.679L374.729 263.456C374.819 264.582 375.329 265.633 376.158 266.401C376.987 267.168 378.075 267.596 379.204 267.599V267.599Z" fill="#4848FE"/>
<path d="M349.491 110.79L329.08 109.304C328.391 104.686 329.271 99.9712 331.579 95.9128C333.887 91.8544 337.489 88.6873 341.809 86.9181C350.509 83.6132 361.308 87.2842 364.65 92.5491C369.051 92.1671 373.481 92.7939 377.604 94.3819C381.726 95.9698 385.432 98.4771 388.44 101.713C391.447 104.949 393.677 108.828 394.96 113.055C396.242 117.283 396.544 121.747 395.841 126.108C395.139 130.47 393.451 134.613 390.906 138.224C388.361 141.835 385.026 144.818 381.155 146.946C377.283 149.074 372.978 150.291 368.565 150.504C364.153 150.718 359.75 149.922 355.691 148.177C364.115 136.354 359.79 117.563 349.491 110.79Z" fill="#2F2E41"/>
<path d="M386.61 99.5166C392.944 93.7298 400.686 89.1041 409.204 88.0821C417.722 87.0601 427.029 90.1812 431.933 97.2206C436.836 104.26 435.982 115.202 429.084 120.303C426.251 122.397 424.103 125.284 422.909 128.598C421.716 131.912 421.531 135.506 422.378 138.925C423.225 142.344 425.065 145.436 427.668 147.811C430.27 150.185 433.517 151.735 437 152.265C449.665 154.194 459.202 167.244 458.253 180.02C457.305 192.796 446.836 203.935 434.35 206.801C421.863 209.668 408.201 204.738 399.487 195.348C390.772 185.957 386.869 172.625 387.862 159.853C388.855 147.08 394.463 134.912 402.524 124.955C404.713 122.251 403.069 117.963 400.256 115.916C397.443 113.869 393.862 113.297 390.569 112.173C387.277 111.049 383.88 108.931 383.12 105.536C382.361 102.142 386.21 98.1769 386.61 99.5166Z" fill="#2F2E41"/>
</svg>
