<svg width="365" height="322" viewBox="0 0 365 322" fill="none" xmlns="http://www.w3.org/2000/svg">
<path d="M364.794 242.744C364.794 274.87 345.679 286.088 322.101 286.088C298.522 286.088 279.408 274.87 279.408 242.744C279.408 210.617 322.101 169.746 322.101 169.746C322.101 169.746 364.794 210.617 364.794 242.744Z" fill="#FFB163"/>
<path d="M320.983 254.284L339.18 221.021L321.051 250.066L321.248 237.977L333.789 213.911L321.3 234.777L321.653 213.034L335.083 193.875L321.709 209.615L321.93 169.744L320.601 220.265L307.002 199.465L320.437 224.528L319.165 248.812L319.127 248.167L303.387 226.191L319.079 250.444L318.92 253.481L318.891 253.527L318.905 253.776L315.677 286.182H319.989L320.507 283.564L336.161 259.37L320.546 281.172L320.983 254.284Z" fill="#3F3D56"/>
<path d="M278.108 139.443C278.108 200.814 241.595 222.242 196.554 222.242C151.513 222.242 115 200.814 115 139.443C115 78.0729 196.554 0 196.554 0C196.554 0 278.108 78.0729 278.108 139.443Z" fill="#F2F2F2"/>
<path d="M193.583 212.854L194.418 161.493L229.179 97.9512L194.55 153.435L194.925 130.341L218.882 84.3697L195.025 124.23V124.23L195.7 82.6939L221.353 46.0948L195.806 76.1625L196.228 0L193.576 100.825L193.794 96.666L167.712 56.7752L193.376 104.65L190.946 151.039L190.873 149.808L160.806 107.829L190.783 154.157L190.479 159.959L190.424 160.046L190.449 160.522L184.283 278.214H192.521L193.509 217.424L223.413 171.209L193.583 212.854Z" fill="#3F3D56"/>
<path opacity="0.1" d="M252.531 312.847C311.565 312.847 359.422 309.148 359.422 304.585C359.422 300.023 311.565 296.324 252.531 296.324C193.496 296.324 145.64 300.023 145.64 304.585C145.64 309.148 193.496 312.847 252.531 312.847Z" fill="black"/>
<path d="M167.851 139.041C167.851 139.041 199.145 139.62 193.35 145.121C187.555 150.622 165.823 145.121 165.823 145.121L167.851 139.041Z" fill="#A0616A"/>
<path d="M102.651 72.2258C102.651 72.2258 115.286 69.9713 119.679 80.1628C124.072 90.3542 133.094 119.42 133.094 119.42C133.094 119.42 157.238 135.389 161.63 134.864C166.022 134.339 173.529 135.41 172.152 140.197C170.775 144.984 171.386 150.413 168.216 151.078C165.046 151.743 160.003 145.393 156.144 148.452C152.285 151.511 117.894 140.338 115.686 138.023C113.478 135.708 95.1299 85.579 95.1299 85.579C95.1299 85.579 95.8638 72.0624 102.651 72.2258Z" fill="#FFB163"/>
<path d="M129.749 287.42L131.198 299.58L119.028 302.765L112.074 299.58V288.867L129.749 287.42Z" fill="#A0616A"/>
<path d="M97.0069 295.236L98.4556 307.396L86.2862 310.581L79.332 307.396V296.684L97.0069 295.236Z" fill="#A0616A"/>
<path d="M130.908 154.53L136.413 174.507L144.526 215.04C144.526 215.04 146.844 224.884 142.208 236.754C137.572 248.624 129.169 287.42 130.908 289.736C132.646 292.052 111.205 293.789 111.494 291.473C111.784 289.157 114.682 257.31 114.682 257.31C114.682 257.31 118.738 229.226 120.766 225.752C122.795 222.278 111.494 213.592 111.494 213.592C111.494 213.592 108.597 246.887 104.251 249.782C99.9042 252.678 100.484 297.553 98.4555 298.132C96.4272 298.711 81.6498 301.027 79.9113 298.132C78.1728 295.237 79.9113 246.887 79.9113 246.887C79.9113 246.887 89.7629 210.118 87.7346 204.907C85.7064 199.695 86.8654 177.402 86.8654 177.402C86.8654 177.402 79.3318 160.321 83.3884 151.346L130.908 154.53Z" fill="#2F2E41"/>
<path d="M130.039 43.3544C130.039 43.3544 117.869 58.4094 118.449 65.0684C119.028 71.7273 99.3252 52.9085 99.3252 52.9085C99.3252 52.9085 113.523 33.8003 113.523 29.747C113.523 25.6937 130.039 43.3544 130.039 43.3544Z" fill="#A0616A"/>
<path d="M129.894 48.9998C140.456 48.9998 149.018 40.4447 149.018 29.8915C149.018 19.3383 140.456 10.7832 129.894 10.7832C119.332 10.7832 110.771 19.3383 110.771 29.8915C110.771 40.4447 119.332 48.9998 129.894 48.9998Z" fill="#A0616A"/>
<path d="M81.6995 143.699C80.8331 146.924 79.7581 150.581 79.9117 153.662C80.0102 155.656 85.3098 156.965 92.6376 157.822C99.4323 158.618 107.971 159.023 115.734 159.232C123.884 159.452 131.172 159.452 134.675 159.452C145.106 159.452 136.703 152.793 132.647 149.608C128.59 146.424 129.459 101.259 129.749 95.4681C130.039 89.6777 127.141 72.8856 127.141 69.7009C127.141 66.5161 120.323 58.204 120.323 58.204C120.323 58.204 118.738 62.7524 112.364 56.6725C105.989 50.5926 97.5866 48.8555 97.5866 48.8555C91.212 51.1716 80.4912 76.6494 79.9117 80.9921C79.677 82.7553 79.8711 91.7854 80.2652 102.095C80.836 117.165 81.8328 134.979 82.5195 136.869C83.0613 138.36 82.4615 140.862 81.6995 143.699Z" fill="#FFB163"/>
<path d="M112.654 160.609L114.682 167.847L106.859 175.954L104.251 164.662L112.654 160.609Z" fill="#A0616A"/>
<path d="M115.261 296.395C115.261 296.395 121.346 303.343 125.982 298.711C130.618 294.079 130.328 291.184 131.198 291.184C132.067 291.184 145.106 302.764 145.106 302.764C145.106 302.764 167.417 307.976 155.247 311.74C143.078 315.503 108.597 312.898 108.597 311.74C108.597 310.581 107.728 295.237 110.915 295.237L115.261 296.395Z" fill="#2F2E41"/>
<path d="M82.5196 304.211C82.5196 304.211 88.6044 311.16 93.2405 306.528C97.8765 301.895 97.5868 299 98.456 299C99.3253 299 112.364 310.581 112.364 310.581C112.364 310.581 134.675 315.792 122.505 319.556C110.336 323.32 75.8554 320.714 75.8554 319.556C75.8554 318.398 74.9861 303.053 78.1734 303.053L82.5196 304.211Z" fill="#2F2E41"/>
<path d="M108.424 45.1448C107.806 45.5436 107.002 45.9477 106.383 45.5502C104.083 39.8192 102.364 33.8723 101.252 27.7986C100.861 25.6653 100.59 23.2936 101.776 21.4773C102.244 20.7609 102.918 20.1751 103.26 19.3913C103.779 18.2042 103.438 16.8302 103.61 15.5463C103.971 12.8566 106.516 10.9805 109.075 10.0707C111.634 9.16086 114.413 8.87862 116.852 7.68474C119.168 6.55111 121.023 4.67104 123.17 3.24435C125.318 1.81766 128.069 0.842179 130.46 1.80624C132.576 2.65909 133.894 4.81392 135.894 5.91109C137.251 6.65564 138.825 6.86282 140.34 7.18242C144.55 8.07495 148.503 9.90991 151.901 12.5492C152.728 13.1385 153.441 13.8728 154.005 14.7164C156.571 18.9381 151.977 24.6777 154.004 29.1827L149.621 25.7274C148.451 24.7045 147.131 23.8663 145.707 23.2419C144.256 22.6925 142.536 22.6261 141.218 23.4445C139.367 24.593 138.865 26.9925 138.219 29.0712C137.573 31.1499 136.143 33.4549 133.965 33.4017C131.004 33.3293 129.968 29.1993 127.31 27.8917C125.577 27.0393 123.396 27.6007 121.919 28.8438C120.442 30.0869 119.556 31.8906 118.906 33.7076C118.499 34.8431 118.118 36.1231 117.397 37.1074C116.601 38.193 115.583 38.2803 114.733 39.091C112.521 41.2012 111.161 43.3781 108.424 45.1448Z" fill="#2F2E41"/>
<path opacity="0.1" d="M81.6994 143.699C85.301 148.919 89.3605 154.304 92.6375 157.822C99.4322 158.618 107.971 159.023 115.734 159.232C114.347 157.353 112.613 155.757 110.625 154.53C106.859 152.214 97.8763 124.709 97.8763 124.709C97.8763 124.709 108.887 96.3363 111.784 85.6241C114.682 74.9119 103.382 68.8319 103.382 68.8319C98.166 64.4891 89.1837 74.6223 89.1837 74.6223C89.1837 74.6223 84.5998 88.4382 80.2651 102.095C80.8359 117.164 81.8327 134.978 82.5194 136.869C83.0612 138.36 82.4615 140.862 81.6994 143.699Z" fill="black"/>
<path d="M102.512 66.5155C102.512 66.5155 113.813 72.5954 110.915 83.3077C108.018 94.0199 97.0071 122.393 97.0071 122.393C97.0071 122.393 105.989 149.897 109.756 152.213C113.523 154.53 118.738 160.03 114.682 162.926C110.625 165.821 107.728 170.453 104.83 169.006C101.933 167.558 101.933 159.451 97.0071 159.451C92.0813 159.451 72.0884 129.341 71.7986 126.157C71.5089 122.972 88.3145 72.3059 88.3145 72.3059C88.3145 72.3059 97.2968 62.1727 102.512 66.5155Z" fill="#FFB163"/>
<path d="M337.489 145.65L334.23 142.393C332.328 140.493 329.749 139.426 327.061 139.426C324.372 139.426 321.793 140.493 319.892 142.393L256.665 205.569L193.438 142.393C191.537 140.493 188.958 139.426 186.269 139.426C183.58 139.426 181.002 140.493 179.1 142.393L175.841 145.65C174.899 146.591 174.152 147.707 173.643 148.936C173.133 150.165 172.871 151.483 172.871 152.813C172.871 154.143 173.133 155.461 173.643 156.69C174.152 157.919 174.899 159.036 175.841 159.976L239.067 223.152L175.841 286.328C174.899 287.269 174.152 288.386 173.643 289.615C173.133 290.844 172.871 292.161 172.871 293.492C172.871 294.822 173.133 296.139 173.643 297.368C174.152 298.597 174.899 299.714 175.841 300.655L179.1 303.912C181.002 305.812 183.58 306.879 186.269 306.879C188.958 306.879 191.537 305.812 193.438 303.912L256.665 240.736L319.892 303.912C321.793 305.812 324.372 306.879 327.061 306.879C329.749 306.879 332.328 305.812 334.23 303.912L337.489 300.655C339.391 298.755 340.459 296.178 340.459 293.492C340.459 290.805 339.391 288.228 337.489 286.328L274.262 223.152L337.489 159.976C339.391 158.076 340.459 155.5 340.459 152.813C340.459 150.126 339.391 147.55 337.489 145.65Z" fill="#FF6584"/>
<path opacity="0.1" d="M173.584 289.763L234.933 228.463L234.343 227.873L175.84 286.328C174.86 287.307 174.092 288.476 173.584 289.763Z" fill="black"/>
<path opacity="0.1" d="M174.966 147.704C176.867 145.804 179.446 144.737 182.135 144.737C184.824 144.737 187.403 145.804 189.304 147.704L252.531 210.88L315.758 147.704C317.659 145.804 320.238 144.737 322.927 144.737C325.615 144.737 328.194 145.804 330.095 147.704L333.355 150.961C334.754 152.358 335.712 154.134 336.113 156.069C336.514 158.005 336.34 160.015 335.611 161.852L337.489 159.976C338.43 159.036 339.177 157.919 339.687 156.69C340.196 155.461 340.458 154.143 340.458 152.813C340.458 151.483 340.196 150.165 339.687 148.936C339.177 147.707 338.43 146.591 337.489 145.65L334.229 142.393C332.328 140.493 329.749 139.426 327.06 139.426C324.372 139.426 321.793 140.493 319.892 142.393L256.665 205.569L193.438 142.393C191.537 140.493 188.958 139.426 186.269 139.426C183.58 139.426 181.001 140.493 179.1 142.393L175.84 145.65C174.86 146.628 174.092 147.797 173.584 149.085L174.966 147.704Z" fill="black"/>
<path opacity="0.1" d="M274.852 223.742L270.128 228.463L333.355 291.639C334.753 293.037 335.712 294.812 336.113 296.748C336.514 298.683 336.339 300.693 335.611 302.531L337.489 300.654C338.43 299.714 339.177 298.597 339.686 297.368C340.196 296.139 340.458 294.822 340.458 293.491C340.458 292.161 340.196 290.844 339.686 289.615C339.177 288.386 338.43 287.269 337.489 286.328L274.852 223.742Z" fill="black"/>
<path d="M71.6218 265.865C71.6218 292.548 55.7466 301.865 36.1637 301.865C16.5807 301.865 0.705566 292.548 0.705566 265.865C0.705566 239.183 36.1637 205.238 36.1637 205.238C36.1637 205.238 71.6218 239.183 71.6218 265.865Z" fill="#FFB163"/>
<path d="M35.2352 275.452L50.3486 247.825L35.2922 271.949L35.4556 261.908L45.8714 241.92L35.4988 259.251L35.7924 241.192L46.9458 225.279L35.8385 238.352L36.0218 205.238L34.9184 247.197L23.6239 229.923L34.7816 250.738L33.7253 270.907L33.6939 270.372L20.6211 252.12L33.654 272.263L33.522 274.785L33.4982 274.823L33.5092 275.03L30.8284 301.944H34.4102L34.8401 299.77L47.8412 279.677L34.8724 297.783L35.2352 275.452Z" fill="#3F3D56"/>
</svg>
