<svg width="394" height="385" viewBox="0 0 394 385" fill="none" xmlns="http://www.w3.org/2000/svg">
<path d="M223.361 296.333C317.603 296.333 394 229.997 394 148.167C394 66.3364 317.603 0 223.361 0C129.12 0 52.7227 66.3364 52.7227 148.167C52.7227 229.997 129.12 296.333 223.361 296.333Z" fill="#F2F2F2"/>
<path d="M334.872 66.26H22.2857C21.6154 66.2476 21.0836 65.7657 21.0979 65.1837C21.1118 64.6192 21.6356 64.1644 22.2857 64.1523H334.872C335.543 64.1648 336.074 64.6467 336.06 65.2287C336.046 65.7932 335.523 66.248 334.872 66.26Z" fill="#CACACA"/>
<path d="M228.343 101.775H141.932C135.441 101.775 130.18 106.344 130.18 111.98V111.98C130.18 117.615 135.441 122.184 141.932 122.184H228.343C234.833 122.184 240.095 117.615 240.095 111.98C240.095 106.344 234.833 101.775 228.343 101.775Z" fill="white"/>
<path d="M86.1075 142.594H284.163C290.653 142.594 295.915 147.162 295.915 152.798C295.915 158.434 290.653 163.002 284.163 163.002H86.1075C79.617 163.002 74.3555 158.434 74.3555 152.798C74.3555 147.162 79.617 142.594 86.1075 142.594Z" fill="white"/>
<path d="M86.1075 183.41H284.163C290.653 183.41 295.915 187.979 295.915 193.615C295.915 199.25 290.653 203.819 284.163 203.819H86.1075C79.617 203.819 74.3555 199.25 74.3555 193.615C74.3555 187.979 79.617 183.41 86.1075 183.41Z" fill="white"/>
<path d="M61.5651 383.693L61.099 383.654C45.2842 382.237 30.9877 374.852 22.0076 363.46C19.5479 360.285 17.5583 356.855 16.0857 353.249L15.9441 352.905L16.3632 352.876C21.3661 352.526 26.5056 351.789 28.7888 351.438L14.0663 347.107L13.9753 346.727C13.1025 343.167 14.8125 339.503 18.294 337.475C21.785 335.349 26.4143 335.281 29.9862 337.303C31.5891 338.192 33.2657 339.072 34.8869 339.924C40.4583 342.85 46.2195 345.876 50.5388 350.017C57.0886 356.42 59.9596 365.049 58.352 373.499L61.5651 383.693Z" fill="#F2F2F2"/>
<path d="M115.08 377.335L122.336 377.334L125.788 353.031L115.078 353.032L115.08 377.335Z" fill="#A0616A"/>
<path d="M114.825 383.907L137.138 383.907V383.662C137.138 379.497 133.25 376.121 128.453 376.121H128.453L124.377 373.436L116.772 376.121L114.824 376.121L114.825 383.907Z" fill="#2F2E41"/>
<path d="M56.9297 359.884L62.7334 363.664L82.2917 346.024L73.7248 340.443L56.9297 359.884Z" fill="#A0616A"/>
<path d="M52.1836 365.008L70.0328 376.635L70.2022 376.439C73.0804 373.107 72.3036 368.381 68.467 365.881L68.4666 365.881L67.062 361.609L59.123 359.794L57.5649 358.779L52.1836 365.008H52.1836Z" fill="#2F2E41"/>
<path d="M81.0507 263.289C81.0507 263.289 81.4513 272.776 81.9565 280.385C82.0394 281.633 78.6726 282.988 78.7598 284.346C78.8176 285.246 79.4504 286.122 79.5092 287.061C79.5713 288.052 78.6975 288.929 78.7598 289.954C78.8206 290.956 79.8173 292.104 79.8775 293.129C80.5245 304.159 82.8701 317.364 80.5213 321.056C79.3638 322.875 64.6094 348.078 64.6094 348.078C64.6094 348.078 72.83 358.785 75.1788 355.216C78.281 350.502 102.19 328.449 102.19 324.237C102.19 320.031 107.721 288.506 107.721 288.506L111.578 307.162L113.346 310.859L112.79 313.029L113.933 315.957L113.995 318.855L115.108 324.237C115.108 324.237 111.761 366.168 113.646 367.336C115.536 368.508 124.691 370.614 125.771 368.508C126.846 366.403 133.84 324.747 133.84 324.747C133.84 324.747 134.967 305.658 136.189 287.915C136.259 286.885 137.093 285.641 137.158 284.626C137.234 283.448 136.706 281.919 136.776 280.777C136.852 279.466 137.522 278.544 137.586 277.289C138.085 267.597 135.284 255.794 134.391 254.632C131.696 251.124 129.271 248.319 129.271 248.319C129.271 248.319 92.9693 237.963 83.2689 248.486L81.0507 263.289L81.0507 263.289Z" fill="#2F2E41"/>
<path d="M117.254 165.728L102.863 163.229L96.1474 171.142C83.6165 181.841 83.4277 191.283 85.6647 206.419V227.661L84.0456 241.901C84.0456 241.901 78.3141 252.311 84.2256 254.735C90.1371 257.158 128.967 256.952 132.674 255.984C136.382 255.017 133.168 253.829 132.195 249.32C130.366 240.85 131.589 244.936 131.715 242.239C133.519 203.556 129.316 187.675 128.89 183.501L121.571 171.975L117.254 165.728Z" fill="#3F3D56"/>
<path d="M193.105 196.917C191.606 199.384 188.086 200.329 185.244 199.027C184.941 198.888 184.653 198.726 184.383 198.543L153.305 215.677L153.394 206.348L183.584 191.136C185.735 189.042 189.432 188.859 191.843 190.726C193.861 192.289 194.383 194.848 193.105 196.917Z" fill="#A0616A"/>
<path d="M105.894 176.531L102.356 176.206C99.0864 175.911 95.8788 177.127 93.9047 179.409C93.1486 180.274 92.6055 181.265 92.3092 182.32L92.3071 182.329C91.4196 185.505 92.8116 188.834 95.8395 190.776L108.06 198.599C116.636 208.661 132.753 215.337 151.659 220.76L181.046 204.913L170.651 193.982L150.495 203.362L120.534 183.223L120.516 183.211L109.113 176.832L105.894 176.531L105.894 176.531Z" fill="#3F3D56"/>
<path d="M112.395 159.59C121.663 159.59 129.176 153.066 129.176 145.019C129.176 136.971 121.663 130.447 112.395 130.447C103.127 130.447 95.6133 136.971 95.6133 145.019C95.6133 153.066 103.127 159.59 112.395 159.59Z" fill="#A0616A"/>
<path d="M112.783 159.594C112.647 159.598 112.512 159.6 112.376 159.603C112.318 159.734 112.256 159.863 112.184 159.99L112.783 159.594V159.594Z" fill="#2F2E41"/>
<path d="M117.387 145.424C117.413 145.567 117.453 145.709 117.507 145.846C117.485 145.702 117.445 145.56 117.387 145.424Z" fill="#2F2E41"/>
<path d="M129.389 131.071C128.698 132.934 128.081 130.571 125.809 130.996C123.076 131.507 119.895 131.332 117.656 129.877C114.321 127.752 109.998 127.18 106.085 128.346C102.255 129.522 95.8379 130.352 94.8399 133.772C94.493 134.96 94.3552 136.25 93.5143 137.236C92.7791 138.097 91.6187 138.588 90.6483 139.251C87.3717 141.489 89.876 147.849 91.4268 151.21C92.9776 154.57 96.5349 157.018 100.446 158.272C104.23 159.485 108.337 159.699 112.374 159.604C113.076 158.023 112.773 156.196 112.194 154.557C111.566 152.783 110.638 151.07 110.376 149.228C110.114 147.386 110.689 145.293 112.468 144.264C114.103 143.318 116.764 143.894 117.386 145.424C117.023 143.511 119.254 141.661 121.555 141.335C124.025 140.986 126.494 141.76 128.957 142.145C131.42 142.531 130.546 133.528 129.389 131.071Z" fill="#2F2E41"/>
<path d="M223.245 169.125C224.809 152.712 210.754 138.305 191.852 136.947C172.95 135.588 156.358 147.792 154.794 164.205C153.229 180.618 167.284 195.025 186.187 196.383C205.089 197.742 221.681 185.538 223.245 169.125Z" fill="#6C63FF"/>
<path d="M198.039 154.24L189.018 162.073L179.997 154.24C178.537 152.972 176.169 152.972 174.709 154.24C173.248 155.508 173.248 157.564 174.709 158.832L183.73 166.665L174.709 174.498C173.25 175.767 173.252 177.823 174.713 179.09C176.173 180.355 178.537 180.355 179.997 179.09L189.018 171.257L198.039 179.09C199.501 180.357 201.869 180.355 203.328 179.086C204.785 177.818 204.785 175.766 203.328 174.498L194.306 166.665L203.328 158.832C204.788 157.564 204.788 155.508 203.328 154.24C201.867 152.972 199.5 152.972 198.039 154.24Z" fill="white"/>
<path d="M175.486 141.6C176.498 144.248 174.847 147.107 171.797 147.987C171.472 148.08 171.138 148.149 170.799 148.192L163.523 179.526L155.832 173.012L164.09 143.564C163.839 140.767 166.247 138.323 169.468 138.105C172.163 137.923 174.651 139.368 175.486 141.6Z" fill="#A0616A"/>
<path d="M98.168 182.131L95.4479 184.122C92.9399 185.967 91.7296 188.818 92.2592 191.635C92.4549 192.708 92.9026 193.734 93.5745 194.651L93.5801 194.658C95.6054 197.413 99.3356 198.845 103.046 198.293L118.007 196.052C132.306 197.644 149.012 192.167 166.608 184.076L173.782 154.691L157.503 153.637L151.343 172.76L113.865 177.591L113.843 177.593L100.646 180.322L98.168 182.131L98.168 182.131Z" fill="#3F3D56"/>
<path d="M183.361 384.411L0.797324 384.59C0.355551 384.589 -0.00142666 384.277 4.28697e-06 383.893C0.0014218 383.511 0.35756 383.202 0.797324 383.201L183.361 383.021C183.802 383.023 184.159 383.335 184.158 383.718C184.157 384.1 183.8 384.409 183.361 384.411Z" fill="#CACACA"/>
<path d="M38.1421 52.9101C41.2798 52.9101 43.8233 50.6523 43.8233 47.8672C43.8233 45.082 41.2798 42.8242 38.1421 42.8242C35.0045 42.8242 32.4609 45.082 32.4609 47.8672C32.4609 50.6523 35.0045 52.9101 38.1421 52.9101Z" fill="#3F3D56"/>
<path d="M57.7671 52.9101C60.9048 52.9101 63.4483 50.6523 63.4483 47.8672C63.4483 45.082 60.9048 42.8242 57.7671 42.8242C54.6295 42.8242 52.0859 45.082 52.0859 47.8672C52.0859 50.6523 54.6295 52.9101 57.7671 52.9101Z" fill="#3F3D56"/>
<path d="M77.396 52.9101C80.5337 52.9101 83.0772 50.6523 83.0772 47.8672C83.0772 45.082 80.5337 42.8242 77.396 42.8242C74.2584 42.8242 71.7148 45.082 71.7148 47.8672C71.7148 50.6523 74.2584 52.9101 77.396 52.9101Z" fill="#3F3D56"/>
<path d="M99.7748 51.8521C99.6003 51.8521 99.4261 51.7934 99.2945 51.6767L95.4612 48.2741C95.2056 48.0474 95.2056 47.6851 95.4612 47.4583L99.2945 44.056C99.5547 43.8259 99.9805 43.8222 100.245 44.0469C100.51 44.2722 100.514 44.6416 100.255 44.8718L96.8812 47.8662L100.255 50.8609C100.514 51.0911 100.51 51.4605 100.245 51.6858C100.114 51.7969 99.9444 51.8521 99.7748 51.8521Z" fill="#3F3D56"/>
<path d="M106.215 51.8525C106.045 51.8525 105.876 51.7973 105.745 51.6862C105.48 51.4609 105.475 51.0918 105.735 50.8613L109.108 47.8666L105.735 44.8722C105.475 44.6421 105.48 44.2726 105.745 44.0473C106.01 43.8218 106.436 43.826 106.695 44.0565L110.528 47.4588C110.784 47.6855 110.784 48.0478 110.528 48.2745L106.695 51.6771C106.564 51.7939 106.389 51.8525 106.215 51.8525Z" fill="#3F3D56"/>
<path d="M306.755 43.4082H299.628C298.815 43.4082 298.156 43.9799 298.156 44.6857V50.8807C298.156 51.5865 298.815 52.1582 299.628 52.1582H306.755C307.568 52.1582 308.233 51.5865 308.233 50.8807V44.6857C308.233 43.9799 307.568 43.4082 306.755 43.4082Z" fill="#3F3D56"/>
<path d="M289.287 43.4082H282.159C281.346 43.4082 280.688 43.9799 280.688 44.6857V50.8807C280.688 51.5865 281.346 52.1582 282.159 52.1582H289.287C290.1 52.1582 290.765 51.5865 290.765 50.8807V44.6857C290.765 43.9799 290.1 43.4082 289.287 43.4082Z" fill="#3F3D56"/>
<path d="M323.216 43.6992H316.088C315.276 43.6992 314.617 44.2709 314.617 44.9767V51.1717C314.617 51.8776 315.276 52.4492 316.088 52.4492H323.216C324.029 52.4492 324.694 51.8776 324.694 51.1717V44.9767C324.694 44.2709 324.029 43.6992 323.216 43.6992Z" fill="#3F3D56"/>
<path d="M215.777 46.0566H158.802C157.807 46.0566 157.008 46.7566 157.008 47.6142C157.008 48.4717 157.807 49.1716 158.802 49.1716H215.777C216.765 49.1716 217.571 48.4716 217.571 47.6142C217.571 46.7567 216.765 46.0566 215.777 46.0566Z" fill="#3F3D56"/>
</svg>
