<svg width="394" height="385" viewBox="0 0 394 385" fill="none" xmlns="http://www.w3.org/2000/svg">
<path d="M78.5019 384.591C121.857 384.591 157.004 380.846 157.004 376.226C157.004 371.606 121.857 367.861 78.5019 367.861C35.1465 367.861 0 371.606 0 376.226C0 380.846 35.1465 384.591 78.5019 384.591Z" fill="#E6E6E6"/>
<path d="M60.0039 85.334C73.6656 77.1817 90.6815 82.3469 107.299 85.9318C107.454 81.5905 109.328 76.3069 107.365 73.2782C104.979 69.5986 105.199 65.7323 106.634 61.8438C110.305 51.9002 105.046 41.3197 99.7361 32.5222C98.5393 30.5437 97.0267 28.9892 95.3212 27.9849C93.6157 26.9807 91.7655 26.5549 89.9207 26.7423L80.0843 27.728C77.6908 27.9679 75.4065 29.2276 73.5372 31.3386C71.6679 33.4496 70.3027 36.3112 69.6242 39.5405C67.2755 44.022 66.0184 48.4911 66.8099 52.937C63.2919 56.3099 62.7008 60.3814 64.2817 64.9713C65.6222 67.8613 65.6079 70.6744 64.2207 73.4096C62.3989 76.8969 61.0035 80.7853 60.0918 84.9154L60.0039 85.334Z" fill="#2F2E41"/>
<path d="M384.665 332.471H106.223C103.747 332.471 101.372 331.091 99.6213 328.635C97.8704 326.178 96.8867 322.846 96.8867 319.373C197.822 302.915 296.86 302.915 394.001 319.373C394.001 322.846 393.018 326.178 391.267 328.635C389.516 331.091 387.141 332.471 384.665 332.471Z" fill="#2F2E41"/>
<path d="M394.001 320.144L96.8867 319.373L131.321 238.085L131.486 237.7V58.5503C131.486 56.3758 131.791 54.2226 132.384 52.2136C132.977 50.2046 133.847 48.3791 134.943 46.8415C136.038 45.3039 137.34 44.0843 138.772 43.2522C140.204 42.4202 141.738 41.992 143.288 41.9922H345.952C347.502 41.992 349.037 42.4202 350.469 43.2522C351.901 44.0843 353.202 45.3039 354.298 46.8415C355.394 48.3791 356.263 50.2046 356.856 52.2136C357.449 54.2226 357.755 56.3758 357.755 58.5503V238.933L394.001 320.144Z" fill="#3F3D56"/>
<path d="M143.016 53.5508C141.997 53.5524 141.02 54.1211 140.299 55.1323C139.578 56.1434 139.173 57.5143 139.172 58.9443V222.291C139.173 223.721 139.578 225.092 140.299 226.103C141.02 227.114 141.997 227.683 143.016 227.684H347.866C348.885 227.683 349.863 227.114 350.583 226.103C351.304 225.092 351.709 223.721 351.711 222.291V58.9443C351.709 57.5144 351.304 56.1435 350.583 55.1324C349.863 54.1212 348.885 53.5524 347.866 53.5508H143.016Z" fill="white"/>
<path d="M143.875 249.258C143.56 249.259 143.252 249.386 142.987 249.624C142.722 249.862 142.511 250.202 142.378 250.603L131.768 282.964C131.653 283.316 131.602 283.704 131.621 284.09C131.64 284.477 131.728 284.851 131.877 285.177C132.026 285.504 132.232 285.772 132.474 285.958C132.716 286.144 132.988 286.242 133.265 286.242H356.395C356.676 286.242 356.952 286.141 357.197 285.949C357.442 285.757 357.649 285.481 357.796 285.146C357.944 284.81 358.028 284.428 358.041 284.034C358.053 283.641 357.994 283.249 357.868 282.897L346.335 250.535C346.199 250.151 345.989 249.827 345.729 249.601C345.468 249.376 345.168 249.257 344.862 249.258H143.875Z" fill="#2F2E41"/>
<path d="M244.62 50.8525C245.985 50.8525 247.091 49.3001 247.091 47.3852C247.091 45.4703 245.985 43.918 244.62 43.918C243.255 43.918 242.148 45.4703 242.148 47.3852C242.148 49.3001 243.255 50.8525 244.62 50.8525Z" fill="white"/>
<path d="M222.688 292.406C222.326 292.407 221.974 292.575 221.686 292.884C221.399 293.193 221.192 293.626 221.097 294.117L218.436 307.986C218.37 308.328 218.361 308.687 218.41 309.035C218.459 309.384 218.565 309.711 218.719 309.993C218.872 310.274 219.07 310.503 219.297 310.66C219.524 310.817 219.773 310.898 220.026 310.898H270.642C270.905 310.898 271.164 310.81 271.397 310.641C271.631 310.472 271.832 310.228 271.984 309.927C272.136 309.627 272.235 309.28 272.273 308.916C272.31 308.551 272.285 308.179 272.199 307.831L268.777 293.962C268.665 293.507 268.454 293.114 268.175 292.835C267.896 292.556 267.562 292.406 267.22 292.406H222.688Z" fill="#2F2E41"/>
<path d="M357.754 235.004V238.086H131.32L131.491 237.701V235.004H357.754Z" fill="#2F2E41"/>
<path d="M351.436 107.87C372.668 107.87 389.88 83.7228 389.88 53.9352C389.88 24.1476 372.668 0 351.436 0C330.204 0 312.992 24.1476 312.992 53.9352C312.992 83.7228 330.204 107.87 351.436 107.87Z" fill="#6C63FF"/>
<path d="M367.363 77.4363H335.509C334.927 77.4355 334.368 77.1105 333.957 76.5327C333.545 75.9549 333.313 75.1715 333.312 74.3543V47.3867C333.313 46.5696 333.545 45.7861 333.957 45.2083C334.368 44.6305 334.927 44.3056 335.509 44.3047H367.363C367.945 44.3056 368.503 44.6305 368.915 45.2083C369.327 45.7861 369.559 46.5696 369.559 47.3867V74.3543C369.559 75.1714 369.327 75.9549 368.915 76.5327C368.503 77.1105 367.945 77.4355 367.363 77.4363ZM335.509 47.3867V74.3543H367.364L367.363 47.3867L335.509 47.3867Z" fill="white"/>
<path d="M361.322 47.3865H341.551V35.0585C341.551 26.1293 345.708 19.6484 351.436 19.6484C357.164 19.6484 361.322 26.1293 361.322 35.0585L361.322 47.3865ZM343.748 44.3045H359.125V35.0585C359.125 27.8 355.963 22.7305 351.436 22.7305C346.909 22.7305 343.748 27.8 343.748 35.0585L343.748 44.3045Z" fill="white"/>
<path d="M351.439 63.1816C352.652 63.1816 353.636 61.8017 353.636 60.0996C353.636 58.3974 352.652 57.0176 351.439 57.0176C350.226 57.0176 349.242 58.3974 349.242 60.0996C349.242 61.8017 350.226 63.1816 351.439 63.1816Z" fill="white"/>
<path d="M324.599 172.278H166.283C165.506 172.276 164.761 171.843 164.211 171.072C163.662 170.3 163.352 169.255 163.352 168.165V113.068C163.352 111.978 163.662 110.932 164.211 110.161C164.761 109.39 165.506 108.956 166.283 108.955H324.599C325.376 108.956 326.121 109.39 326.671 110.161C327.22 110.932 327.53 111.978 327.53 113.068V168.165C327.53 169.255 327.22 170.3 326.671 171.072C326.121 171.843 325.376 172.276 324.599 172.278ZM166.283 110.6C165.817 110.601 165.37 110.861 165.04 111.324C164.71 111.787 164.525 112.414 164.524 113.068V168.165C164.525 168.819 164.71 169.446 165.04 169.909C165.37 170.372 165.817 170.632 166.283 170.632H324.599C325.065 170.632 325.512 170.372 325.842 169.909C326.172 169.446 326.357 168.819 326.358 168.165V113.068C326.357 112.414 326.172 111.787 325.842 111.324C325.512 110.861 325.065 110.601 324.599 110.6L166.283 110.6Z" fill="#E6E6E6"/>
<path d="M190.884 155.258C197.479 155.258 202.826 147.756 202.826 138.503C202.826 129.249 197.479 121.748 190.884 121.748C184.288 121.748 178.941 129.249 178.941 138.503C178.941 147.756 184.288 155.258 190.884 155.258Z" fill="#E6E6E6"/>
<path d="M218.466 127.332C218.205 127.331 217.945 127.403 217.704 127.543C217.462 127.683 217.242 127.889 217.057 128.148C216.872 128.408 216.725 128.716 216.624 129.055C216.524 129.394 216.473 129.757 216.473 130.125C216.473 130.492 216.524 130.855 216.624 131.194C216.725 131.533 216.872 131.841 217.057 132.101C217.242 132.36 217.462 132.566 217.704 132.706C217.945 132.846 218.205 132.918 218.466 132.917H312.3C312.828 132.917 313.334 132.623 313.707 132.099C314.08 131.575 314.29 130.865 314.29 130.125C314.29 129.384 314.08 128.674 313.707 128.15C313.334 127.626 312.828 127.332 312.3 127.332H218.466Z" fill="#E6E6E6"/>
<path d="M218.467 144.088C217.939 144.088 217.433 144.382 217.06 144.906C216.686 145.429 216.477 146.14 216.477 146.88C216.477 147.621 216.686 148.331 217.06 148.855C217.433 149.379 217.939 149.673 218.467 149.673H258.844C259.372 149.673 259.878 149.379 260.251 148.855C260.624 148.331 260.834 147.621 260.834 146.88C260.834 146.14 260.624 145.429 260.251 144.906C259.878 144.382 259.372 144.088 258.844 144.088H218.467Z" fill="#E6E6E6"/>
<path d="M130.929 145.218L101.663 167.046L101.293 148.856C110.845 146.619 119.933 142.723 128.336 136.382L131.397 125.773C131.73 124.617 132.272 123.602 132.97 122.829C133.667 122.056 134.496 121.55 135.375 121.362C136.254 121.173 137.152 121.309 137.982 121.755C138.812 122.201 139.546 122.943 140.11 123.906C140.935 125.316 141.348 127.114 141.264 128.935C141.18 130.756 140.606 132.464 139.658 133.713L130.929 145.218Z" fill="#FFB8B8"/>
<path d="M59.4213 271.249C59.2078 270.15 59.1625 269 59.2883 267.876C59.4141 266.751 59.7082 265.676 60.1513 264.722L66.5802 250.88C68.1007 247.606 70.4339 245.241 73.1271 244.244C75.8202 243.247 78.6813 243.69 81.1552 245.485C78.4533 251.937 78.83 257.598 82.0883 262.517C77.0301 265.981 72.3552 270.452 68.2083 275.792C67.4513 276.516 66.5819 276.976 65.6725 277.133C64.7632 277.291 63.8402 277.141 62.9805 276.696C62.1208 276.252 61.3493 275.525 60.7302 274.578C60.1111 273.63 59.6623 272.489 59.4213 271.249Z" fill="#2F2E41"/>
<path d="M132.262 253.151C131.289 255.426 129.915 257.311 128.274 258.627C126.632 259.943 124.776 260.644 122.886 260.665L80.1765 261.118L78.3242 246.046L97.2173 238.25L81.2878 221.099L98.6991 192.514L130.323 233.866C132.172 236.283 133.373 239.517 133.726 243.027C134.078 246.537 133.562 250.111 132.262 253.151Z" fill="#2F2E41"/>
<path d="M73.5115 356.228H63.5093C54.5287 269.864 45.3873 183.259 72.4002 150.934L104.259 158.21L100.184 196.15L82.4024 224.736L73.5115 356.228Z" fill="#2F2E41"/>
<path d="M82.3019 375.793C81.5189 376.092 80.6995 376.156 79.8977 375.98C79.0959 375.803 78.3298 375.391 77.6498 374.769L66.7895 372.721C64.4558 370.588 62.7701 367.315 62.0594 363.536C61.3487 359.758 61.6637 355.744 62.9434 352.273C67.5426 356.063 71.5771 355.534 75.0831 350.963C77.5604 357.98 81.642 357.552 85.54 363.465C86.0562 364.527 86.384 365.746 86.4961 367.022C86.6082 368.298 86.5014 369.593 86.1846 370.799C85.8678 372.005 85.3501 373.088 84.6748 373.956C83.9994 374.825 83.1858 375.455 82.3019 375.793Z" fill="#2F2E41"/>
<path d="M97.218 93.2444L78.6953 87.0076C81.7716 78.1732 82.025 68.343 80.5476 57.9025L93.143 57.3828C93.5376 70.3658 94.7316 82.4952 97.218 93.2444Z" fill="#FFB8B8"/>
<path d="M102.31 173.859C88.8264 186.75 79.2991 174.3 72.0287 155.092C73.0389 143.338 71.4031 129.272 68.3735 113.989C67.0261 107.247 67.5292 100.043 69.7833 93.7964C72.0374 87.5502 75.8788 82.7166 80.5491 80.25L96.4786 89.6052C110.005 105.073 112.667 121.828 107.592 139.5L102.31 173.859Z" fill="#6C63FF"/>
<path d="M63.5059 106.237L48.6877 117.151L74.9899 138.98L78.6497 151.645C78.894 152.491 79.013 153.397 78.9995 154.309C78.9859 155.221 78.8402 156.119 78.571 156.95C78.3019 157.78 77.915 158.525 77.434 159.139C76.953 159.752 76.388 160.222 75.7734 160.519C75.0747 160.857 74.3297 160.964 73.5967 160.831C72.8638 160.697 72.1628 160.328 71.5487 159.751C70.9346 159.174 70.424 158.405 70.0569 157.506C69.6898 156.606 69.4762 155.599 69.4328 154.563L69.0627 145.737L35.6329 130.259C34.5066 129.738 33.4796 128.864 32.6297 127.703C31.7799 126.542 31.1295 125.125 30.7277 123.56C30.1421 121.277 30.1123 118.787 30.6429 116.479C31.1736 114.17 32.2348 112.174 33.6604 110.802L60.5423 84.9277L63.5059 106.237Z" fill="#FFB8B8"/>
<path d="M78.3248 108.316C72.1447 104.517 66.525 108.644 59.4317 111.955L58.3203 84.4086C65.3637 79.1419 72.0791 77.7219 78.3248 81.81L78.3248 108.316Z" fill="#6C63FF"/>
<path d="M85.7166 71.0268C92.248 71.0268 97.5427 63.5985 97.5427 54.4352C97.5427 45.272 92.248 37.8438 85.7166 37.8438C79.1853 37.8438 73.8906 45.272 73.8906 54.4352C73.8906 63.5985 79.1853 71.0268 85.7166 71.0268Z" fill="#FFB8B8"/>
<path d="M99.8681 52.3408C88.1593 53.9497 79.2373 51.2631 73.5352 43.6135V37.4531H98.8744L99.8681 52.3408Z" fill="#2F2E41"/>
</svg>
