<svg width="394" height="385" viewBox="0 0 394 385" fill="none" xmlns="http://www.w3.org/2000/svg">
<path d="M364.797 356.436L375.41 352.65C376.733 346.244 376.645 339.572 375.154 333.213C370.89 343.875 358.381 346.487 351.253 354.998C349.048 357.671 347.406 360.868 346.449 364.352C345.492 367.836 345.245 371.518 345.725 375.124L343.492 383.643C348.707 383.141 353.764 381.375 358.313 378.464C362.863 375.554 366.797 371.569 369.846 366.783C371.532 364.08 372.909 361.148 373.944 358.058C369.418 357.548 364.797 356.436 364.797 356.436Z" fill="#F2F2F2"/>
<path d="M353.454 340.684L361.452 331.972C360.096 325.575 357.371 319.647 353.515 314.703C353.927 326.385 343.767 334.997 340.762 346.189C339.848 349.688 339.647 353.373 340.172 356.971C340.697 360.57 341.936 363.989 343.795 366.976L345.175 375.72C349.644 372.656 353.469 368.539 356.387 363.652C359.305 358.765 361.246 353.225 362.077 347.413C362.514 344.147 362.584 340.832 362.285 337.547C358.032 339.361 353.454 340.684 353.454 340.684Z" fill="#F2F2F2"/>
<path d="M300.29 25.5349H1.16461C0.853487 25.5275 0.557335 25.3833 0.33963 25.1333C0.121924 24.8832 0 24.5471 0 24.1972C0 23.8472 0.121924 23.5111 0.33963 23.2611C0.557335 23.011 0.853487 22.8668 1.16461 22.8594H300.29C300.601 22.8668 300.897 23.011 301.115 23.2611C301.333 23.5111 301.455 23.8472 301.455 24.1972C301.455 24.5471 301.333 24.8832 301.115 25.1333C300.897 25.3833 300.601 25.5275 300.29 25.5349Z" fill="#3F3D56"/>
<path d="M21.5259 16.0295C25.3761 16.0295 28.4972 12.4412 28.4972 8.01476C28.4972 3.58833 25.3761 0 21.5259 0C17.6758 0 14.5547 3.58833 14.5547 8.01476C14.5547 12.4412 17.6758 16.0295 21.5259 16.0295Z" fill="#3F3D56"/>
<path d="M45.608 16.0295C49.4581 16.0295 52.5792 12.4412 52.5792 8.01476C52.5792 3.58833 49.4581 0 45.608 0C41.7579 0 38.6367 3.58833 38.6367 8.01476C38.6367 12.4412 41.7579 16.0295 45.608 16.0295Z" fill="#3F3D56"/>
<path d="M69.69 16.0295C73.5401 16.0295 76.6613 12.4412 76.6613 8.01476C76.6613 3.58833 73.5401 0 69.69 0C65.8399 0 62.7188 3.58833 62.7188 8.01476C62.7188 12.4412 65.8399 16.0295 69.69 16.0295Z" fill="#3F3D56"/>
<path d="M285.791 1.98633H268.684C268.345 1.99392 268.022 2.15073 267.784 2.4231C267.547 2.69546 267.414 3.06165 267.414 3.44306C267.414 3.82446 267.547 4.19065 267.784 4.46302C268.022 4.73538 268.345 4.89219 268.684 4.89978H285.791C286.13 4.89219 286.453 4.73538 286.69 4.46302C286.928 4.19065 287.061 3.82446 287.061 3.44306C287.061 3.06165 286.928 2.69546 286.69 2.4231C286.453 2.15073 286.13 1.99392 285.791 1.98633Z" fill="#3F3D56"/>
<path d="M285.791 7.45508H268.684C268.345 7.46262 268.022 7.61942 267.785 7.89179C267.547 8.16416 267.414 8.53037 267.414 8.91181C267.414 9.29324 267.547 9.65947 267.785 9.93183C268.022 10.2042 268.345 10.361 268.684 10.3685H285.791C286.13 10.361 286.453 10.2042 286.69 9.93183C286.928 9.65947 287.061 9.29324 287.061 8.91181C287.061 8.53037 286.928 8.16416 286.69 7.89179C286.453 7.61942 286.13 7.46262 285.791 7.45508Z" fill="#3F3D56"/>
<path d="M285.791 12.916H268.684C268.345 12.9236 268.022 13.0803 267.785 13.3527C267.547 13.6251 267.414 13.9913 267.414 14.3727C267.414 14.7542 267.547 15.1204 267.785 15.3928C268.022 15.6651 268.345 15.8219 268.684 15.8295H285.791C286.13 15.8219 286.453 15.6651 286.69 15.3928C286.928 15.1204 287.061 14.7542 287.061 14.3727C287.061 13.9913 286.928 13.6251 286.69 13.3527C286.453 13.0803 286.13 12.9236 285.791 12.916Z" fill="#3F3D56"/>
<path d="M23.1733 79.8892C27.9332 79.8892 31.7919 75.5497 31.7919 70.1966C31.7919 64.8435 27.9332 60.5039 23.1733 60.5039C18.4134 60.5039 14.5547 64.8435 14.5547 70.1966C14.5547 75.5497 18.4134 79.8892 23.1733 79.8892Z" fill="#E6E7E8"/>
<path d="M242.647 91.6593H17.1211C16.4405 91.6593 15.7877 91.3552 15.3064 90.8139C14.8251 90.2726 14.5547 89.5385 14.5547 88.773C14.5547 88.0075 14.8251 87.2734 15.3064 86.7321C15.7877 86.1908 16.4405 85.8867 17.1211 85.8867H242.647C243.327 85.8867 243.98 86.1908 244.461 86.7321C244.943 87.2734 245.213 88.0075 245.213 88.773C245.213 89.5385 244.943 90.2726 244.461 90.8139C243.98 91.3552 243.327 91.6593 242.647 91.6593Z" fill="#E6E7E8"/>
<path d="M183.499 103.064H17.1213C16.4406 103.064 15.7878 102.76 15.3064 102.218C14.8251 101.677 14.5547 100.943 14.5547 100.177C14.5547 99.4119 14.8251 98.6777 15.3064 98.1364C15.7878 97.5951 16.4406 97.291 17.1213 97.291H183.499C184.179 97.291 184.832 97.5951 185.314 98.1364C185.795 98.6777 186.065 99.4119 186.065 100.177C186.065 100.943 185.795 101.677 185.314 102.218C184.832 102.76 184.179 103.064 183.499 103.064Z" fill="#E6E7E8"/>
<path d="M23.1733 231.176C27.9332 231.176 31.7919 226.837 31.7919 221.484C31.7919 216.131 27.9332 211.791 23.1733 211.791C18.4134 211.791 14.5547 216.131 14.5547 221.484C14.5547 226.837 18.4134 231.176 23.1733 231.176Z" fill="#E6E7E8"/>
<path d="M242.647 242.946H17.1213C16.784 242.947 16.4498 242.873 16.1379 242.728C15.8261 242.583 15.5427 242.371 15.3039 242.103C15.0652 241.835 14.8758 241.516 14.7465 241.166C14.6173 240.815 14.5508 240.44 14.5508 240.06C14.5508 239.681 14.6173 239.305 14.7465 238.955C14.8758 238.604 15.0652 238.286 15.3039 238.018C15.5427 237.749 15.8261 237.537 16.1379 237.392C16.4498 237.247 16.784 237.173 17.1213 237.174H242.647C243.362 237.219 244.036 237.562 244.537 238.138C245.039 238.713 245.331 239.478 245.356 240.283C245.335 240.658 245.248 241.025 245.1 241.363C244.952 241.7 244.746 242.001 244.495 242.249C244.243 242.497 243.95 242.686 243.633 242.805C243.316 242.925 242.981 242.973 242.647 242.946Z" fill="#E6E7E8"/>
<path d="M183.499 254.351H17.1213C16.4406 254.351 15.7878 254.047 15.3064 253.506C14.8251 252.964 14.5547 252.23 14.5547 251.465C14.5547 250.699 14.8251 249.965 15.3064 249.424C15.7878 248.882 16.4406 248.578 17.1213 248.578H183.499C184.179 248.578 184.832 248.882 185.314 249.424C185.795 249.965 186.065 250.699 186.065 251.465C186.065 252.23 185.795 252.964 185.314 253.506C184.832 254.047 184.179 254.351 183.499 254.351Z" fill="#E6E7E8"/>
<path d="M23.1733 149.829C27.9332 149.829 31.7919 145.489 31.7919 140.136C31.7919 134.783 27.9332 130.443 23.1733 130.443C18.4134 130.443 14.5547 134.783 14.5547 140.136C14.5547 145.489 18.4134 149.829 23.1733 149.829Z" fill="#E6E7E8"/>
<path d="M242.647 161.601H17.1211C16.4405 161.601 15.7877 161.297 15.3064 160.755C14.8251 160.214 14.5547 159.48 14.5547 158.714C14.5547 157.949 14.8251 157.215 15.3064 156.674C15.7877 156.132 16.4405 155.828 17.1211 155.828H242.647C243.327 155.828 243.98 156.132 244.461 156.674C244.943 157.215 245.213 157.949 245.213 158.714C245.213 159.48 244.943 160.214 244.461 160.755C243.98 161.297 243.327 161.601 242.647 161.601Z" fill="#E6E7E8"/>
<path d="M211.241 173.005H17.1213C16.4406 173.005 15.7878 172.701 15.3064 172.16C14.8251 171.619 14.5547 170.884 14.5547 170.119C14.5547 169.353 14.8251 168.619 15.3064 168.078C15.7878 167.537 16.4406 167.232 17.1213 167.232H211.241C211.921 167.232 212.574 167.537 213.056 168.078C213.537 168.619 213.807 169.353 213.807 170.119C213.807 170.884 213.537 171.619 213.056 172.16C212.574 172.701 211.921 173.005 211.241 173.005Z" fill="#E6E7E8"/>
<path d="M198.065 184.41H17.1213C16.4406 184.41 15.7878 184.105 15.3064 183.564C14.8251 183.023 14.5547 182.289 14.5547 181.523C14.5547 180.758 14.8251 180.023 15.3064 179.482C15.7878 178.941 16.4406 178.637 17.1213 178.637H198.065C198.746 178.637 199.399 178.941 199.88 179.482C200.361 180.023 200.632 180.758 200.632 181.523C200.632 182.289 200.361 183.023 199.88 183.564C199.399 184.105 198.746 184.41 198.065 184.41Z" fill="#E6E7E8"/>
<path d="M201.81 312.014C237.059 312.014 265.635 279.877 265.635 240.234C265.635 200.592 237.059 168.455 201.81 168.455C166.56 168.455 137.984 200.592 137.984 240.234C137.984 279.877 166.56 312.014 201.81 312.014Z" fill="#6C63FF"/>
<path d="M201.719 265.278C206.755 265.278 210.837 260.687 210.837 255.024C210.837 249.36 206.755 244.77 201.719 244.77C196.684 244.77 192.602 249.36 192.602 255.024C192.602 260.687 196.684 265.278 201.719 265.278Z" fill="#3F3D56"/>
<path d="M201.72 259.756C204.044 259.756 205.928 257.638 205.928 255.024C205.928 252.41 204.044 250.291 201.72 250.291C199.396 250.291 197.512 252.41 197.512 255.024C197.512 257.638 199.396 259.756 201.72 259.756Z" fill="#6C63FF"/>
<path d="M218.647 277.85H184.972C181.637 277.846 178.44 276.354 176.083 273.703C173.725 271.051 172.398 267.456 172.395 263.706V246.342C172.398 242.592 173.725 238.997 176.083 236.345C178.44 233.693 181.637 232.202 184.972 232.197H218.647C221.982 232.202 225.178 233.693 227.536 236.345C229.894 238.997 231.22 242.592 231.224 246.342V263.706C231.22 267.456 229.894 271.051 227.536 273.703C225.178 276.354 221.982 277.846 218.647 277.85ZM184.972 233.678C181.986 233.682 179.124 235.018 177.013 237.392C174.902 239.766 173.715 242.985 173.711 246.342V263.706C173.715 267.063 174.902 270.282 177.013 272.656C179.124 275.03 181.986 276.365 184.972 276.369H218.647C221.632 276.365 224.495 275.03 226.605 272.656C228.716 270.282 229.904 267.063 229.907 263.706V246.342C229.904 242.985 228.716 239.766 226.606 237.392C224.495 235.018 221.632 233.682 218.647 233.678L184.972 233.678Z" fill="white"/>
<path d="M182.978 268.424H212.868C214.42 268.424 215.956 268.08 217.39 267.412C218.823 266.745 220.125 265.766 221.222 264.532C222.319 263.299 223.19 261.834 223.783 260.222C224.377 258.61 224.683 256.882 224.683 255.137V240.606C224.68 238.995 224.416 237.397 223.903 235.893C225.362 237.127 226.545 238.726 227.36 240.563C228.174 242.4 228.599 244.425 228.599 246.478V261.009C228.599 262.754 228.293 264.482 227.699 266.094C227.106 267.706 226.235 269.171 225.138 270.404C224.041 271.638 222.739 272.617 221.306 273.284C219.872 273.952 218.336 274.296 216.784 274.296H186.894C184.499 274.294 182.16 273.473 180.189 271.942C178.218 270.411 176.708 268.242 175.859 265.723C177.905 267.475 180.406 268.424 182.978 268.424Z" fill="#3F3D56"/>
<path d="M274.51 375.095L267.166 375.094L263.672 343.232L274.512 343.233L274.51 375.095Z" fill="#A0616A"/>
<path d="M274.77 383.711L252.184 383.71V383.389C252.184 380.767 253.11 378.252 254.759 376.398C256.407 374.544 258.643 373.503 260.975 373.502H260.975L265.101 369.982L272.799 373.503L274.77 373.503L274.77 383.711Z" fill="#2F2E41"/>
<path d="M326.482 375.095L333.827 375.094L337.321 343.232L326.48 343.233L326.482 375.095Z" fill="#A0616A"/>
<path d="M326.223 383.711L348.81 383.71V383.389C348.809 380.767 347.883 378.252 346.234 376.398C344.586 374.544 342.35 373.503 340.018 373.502H340.018L335.892 369.982L328.194 373.503L326.223 373.503L326.223 383.711Z" fill="#2F2E41"/>
<path d="M263.35 319.819C263.459 318.001 264.321 307.947 264.321 307.947L266.387 286.625L270.028 230.104L270.266 226.404L289.339 222.286L302.374 215.258L317.869 220.828L329.933 225.916C329.933 225.916 329.954 228.094 330.047 230.725C330.171 234.17 330.388 238.392 330.904 239.49C331.767 241.43 331.55 251.845 331.55 251.845C331.55 251.845 332.407 273.033 333.486 275.357C334.566 277.68 334.783 282.518 334.457 283.488C334.132 284.458 335.537 309.905 335.537 309.905C335.537 309.905 339.142 354.935 336.88 361.725C334.618 368.515 326.07 364.067 326.07 364.067C326.07 364.067 326.483 362.255 324.004 361.401C321.525 360.547 313.974 296.696 313.974 296.696C313.974 296.696 312.57 283.604 311.278 279.852C309.987 276.1 308.799 265.558 308.799 265.558C308.799 265.558 300.825 248.11 300.722 244.23C300.722 244.23 299.678 240.6 298.692 244.596C297.706 248.592 294.798 258.164 294.798 258.164L291.962 269.92L288.626 287.484L286.467 302.272C286.467 302.272 283.234 321.899 282.718 322.747C282.201 323.595 282.718 341.525 282.718 341.525C282.718 341.525 280.218 356.795 276.685 359.461C273.153 362.127 263.793 359.504 263.793 359.504C263.793 359.504 263.242 321.637 263.35 319.819Z" fill="#2F2E41"/>
<path d="M271.486 174.855L275.727 189.219L270.495 196.224L272.799 198.89L271.099 202.659L266.668 242.168L290.962 252.53L299.144 240.994L305.594 252.53L333.706 244.805L326.537 194.424V191.13L324.513 184.77V171.306L329.858 131.229L313.904 124.944L306.276 118.154L303.807 127.703L293.297 125.601L293.023 118.427L284.982 126.971L278.21 129.143L270.102 131.229L269.069 134.133L271.135 133.552L270.8 171.335L271.486 174.855Z" fill="#2F2E41"/>
<path d="M264.225 227.41L268.305 182.993L269.382 164.713L257.962 162.391C257.962 162.391 258.414 175.462 256.918 182.836C255.442 190.114 256.722 226.435 256.814 227.406C255.975 228.249 255.384 229.359 255.118 230.589C254.852 231.819 254.925 233.11 255.326 234.292C255.727 235.474 256.438 236.492 257.365 237.21C258.291 237.928 259.39 238.312 260.515 238.313C261.64 238.313 262.739 237.93 263.666 237.213C264.593 236.496 265.304 235.479 265.707 234.298C266.109 233.116 266.182 231.825 265.918 230.595C265.653 229.365 265.063 228.254 264.225 227.41Z" fill="#A0616A"/>
<path d="M253.086 192.198L256.262 192.935L267.159 195.474L267.764 195.613L269.05 189.863L270.542 188.074L273.383 171.334L273.533 170.463L277.824 160.147L280.794 129.143L269.752 131.373C269.695 131.437 269.643 131.507 269.592 131.576C268.006 133.598 266.875 136.409 265.026 139.237C259.009 148.444 254.392 170.812 254.573 183.067C254.578 183.265 254.397 183.48 254.18 183.7C253.156 184.759 252.489 186.182 252.289 187.73C252.09 189.278 252.371 190.856 253.086 192.198Z" fill="#2F2E41"/>
<path d="M335.22 227.41L331.139 182.993L330.062 164.713L341.483 162.391C341.483 162.391 341.03 175.462 342.527 182.836C344.003 190.114 342.722 226.435 342.631 227.406C343.47 228.249 344.061 229.359 344.327 230.589C344.592 231.819 344.52 233.11 344.119 234.292C343.717 235.474 343.007 236.492 342.08 237.21C341.154 237.928 340.055 238.312 338.93 238.313C337.805 238.313 336.706 237.93 335.779 237.213C334.852 236.496 334.14 235.479 333.738 234.298C333.336 233.116 333.262 231.825 333.527 230.595C333.791 229.365 334.382 228.254 335.22 227.41Z" fill="#A0616A"/>
<path d="M346.36 192.198L343.184 192.936L332.286 195.474L331.682 195.613L330.396 189.863L328.903 188.074L326.063 171.334L325.913 170.463L321.621 160.147L322.602 129.143L329.694 131.373C329.751 131.437 329.802 131.507 329.854 131.576C331.439 133.598 332.571 136.409 334.419 139.237C340.436 148.444 345.053 170.812 344.872 183.067C344.867 183.265 345.048 183.48 345.265 183.7C346.289 184.759 346.957 186.182 347.156 187.73C347.356 189.278 347.075 190.856 346.36 192.198Z" fill="#2F2E41"/>
<path d="M287.835 133.729L293.023 118.425L306.276 118.152L310.674 133.729L326.48 233.033C326.48 233.033 278.055 248.199 278.547 229.969C279.063 210.801 281.393 185.34 281.393 185.34L287.835 133.729Z" fill="#6C63FF"/>
<path d="M299.354 114.146C307.976 114.146 314.965 106.285 314.965 96.5885C314.965 86.8919 307.976 79.0312 299.354 79.0312C290.732 79.0312 283.742 86.8919 283.742 96.5885C283.742 106.285 290.732 114.146 299.354 114.146Z" fill="#A0616A"/>
<path d="M282.819 83.8519C285.361 80.7407 288.54 75.0459 298.169 72.6544C310.067 69.6994 315.689 81.7875 312.689 81.9856C321.463 84.9736 315.827 105.393 313.311 103.681C313.29 103.664 313.269 103.646 313.249 103.626C311.896 102.506 310.761 101.087 309.912 99.4565C309.063 97.826 308.519 96.0179 308.313 94.1429L307.835 89.3108C307.767 93.2423 304.194 93.7624 300.544 92.3145C300.759 91.4525 301.171 90.6687 301.739 90.0404C302.306 89.4121 303.009 88.9611 303.779 88.7318C301.234 91.3261 298.002 92.9078 294.58 93.2333C294.759 92.249 295.123 91.3191 295.649 90.5063C296.174 89.6934 296.848 89.0164 297.625 88.5207L297.481 88.3615C296.055 89.7134 294.419 90.7556 292.655 91.4348C290.642 92.0835 288.231 91.7326 286.853 89.9611C286.481 89.4723 286.201 88.9047 286.028 88.292C286.326 91.4055 284.469 94.9597 283.027 94.3495C281.827 94.0872 281.127 85.923 282.819 83.8519Z" fill="#2F2E41"/>
<path d="M394.001 383.709C394.001 383.825 393.981 383.94 393.942 384.047C393.902 384.154 393.845 384.251 393.772 384.333C393.699 384.415 393.613 384.48 393.517 384.524C393.422 384.568 393.32 384.591 393.217 384.59H208.662C208.455 384.59 208.255 384.498 208.108 384.332C207.961 384.167 207.879 383.943 207.879 383.709C207.879 383.476 207.961 383.251 208.108 383.086C208.255 382.921 208.455 382.828 208.662 382.828H393.217C393.32 382.828 393.422 382.85 393.517 382.894C393.613 382.939 393.699 383.004 393.772 383.085C393.845 383.167 393.902 383.265 393.942 383.372C393.981 383.479 394.001 383.594 394.001 383.709Z" fill="#CCCCCC"/>
<path d="M202.329 201.314C196.086 201.314 190.599 204.493 187.492 209.263C190.814 206.545 194.823 205.098 198.931 205.136C208.598 205.136 216.463 212.751 216.463 222.112V229.893H219.861V218.291C219.861 208.93 211.996 201.314 202.329 201.314Z" fill="#3F3D56"/>
<path d="M222.195 233.876H181.426V220.385C181.426 209.501 190.57 200.646 201.81 200.646C213.051 200.646 222.195 209.501 222.195 220.385V233.876ZM182.743 232.395H220.878V220.385C220.878 210.318 212.325 202.127 201.81 202.127C191.296 202.127 182.743 210.318 182.743 220.385V232.395Z" fill="white"/>
<path d="M212.25 228.724H191.368C190.428 228.722 189.527 228.302 188.863 227.555C188.199 226.808 187.825 225.795 187.824 224.738V219.37C187.824 211.884 194.098 205.795 201.809 205.795C209.52 205.795 215.793 211.884 215.793 219.37V224.738C215.792 225.795 215.419 226.808 214.754 227.555C214.09 228.302 213.189 228.722 212.25 228.724ZM201.809 207.276C194.824 207.276 189.141 212.701 189.141 219.37V224.738C189.142 225.402 189.376 226.039 189.794 226.508C190.211 226.978 190.777 227.242 191.368 227.243H212.25C212.84 227.242 213.406 226.978 213.824 226.508C214.241 226.039 214.476 225.402 214.476 224.738V219.37C214.476 212.701 208.794 207.276 201.809 207.276Z" fill="white"/>
</svg>
