<svg width="394" height="385" viewBox="0 0 394 385" fill="none" xmlns="http://www.w3.org/2000/svg">
<path d="M250.126 86.4905H143.959C141.54 86.4935 139.22 87.4559 137.51 89.1666C135.799 90.8773 134.837 93.1967 134.834 95.6161V331.573L133.617 331.944L107.573 339.92C106.338 340.296 105.005 340.167 103.866 339.562C102.726 338.956 101.874 337.923 101.495 336.689L24.0249 83.6373C23.6479 82.4029 23.7764 81.0694 24.3821 79.9298C24.9879 78.7901 26.0213 77.9376 27.2554 77.5596L67.3897 65.2705L183.741 29.6565L223.875 17.3674C224.486 17.1794 225.127 17.1137 225.764 17.1741C226.4 17.2344 227.018 17.4197 227.582 17.7192C228.147 18.0186 228.647 18.4265 229.054 18.9194C229.46 19.4123 229.766 19.9806 229.953 20.5917L249.755 85.2738L250.126 86.4905Z" fill="#F2F2F2"/>
<path d="M273.293 85.2728L249.426 7.31608C249.029 6.01718 248.38 4.80925 247.516 3.76131C246.652 2.71338 245.59 1.84598 244.39 1.20869C243.191 0.571396 241.878 0.176687 240.526 0.0471354C239.174 -0.0824165 237.809 0.0557267 236.511 0.453657L180.084 17.7253L63.7394 53.3455L7.31301 70.6232C4.69173 71.4281 2.4969 73.2402 1.21028 75.6617C-0.0763363 78.0831 -0.349632 80.9162 0.450396 83.5389L82.0209 349.963C82.6708 352.08 83.9821 353.933 85.7625 355.25C87.5428 356.568 89.6985 357.28 91.9131 357.282C92.9381 357.282 93.9574 357.128 94.9366 356.825L133.617 344.986L134.834 344.609V343.338L133.617 343.709L94.5777 355.663C92.264 356.369 89.7649 356.128 87.6288 354.993C85.4926 353.858 83.8938 351.922 83.1829 349.61L1.61872 83.18C1.26653 82.0344 1.14378 80.8305 1.2575 79.6374C1.37122 78.4443 1.71916 77.2853 2.28143 76.2269C2.8437 75.1684 3.60925 74.2313 4.53421 73.4691C5.45918 72.7069 6.5254 72.1347 7.67183 71.7852L64.0983 54.5075L180.443 18.8934L236.87 1.61566C237.739 1.35029 238.643 1.21498 239.552 1.21413C241.504 1.21851 243.402 1.84754 244.97 3.00908C246.538 4.17063 247.692 5.80365 248.265 7.66895L272.021 85.2728L272.399 86.4895H273.664L273.293 85.2728Z" fill="#3F3D56"/>
<path d="M74.6313 77.758C73.4588 77.7571 72.3173 77.3806 71.3745 76.6835C70.4316 75.9864 69.737 75.0055 69.3925 73.8847L61.5564 48.2894C61.3458 47.6019 61.2728 46.8796 61.3414 46.1638C61.41 45.4481 61.6189 44.7528 61.9563 44.1178C62.2936 43.4828 62.7528 42.9204 63.3075 42.4629C63.8621 42.0054 64.5015 41.6616 65.1891 41.4512L172.225 8.682C173.614 8.25828 175.114 8.40279 176.396 9.0838C177.678 9.76481 178.638 10.9267 179.064 12.3144L186.9 37.91C187.323 39.2985 187.179 40.7983 186.498 42.0803C185.817 43.3624 184.655 44.3219 183.268 44.7485L76.231 77.5177C75.7127 77.6767 75.1735 77.7577 74.6313 77.758Z" fill="#6C63FF"/>
<path d="M115.679 27.3446C122.399 27.3446 127.847 21.8971 127.847 15.1772C127.847 8.45731 122.399 3.00977 115.679 3.00977C108.959 3.00977 103.512 8.45731 103.512 15.1772C103.512 21.8971 108.959 27.3446 115.679 27.3446Z" fill="#6C63FF"/>
<path d="M115.681 22.8803C119.937 22.8803 123.386 19.4307 123.386 15.1755C123.386 10.9203 119.937 7.4707 115.681 7.4707C111.426 7.4707 107.977 10.9203 107.977 15.1755C107.977 19.4307 111.426 22.8803 115.681 22.8803Z" fill="white"/>
<path d="M366.625 354.172H160.995C159.624 354.171 158.31 353.625 157.341 352.656C156.371 351.686 155.826 350.372 155.824 349.001V102.611C155.826 101.24 156.371 99.9252 157.341 98.9557C158.31 97.9863 159.624 97.441 160.995 97.4395H366.625C367.996 97.441 369.31 97.9864 370.28 98.9558C371.249 99.9252 371.794 101.24 371.796 102.611V349.001C371.794 350.372 371.249 351.686 370.28 352.656C369.31 353.625 367.996 354.171 366.625 354.172Z" fill="#E6E6E6"/>
<path d="M272.022 85.2734H143.959C141.218 85.2773 138.589 86.3682 136.651 88.3069C134.712 90.2456 133.621 92.874 133.617 95.6157V343.71L134.834 343.338V95.6157C134.837 93.1964 135.799 90.877 137.51 89.1662C139.221 87.4555 141.54 86.4931 143.959 86.4902H272.399L272.022 85.2734ZM383.658 85.2734H143.959C141.218 85.2773 138.589 86.3682 136.651 88.3069C134.712 90.2456 133.621 92.874 133.617 95.6157V374.25C133.621 376.992 134.712 379.62 136.651 381.559C138.589 383.497 141.218 384.588 143.959 384.592H383.658C386.4 384.588 389.028 383.497 390.967 381.559C392.905 379.62 393.996 376.992 394 374.25V95.6157C393.996 92.874 392.905 90.2456 390.967 88.3069C389.028 86.3682 386.4 85.2773 383.658 85.2734ZM392.783 374.25C392.78 376.669 391.818 378.989 390.107 380.699C388.397 382.41 386.077 383.372 383.658 383.375H143.959C141.54 383.372 139.221 382.41 137.51 380.699C135.799 378.989 134.837 376.669 134.834 374.25V95.6157C134.837 93.1964 135.799 90.877 137.51 89.1662C139.221 87.4555 141.54 86.4931 143.959 86.4902H383.658C386.077 86.4931 388.397 87.4555 390.107 89.1662C391.818 90.877 392.78 93.1964 392.783 95.6157V374.25Z" fill="#3F3D56"/>
<path d="M319.779 112.041H207.839C206.387 112.04 204.995 111.462 203.969 110.436C202.942 109.409 202.365 108.018 202.363 106.566V79.7976C202.365 78.346 202.942 76.9542 203.969 75.9278C204.995 74.9013 206.387 74.3239 207.839 74.3223H319.779C321.231 74.3239 322.622 74.9013 323.649 75.9278C324.675 76.9542 325.253 78.346 325.254 79.7976V106.566C325.253 108.018 324.675 109.409 323.649 110.436C322.622 111.462 321.231 112.04 319.779 112.041Z" fill="#6C63FF"/>
<path d="M263.808 76.1474C270.528 76.1474 275.975 70.6998 275.975 63.9799C275.975 57.26 270.528 51.8125 263.808 51.8125C257.088 51.8125 251.641 57.26 251.641 63.9799C251.641 70.6998 257.088 76.1474 263.808 76.1474Z" fill="#6C63FF"/>
<path d="M263.81 71.3906C267.903 71.3906 271.221 68.0725 271.221 63.9795C271.221 59.8864 267.903 56.5684 263.81 56.5684C259.717 56.5684 256.398 59.8864 256.398 63.9795C256.398 68.0725 259.717 71.3906 263.81 71.3906Z" fill="white"/>
</svg>
