<svg width="333" height="385" viewBox="0 0 333 385" fill="none" xmlns="http://www.w3.org/2000/svg">
<path opacity="0.1" d="M168.542 339.598C258.969 339.598 332.275 332.368 332.275 323.448C332.275 314.528 258.969 307.297 168.542 307.297C78.1145 307.297 4.80859 314.528 4.80859 323.448C4.80859 332.368 78.1145 339.598 168.542 339.598Z" fill="#6C63FF"/>
<path opacity="0.1" d="M121.432 25.4066C119.909 25.0393 118.334 25.2574 116.909 26.0331C116.054 26.517 115.129 26.7671 114.193 26.7671C113.257 26.7671 112.332 26.517 111.477 26.0331C110.467 25.4705 109.372 25.1935 108.269 25.2214C107.166 25.2493 106.081 25.5813 105.09 26.1946C104.523 26.5747 103.892 26.7745 103.252 26.777C100.663 26.777 98.5094 23.4636 98.0625 19.0931C98.5787 18.6124 99.018 18.0111 99.357 17.3214C100.875 14.2136 103.21 12.2168 105.864 12.2168C108.518 12.2168 110.83 14.1745 112.348 17.2627C112.801 18.1901 113.435 18.9537 114.188 19.48C114.941 20.0063 115.788 20.2776 116.647 20.2677H116.717C118.758 20.253 120.542 22.3527 121.432 25.4066Z" fill="#6C63FF"/>
<path opacity="0.1" d="M129.299 11.702L125.115 15.0741L127.654 9.20107C126.934 8.47225 126.043 8.06925 125.123 8.05583H125.057C124.767 8.06034 124.477 8.0325 124.19 7.97263L122.769 9.11787L123.377 7.71324C122.376 7.27035 121.508 6.44034 120.896 5.33956L118.35 7.36085L119.952 3.65596C118.469 1.38995 116.466 0 114.266 0C111.627 0 109.258 1.99683 107.755 5.10463C107.306 6.03292 106.671 6.79355 105.915 7.3093C105.159 7.82504 104.309 8.07754 103.452 8.04115H103.325C100.412 8.04115 98.0469 12.2355 98.0469 17.4184C98.0469 22.6013 100.412 26.7908 103.325 26.7908C103.965 26.7883 104.596 26.5885 105.163 26.2084C106.154 25.5946 107.24 25.2627 108.343 25.2356C109.446 25.2086 110.54 25.4871 111.55 26.0518C112.405 26.5342 113.33 26.7835 114.266 26.7835C115.202 26.7835 116.127 26.5342 116.982 26.0518C117.984 25.4991 119.068 25.227 120.16 25.254C121.253 25.281 122.328 25.6065 123.312 26.2084C123.874 26.5783 124.497 26.7729 125.13 26.7761C128.047 26.7761 130.408 22.5818 130.408 17.4037C130.418 15.4153 130.037 13.4553 129.299 11.702Z" fill="#6C63FF"/>
<path opacity="0.1" d="M34.3666 93.2099C32.1912 92.687 29.9424 92.997 27.9059 94.1006C26.6838 94.7889 25.3612 95.1424 24.0244 95.1382C22.6875 95.134 21.3663 94.7721 20.1469 94.0761C18.704 93.2724 17.1408 92.8768 15.5656 92.9165C13.9903 92.9562 12.4407 93.4304 11.0241 94.3062C10.2138 94.8484 9.31241 95.1339 8.39662 95.1382C4.69818 95.1382 1.61999 90.4055 0.980469 84.1605C1.71951 83.4764 2.34745 82.6172 2.82969 81.6302C4.99868 77.1912 8.3581 74.3379 12.1297 74.3379C15.9014 74.3379 19.2184 77.1569 21.3759 81.547C22.0242 82.8776 22.9327 83.9722 24.0129 84.7244C25.0931 85.4765 26.3082 85.8606 27.5399 85.8392H27.6362C30.5565 85.8343 33.1069 88.8345 34.3666 93.2099Z" fill="#6C63FF"/>
<path opacity="0.1" d="M45.6155 73.6082L39.6364 78.4241L43.2655 70.0403C42.237 68.9974 40.9639 68.4204 39.6479 68.4008H39.5516C39.1362 68.4085 38.7211 68.3692 38.3111 68.2833L36.2924 69.9424L37.1631 67.9358C35.7264 67.2981 34.4857 66.0988 33.6187 64.5099L29.9896 67.4464L32.2742 62.1117C30.1514 58.8767 27.2928 56.8945 24.1491 56.8945C20.3775 56.8945 17.0181 59.7429 14.8491 64.182C14.2067 65.514 13.2977 66.6058 12.2149 67.3461C11.132 68.0863 9.91401 68.4486 8.68503 68.3959H8.48084C4.31624 68.3959 0.941406 74.3913 0.941406 81.7913C0.941406 89.1913 4.31624 95.1866 8.48084 95.1866C9.39722 95.1836 10.2992 94.8963 11.1083 94.3497C12.5252 93.4747 14.075 93.0014 15.6502 92.9625C17.2254 92.9236 18.7885 93.3201 20.2311 94.1246C21.4506 94.8206 22.7717 95.1824 24.1086 95.1866C25.4454 95.1909 26.768 94.8373 27.9901 94.1491C29.4221 93.3595 30.9711 92.9705 32.5319 93.0085C34.0927 93.0465 35.6288 93.5106 37.0359 94.3693C37.8374 94.9022 38.7279 95.1825 39.6325 95.1866C43.7971 95.1866 47.172 89.1864 47.172 81.7913C47.201 78.941 46.6658 76.1271 45.6155 73.6082Z" fill="#6C63FF"/>
<path opacity="0.1" d="M276.16 44.4936C277.683 44.1266 279.258 44.3447 280.683 45.1201C281.537 45.6042 282.462 45.8544 283.397 45.8544C284.332 45.8544 285.257 45.6042 286.111 45.1201C287.122 44.5574 288.216 44.2805 289.319 44.3084C290.422 44.3363 291.507 44.6683 292.499 45.2816C293.065 45.6611 293.696 45.8609 294.336 45.864C296.925 45.864 299.083 42.5506 299.53 38.1801C299.013 37.7007 298.573 37.0991 298.235 36.4084C296.725 33.2908 294.363 31.2793 291.717 31.2793C289.07 31.2793 286.755 33.237 285.237 36.3252C284.784 37.2568 284.15 38.0242 283.395 38.5532C282.641 39.0822 281.791 39.3549 280.93 39.3449H280.864C278.815 39.34 277.027 41.4396 276.16 44.4936Z" fill="#6C63FF"/>
<path opacity="0.1" d="M268.271 30.7889L272.455 34.1512L269.912 28.2781C270.632 27.55 271.523 27.1471 272.443 27.1329H272.512C272.803 27.1371 273.093 27.1093 273.379 27.0497L274.797 28.1949L274.188 26.7903C275.197 26.3548 276.073 25.528 276.692 24.4264L279.231 26.4722L277.625 22.7673C279.112 20.5013 281.092 19.1113 283.315 19.1113C285.954 19.1113 288.323 21.1082 289.826 24.216C290.275 25.1446 290.91 25.9055 291.666 26.4213C292.422 26.9371 293.272 27.1894 294.129 27.1525H294.268C297.184 27.1525 299.546 31.3468 299.546 36.5297C299.546 41.7127 297.184 45.9021 294.268 45.9021C293.627 45.8985 292.997 45.6987 292.43 45.3197C291.438 44.7059 290.353 44.374 289.25 44.347C288.147 44.3199 287.052 44.5984 286.043 45.1631C285.188 45.6454 284.264 45.8946 283.328 45.8946C282.393 45.8946 281.469 45.6454 280.614 45.1631C279.612 44.6103 278.527 44.3382 277.434 44.3652C276.341 44.3922 275.266 44.7178 274.281 45.3197C273.719 45.6902 273.095 45.8848 272.462 45.8874C269.55 45.8874 267.184 41.6931 267.184 36.5151C267.164 34.5209 267.537 32.5521 268.271 30.7889Z" fill="#6C63FF"/>
<path opacity="0.1" d="M225.175 380.219C249.644 380.219 269.48 375.837 269.48 370.431C269.48 365.025 249.644 360.643 225.175 360.643C200.707 360.643 180.871 365.025 180.871 370.431C180.871 375.837 200.707 380.219 225.175 380.219Z" fill="#6C63FF"/>
<path d="M201.984 323.936L133.336 322.816L133.54 320.579L136.857 283.682H197.146L201.58 320.579L201.919 323.378L201.984 323.936Z" fill="#D0D2D5"/>
<path opacity="0.1" d="M201.919 323.378H167.662L133.336 322.815L133.54 320.578H201.58L201.919 323.378Z" fill="black"/>
<path d="M212.988 321.143H121.895V323.937H212.988V321.143Z" fill="#D0D2D5"/>
<path d="M299.897 62.0736C299.902 60.1451 299.304 58.2929 298.235 56.9238C297.166 55.5547 295.713 54.7806 294.195 54.7715H39.8034C39.0511 54.776 38.3068 54.9687 37.6131 55.3386C36.9195 55.7084 36.2899 56.2483 35.7604 56.9273C35.231 57.6062 34.812 58.411 34.5274 59.2957C34.2427 60.1804 34.0981 61.1277 34.1016 62.0834V257.973H299.897V62.0736Z" fill="#3F3D56"/>
<path d="M34.1016 256.016V278.96C34.1016 280.881 34.7023 282.723 35.7716 284.081C36.8409 285.44 38.2911 286.203 39.8033 286.203H294.195C295.707 286.203 297.157 285.44 298.226 284.081C299.296 282.723 299.896 280.881 299.896 278.96V256.016H34.1016Z" fill="#D0D2D5"/>
<path d="M290.216 67.0547H45.1055V243.152H290.216V67.0547Z" fill="white"/>
<path d="M168.323 277.496C169.223 277.497 170.111 277.238 170.921 276.739C171.731 276.239 172.44 275.513 172.996 274.613C173.165 274.339 173.32 274.052 173.458 273.752L170.195 273.052L173.72 273.081C174.058 272.147 174.243 271.136 174.262 270.108C174.281 269.081 174.135 268.059 173.832 267.106L169.105 270.218L173.466 266.146C173.057 265.252 172.507 264.474 171.85 263.861C171.194 263.248 170.446 262.813 169.652 262.583C168.858 262.353 168.035 262.333 167.234 262.524C166.434 262.715 165.673 263.113 164.999 263.694C164.324 264.274 163.751 265.025 163.315 265.898C162.879 266.772 162.588 267.75 162.462 268.773C162.336 269.795 162.377 270.839 162.582 271.84C162.787 272.842 163.152 273.779 163.654 274.594C164.208 275.496 164.916 276.226 165.725 276.729C166.534 277.232 167.422 277.494 168.323 277.496Z" fill="#6C63FF"/>
<path opacity="0.1" d="M174.262 286.197L201.649 321.142L197.446 286.197H174.262Z" fill="black"/>
<path opacity="0.1" d="M290.29 67.0742H44.9141V77.3618H290.29V67.0742Z" fill="#444053"/>
<path opacity="0.3" d="M203.816 68.8652H130.333C130.209 68.8652 130.109 68.9923 130.109 69.1491V74.841C130.109 74.9978 130.209 75.1249 130.333 75.1249H203.816C203.94 75.1249 204.04 74.9978 204.04 74.841V69.1491C204.04 68.9923 203.94 68.8652 203.816 68.8652Z" fill="#6C63FF"/>
<path d="M201.844 72.645H201.662L201.597 72.5715C201.821 72.2293 201.944 71.7981 201.944 71.3529C201.941 70.9874 201.854 70.631 201.692 70.3286C201.531 70.0262 201.302 69.7914 201.036 69.6538C200.769 69.5161 200.477 69.4819 200.195 69.5553C199.913 69.6287 199.655 69.8066 199.452 70.0664C199.25 70.3261 199.113 70.6563 199.058 71.015C199.003 71.3738 199.033 71.7452 199.144 72.0823C199.255 72.4194 199.443 72.7071 199.682 72.9092C199.922 73.1112 200.204 73.2185 200.491 73.2176C200.842 73.216 201.182 73.0584 201.451 72.7722L201.516 72.8456V73.0756L202.645 74.5096L202.98 74.079L201.844 72.645ZM200.491 72.645C200.29 72.6459 200.093 72.571 199.925 72.4296C199.757 72.2882 199.627 72.0868 199.549 71.8507C199.471 71.6147 199.451 71.3548 199.489 71.1038C199.528 70.8529 199.625 70.6222 199.767 70.441C199.909 70.2598 200.09 70.1363 200.288 70.086C200.485 70.0358 200.69 70.0611 200.876 70.1587C201.062 70.2564 201.221 70.422 201.333 70.6346C201.445 70.8471 201.505 71.0971 201.505 71.3529C201.506 71.5225 201.48 71.6907 201.43 71.8477C201.379 72.0048 201.305 72.1475 201.21 72.2677C201.116 72.3878 201.004 72.4831 200.881 72.5478C200.757 72.6126 200.625 72.6456 200.491 72.645Z" fill="#3F3D56"/>
<path opacity="0.8" d="M49.3231 74.1025C50.1422 74.1025 50.8063 73.2589 50.8063 72.2182C50.8063 71.1776 50.1422 70.334 49.3231 70.334C48.5039 70.334 47.8398 71.1776 47.8398 72.2182C47.8398 73.2589 48.5039 74.1025 49.3231 74.1025Z" fill="#FA5959"/>
<path opacity="0.8" d="M53.4051 74.1025C54.2243 74.1025 54.8883 73.2589 54.8883 72.2182C54.8883 71.1776 54.2243 70.334 53.4051 70.334C52.5859 70.334 51.9219 71.1776 51.9219 72.2182C51.9219 73.2589 52.5859 74.1025 53.4051 74.1025Z" fill="#FED253"/>
<path opacity="0.8" d="M57.4871 74.1025C58.3063 74.1025 58.9704 73.2589 58.9704 72.2182C58.9704 71.1776 58.3063 70.334 57.4871 70.334C56.668 70.334 56.0039 71.1776 56.0039 72.2182C56.0039 73.2589 56.668 74.1025 57.4871 74.1025Z" fill="#8CCF4D"/>
<path d="M180.646 142.617C177.283 136.94 172.41 133.357 166.985 133.357C161.561 133.357 156.687 136.94 153.324 142.617C154.068 144.934 155.168 147.039 156.56 148.808C158.281 150.993 160.401 152.603 162.73 153.495C165.059 154.387 167.526 154.533 169.911 153.92C172.295 153.308 174.523 151.955 176.397 149.983C178.27 148.01 179.73 145.48 180.646 142.617Z" fill="#6C63FF"/>
<path d="M150.869 145.45C151.08 145.645 151.308 145.809 151.547 145.94C154.128 152.571 159.476 157.647 165.613 158.073V189.518C160.97 189.165 157.253 186.195 154.128 181.56C153.859 181.819 153.658 182.054 153.473 182.274C153.214 182.586 153.033 182.989 152.953 183.431C152.872 183.873 152.897 184.336 153.023 184.761C153.192 185.345 153.236 185.977 153.15 186.591C153.064 187.204 152.851 187.778 152.533 188.253C152.215 188.727 151.803 189.086 151.34 189.292C150.877 189.497 150.379 189.543 149.897 189.424C149.416 189.304 148.968 189.024 148.599 188.613C148.231 188.201 147.956 187.672 147.801 187.08C147.647 186.489 147.619 185.856 147.721 185.246C147.823 184.636 148.05 184.072 148.38 183.61C148.48 183.472 148.588 183.344 148.704 183.229C148.771 183.151 148.844 183.084 148.923 183.028C149.347 181.08 150.353 179.323 151.986 177.713C150.148 173.722 149.023 169.265 148.692 164.66C148.454 164.663 148.216 164.683 147.98 164.719C147.658 164.774 147.355 164.94 147.103 165.199C146.851 165.457 146.66 165.799 146.55 166.187C146.372 166.788 146.068 167.316 145.671 167.713C145.274 168.111 144.799 168.362 144.297 168.441C143.796 168.52 143.287 168.423 142.825 168.16C142.364 167.898 141.968 167.48 141.68 166.952C141.392 166.424 141.224 165.806 141.193 165.165C141.162 164.524 141.269 163.885 141.504 163.316C141.738 162.747 142.091 162.27 142.524 161.938C142.956 161.606 143.452 161.43 143.958 161.43C144.07 161.432 144.181 161.442 144.293 161.459C144.707 161.081 145.166 160.79 145.653 160.598C146.604 160.22 147.592 160.017 148.588 159.996C148.687 156.731 149.172 153.504 150.029 150.423C149.407 149.973 148.82 149.449 148.276 148.857C147.747 148.256 147.312 147.531 146.997 146.723C146.83 146.314 146.575 145.975 146.261 145.744C146.02 145.56 145.8 145.334 145.606 145.074C145.264 144.605 145.029 144.026 144.926 143.399C144.824 142.773 144.858 142.123 145.025 141.519C145.192 140.916 145.485 140.382 145.873 139.974C146.262 139.567 146.73 139.302 147.228 139.208C147.726 139.114 148.235 139.195 148.7 139.441C149.165 139.688 149.568 140.09 149.865 140.606C150.163 141.122 150.344 141.732 150.39 142.369C150.435 143.006 150.342 143.647 150.122 144.222C150.294 144.698 150.55 145.118 150.869 145.45Z" fill="#6C63FF"/>
<path d="M250.357 364.725C250.134 364.274 249.851 363.875 249.521 363.545C247.838 361.524 247.056 358.558 246.64 355.651C246.224 352.744 246.104 349.778 245.438 346.935C245.075 345.477 244.622 344.058 244.081 342.691C243.696 341.644 243.211 339.593 242.506 338.859C242.367 338.707 242.2 338.604 242.02 338.561C241.687 337.661 241.213 336.859 240.626 336.202C239.524 334.934 238.179 333.926 237.444 332.286C237.241 331.718 236.992 331.178 236.7 330.676C236.203 329.981 235.417 329.697 234.959 328.963C234.362 328.014 234.496 326.653 234.573 325.444C234.65 324.235 234.573 322.787 233.749 322.15C233.256 321.764 232.62 321.803 232.108 321.46C231.337 320.971 231.033 319.738 231.048 318.636C231.064 317.535 231.333 316.463 231.403 315.362C231.619 311.858 229.8 308.373 230.501 304.977C230.767 303.69 231.376 302.574 231.827 301.375C231.984 300.976 232.113 300.56 232.212 300.131C233.414 300.737 234.677 301.124 235.964 301.282C233.841 295.232 234.381 288.204 233.391 281.705L233.518 281.485C234.518 279.809 235.086 277.782 235.144 275.68C235.144 273.262 234.254 271.001 233.853 268.632C233.51 266.621 233.526 264.516 233.082 262.539C232.775 261.311 232.367 260.126 231.865 259.006C231.385 257.873 230.88 256.759 230.351 255.663C229.858 253.588 229.363 251.513 228.868 249.438C228.174 246.525 227.462 243.564 226.113 241.049C225.62 240.129 225.47 238.259 224.711 237.701C224.095 237.296 223.396 237.141 222.708 237.256C221.637 236.492 220.697 235.391 220.562 233.884C220.548 233.554 220.574 233.224 220.639 232.905H220.77C222.465 232.709 223.324 230.81 224.206 229.146C225.632 226.454 225.088 222.813 224.206 219.749C223.988 218.782 223.591 217.895 223.05 217.16C221.814 215.692 219.857 216.015 218.262 215.305C217.726 215.071 217.225 214.713 216.678 214.547C215.619 214.234 214.509 214.674 213.539 215.296C212.568 215.917 211.662 216.72 210.645 217.209C209.628 217.699 208.372 218.085 208.122 219.412C208.052 219.858 208.081 220.321 208.207 220.748C208.441 221.599 208.852 222.353 209.397 222.931C208.964 224.065 208.73 225.305 208.711 226.565C208.691 227.826 208.887 229.077 209.286 230.231C209.684 231.386 210.274 232.417 211.016 233.254C211.759 234.091 212.635 234.713 213.585 235.078C213.878 235.675 214.151 236.282 214.402 236.904C214.848 238 215.226 239.292 215.072 240.466C214.793 240.843 214.536 241.243 214.301 241.666C213.196 243.623 212.568 245.919 211.99 248.209C211.214 251.134 210.592 254.121 210.129 257.151C209.189 259.691 208.041 262.118 207.359 264.786C206.138 264.788 204.923 264.58 203.745 264.169L200.494 263.234C199.361 262.906 198.182 262.554 197.296 261.604C196.826 261.115 196.46 260.464 195.982 259.98C195.505 259.495 194.545 258.927 194.022 259.329C193.926 259.403 193.837 259.49 193.756 259.588C193.278 258.36 192.823 257.141 192.269 255.952C191.471 254.288 190.285 252.766 188.782 252.447C187.864 252.26 186.925 252.537 186.166 253.221C185.288 254.014 184.737 255.668 185.396 256.784C185.56 257.032 185.739 257.264 185.931 257.479C186.377 258.131 186.776 258.834 187.122 259.578C188.363 261.793 190.221 263.325 192.319 263.866L192.184 264.355C191.91 265.373 191.329 266.601 191.475 267.659L205.937 273.948C206.865 274.426 207.85 274.702 208.85 274.765C209.24 274.761 209.628 274.695 210.006 274.569V275.509V275.548C210.044 282.003 209.235 288.415 209.085 294.865C209.058 296.045 209.085 297.312 209.671 298.233C210.325 299.241 211.489 299.441 212.502 299.211C212.746 299.159 212.985 299.091 213.219 299.006C213.561 300.63 213.809 302.283 213.958 303.954L214.914 312.695C215.037 313.59 215.087 314.498 215.064 315.406C214.952 317.457 214.101 319.292 213.485 321.186C212.868 323.08 212.502 325.346 213.311 327.118C213.565 327.666 213.916 328.131 214.143 328.699C214.432 329.578 214.564 330.527 214.529 331.479C214.588 334.115 214.644 336.755 214.698 339.398C214.53 339.362 214.358 339.406 214.213 339.52C213.411 340.313 213.5 344.086 213.442 345.256C213.381 347.214 213.442 349.21 213.357 351.188C213.257 353.852 212.92 356.494 212.352 359.062C212.213 359.897 211.91 360.674 211.47 361.319C211.019 361.816 210.482 362.17 209.902 362.351C207.982 363.115 205.975 363.462 203.965 363.379C203.152 363.345 202.305 363.247 201.549 363.638C200.794 364.03 200.186 365.107 200.459 366.086C200.694 366.908 201.407 367.299 202.05 367.608C203.52 368.265 204.939 369.094 206.288 370.084C206.807 370.534 207.355 370.928 207.925 371.264C208.472 371.513 209.038 371.69 209.613 371.792L216.443 373.29C217.842 373.593 219.525 373.779 220.415 372.311C220.897 371.518 220.966 370.441 220.943 369.433C220.905 367.475 220.596 365.484 220.797 363.526C220.949 362.369 221.189 361.233 221.513 360.134C222.194 357.566 222.877 355 223.563 352.436C224.249 349.861 224.942 347.262 225.208 344.561C225.304 343.582 225.297 342.466 224.707 341.854C224.558 341.699 224.385 341.586 224.199 341.522C224.175 339.163 223.933 336.799 224.037 334.44C224.064 333.852 224.11 333.265 224.148 332.673C224.506 333.104 224.825 333.583 225.1 334.102C225.759 335.414 226.002 337.146 227.007 338.017C227.862 338.761 229.13 338.722 229.731 339.799C229.924 340.212 230.069 340.659 230.162 341.125C230.511 342.279 231.035 343.335 231.703 344.233C231.933 345.307 232.252 346.347 232.655 347.336C233.222 348.86 233.787 350.378 234.35 351.892C234.928 353.526 235.571 355.122 236.276 356.674C236.815 357.651 237.249 358.714 237.567 359.836C238.11 362.253 237.224 364.906 235.822 366.688C234.419 368.469 232.57 369.492 230.748 370.446C230.556 370.529 230.38 370.662 230.232 370.838C230.074 371.075 229.99 371.378 229.997 371.689C229.997 372.82 230.729 373.789 231.568 374.136C232.427 374.429 233.327 374.471 234.2 374.259C239.123 373.5 244.031 371.973 248.385 368.934C249.036 368.542 249.613 367.976 250.076 367.275C250.3 366.922 250.444 366.498 250.494 366.049C250.543 365.6 250.496 365.143 250.357 364.725Z" fill="url(#paint0_linear_2235_6)"/>
<path d="M229.552 254.972C230.374 256.574 231.144 258.215 231.863 259.895C232.367 261.007 232.776 262.183 233.085 263.404C233.531 265.362 233.52 267.452 233.855 269.449C234.24 271.798 235.142 274.039 235.142 276.447C235.083 278.534 234.515 280.545 233.516 282.203C232.52 283.847 231.38 285.341 230.118 286.657C227.209 277.082 225.584 266.956 225.31 256.699C225.272 255.28 225.264 253.817 225.672 252.49C225.923 251.658 227.125 249.378 227.899 250.273C228.18 250.601 228.253 252.079 228.427 252.574C228.751 253.409 229.128 254.211 229.552 254.972Z" fill="#2F2E41"/>
<path opacity="0.1" d="M229.552 254.972C230.374 256.574 231.144 258.215 231.863 259.895C232.367 261.007 232.776 262.183 233.085 263.404C233.531 265.362 233.52 267.452 233.855 269.449C234.24 271.798 235.142 274.039 235.142 276.447C235.083 278.534 234.515 280.545 233.516 282.203C232.52 283.847 231.38 285.341 230.118 286.657C227.209 277.082 225.584 266.956 225.31 256.699C225.272 255.28 225.264 253.817 225.672 252.49C225.923 251.658 227.125 249.378 227.899 250.273C228.18 250.601 228.253 252.079 228.427 252.574C228.751 253.409 229.128 254.211 229.552 254.972Z" fill="black"/>
<path d="M127.983 188.2C124.935 192.067 124.569 193.77 122.74 194.538C120.91 195.307 114.326 199.638 116.394 204.439L121.957 209.108L122.119 209.245L122.971 212.495L114.557 231.524C114.557 231.524 100.688 223.468 99.3276 235.385C97.9676 247.302 98.8306 250.557 98.4646 256.92C98.0986 263.282 98.584 265.122 97.3628 265.122C96.1415 265.122 95.66 260.943 95.66 260.943C95.66 260.943 95.5829 260.752 95.4481 260.394C93.6335 255.603 81.3169 220.429 101.046 196.251C101.046 196.251 110.184 195.488 112.384 182.176C113.902 172.975 119.211 173.767 122.74 175.642C123.886 176.213 124.955 177.011 125.906 178.006C126.762 179.035 127.523 180.184 128.175 181.432C129.181 183.448 129.728 185.978 127.983 188.2Z" fill="#D0D2D5"/>
<path opacity="0.1" d="M122.119 209.245L122.971 212.495L114.557 231.524C114.557 231.524 100.687 223.468 99.3275 235.385C97.9676 247.303 98.8305 250.557 98.4646 256.92C98.0986 263.282 98.584 265.122 97.3627 265.122C96.1415 265.122 95.6599 260.943 95.6599 260.943C95.6599 260.943 95.5828 260.752 95.448 260.395C94.8354 254.443 91.7303 219.631 102.987 221.481C102.987 221.481 112.122 226.904 113.582 224.74C114.738 223.027 119.869 213.175 121.957 209.133L122.119 209.245Z" fill="black"/>
<path opacity="0.1" d="M128.176 181.402L122.613 189.433C122.613 189.433 116.152 200.416 114.812 199.951C114.41 199.84 114.001 199.779 113.59 199.77C113.143 199.726 112.715 199.523 112.355 199.183C111.995 198.843 111.718 198.38 111.557 197.848C111.396 197.316 111.357 196.737 111.444 196.178C111.531 195.62 111.741 195.103 112.049 194.69C114.253 191.753 118.314 186.179 118.579 184.941C118.845 183.702 121.43 178.275 122.725 175.617C123.872 176.189 124.94 176.986 125.892 177.981C126.753 179.008 127.519 180.156 128.176 181.402Z" fill="black"/>
<path d="M285.574 296.95C284.63 299.348 279.795 308.344 277.68 312.274L276.69 314.124C276.69 314.124 276.304 317.374 269.99 313.346C263.676 309.318 115.318 229.792 115.318 229.792L114.312 225.955L121.632 212.031L284.237 291.841C284.237 291.841 286.795 293.852 285.574 296.95Z" fill="#454B69"/>
<path opacity="0.1" d="M277.68 312.274L276.69 314.124C276.69 314.124 276.304 317.374 269.99 313.346C263.676 309.318 115.318 229.792 115.318 229.792L114.312 225.955L277.68 312.274Z" fill="black"/>
<path d="M188.194 260.328C186.688 260.014 185.016 260.166 183.845 261.409C183.137 262.171 182.689 263.251 182.596 264.424C182.496 265.78 183.117 267.39 184.188 267.493C184.445 267.496 184.703 267.475 184.958 267.429C185.635 267.425 186.31 267.497 186.977 267.644C188.289 267.801 189.611 267.556 190.833 266.929C192.056 266.302 193.141 265.312 194 264.042C194.921 262.574 193.707 261.938 192.621 261.644C191.134 261.243 189.681 260.631 188.194 260.328Z" fill="#FBBEBE"/>
<path d="M213.958 304.527L214.913 313.151C215.035 314.041 215.084 314.944 215.06 315.847C214.948 317.878 214.097 319.699 213.484 321.578C212.872 323.458 212.498 325.709 213.311 327.451C213.561 327.995 213.912 328.46 214.139 329.022C214.428 329.893 214.559 330.834 214.524 331.778L214.786 344.013C217.76 344.271 220.745 344.25 223.716 343.95C223.833 343.957 223.947 343.912 224.04 343.822C224.118 343.696 224.158 343.538 224.152 343.377C224.283 340.514 223.89 337.646 224.017 334.783C224.063 333.735 224.179 332.693 224.194 331.641C224.24 327.378 222.584 323.203 223.085 318.989C223.242 317.926 223.448 316.875 223.701 315.842C225.284 308.501 224.949 300.788 224.599 293.207C224.605 293.085 224.577 292.964 224.522 292.864C224.465 292.792 224.392 292.742 224.314 292.722C222.628 292.08 220.846 291.962 219.117 292.38C217.388 292.797 215.764 293.737 214.382 295.12C213.962 295.551 212.902 295.967 212.625 296.481C212.24 297.195 212.744 297.91 212.968 298.669C213.463 300.57 213.795 302.535 213.958 304.527Z" fill="#3F3D56"/>
<path opacity="0.1" d="M213.958 304.527L214.913 313.151C215.035 314.041 215.084 314.944 215.06 315.847C214.948 317.878 214.097 319.699 213.484 321.578C212.872 323.458 212.498 325.709 213.311 327.451C213.561 327.995 213.912 328.46 214.139 329.022C214.428 329.893 214.559 330.834 214.524 331.778L214.786 344.013C217.76 344.271 220.745 344.25 223.716 343.95C223.833 343.957 223.947 343.912 224.04 343.822C224.118 343.696 224.158 343.538 224.152 343.377C224.283 340.514 223.89 337.646 224.017 334.783C224.063 333.735 224.179 332.693 224.194 331.641C224.24 327.378 222.584 323.203 223.085 318.989C223.242 317.926 223.448 316.875 223.701 315.842C225.284 308.501 224.949 300.788 224.599 293.207C224.605 293.085 224.577 292.964 224.522 292.864C224.465 292.792 224.392 292.742 224.314 292.722C222.628 292.08 220.846 291.962 219.117 292.38C217.388 292.797 215.764 293.737 214.382 295.12C213.962 295.551 212.902 295.967 212.625 296.481C212.24 297.195 212.744 297.91 212.968 298.669C213.463 300.57 213.795 302.535 213.958 304.527Z" fill="black"/>
<path d="M231.823 301.927C231.372 303.116 230.768 304.222 230.498 305.5C229.797 308.872 231.611 312.351 231.396 315.807C231.326 316.898 231.06 317.96 231.041 319.052C231.022 320.143 231.338 321.357 232.101 321.861C232.613 322.194 233.256 322.159 233.738 322.541C234.551 323.172 234.643 324.606 234.562 325.81C234.481 327.014 234.347 328.36 234.948 329.3C235.406 330.029 236.192 330.313 236.685 331.003C236.979 331.498 237.228 332.034 237.429 332.599C238.165 334.233 239.509 335.232 240.611 336.514C241.713 337.796 242.645 339.676 242.152 341.452C241.79 342.754 240.773 343.557 239.794 344.168C238.009 345.289 236.124 346.136 234.181 346.689C233.972 346.769 233.752 346.784 233.538 346.733C233.321 346.632 233.127 346.464 232.975 346.244C231.839 344.829 230.664 343.346 230.14 341.442C230.046 340.981 229.901 340.539 229.708 340.131C229.107 339.059 227.84 339.098 226.984 338.359C225.983 337.493 225.74 335.775 225.085 334.478C224.43 333.181 223.471 332.408 222.774 331.267C221.595 329.368 221.306 326.833 220.462 324.665C220.104 323.745 219.645 322.884 219.36 321.924C219.073 320.775 218.895 319.585 218.832 318.381C218.289 312.665 216.906 306.909 217.777 301.251C217.969 300.008 218.266 298.804 218.389 297.522C218.601 295.305 218.266 293.034 218.524 290.822C218.531 290.544 218.586 290.272 218.687 290.025C218.788 289.779 218.931 289.564 219.106 289.398C219.314 289.279 219.54 289.22 219.769 289.226C222.052 289.071 224.342 289.137 226.618 289.422C227.774 289.564 229.069 289.863 229.762 291.062C230.352 292.089 230.321 293.465 230.509 294.713C230.744 296.25 231.357 297.086 232 298.29C232.644 299.494 232.297 300.684 231.823 301.927Z" fill="#3F3D56"/>
<path d="M222.937 341.697C223.545 341.697 224.22 341.648 224.69 342.138C225.275 342.75 225.283 343.87 225.191 344.825C224.921 347.507 224.231 350.086 223.542 352.655L221.492 360.295C221.168 361.385 220.928 362.513 220.775 363.662C220.575 365.62 220.883 367.578 220.922 369.535C220.922 370.514 220.872 371.601 220.39 372.389C219.52 373.813 217.821 373.647 216.422 373.368L209.599 371.899C209.024 371.802 208.458 371.626 207.912 371.376C207.342 371.042 206.795 370.651 206.275 370.206C204.924 369.226 203.506 368.407 202.037 367.759C201.397 367.455 200.681 367.069 200.449 366.251C200.176 365.273 200.785 364.196 201.54 363.804C202.295 363.413 203.139 363.511 203.955 363.54C205.964 363.621 207.969 363.277 209.888 362.522C210.466 362.342 211.003 361.99 211.452 361.494C211.909 360.842 212.221 360.046 212.354 359.189C212.935 356.638 213.282 354.011 213.386 351.358C213.467 349.401 213.413 347.443 213.475 345.485C213.513 344.325 213.425 340.591 214.226 339.793C214.839 339.196 217.358 340.846 218.187 341.086C219.744 341.539 221.34 341.744 222.937 341.697Z" fill="#2F2E41"/>
<path d="M245.41 347.139C246.077 349.944 246.181 352.91 246.612 355.792C247.044 358.675 247.807 361.616 249.49 363.623C249.818 363.953 250.1 364.35 250.326 364.798C250.468 365.217 250.517 365.677 250.466 366.129C250.415 366.581 250.266 367.006 250.037 367.357C249.572 368.053 248.996 368.616 248.346 369.007C243.996 372.021 239.1 373.543 234.165 374.297C233.293 374.505 232.395 374.463 231.537 374.175C230.697 373.813 229.954 372.853 229.969 371.728C229.961 371.419 230.044 371.117 230.2 370.881C230.35 370.707 230.528 370.575 230.721 370.494C232.539 369.545 234.384 368.512 235.791 366.76C237.197 365.008 238.079 362.355 237.536 359.977C237.214 358.863 236.777 357.808 236.237 356.84C235.533 355.301 234.89 353.718 234.311 352.097L232.616 347.58C232.119 346.258 231.618 344.898 231.533 343.439C233.663 343.561 235.789 343.127 237.782 342.167C238.713 341.685 239.579 341.025 240.352 340.209C241.007 339.514 241.604 338.217 242.486 339.123C243.195 339.847 243.642 341.888 244.058 342.921C244.599 344.278 245.051 345.689 245.41 347.139Z" fill="#2F2E41"/>
<path d="M220.571 234.97C220.741 236.849 222.174 238.087 223.541 238.831L214.885 242.34C215.443 240.98 214.993 239.316 214.438 237.936C213.986 236.843 213.471 235.794 212.897 234.798C212.812 234.647 212.716 234.456 212.777 234.28C212.832 234.165 212.919 234.079 213.02 234.04C214.8 233.032 216.634 231.989 218.579 231.622C219.142 231.519 220.205 231.235 220.625 231.96C221.045 232.684 220.49 234.103 220.571 234.97Z" fill="#FBBEBE"/>
<path opacity="0.1" d="M220.571 234.97C220.741 236.849 222.174 238.087 223.541 238.831L214.885 242.34C215.443 240.98 214.993 239.316 214.438 237.936C213.986 236.843 213.471 235.794 212.897 234.798C212.812 234.647 212.716 234.456 212.777 234.28C212.832 234.165 212.919 234.079 213.02 234.04C214.8 233.032 216.634 231.989 218.579 231.622C219.142 231.519 220.205 231.235 220.625 231.96C221.045 232.684 220.49 234.103 220.571 234.97Z" fill="black"/>
<path d="M215.538 236.491C219.287 236.491 222.326 232.63 222.326 227.868C222.326 223.105 219.287 219.244 215.538 219.244C211.789 219.244 208.75 223.105 208.75 227.868C208.75 232.63 211.789 236.491 215.538 236.491Z" fill="#FBBEBE"/>
<path d="M209.655 298.835C210.314 299.838 211.474 300.034 212.487 299.814C214.856 299.324 216.794 297.107 219.113 296.309C221.956 295.331 224.965 296.588 227.65 298.13C230.336 299.672 233.005 301.556 235.941 301.82C233.287 294.303 234.805 285.258 232.266 277.677C231.645 275.822 230.779 274.036 230.64 272.029C230.467 269.538 231.445 267.135 231.595 264.659C231.734 262.451 231.21 260.254 230.709 258.149C230.09 255.565 229.471 252.981 228.852 250.397C228.159 247.505 227.446 244.563 226.102 242.077C225.605 241.162 225.454 239.307 224.699 238.754C223.05 237.545 220.55 239.067 218.763 239.15C216.975 239.233 215.345 240.848 214.301 242.674C213.196 244.602 212.568 246.898 211.99 249.169C211.07 252.55 210.383 256.026 209.936 259.559C209.879 260.087 209.828 260.616 209.79 261.15C209.405 266.176 209.967 271.232 209.998 276.282V276.317C210.037 282.723 209.227 289.09 209.077 295.492C209.062 296.662 209.085 297.939 209.655 298.835Z" fill="#2F2E41"/>
<path opacity="0.1" d="M210.009 276.286C211.338 275.86 212.54 274.769 213.572 273.575C214.467 272.558 215.261 271.408 215.938 270.149C216.79 268.456 217.475 266.636 217.976 264.731C219.402 259.634 220.308 254.327 220.673 248.937C220.773 247.469 220.804 245.893 220.114 244.728C219.727 244.097 219.183 243.651 218.571 243.463C217.959 243.275 217.315 243.355 216.743 243.691C215.834 244.254 215.244 245.394 214.697 246.485C213.615 248.649 212.525 250.841 211.827 253.249C211.519 254.316 211.292 255.412 210.991 256.484C210.686 257.541 210.333 258.576 209.936 259.582C209.878 260.111 209.828 260.639 209.789 261.173C209.431 266.199 209.978 271.235 210.009 276.286Z" fill="black"/>
<path d="M220.097 243.785C220.787 244.95 220.756 246.54 220.66 247.989C220.296 253.378 219.39 258.686 217.963 263.783C217.466 265.704 216.781 267.539 215.925 269.245C215.247 270.502 214.453 271.652 213.56 272.67C212.25 274.188 210.655 275.543 208.879 275.563C207.879 275.503 206.894 275.23 205.966 274.755L191.5 268.501C191.353 267.453 191.935 266.23 192.209 265.221L192.979 262.319C193.199 261.517 193.453 260.65 194.027 260.215C194.601 259.779 195.51 260.376 195.988 260.861C196.466 261.345 196.828 261.982 197.298 262.476C198.188 263.416 199.363 263.768 200.496 264.091L203.743 265.016C204.921 265.426 206.136 265.631 207.357 265.628C208.262 262.114 209.984 259.021 210.959 255.536C211.26 254.469 211.487 253.368 211.799 252.301C212.492 249.893 213.586 247.705 214.669 245.537C215.212 244.451 215.802 243.31 216.715 242.743C217.288 242.402 217.935 242.32 218.55 242.51C219.165 242.699 219.71 243.149 220.097 243.785Z" fill="#2F2E41"/>
<path d="M217.705 229.815C217.653 229.248 217.515 228.7 217.296 228.2C217.183 227.951 217.01 227.753 216.802 227.637C216.594 227.521 216.362 227.492 216.141 227.554C215.463 227.824 215.235 229.155 214.526 229.199C214.049 229.228 213.706 228.612 213.556 228.034C213.405 227.457 213.324 226.796 212.966 226.39C212.717 226.153 212.43 225.986 212.126 225.9C210.481 225.239 208.782 224.021 208.235 221.941C208.106 221.519 208.076 221.058 208.147 220.614C208.397 219.298 209.688 218.901 210.67 218.427C211.652 217.952 212.596 217.14 213.559 216.523C214.523 215.906 215.64 215.471 216.699 215.784C217.237 215.999 217.765 216.249 218.283 216.533C219.878 217.237 221.831 216.91 223.067 218.373C223.608 219.099 224.004 219.978 224.223 220.937C225.086 223.982 225.633 227.594 224.204 230.266C223.322 231.915 222.466 233.799 220.771 234C218.799 234.21 218.017 231.94 217.705 229.815Z" fill="#2F2E41"/>
<path d="M301.256 323.991C308.127 323.991 313.696 322.63 313.696 320.951C313.696 319.273 308.127 317.912 301.256 317.912C294.386 317.912 288.816 319.273 288.816 320.951C288.816 322.63 294.386 323.991 301.256 323.991Z" fill="#6C63FF"/>
<path d="M301.046 322.066C301.846 322.066 302.495 320.988 302.495 319.658C302.495 318.328 301.846 317.25 301.046 317.25C300.246 317.25 299.598 318.328 299.598 319.658C299.598 320.988 300.246 322.066 301.046 322.066Z" fill="#3F3D56"/>
<path d="M301.046 319.121C301.846 319.121 302.495 318.043 302.495 316.713C302.495 315.383 301.846 314.305 301.046 314.305C300.246 314.305 299.598 315.383 299.598 316.713C299.598 318.043 300.246 319.121 301.046 319.121Z" fill="#3F3D56"/>
<path d="M301.046 316.179C301.846 316.179 302.495 315.101 302.495 313.771C302.495 312.441 301.846 311.363 301.046 311.363C300.246 311.363 299.598 312.441 299.598 313.771C299.598 315.101 300.246 316.179 301.046 316.179Z" fill="#3F3D56"/>
<path d="M301.046 313.232C301.846 313.232 302.495 312.154 302.495 310.824C302.495 309.494 301.846 308.416 301.046 308.416C300.246 308.416 299.598 309.494 299.598 310.824C299.598 312.154 300.246 313.232 301.046 313.232Z" fill="#3F3D56"/>
<path d="M301.046 310.287C301.846 310.287 302.495 309.208 302.495 307.879C302.495 306.549 301.846 305.471 301.046 305.471C300.246 305.471 299.598 306.549 299.598 307.879C299.598 309.208 300.246 310.287 301.046 310.287Z" fill="#3F3D56"/>
<path d="M301.046 307.345C301.846 307.345 302.495 306.267 302.495 304.937C302.495 303.607 301.846 302.529 301.046 302.529C300.246 302.529 299.598 303.607 299.598 304.937C299.598 306.267 300.246 307.345 301.046 307.345Z" fill="#3F3D56"/>
<path d="M301.046 304.398C301.846 304.398 302.495 303.32 302.495 301.99C302.495 300.66 301.846 299.582 301.046 299.582C300.246 299.582 299.598 300.66 299.598 301.99C299.598 303.32 300.246 304.398 301.046 304.398Z" fill="#3F3D56"/>
<path d="M306.465 281.86C306.663 281.54 306.843 281.204 307.005 280.852L303.198 280.059L307.317 280.094C307.71 279.001 307.924 277.819 307.947 276.619C307.969 275.418 307.8 274.224 307.448 273.11L301.923 276.751L307.016 271.994C306.538 270.949 305.896 270.04 305.13 269.323C304.364 268.607 303.49 268.099 302.562 267.83C301.635 267.561 300.673 267.538 299.738 267.761C298.803 267.985 297.915 268.45 297.127 269.128C296.34 269.807 295.671 270.684 295.162 271.705C294.653 272.726 294.314 273.869 294.168 275.063C294.022 276.258 294.07 277.477 294.311 278.647C294.551 279.816 294.979 280.91 295.567 281.86C295.257 282.358 294.991 282.896 294.773 283.466L299.716 286.73L294.445 284.484C294.077 285.871 293.987 287.352 294.183 288.795C294.379 290.237 294.854 291.595 295.567 292.745C294.763 294.045 294.263 295.606 294.125 297.249C293.986 298.892 294.214 300.552 294.783 302.038C295.352 303.525 296.238 304.778 297.341 305.655C298.444 306.532 299.719 306.997 301.02 306.997C302.321 306.997 303.596 306.532 304.698 305.655C305.801 304.778 306.688 303.525 307.257 302.038C307.825 300.552 308.054 298.892 307.915 297.249C307.776 295.606 307.277 294.045 306.473 292.745C307.436 291.192 307.959 289.272 307.959 287.295C307.959 285.318 307.436 283.399 306.473 281.846L306.465 281.86Z" fill="#6C63FF"/>
<path opacity="0.1" d="M294.074 287.294C294.074 289.273 294.6 291.195 295.569 292.746C294.765 294.046 294.266 295.606 294.127 297.25C293.989 298.893 294.217 300.553 294.786 302.039C295.354 303.526 296.241 304.779 297.344 305.656C298.447 306.532 299.721 306.997 301.022 306.997C302.323 306.997 303.598 306.532 304.701 305.656C305.804 304.779 306.69 303.526 307.259 302.039C307.828 300.553 308.056 298.893 307.917 297.25C307.779 295.606 307.279 294.046 306.476 292.746C307.396 291.243 294.074 286.305 294.074 287.294Z" fill="black"/>
<path d="M45.18 384.591C55.0717 384.591 63.0905 382.632 63.0905 380.215C63.0905 377.799 55.0717 375.84 45.18 375.84C35.2883 375.84 27.2695 377.799 27.2695 380.215C27.2695 382.632 35.2883 384.591 45.18 384.591Z" fill="#6C63FF"/>
<path d="M44.8772 381.825C46.0283 381.825 46.9614 380.271 46.9614 378.355C46.9614 376.438 46.0283 374.885 44.8772 374.885C43.7261 374.885 42.793 376.438 42.793 378.355C42.793 380.271 43.7261 381.825 44.8772 381.825Z" fill="#3F3D56"/>
<path d="M44.8772 377.586C46.0283 377.586 46.9614 376.033 46.9614 374.116C46.9614 372.2 46.0283 370.646 44.8772 370.646C43.7261 370.646 42.793 372.2 42.793 374.116C42.793 376.033 43.7261 377.586 44.8772 377.586Z" fill="#3F3D56"/>
<path d="M44.8772 373.348C46.0283 373.348 46.9614 371.795 46.9614 369.878C46.9614 367.962 46.0283 366.408 44.8772 366.408C43.7261 366.408 42.793 367.962 42.793 369.878C42.793 371.795 43.7261 373.348 44.8772 373.348Z" fill="#3F3D56"/>
<path d="M44.8772 369.11C46.0283 369.11 46.9614 367.556 46.9614 365.64C46.9614 363.724 46.0283 362.17 44.8772 362.17C43.7261 362.17 42.793 363.724 42.793 365.64C42.793 367.556 43.7261 369.11 44.8772 369.11Z" fill="#3F3D56"/>
<path d="M44.8772 364.872C46.0283 364.872 46.9614 363.318 46.9614 361.402C46.9614 359.485 46.0283 357.932 44.8772 357.932C43.7261 357.932 42.793 359.485 42.793 361.402C42.793 363.318 43.7261 364.872 44.8772 364.872Z" fill="#3F3D56"/>
<path d="M44.8772 360.627C46.0283 360.627 46.9614 359.074 46.9614 357.157C46.9614 355.241 46.0283 353.688 44.8772 353.688C43.7261 353.688 42.793 355.241 42.793 357.157C42.793 359.074 43.7261 360.627 44.8772 360.627Z" fill="#3F3D56"/>
<path d="M44.8772 356.389C46.0283 356.389 46.9614 354.836 46.9614 352.919C46.9614 351.003 46.0283 349.449 44.8772 349.449C43.7261 349.449 42.793 351.003 42.793 352.919C42.793 354.836 43.7261 356.389 44.8772 356.389Z" fill="#3F3D56"/>
<path d="M52.6829 323.917C52.965 323.45 53.2224 322.959 53.4534 322.449L47.9751 321.303L53.9003 321.362C54.4682 319.79 54.7778 318.087 54.8103 316.358C54.8428 314.629 54.5974 312.909 54.0891 311.305L46.1451 316.561L53.465 309.709C52.7795 308.198 51.8563 306.883 50.753 305.846C49.6496 304.808 48.3898 304.071 47.0521 303.679C45.7144 303.288 44.3276 303.251 42.9782 303.571C41.6288 303.89 40.3457 304.56 39.2091 305.538C38.0724 306.515 37.1066 307.78 36.3718 309.253C35.6371 310.726 35.1492 312.376 34.9385 314.099C34.7279 315.822 34.7991 317.582 35.1477 319.269C35.4963 320.955 36.1147 322.533 36.9645 323.902C36.5146 324.617 36.1271 325.391 35.8087 326.212L42.9244 330.911L35.3387 327.676C34.8071 329.681 34.6787 331.824 34.9654 333.909C35.252 335.994 35.9445 337.955 36.9799 339.613C35.8208 341.484 35.0997 343.733 34.8991 346.101C34.6985 348.469 35.0265 350.861 35.8455 353.003C36.6645 355.145 37.9416 356.952 39.5307 358.215C41.1197 359.479 42.9566 360.149 44.8314 360.149C46.7062 360.149 48.5431 359.479 50.1321 358.215C51.7212 356.952 52.9983 355.145 53.8173 353.003C54.6363 350.861 54.9643 348.469 54.7637 346.101C54.5631 343.733 53.842 341.484 52.6829 339.613C54.0683 337.376 54.8215 334.613 54.8215 331.767C54.8215 328.921 54.0683 326.158 52.6829 323.922V323.917Z" fill="#6C63FF"/>
<path opacity="0.1" d="M34.8438 331.782C34.8441 334.623 35.5973 337.381 36.9819 339.612C35.8228 341.484 35.1017 343.733 34.9011 346.101C34.7005 348.469 35.0285 350.861 35.8475 353.003C36.6666 355.145 37.9436 356.952 39.5327 358.215C41.1217 359.479 42.9587 360.149 44.8334 360.149C46.7082 360.149 48.5451 359.479 50.1342 358.215C51.7232 356.952 53.0003 355.145 53.8193 353.003C54.6384 350.861 54.9663 348.469 54.7657 346.101C54.5651 343.733 53.844 341.484 52.6849 339.612C54.014 337.449 34.8438 330.338 34.8438 331.782Z" fill="black"/>
<defs>
<linearGradient id="paint0_linear_2235_6" x1="219.877" y1="375.065" x2="211.655" y2="214.635" gradientUnits="userSpaceOnUse">
<stop stop-color="#808080" stop-opacity="0.25"/>
<stop offset="0.54" stop-color="#808080" stop-opacity="0.12"/>
<stop offset="1" stop-color="#808080" stop-opacity="0.1"/>
</linearGradient>
</defs>
</svg>
