<svg width="356" height="421" viewBox="0 0 356 421" fill="none" xmlns="http://www.w3.org/2000/svg">
<path d="M202.188 358.762L211.853 354.402L199.748 313.828L185.483 320.262L202.188 358.762Z" fill="#DC9EA7"/>
<path d="M195.266 347.747L209.724 337.454L213.715 343.939L234.104 344.951C235.111 345 236.076 345.373 236.858 346.015C237.64 346.657 238.198 347.534 238.45 348.518C238.703 349.502 238.637 350.542 238.261 351.485C237.886 352.429 237.222 353.227 236.365 353.763L218.49 364.941L211.462 360.453L214.206 367.62L207.467 371.835L195.266 347.747Z" fill="#292839"/>
<path d="M450.457 281.964C450.457 277.884 449.098 274.572 447.429 274.564H-7.56097C-9.23748 274.572 -10.5892 277.884 -10.5968 281.964V449.945C-10.5967 450.324 -10.7366 450.689 -10.9891 450.969C-11.2416 451.25 -11.5887 451.426 -11.9627 451.462C-13.1839 451.581 -14.4051 451.691 -15.6263 451.792C-15.6565 451.792 -15.6867 451.8 -15.717 451.8C-16.3815 451.861 -17.046 451.907 -17.7106 451.96H-17.7182C-18.06 451.323 -18.3979 450.68 -18.7318 450.032C-18.8447 449.813 -18.9037 449.571 -18.9038 449.324V272.364C-18.9038 271.237 -18.8585 270.103 -18.783 268.984C-18.6752 267.447 -18.4861 265.917 -18.2166 264.401C-16.9403 257.328 -14.0555 252.539 -10.778 252.524H450.639C451.117 252.527 451.59 252.628 452.028 252.821C452.672 253.108 453.254 253.519 453.742 254.031C454.405 254.726 454.971 255.507 455.426 256.353C457.043 259.224 458.198 263.502 458.606 268.481C458.606 268.527 458.613 268.573 458.613 268.618C458.719 269.852 458.772 271.108 458.764 272.364L458.87 288.679L458.938 298.409L459.142 328.938L459.217 339.779L459.55 451.084C459.55 451.488 459.391 451.876 459.107 452.161C458.824 452.447 458.44 452.607 458.039 452.607H451.968C451.567 452.607 451.183 452.447 450.9 452.161C450.616 451.876 450.457 451.488 450.457 451.084V281.964Z" fill="#B2B2B2"/>
<path d="M326.821 176.182H277.795C277.102 176.183 276.437 176.461 275.947 176.956C275.458 177.451 275.183 178.122 275.184 178.822V256.898H329.44V178.822C329.44 178.475 329.373 178.131 329.241 177.811C329.109 177.491 328.917 177.2 328.673 176.954C328.43 176.709 328.141 176.515 327.824 176.382C327.506 176.25 327.165 176.181 326.821 176.182V176.182ZM302.473 220.544C300.94 220.536 299.472 219.919 298.388 218.826C297.304 217.733 296.691 216.253 296.684 214.707V205.702C296.686 204.155 297.297 202.673 298.382 201.579C299.468 200.486 300.939 199.872 302.473 199.872C304.008 199.872 305.479 200.486 306.565 201.579C307.65 202.673 308.261 204.155 308.262 205.702V214.707C308.255 216.253 307.643 217.733 306.559 218.826C305.475 219.919 304.007 220.536 302.473 220.544Z" fill="#2F2E41"/>
<path d="M275.017 254.4V261.933C275.017 262.323 275.172 262.697 275.445 262.973C275.719 263.249 276.09 263.405 276.477 263.405H328.149C328.536 263.403 328.906 263.248 329.18 262.972C329.453 262.696 329.608 262.323 329.61 261.933V254.4H275.017Z" fill="#3F3D56"/>
<path d="M212.026 67.4532C211.462 68.8852 210.593 70.1751 209.48 71.2319C208.368 72.2888 207.039 73.087 205.588 73.5702C204.137 74.0534 202.598 74.2099 201.08 74.0287C199.562 73.8476 198.102 73.3331 196.803 72.5215L127.6 121.124L125.689 101.755L193.732 57.3122C195.229 55.2021 197.442 53.7189 199.951 53.1437C202.461 52.5685 205.092 52.9412 207.347 54.1912C209.602 55.4412 211.324 57.4817 212.186 59.9259C213.048 62.3702 212.991 65.0484 212.026 67.4532V67.4532Z" fill="#DC9EA7"/>
<path d="M57.0852 98.0968C57.0852 98.0968 49.592 109.259 61.3506 119.137C73.1092 129.015 120.769 127.05 128.46 126.965C136.151 126.88 171.44 90.0784 171.44 90.0784L171.209 68.8242L128.603 94.3102L57.0852 98.0968Z" fill="#E4E4E4"/>
<path d="M52.8416 172.205L53.5967 186.67C53.5967 186.67 51.3678 199.484 53.201 202.249C55.0204 205 104.983 209.093 104.983 209.093C104.983 209.093 103.416 187.52 106.242 171.916L52.8416 172.205Z" fill="#DC9EA7"/>
<path d="M206.177 319.485L186.945 336.457L149.251 258.74C111.873 265.221 76.6102 267.297 46.1094 259.457C35.7825 256.84 29.47 246.09 32.01 235.447C32.1288 234.95 32.266 234.457 32.4219 233.97C36.0723 222.742 45.6276 214.798 53.156 202.449L108.146 203.291L102.004 224.655L155.423 217.686C166.166 216.285 175.977 224.124 177.337 235.195C177.408 235.78 177.455 236.367 177.477 236.956L206.177 319.485Z" fill="#292839"/>
<path d="M74.3144 74.861C86.6464 74.861 96.6435 64.7827 96.6435 52.3504C96.6435 39.9182 86.6464 29.8398 74.3144 29.8398C61.9824 29.8398 51.9854 39.9182 51.9854 52.3504C51.9854 64.7827 61.9824 74.861 74.3144 74.861Z" fill="#DC9EA7"/>
<path d="M61.2223 82.9873L81.696 85.4156C82.5593 85.518 83.3695 85.8893 84.0136 86.4779C84.6577 87.0665 85.1037 87.8431 85.2893 88.6993L88.5452 103.719L108.842 127.816C108.842 127.816 116.13 141.593 113.397 157.206C111.752 166.608 108.907 175.756 104.932 184.422C104.932 184.422 55.0173 205.002 53.1952 202.246C51.3731 199.491 50.7818 186.975 50.7818 186.975L44.3601 114.953C43.9926 111.158 44.4625 107.328 45.7362 103.738C47.01 100.148 49.0559 96.8864 51.7274 94.1874C53.3477 92.5807 54.9466 91.4561 56.2481 91.4561C59.188 91.3562 58.8109 84.6857 61.2223 82.9873Z" fill="#E4E4E4"/>
<path d="M105.155 388.94L114.656 393.631L137.528 358.096L123.505 351.171L105.155 388.94Z" fill="#DC9EA7"/>
<path d="M127.915 380.909L108.396 373.438L135.186 292.322C98.7907 281.565 71.3379 264.237 47.3682 243.67C39.2366 236.739 33.1384 227.838 40.0638 219.407C40.3875 219.013 40.7256 218.632 41.078 218.264C49.2558 209.799 70.0102 211.428 82.1599 203.677L109.333 232.924L107.63 240.758L158.643 258.192C168.902 261.697 174.292 273.088 170.682 283.634C170.491 284.191 170.277 284.739 170.04 285.278L127.915 380.909Z" fill="#292839"/>
<path d="M104.829 383.278L121.16 390.159L117.83 397.012L127.811 414.965C128.304 415.852 128.503 416.874 128.379 417.883C128.255 418.892 127.814 419.834 127.122 420.572C126.429 421.311 125.52 421.806 124.527 421.987C123.535 422.168 122.512 422.024 121.606 421.577L102.716 412.248L102.755 403.861L98.1891 410.012L91.0669 406.495L104.829 383.278Z" fill="#292839"/>
<path d="M72.8966 259.079C71.616 258.238 70.5339 257.124 69.7266 255.816C68.9193 254.507 68.4063 253.036 68.2239 251.507C68.0414 249.977 68.1939 248.425 68.6707 246.961C69.1474 245.497 69.9367 244.156 70.9831 243.033L37.4312 165.024L56.6413 166.972L86.3791 243.01C88.1343 244.908 89.1382 247.388 89.2006 249.981C89.263 252.575 88.3795 255.101 86.7176 257.082C85.0558 259.063 82.7309 260.36 80.1836 260.728C77.6363 261.096 75.0435 260.51 72.8966 259.079V259.079Z" fill="#DC9EA7"/>
<path d="M73.7813 99.9025C73.7813 99.9025 64.4121 90.2876 52.4795 99.9511C40.5469 109.615 33.0201 157.1 31.5796 164.717C30.1392 172.334 58.9333 214.492 58.9333 214.492L79.6443 218.472L63.3012 171.324L73.7813 99.9025Z" fill="#E4E4E4"/>
<path d="M408.005 54.3345H198.439C196.638 54.3374 194.912 55.0597 193.639 56.3432C192.366 57.6267 191.649 59.3667 191.646 61.1818V203.748C191.648 205.564 192.364 207.304 193.638 208.588C194.911 209.872 196.638 210.594 198.439 210.595H408.005C409.806 210.594 411.533 209.872 412.806 208.588C414.08 207.304 414.796 205.564 414.798 203.748V61.1818C414.795 59.3667 414.078 57.6267 412.805 56.3432C411.532 55.0597 409.806 54.3374 408.005 54.3345V54.3345Z" fill="#3F3D56"/>
<path d="M406.255 59.2803H200.188C199.224 59.2824 198.3 59.6699 197.619 60.3579C196.938 61.0458 196.556 61.978 196.556 62.9499V201.983C196.557 202.953 196.941 203.884 197.621 204.57C198.302 205.256 199.225 205.643 200.188 205.644H406.255C407.218 205.643 408.141 205.256 408.821 204.57C409.502 203.884 409.886 202.953 409.887 201.983V62.9499C409.887 61.978 409.505 61.0458 408.824 60.3579C408.143 59.6699 407.219 59.2824 406.255 59.2803Z" fill="white"/>
<path d="M366.117 266.026H243.518C243.183 266.026 242.851 265.95 242.549 265.805C242.246 265.659 241.979 265.447 241.767 265.185C241.556 264.922 241.405 264.615 241.326 264.286C241.247 263.957 241.242 263.615 241.312 263.284L243.214 254.175C243.322 253.666 243.6 253.209 244.001 252.88C244.403 252.552 244.904 252.372 245.42 252.37H364.215C364.732 252.372 365.233 252.552 365.634 252.88C366.035 253.209 366.313 253.666 366.421 254.175L368.324 263.284C368.393 263.615 368.388 263.957 368.309 264.286C368.23 264.615 368.08 264.922 367.868 265.185C367.657 265.447 367.39 265.659 367.087 265.805C366.784 265.95 366.452 266.026 366.117 266.026H366.117Z" fill="#2F2E41"/>
<path d="M249.7 254.012H246.661C246.458 254.012 246.292 254.178 246.292 254.383V255.924C246.292 256.129 246.458 256.296 246.661 256.296H249.7C249.903 256.296 250.068 256.129 250.068 255.924V254.383C250.068 254.178 249.903 254.012 249.7 254.012Z" fill="#3F3D56"/>
<path d="M257.25 254.012H254.211C254.008 254.012 253.843 254.178 253.843 254.383V255.924C253.843 256.129 254.008 256.296 254.211 256.296H257.25C257.454 256.296 257.619 256.129 257.619 255.924V254.383C257.619 254.178 257.454 254.012 257.25 254.012Z" fill="#3F3D56"/>
<path d="M264.803 254.012H261.764C261.561 254.012 261.396 254.178 261.396 254.383V255.924C261.396 256.129 261.561 256.296 261.764 256.296H264.803C265.006 256.296 265.171 256.129 265.171 255.924V254.383C265.171 254.178 265.006 254.012 264.803 254.012Z" fill="#3F3D56"/>
<path d="M272.355 254.012H269.317C269.113 254.012 268.948 254.178 268.948 254.383V255.924C268.948 256.129 269.113 256.296 269.317 256.296H272.355C272.559 256.296 272.724 256.129 272.724 255.924V254.383C272.724 254.178 272.559 254.012 272.355 254.012Z" fill="#3F3D56"/>
<path d="M279.904 254.012H276.866C276.662 254.012 276.497 254.178 276.497 254.383V255.924C276.497 256.129 276.662 256.296 276.866 256.296H279.904C280.108 256.296 280.273 256.129 280.273 255.924V254.383C280.273 254.178 280.108 254.012 279.904 254.012Z" fill="#3F3D56"/>
<path d="M287.457 254.012H284.418C284.215 254.012 284.05 254.178 284.05 254.383V255.924C284.05 256.129 284.215 256.296 284.418 256.296H287.457C287.661 256.296 287.826 256.129 287.826 255.924V254.383C287.826 254.178 287.661 254.012 287.457 254.012Z" fill="#3F3D56"/>
<path d="M295.01 254.012H291.971C291.768 254.012 291.603 254.178 291.603 254.383V255.924C291.603 256.129 291.768 256.296 291.971 256.296H295.01C295.213 256.296 295.378 256.129 295.378 255.924V254.383C295.378 254.178 295.213 254.012 295.01 254.012Z" fill="#3F3D56"/>
<path d="M302.562 254.012H299.523C299.319 254.012 299.154 254.178 299.154 254.383V255.924C299.154 256.129 299.319 256.296 299.523 256.296H302.562C302.765 256.296 302.93 256.129 302.93 255.924V254.383C302.93 254.178 302.765 254.012 302.562 254.012Z" fill="#3F3D56"/>
<path d="M310.113 254.012H307.074C306.871 254.012 306.706 254.178 306.706 254.383V255.924C306.706 256.129 306.871 256.296 307.074 256.296H310.113C310.316 256.296 310.481 256.129 310.481 255.924V254.383C310.481 254.178 310.316 254.012 310.113 254.012Z" fill="#3F3D56"/>
<path d="M317.666 254.012H314.627C314.423 254.012 314.258 254.178 314.258 254.383V255.924C314.258 256.129 314.423 256.296 314.627 256.296H317.666C317.869 256.296 318.034 256.129 318.034 255.924V254.383C318.034 254.178 317.869 254.012 317.666 254.012Z" fill="#3F3D56"/>
<path d="M325.217 254.012H322.178C321.975 254.012 321.81 254.178 321.81 254.383V255.924C321.81 256.129 321.975 256.296 322.178 256.296H325.217C325.42 256.296 325.585 256.129 325.585 255.924V254.383C325.585 254.178 325.42 254.012 325.217 254.012Z" fill="#3F3D56"/>
<path d="M332.769 254.012H329.73C329.526 254.012 329.361 254.178 329.361 254.383V255.924C329.361 256.129 329.526 256.296 329.73 256.296H332.769C332.972 256.296 333.137 256.129 333.137 255.924V254.383C333.137 254.178 332.972 254.012 332.769 254.012Z" fill="#3F3D56"/>
<path d="M340.321 254.012H337.283C337.079 254.012 336.914 254.178 336.914 254.383V255.924C336.914 256.129 337.079 256.296 337.283 256.296H340.321C340.525 256.296 340.69 256.129 340.69 255.924V254.383C340.69 254.178 340.525 254.012 340.321 254.012Z" fill="#3F3D56"/>
<path d="M347.872 254.012H344.833C344.629 254.012 344.464 254.178 344.464 254.383V255.924C344.464 256.129 344.629 256.296 344.833 256.296H347.872C348.075 256.296 348.24 256.129 348.24 255.924V254.383C348.24 254.178 348.075 254.012 347.872 254.012Z" fill="#3F3D56"/>
<path d="M355.423 254.012H352.384C352.181 254.012 352.016 254.178 352.016 254.383V255.924C352.016 256.129 352.181 256.296 352.384 256.296H355.423C355.626 256.296 355.792 256.129 355.792 255.924V254.383C355.792 254.178 355.626 254.012 355.423 254.012Z" fill="#3F3D56"/>
<path d="M249.609 257.818H246.571C246.367 257.818 246.202 257.985 246.202 258.19V259.731C246.202 259.936 246.367 260.102 246.571 260.102H249.609C249.813 260.102 249.978 259.936 249.978 259.731V258.19C249.978 257.985 249.813 257.818 249.609 257.818Z" fill="#3F3D56"/>
<path d="M257.161 257.818H254.122C253.918 257.818 253.753 257.985 253.753 258.19V259.731C253.753 259.936 253.918 260.102 254.122 260.102H257.161C257.364 260.102 257.529 259.936 257.529 259.731V258.19C257.529 257.985 257.364 257.818 257.161 257.818Z" fill="#3F3D56"/>
<path d="M264.712 257.818H261.673C261.47 257.818 261.305 257.985 261.305 258.19V259.731C261.305 259.936 261.47 260.102 261.673 260.102H264.712C264.916 260.102 265.081 259.936 265.081 259.731V258.19C265.081 257.985 264.916 257.818 264.712 257.818Z" fill="#3F3D56"/>
<path d="M272.265 257.818H269.226C269.022 257.818 268.857 257.985 268.857 258.19V259.731C268.857 259.936 269.022 260.102 269.226 260.102H272.265C272.468 260.102 272.633 259.936 272.633 259.731V258.19C272.633 257.985 272.468 257.818 272.265 257.818Z" fill="#3F3D56"/>
<path d="M279.817 257.818H276.779C276.575 257.818 276.41 257.985 276.41 258.19V259.731C276.41 259.936 276.575 260.102 276.779 260.102H279.817C280.021 260.102 280.186 259.936 280.186 259.731V258.19C280.186 257.985 280.021 257.818 279.817 257.818Z" fill="#3F3D56"/>
<path d="M287.368 257.818H284.329C284.126 257.818 283.96 257.985 283.96 258.19V259.731C283.96 259.936 284.126 260.102 284.329 260.102H287.368C287.571 260.102 287.736 259.936 287.736 259.731V258.19C287.736 257.985 287.571 257.818 287.368 257.818Z" fill="#3F3D56"/>
<path d="M294.92 257.818H291.882C291.678 257.818 291.513 257.985 291.513 258.19V259.731C291.513 259.936 291.678 260.102 291.882 260.102H294.92C295.124 260.102 295.289 259.936 295.289 259.731V258.19C295.289 257.985 295.124 257.818 294.92 257.818Z" fill="#3F3D56"/>
<path d="M302.473 257.818H299.435C299.231 257.818 299.066 257.985 299.066 258.19V259.731C299.066 259.936 299.231 260.102 299.435 260.102H302.473C302.677 260.102 302.842 259.936 302.842 259.731V258.19C302.842 257.985 302.677 257.818 302.473 257.818Z" fill="#3F3D56"/>
<path d="M310.022 257.818H306.983C306.78 257.818 306.615 257.985 306.615 258.19V259.731C306.615 259.936 306.78 260.102 306.983 260.102H310.022C310.226 260.102 310.391 259.936 310.391 259.731V258.19C310.391 257.985 310.226 257.818 310.022 257.818Z" fill="#3F3D56"/>
<path d="M317.575 257.818H314.536C314.333 257.818 314.167 257.985 314.167 258.19V259.731C314.167 259.936 314.333 260.102 314.536 260.102H317.575C317.778 260.102 317.943 259.936 317.943 259.731V258.19C317.943 257.985 317.778 257.818 317.575 257.818Z" fill="#3F3D56"/>
<path d="M325.127 257.818H322.089C321.885 257.818 321.72 257.985 321.72 258.19V259.731C321.72 259.936 321.885 260.102 322.089 260.102H325.127C325.331 260.102 325.496 259.936 325.496 259.731V258.19C325.496 257.985 325.331 257.818 325.127 257.818Z" fill="#3F3D56"/>
<path d="M332.679 257.818H329.64C329.437 257.818 329.271 257.985 329.271 258.19V259.731C329.271 259.936 329.437 260.102 329.64 260.102H332.679C332.882 260.102 333.047 259.936 333.047 259.731V258.19C333.047 257.985 332.882 257.818 332.679 257.818Z" fill="#3F3D56"/>
<path d="M340.23 257.818H337.192C336.988 257.818 336.823 257.985 336.823 258.19V259.731C336.823 259.936 336.988 260.102 337.192 260.102H340.23C340.434 260.102 340.599 259.936 340.599 259.731V258.19C340.599 257.985 340.434 257.818 340.23 257.818Z" fill="#3F3D56"/>
<path d="M347.783 257.818H344.745C344.541 257.818 344.376 257.985 344.376 258.19V259.731C344.376 259.936 344.541 260.102 344.745 260.102H347.783C347.987 260.102 348.152 259.936 348.152 259.731V258.19C348.152 257.985 347.987 257.818 347.783 257.818Z" fill="#3F3D56"/>
<path d="M355.334 257.818H352.296C352.092 257.818 351.927 257.985 351.927 258.19V259.731C351.927 259.936 352.092 260.102 352.296 260.102H355.334C355.538 260.102 355.703 259.936 355.703 259.731V258.19C355.703 257.985 355.538 257.818 355.334 257.818Z" fill="#3F3D56"/>
<path d="M312.289 262.386H282.819C282.615 262.386 282.45 262.552 282.45 262.757V264.298C282.45 264.503 282.615 264.67 282.819 264.67H312.289C312.492 264.67 312.658 264.503 312.658 264.298V262.757C312.658 262.552 312.492 262.386 312.289 262.386Z" fill="#3F3D56"/>
<path d="M50.7002 32.2839C47.098 33.365 43.7374 30.3273 41.2302 27.4495L42.1213 28.5154C36.2234 32.7026 32.6967 39.5241 30.4084 46.4293C28.1202 53.3269 26.844 60.5518 24.2613 67.3504C21.6785 74.1414 17.5099 80.7116 11.1286 84.0995C2.57997 88.637 -7.89442 86.5738 -16.9868 83.3001C-17.1076 83.2544 -17.2209 83.2164 -17.3418 83.1707C-13.6592 76.2359 -11.4039 68.6228 -10.7113 60.7878C-14.4516 68.1496 -19.8459 74.5289 -26.4643 79.4174C-32.4054 76.6948 -38.1182 73.4918 -43.5466 69.8399C-47.0582 67.4722 -50.7586 64.4117 -51.1664 60.1712C-51.5817 55.961 -48.4628 52.1164 -44.7851 50.0912C-41.1073 48.0661 -36.8783 47.3809 -32.8607 46.1628C-28.8507 44.9523 -24.7576 42.9653 -22.6507 39.3109C-17.7949 30.9059 -25.9659 19.0521 -20.7552 10.8603C-18.1876 6.83291 -13.2033 5.2189 -8.58163 4.09976C-1.52728 2.39869 5.63308 1.18034 12.8505 0.453032C19.1864 -0.186478 25.7339 -0.422486 31.7602 1.63308C37.7866 3.68865 43.2541 8.46214 44.5455 14.7507C48.0646 16.6159 51.7877 18.6791 53.6756 22.2192C55.5636 25.7518 54.5139 31.1419 50.7002 32.2839Z" fill="#2F2E41"/>
<path d="M45.3226 30.8676C41.8732 35.2237 39.9956 39.9347 39.9956 42.7559C32.8299 55.9589 43.0769 67.2997 56.1737 74.5234C61.3973 77.4198 67.429 78.4799 73.3167 77.5364L73.8646 75.1784L74.607 77.3024C74.607 77.3024 83.1339 105.694 85.9465 107.36C84.8792 102.307 83.6566 78.9119 83.0624 73.9807C82.2399 67.269 85.1073 57.277 87.1757 51.2006C88.4583 47.4557 89.1165 43.5225 89.1236 39.5606V39.3874L91.1377 45.9093L98.4701 42.7559C97.106 34.8679 98.4701 25.9131 82.1157 26.6898C73.2705 20.557 65.4812 19.6228 59.0829 21.3622C58.2571 20.0752 53.4956 22.4857 52.1197 21.8081" fill="#2F2E41"/>
<path d="M409.888 62.9499V201.983C409.886 202.953 409.503 203.884 408.822 204.57C408.141 205.256 407.218 205.643 406.255 205.644H333.591C325.553 198.129 318.958 189.184 314.138 179.257C313.821 178.618 313.519 177.97 313.232 177.316C308.84 167.708 306.18 157.388 305.378 146.84C305.325 146.193 305.28 145.546 305.25 144.891C305.151 143.216 305.106 141.518 305.106 139.813C305.092 128.471 307.216 117.23 311.366 106.688C311.616 106.033 311.88 105.386 312.152 104.739C320.505 84.9542 335.597 68.8314 354.706 59.2803H406.255C407.219 59.2824 408.143 59.6699 408.824 60.3579C409.505 61.0458 409.888 61.978 409.888 62.9499V62.9499Z" fill="#5858EB"/>
<path d="M395.897 78.4357H203.081C202.881 78.4312 202.69 78.3478 202.55 78.2033C202.41 78.0589 202.331 77.8648 202.331 77.6626C202.331 77.4605 202.41 77.2664 202.55 77.122C202.69 76.9775 202.881 76.8941 203.081 76.8896H395.897C396.097 76.8941 396.288 76.9775 396.428 77.122C396.569 77.2664 396.647 77.4605 396.647 77.6626C396.647 77.8648 396.569 78.0589 396.428 78.2033C396.288 78.3478 396.097 78.4312 395.897 78.4357Z" fill="#CACACA"/>
<path d="M216.207 72.9439C218.688 72.9439 220.7 70.8705 220.7 68.3128C220.7 65.7551 218.688 63.6816 216.207 63.6816C213.725 63.6816 211.713 65.7551 211.713 68.3128C211.713 70.8705 213.725 72.9439 216.207 72.9439Z" fill="#3F3D56"/>
<path d="M231.729 72.9439C234.21 72.9439 236.222 70.8705 236.222 68.3128C236.222 65.7551 234.21 63.6816 231.729 63.6816C229.247 63.6816 227.235 65.7551 227.235 68.3128C227.235 70.8705 229.247 72.9439 231.729 72.9439Z" fill="#3F3D56"/>
<path d="M247.253 72.9439C249.735 72.9439 251.747 70.8705 251.747 68.3128C251.747 65.7551 249.735 63.6816 247.253 63.6816C244.771 63.6816 242.759 65.7551 242.759 68.3128C242.759 70.8705 244.771 72.9439 247.253 72.9439Z" fill="#3F3D56"/>
<path d="M260.683 123.596H236.59C234.78 123.596 233.313 125.075 233.313 126.899V126.899C233.313 128.723 234.78 130.202 236.59 130.202H260.683C262.493 130.202 263.96 128.723 263.96 126.899C263.96 125.075 262.493 123.596 260.683 123.596Z" fill="#5858EB"/>
<path d="M276.248 136.809H221.026C219.217 136.809 217.75 138.288 217.75 140.112C217.75 141.936 219.217 143.415 221.026 143.415H276.248C278.058 143.415 279.525 141.936 279.525 140.112C279.525 138.288 278.058 136.809 276.248 136.809Z" fill="#E6E6E6"/>
<path d="M276.248 150.023H221.026C219.217 150.023 217.75 151.502 217.75 153.327V153.327C217.75 155.151 219.217 156.63 221.026 156.63H276.248C278.058 156.63 279.525 155.151 279.525 153.327C279.525 151.502 278.058 150.023 276.248 150.023Z" fill="#E6E6E6"/>
<path d="M222.791 197.674C222.795 200.395 222.314 203.095 221.371 205.645H200.188C199.225 205.643 198.302 205.257 197.621 204.571C196.941 203.884 196.557 202.954 196.556 201.983V175.124C197.739 174.931 198.936 174.834 200.135 174.834C203.11 174.834 206.057 175.425 208.805 176.573C211.554 177.72 214.052 179.403 216.155 181.524C218.259 183.645 219.928 186.162 221.067 188.934C222.205 191.705 222.791 194.675 222.791 197.674Z" fill="#3F3CE1"/>
<path opacity="0.2" d="M410.075 106.687V104.738H377.671V82.1499H375.745V104.738H338.605V82.1499H336.679V104.738H312.151C311.879 105.385 311.615 106.033 311.365 106.687H336.679V144.89H305.249C305.279 145.545 305.324 146.192 305.377 146.839H336.679V177.315H313.231C313.518 177.97 313.82 178.617 314.137 179.257H336.679V204.875H338.605V179.257H375.745V204.875H377.671V179.257H410.075V177.315H377.671V146.839H410.075V144.89H377.671V106.687H410.075ZM375.745 177.315H338.605V146.839H375.745V177.315ZM375.745 144.89H338.605V106.687H375.745V144.89Z" fill="black"/>
<path d="M383.986 191.221C383.573 191.24 383.164 191.13 382.814 190.907C382.465 190.684 382.192 190.358 382.032 189.973C381.872 189.588 381.834 189.163 381.922 188.756C382.01 188.348 382.22 187.977 382.524 187.694L382.662 187.14C382.644 187.096 382.626 187.051 382.607 187.007C382.191 186.015 381.493 185.17 380.602 184.577C379.71 183.984 378.665 183.67 377.596 183.674C376.528 183.678 375.485 184 374.598 184.599C373.711 185.199 373.02 186.05 372.611 187.044C370.976 191.014 368.894 194.991 368.381 199.188C368.156 201.044 368.251 202.925 368.663 204.747C364.823 196.302 362.829 187.124 362.816 177.834C362.815 175.502 362.943 173.173 363.201 170.856C363.413 168.957 363.708 167.071 364.085 165.199C366.143 155.04 370.563 145.519 376.98 137.417C380.086 135.708 382.597 133.081 384.176 129.889C384.749 128.742 385.153 127.517 385.377 126.253C385.027 126.299 384.67 126.328 384.32 126.351C384.211 126.357 384.096 126.363 383.987 126.369L383.946 126.371C383.561 126.388 383.179 126.293 382.846 126.097C382.514 125.9 382.244 125.611 382.071 125.264C381.897 124.917 381.827 124.527 381.868 124.141C381.91 123.754 382.061 123.388 382.304 123.087C382.455 122.899 382.606 122.711 382.758 122.524C382.988 122.234 383.223 121.951 383.453 121.661C383.479 121.634 383.504 121.605 383.527 121.574C383.792 121.244 384.056 120.92 384.32 120.59C383.838 119.835 383.189 119.203 382.425 118.743C379.777 117.179 376.124 118.262 374.211 120.677C372.293 123.091 371.931 126.479 372.597 129.495C373.252 132.062 374.336 134.498 375.802 136.699C375.659 136.884 375.509 137.063 375.366 137.249C372.741 140.651 370.453 144.305 368.535 148.158C369.002 143.842 368.445 139.476 366.911 135.419C365.356 131.638 362.442 128.454 359.876 125.185C356.794 121.259 350.474 122.973 349.931 127.95C349.926 127.998 349.92 128.046 349.915 128.094C350.297 128.311 350.67 128.541 351.035 128.784C351.493 129.093 351.849 129.535 352.054 130.051C352.26 130.567 352.306 131.133 352.187 131.676C352.067 132.219 351.788 132.713 351.386 133.093C350.983 133.473 350.476 133.722 349.931 133.806L349.875 133.815C350.011 135.2 350.251 136.572 350.593 137.92C351.585 141.684 353.337 145.201 355.739 148.25C358.142 151.299 361.144 153.814 364.556 155.639C364.78 155.755 364.998 155.871 365.222 155.981C363.295 161.486 362.087 167.22 361.627 173.039C361.366 176.472 361.382 179.921 361.673 183.352L361.656 183.23C360.92 179.415 358.902 175.973 355.941 173.485C351.543 169.843 345.329 168.502 340.584 165.574C340.08 165.248 339.494 165.073 338.895 165.072C338.295 165.07 337.708 165.242 337.202 165.566C336.697 165.89 336.293 166.353 336.04 166.9C335.786 167.447 335.694 168.056 335.772 168.655C335.779 168.698 335.785 168.741 335.792 168.783C336.499 169.074 337.188 169.408 337.854 169.785C338.235 170.002 338.608 170.232 338.973 170.475C339.432 170.784 339.787 171.225 339.992 171.741C340.198 172.257 340.244 172.824 340.125 173.367C340.006 173.909 339.726 174.403 339.324 174.783C338.921 175.164 338.414 175.412 337.869 175.497L337.813 175.506C337.773 175.512 337.739 175.517 337.699 175.523C338.907 178.432 340.603 181.11 342.713 183.439C345.319 186.258 348.469 188.51 351.969 190.059C355.469 191.607 359.246 192.418 363.068 192.443H363.074C364.112 196.988 365.615 201.413 367.56 205.645H383.585C383.642 205.465 383.694 205.28 383.746 205.1C382.262 205.194 380.773 205.105 379.312 204.834C380.501 203.363 381.689 201.881 382.878 200.41C382.905 200.383 382.93 200.354 382.953 200.323C383.556 199.571 384.165 198.824 384.768 198.071L384.768 198.07C384.801 195.763 384.538 193.461 383.987 191.221L383.986 191.221ZM365.636 154.828L365.644 154.817L365.636 154.84V154.828ZM362.086 187.087L361.948 186.774C361.954 186.548 361.954 186.322 361.948 186.091C361.948 186.027 361.937 185.963 361.937 185.9C361.989 186.299 362.035 186.699 362.092 187.098L362.086 187.087Z" fill="#2F2E41"/>
</svg>
