<svg width="32" height="54" viewBox="0 0 32 54" fill="none" xmlns="http://www.w3.org/2000/svg">
<path d="M5.84169 30.5164C8.24952 30.5164 10.2014 28.5645 10.2014 26.1566C10.2014 23.7488 8.24952 21.7969 5.84169 21.7969C3.43386 21.7969 1.48193 23.7488 1.48193 26.1566C1.48193 28.5645 3.43386 30.5164 5.84169 30.5164Z" fill="#EAC0B3"/>
<path d="M5.8418 29.6445H20.665V51.33C20.665 51.33 17.4884 53.1872 13.2534 53.1872C9.01832 53.1872 5.8418 50.1554 5.8418 50.1554V29.6445Z" fill="#EAC0B3"/>
<path d="M20.5 40.2062C20.5 44.9017 19.7415 44.457 14.8036 44.457C9.86573 44.457 7.58732 40.6509 7.58732 35.9555C7.58732 31.2609 7.39985 27.0293 11.3847 27.0293C22.6529 27.4443 20.5 35.5108 20.5 40.2062Z" fill="#C99688"/>
<path d="M30.1569 25.3725C30.1569 33.1521 28.9484 42.7183 19.357 42.7183C9.76549 42.7183 5.34296 33.1521 5.34296 25.3725C3.22586 16.1299 3.66183 5.23047 18.049 5.23047C32.4362 5.23047 30.1569 17.5921 30.1569 25.3725Z" fill="#F5D0C5"/>
<path d="M23.2805 29.6445H22.4086C21.927 29.6445 21.5366 30.0349 21.5366 30.5165C21.5366 30.998 21.927 31.3884 22.4086 31.3884H23.2805C23.7621 31.3884 24.1525 30.998 24.1525 30.5165C24.1525 30.0349 23.7621 29.6445 23.2805 29.6445Z" fill="#EAC0B3"/>
<path fill-rule="evenodd" clip-rule="evenodd" d="M32.0001 15.6934C31.9997 11.5689 30.3757 7.61027 27.4793 4.67374C24.583 1.73721 20.6471 0.0588071 16.523 0.00151608C12.3988 -0.055775 8.41789 1.51265 5.4411 4.36759C2.46432 7.22253 0.730983 11.1345 0.615967 15.2575H0.609863V50.5715H10.2013V24.0615C12.3681 23.6448 16.1132 22.7275 20.8461 20.7865C25.6104 18.8325 28.5829 16.9857 30.1481 15.8713C30.3591 18.0721 30.2859 20.3706 30.2178 22.5069C30.1864 23.5061 30.1559 24.4687 30.1559 25.3712C30.1559 25.727 30.149 26.0845 30.1341 26.4428C30.3356 26.3792 30.5239 26.3094 30.6913 26.2336C31.9992 25.6372 31.9992 24.8411 31.9992 24.8411V15.6934H32.0001ZM3.22572 22.669C2.59961 23.1374 2.11159 23.7661 1.81316 24.4888C1.44289 25.3831 1.38073 26.3751 1.63648 27.3086C1.89223 28.2421 2.45135 29.064 3.22572 29.6446V22.669Z" fill="#1B0B47"/>
<path d="M15.3711 34.0048C15.3711 33.7735 15.463 33.5517 15.6265 33.3882C15.79 33.2247 16.0118 33.1328 16.243 33.1328H24.2153C24.4465 33.1328 24.6683 33.2247 24.8319 33.3882C24.9954 33.5517 25.0872 33.7735 25.0872 34.0048C25.0872 35.161 24.6279 36.27 23.8103 37.0876C22.9927 37.9052 21.8838 38.3645 20.7275 38.3645H19.7308C18.5746 38.3645 17.4656 37.9052 16.648 37.0876C15.8304 36.27 15.3711 35.161 15.3711 34.0048Z" fill="#66253C"/>
<path fill-rule="evenodd" clip-rule="evenodd" d="M22.1949 38.1116C21.7239 38.2796 21.2275 38.3651 20.7274 38.3645H19.7308C18.6047 38.3645 17.5223 37.9287 16.7103 37.1486C15.8982 36.3684 15.4196 35.3043 15.3745 34.1791C16.0407 33.9297 17.0295 33.9585 18.0052 33.9873C18.3156 33.996 18.6243 34.0047 18.9207 34.0047C20.8477 34.0047 22.4085 35.371 22.4085 37.0565C22.4085 37.4271 22.3327 37.7829 22.1949 38.1116Z" fill="#B03E67"/>
<path d="M16.3052 33.1328H25.0247V34.0048C25.0247 34.236 24.9328 34.4578 24.7693 34.6213C24.6058 34.7848 24.384 34.8767 24.1527 34.8767H17.1771C16.9459 34.8767 16.7241 34.7848 16.5606 34.6213C16.397 34.4578 16.3052 34.236 16.3052 34.0048V33.1328Z" fill="white"/>
<path d="M18.921 26.5931C18.921 25.8707 18.3355 25.2852 17.6131 25.2852C16.8908 25.2852 16.3052 25.8707 16.3052 26.5931V27.465C16.3052 28.1874 16.8908 28.773 17.6131 28.773C18.3355 28.773 18.921 28.1874 18.921 27.465V26.5931Z" fill="#1B0B47"/>
<path d="M27.6403 26.5931C27.6403 25.8707 27.0547 25.2852 26.3323 25.2852C25.61 25.2852 25.0244 25.8707 25.0244 26.5931V27.465C25.0244 28.1874 25.61 28.773 26.3323 28.773C27.0547 28.773 27.6403 28.1874 27.6403 27.465V26.5931Z" fill="#1B0B47"/>
</svg>
