<svg width="416" height="296" viewBox="0 0 416 296" fill="none" xmlns="http://www.w3.org/2000/svg">
<path d="M241.899 155.826C243.855 156.37 245.942 156.177 247.765 155.283C249.588 154.39 251.02 152.858 251.79 150.978C252.56 149.098 252.614 147.001 251.943 145.084C251.271 143.167 249.92 141.563 248.146 140.576L230.547 120.592L215.661 123.811L236.597 144.335C236.083 145.427 235.813 146.617 235.808 147.824C235.803 149.031 236.062 150.224 236.568 151.319C237.073 152.415 237.813 153.386 238.734 154.165C239.655 154.943 240.735 155.51 241.899 155.826L241.899 155.826Z" fill="#EFD3D7"/>
<path d="M183.997 84.2801L227.861 139.39L241.232 133.245L189.675 52.9062L183.997 84.2801Z" fill="#3F3D56"/>
<path d="M383.412 274.746C386.161 269.408 384.668 262.674 381.246 257.74C377.824 252.807 372.771 249.292 367.83 245.887L360.958 241.15L364.24 257.639C365.348 263.214 366.714 269.234 371.064 272.888C372.772 274.29 374.811 275.228 376.987 275.611C379.162 275.995 381.399 275.811 383.483 275.078" fill="#E6E6E6"/>
<path d="M382.893 295.041C382.858 295.167 382.774 295.274 382.66 295.339C382.547 295.403 382.412 295.421 382.286 295.387C382.161 295.348 382.057 295.264 381.992 295.151C381.928 295.038 381.91 294.905 381.94 294.778C382.324 291.986 382.703 289.192 382.883 286.379C383.181 281.727 382.905 276.953 381.185 272.573C379.627 268.635 376.861 265.294 373.284 263.032C372.747 262.693 373.243 261.838 373.782 262.178C375.85 263.482 377.674 265.136 379.173 267.068C381.998 270.713 383.385 275.159 383.819 279.71C384.306 284.835 383.591 289.971 382.896 295.042L382.893 295.041Z" fill="#F2F2F2"/>
<path d="M312.954 263.725C334.604 277.059 327.387 294.838 327.387 294.838L312.954 263.725Z" fill="#E6E6E6"/>
<path d="M355.503 281.952C338.464 281.843 336.263 294.515 336.263 294.515L355.503 281.952Z" fill="#E6E6E6"/>
<path d="M80.6202 295.889C83.2773 295.889 85.4313 293.733 85.4313 291.073C85.4313 288.414 83.2773 286.258 80.6202 286.258C77.9631 286.258 75.8091 288.414 75.8091 291.073C75.8091 293.733 77.9631 295.889 80.6202 295.889Z" fill="#3F3D56"/>
<path d="M84.1189 194.11C84.1189 194.11 95.4906 159.527 96.3653 157.119C97.24 154.711 106.425 158.651 108.83 159.308C111.236 159.964 110.58 162.372 110.58 162.372L98.3335 197.831L102.051 199.582L113.423 163.904C119.983 157.119 115.172 156.681 115.172 156.681C115.172 156.681 101.176 151.866 95.9279 151.428C90.6794 150.99 92.6476 157.338 92.6476 157.338L79.9639 191.045L84.1189 194.11Z" fill="#3F3D56"/>
<path d="M111.455 202.428L111.453 202.426C109.839 200.11 107.548 198.352 104.894 197.394C104.8 197.359 104.691 197.319 104.566 197.275C98.5416 195.168 56.5649 183.823 56.5649 183.823C56.5649 183.823 48.2549 180.759 44.5373 189.076C40.8196 197.394 18.7324 266.341 18.7324 266.341C18.7324 266.341 61.9314 289.464 74.5255 291.981C75.3031 292.168 76.1053 292.232 76.9026 292.169C79.0434 291.872 81.1504 291.368 83.1942 290.665C85.4547 289.928 87.605 288.887 89.5865 287.572L114.079 214.247C114.079 214.247 117.578 206.149 111.455 202.428Z" fill="#FFB163"/>
<path d="M111.455 202.428L111.453 202.426C109.839 200.11 107.548 198.352 104.894 197.394C104.8 197.359 104.691 197.319 104.566 197.275C106.547 200.751 107.3 206.149 107.3 206.149C107.3 206.149 83.2444 277.723 81.0575 284.508C79.3911 289.68 76.03 291.438 74.5254 291.981C75.3029 292.168 76.1052 292.232 76.9025 292.169C79.0432 291.872 81.1502 291.368 83.1941 290.665C83.7918 289.979 84.3213 289.237 84.7752 288.448C84.7752 288.448 109.268 215.123 111.455 211.621C113.642 208.119 111.455 202.428 111.455 202.428Z" fill="#3F3D56"/>
<path d="M65.8589 295.998C68.516 295.998 70.67 293.842 70.67 291.183C70.67 288.523 68.516 286.367 65.8589 286.367C63.2019 286.367 61.0479 288.523 61.0479 291.183C61.0479 293.842 63.2019 295.998 65.8589 295.998Z" fill="#3F3D56"/>
<path d="M19.1695 275.752C21.8266 275.752 23.9806 273.596 23.9806 270.936C23.9806 268.277 21.8266 266.121 19.1695 266.121C16.5124 266.121 14.3584 268.277 14.3584 270.936C14.3584 273.596 16.5124 275.752 19.1695 275.752Z" fill="#3F3D56"/>
<path d="M103.972 160.05C102.037 160.663 99.9443 160.545 98.0907 159.717C96.2371 158.889 94.7513 157.409 93.9149 155.558C93.0785 153.707 92.9495 151.613 93.5525 149.673C94.1555 147.733 95.4485 146.082 97.1864 145.033L114.063 124.434L129.054 127.12L108.861 148.378C109.415 149.45 109.726 150.631 109.774 151.836C109.822 153.042 109.606 154.244 109.139 155.356C108.673 156.469 107.969 157.466 107.076 158.277C106.183 159.088 105.124 159.693 103.972 160.05L103.972 160.05Z" fill="#EFD3D7"/>
<path d="M218.997 250.688L229.451 250.523L228.194 286.187H218.999L218.997 250.688Z" fill="#EFD3D7"/>
<path d="M216.653 283.182L234.762 283.182H234.763C237.824 283.182 240.759 284.399 242.923 286.565C245.087 288.731 246.303 291.669 246.303 294.732V295.108L216.654 295.109L216.653 283.182Z" fill="#2F2E41"/>
<path d="M149.78 241.23L161.2 248.569L138.357 276.075L130.619 271.103L149.78 241.23Z" fill="#EFD3D7"/>
<path d="M130.267 267.305L145.506 277.097L145.507 277.097C148.082 278.752 149.895 281.364 150.547 284.357C151.199 287.35 150.636 290.479 148.983 293.057L148.78 293.373L123.83 277.341L130.267 267.305Z" fill="#2F2E41"/>
<path d="M145.712 132.331C145.712 132.331 171.085 47.9801 179.24 46.8402C187.394 45.7003 200.533 68.4836 200.533 68.4836C217.568 90.2375 235.133 160.703 235.133 160.703C235.133 160.703 205.851 162.537 184.445 173.936C163.04 185.335 137.778 173.359 137.778 173.359L145.712 132.331Z" fill="#3F3D56"/>
<path opacity="0.1" d="M145.712 132.33C145.712 132.33 171.085 47.9797 179.24 46.8398C187.394 45.6999 197.196 68.7144 197.196 68.7144C205.684 103.83 235.133 160.703 235.133 160.703C235.133 160.703 205.851 162.537 184.445 173.936C163.04 185.334 137.778 173.359 137.778 173.359L145.712 132.33Z" fill="black"/>
<path d="M166.529 107.093V149.479L161.545 210.877L136.646 257.321L148.53 265.817L182.483 221.639L195.912 177.773L217.002 274.879L232.847 273.746L221.842 139.11L200.961 101.213L166.529 107.093Z" fill="#2F2E41"/>
<path d="M192.112 66.097C200.035 74.0264 192.678 82.5223 192.678 82.5223L201.732 102.912L166.082 112.541L153.623 56.8206L162.111 47.7584C179.088 47.192 179.097 46.8398 179.097 46.8398C182.071 49.7533 192.112 66.097 192.112 66.097Z" fill="#FFB163"/>
<path d="M151.991 51.1915C149.044 53.361 146.976 56.5209 146.168 60.092C145.36 63.6631 145.864 67.4062 147.59 70.6351C151.674 78.4387 156.067 90.5267 153.802 103.797C149.703 127.813 136.561 146.06 129.241 151.919C126.693 153.959 126.604 156.93 126.978 159.063C128.023 165.022 133.796 171.783 137.788 173.139C138.057 173.228 138.338 173.273 138.622 173.27C145.108 173.272 161.062 152.596 179.396 112.208C190.815 87.054 182.528 66.8856 173.565 54.3955C172.389 52.7612 170.9 51.3768 169.185 50.3225C167.47 49.2682 165.563 48.565 163.575 48.2535C161.587 47.942 159.556 48.0284 157.602 48.5078C155.647 48.9873 153.807 49.8501 152.188 51.0464L151.991 51.1915Z" fill="#3F3D56"/>
<path d="M168.902 75.5112L117.416 143.126L103.834 137.462L152.5 55.3359L168.902 75.5112Z" fill="#3F3D56"/>
<path d="M184.174 39.4986H148.761C148.033 39.4977 147.334 39.2077 146.819 38.6922C146.304 38.1767 146.015 37.4777 146.014 36.7486V21.471C146.012 18.7817 146.54 16.1184 147.568 13.6334C148.595 11.1484 150.101 8.89033 152.001 6.98819C153.9 5.08605 156.155 3.57713 158.638 2.54764C161.12 1.51816 163.78 0.988281 166.467 0.988281C169.154 0.988281 171.815 1.51816 174.297 2.54764C176.779 3.57713 179.035 5.08605 180.934 6.98819C182.834 8.89033 184.34 11.1484 185.367 13.6334C186.394 16.1184 186.922 18.7817 186.921 21.471V36.7486C186.92 37.4777 186.631 38.1767 186.115 38.6922C185.6 39.2077 184.902 39.4977 184.174 39.4986Z" fill="#2F2E41"/>
<path d="M183.829 31.3323C187.801 24.0587 185.131 14.939 177.863 10.9629C170.596 6.98677 161.485 9.65992 157.512 16.9335C153.54 24.2071 156.21 33.3268 163.478 37.3029C170.745 41.279 179.856 38.6059 183.829 31.3323Z" fill="#EFD3D7"/>
<path d="M191.76 22.9998H170.106L169.884 19.8882L168.774 22.9998H165.44L165 16.8327L162.799 22.9998H156.348V22.6942C156.352 18.4008 158.059 14.2845 161.092 11.2485C164.125 8.21258 168.238 6.50485 172.527 6.5H175.58C179.87 6.50485 183.983 8.21257 187.016 11.2485C190.049 14.2845 191.755 18.4007 191.76 22.6942V22.9998Z" fill="#2F2E41"/>
<path d="M169.929 42.3509C169.766 42.3507 169.603 42.3363 169.443 42.3079L153.587 39.5078V13.2793H171.041L170.609 13.7836C164.597 20.8017 169.126 32.1817 172.361 38.3405C172.6 38.7916 172.706 39.3009 172.668 39.8098C172.63 40.3187 172.449 40.8065 172.146 41.217C171.893 41.568 171.559 41.8538 171.174 42.0509C170.789 42.2481 170.362 42.3508 169.929 42.3509Z" fill="#2F2E41"/>
<path d="M0 295.5C0 295.367 0.0515625 295.24 0.143345 295.146C0.235128 295.053 0.359612 295 0.489412 295H415.511C415.64 295 415.765 295.053 415.857 295.146C415.948 295.24 416 295.367 416 295.5C416 295.633 415.948 295.76 415.857 295.854C415.765 295.947 415.64 296 415.511 296H0.489412C0.359612 296 0.235128 295.947 0.143345 295.854C0.0515625 295.76 0 295.633 0 295.5Z" fill="#CBCBCB"/>
</svg>
