<svg width="313" height="305" viewBox="0 0 313 305" fill="none" xmlns="http://www.w3.org/2000/svg">
<g clip-path="url(#clip0_183_6191)">
<path d="M266.267 297.108C266.993 299.833 268.899 302.102 271.2 303.756C271.575 304.026 271.96 304.277 272.35 304.512C272.471 304.582 272.591 304.657 272.716 304.722C272.851 304.803 272.986 304.878 273.121 304.948H283.942C284.137 304.552 284.327 304.151 284.517 303.756C289.154 293.997 292.411 283.467 291.856 272.742C291.635 268.582 290.763 264.482 289.269 260.594C286.298 252.844 280.875 246.137 273.416 242.76C273.231 242.675 273.036 242.59 272.846 242.51C272.906 242.725 272.966 242.936 273.026 243.151C273.826 246.038 274.391 248.985 274.717 251.963C274.747 252.193 274.772 252.424 274.792 252.659C275.502 259.841 274.871 267.093 272.931 274.044C272.926 274.059 272.921 274.079 272.916 274.094C272.491 275.632 271.997 277.147 271.435 278.638C270.995 279.815 270.519 280.977 269.999 282.12C267.828 286.914 264.917 292.023 266.267 297.108Z" fill="#E6E6E6"/>
<path d="M272.711 242.737C272.816 242.877 272.921 243.012 273.026 243.152C275.223 246.068 277.089 249.22 278.589 252.55C278.669 252.715 278.744 252.881 278.809 253.051C280.864 257.701 282.184 262.642 282.721 267.699C282.727 267.733 282.73 267.769 282.731 267.804C282.856 268.986 282.931 270.178 282.961 271.371C283.072 273.605 282.831 275.844 282.246 278.003C281.712 279.767 280.777 281.382 279.514 282.722C279.389 282.857 279.264 282.993 279.129 283.123C279.029 283.228 278.919 283.333 278.814 283.433C277.803 284.4 276.698 285.297 275.747 286.334C275.312 286.799 274.918 287.302 274.572 287.837C274.019 288.733 273.661 289.737 273.523 290.782C273.385 291.826 273.47 292.888 273.771 293.898C274.452 296.433 276.007 298.572 277.598 300.611C278.394 301.633 279.214 302.665 279.924 303.757C280.185 304.148 280.425 304.543 280.645 304.949H281.275C281.065 304.543 280.835 304.148 280.585 303.757C278.759 300.876 276.162 298.402 274.817 295.231C273.906 293.092 273.631 290.667 274.782 288.568C275.119 287.958 275.527 287.389 275.997 286.875C276.913 285.838 278.008 284.951 279.004 284.014C279.254 283.779 279.499 283.539 279.734 283.288C280.981 282.02 281.943 280.5 282.556 278.83C283.25 276.708 283.578 274.484 283.526 272.252C283.526 270.83 283.451 269.397 283.311 267.974C283.296 267.794 283.276 267.609 283.256 267.423C282.233 258.47 278.835 249.955 273.416 242.762C273.316 242.621 273.211 242.486 273.106 242.351C272.891 242.07 272.495 242.461 272.711 242.737Z" fill="white"/>
<path d="M283.054 268.021C284.787 267.729 286.36 266.831 287.492 265.485C288.624 264.14 289.242 262.435 289.234 260.676C289.233 260.604 289.205 260.535 289.154 260.484C289.104 260.433 289.036 260.404 288.964 260.402C288.892 260.401 288.823 260.427 288.77 260.476C288.718 260.525 288.686 260.592 288.682 260.663C288.692 262.302 288.116 263.89 287.059 265.14C286.003 266.391 284.534 267.223 282.919 267.484C282.568 267.542 282.705 268.078 283.054 268.021V268.021Z" fill="white"/>
<path d="M279.653 282.823C276.709 280.762 274.649 277.666 273.883 274.152C273.808 273.804 273.272 273.94 273.348 274.288C274.151 277.943 276.302 281.16 279.37 283.298C279.662 283.501 279.944 283.025 279.653 282.823V282.823Z" fill="white"/>
<path d="M278.754 252.491C278.107 252.744 277.408 252.831 276.718 252.746C276.029 252.661 275.372 252.406 274.805 252.004C274.515 251.797 274.234 252.273 274.522 252.479C275.15 252.921 275.876 253.202 276.638 253.297C277.399 253.393 278.172 253.3 278.889 253.027C278.959 253.007 279.019 252.962 279.056 252.899C279.093 252.837 279.105 252.763 279.09 252.692C279.071 252.621 279.026 252.56 278.963 252.522C278.9 252.485 278.825 252.473 278.754 252.491Z" fill="white"/>
<path d="M235.181 262.108C235.356 262.243 235.536 262.378 235.711 262.518C238.086 264.339 240.31 266.349 242.359 268.53C242.52 268.695 242.68 268.865 242.835 269.036L242.84 269.041C247.7 274.324 251.543 280.462 254.176 287.145L254.191 287.19C254.196 287.205 254.201 287.215 254.206 287.23C255.249 289.905 256.09 292.655 256.722 295.456C257.332 298.191 257.833 301.121 258.788 303.756C258.933 304.162 259.093 304.563 259.263 304.949H281.505C281.43 304.553 281.35 304.152 281.27 303.756C280.139 297.952 278.37 292.29 275.997 286.874C275.917 286.694 275.837 286.514 275.747 286.333C274.522 283.657 273.081 281.086 271.44 278.644C271.44 278.643 271.44 278.643 271.439 278.642C271.439 278.641 271.439 278.641 271.438 278.64C271.438 278.64 271.437 278.639 271.437 278.639C271.436 278.639 271.435 278.639 271.435 278.639C270.533 277.306 269.565 276.021 268.533 274.787C265.858 271.599 262.697 268.854 259.168 266.651C259.148 266.636 259.123 266.626 259.103 266.611C252.08 262.248 243.755 260.169 235.796 261.967H235.791C235.586 262.012 235.386 262.058 235.181 262.108Z" fill="#E6E6E6"/>
<path d="M235.205 262.374C235.376 262.419 235.546 262.469 235.711 262.519C239.217 263.522 242.601 264.911 245.801 266.662C245.961 266.747 246.121 266.837 246.281 266.927C250.704 269.399 254.718 272.54 258.183 276.24C258.185 276.242 258.187 276.246 258.188 276.25C258.228 276.29 258.273 276.335 258.308 276.375C259.108 277.237 259.879 278.133 260.609 279.055C262.038 280.774 263.189 282.706 264.021 284.781C264.656 286.51 264.881 288.365 264.676 290.196C264.661 290.381 264.636 290.562 264.611 290.747C264.591 290.892 264.571 291.038 264.546 291.188C264.216 293.197 263.645 295.211 263.806 297.259C263.903 298.309 264.221 299.327 264.739 300.244C265.258 301.162 265.964 301.96 266.812 302.585C267.389 303.031 268.005 303.423 268.653 303.757C269.58 304.235 270.546 304.634 271.54 304.949H273.506C273.241 304.874 272.98 304.799 272.715 304.724C271.774 304.458 270.851 304.135 269.949 303.757C269.434 303.541 268.932 303.293 268.448 303.015C266.437 301.858 264.761 300.085 264.411 297.715C264.106 295.641 264.696 293.567 265.046 291.539C265.106 291.188 265.161 290.842 265.191 290.497C265.43 288.74 265.285 286.952 264.766 285.257C264.046 283.142 262.97 281.167 261.584 279.416C260.727 278.276 259.812 277.181 258.843 276.135C258.723 275.999 258.598 275.864 258.468 275.729C254.931 272.003 250.847 268.839 246.356 266.346H246.351C243.013 264.485 239.471 263.016 235.796 261.968H235.791C235.626 261.918 235.456 261.868 235.291 261.823C234.945 261.732 234.865 262.278 235.205 262.374Z" fill="white"/>
<path d="M258.666 276.325C259.874 275.048 260.59 273.382 260.685 271.625C260.779 269.868 260.248 268.135 259.184 266.734C258.968 266.452 258.519 266.775 258.736 267.058C259.728 268.36 260.224 269.975 260.132 271.611C260.04 273.246 259.367 274.795 258.235 275.978C257.99 276.236 258.421 276.581 258.666 276.325Z" fill="white"/>
<path d="M264.849 290.193C261.26 290.322 257.753 289.092 255.029 286.748C254.76 286.516 254.414 286.947 254.683 287.179C257.522 289.613 261.174 290.886 264.909 290.743C265.265 290.729 265.203 290.179 264.849 290.193Z" fill="white"/>
<path d="M245.895 266.517C245.53 267.109 245.024 267.6 244.423 267.948C243.822 268.296 243.143 268.488 242.449 268.509C242.093 268.518 242.155 269.068 242.509 269.059C243.276 269.033 244.024 268.819 244.69 268.436C245.355 268.054 245.917 267.514 246.325 266.864C246.369 266.806 246.389 266.733 246.381 266.661C246.373 266.589 246.338 266.522 246.283 266.475C246.226 266.429 246.153 266.408 246.08 266.416C246.008 266.424 245.941 266.46 245.895 266.517Z" fill="white"/>
<path d="M54.3618 291.308C53.0996 296.05 49.7833 299.999 45.7793 302.875C45.1265 303.346 44.4563 303.781 43.7773 304.191C43.5684 304.313 43.3595 304.444 43.1419 304.557C42.9069 304.697 42.6719 304.827 42.4369 304.949H23.6094C23.27 304.261 22.9392 303.563 22.6084 302.875C14.5395 285.896 8.87303 267.574 9.83918 248.913C10.2225 241.674 11.7411 234.542 14.3393 227.776C19.5097 214.292 28.9452 202.621 41.9233 196.746C42.2453 196.598 42.5848 196.45 42.9156 196.311C42.8111 196.685 42.7067 197.051 42.6022 197.426C41.2099 202.449 40.226 207.576 39.6602 212.758C39.6079 213.159 39.5644 213.56 39.5296 213.97C38.293 226.466 39.3911 239.085 42.7676 251.179C42.7764 251.205 42.785 251.24 42.7937 251.266C43.5336 253.942 44.3924 256.577 45.3702 259.172C46.1362 261.22 46.9631 263.242 47.8684 265.23C51.646 273.571 56.7119 282.462 54.3618 291.308Z" fill="#E6E6E6"/>
<path d="M43.1508 196.703C42.968 196.947 42.7851 197.182 42.6024 197.426C38.7793 202.5 35.5328 207.984 32.9232 213.778C32.7839 214.066 32.6534 214.353 32.5402 214.65C28.9644 222.74 26.668 231.338 25.7334 240.136C25.7233 240.196 25.7175 240.258 25.716 240.319C25.4984 242.376 25.3679 244.45 25.3156 246.525C25.2112 250.403 25.4549 254.335 26.5603 258.065C27.4887 261.133 29.1156 263.944 31.3128 266.276C31.5305 266.511 31.7481 266.746 31.9831 266.973C32.1572 267.156 32.3487 267.339 32.5315 267.513C34.2898 269.196 36.2134 270.756 37.8672 272.56C38.6252 273.369 39.3098 274.244 39.9127 275.175C41.9408 278.356 42.2803 282.113 41.3054 285.722C40.1216 290.132 37.4146 293.854 34.6466 297.401C33.2627 299.179 31.8351 300.975 30.5991 302.875C30.1465 303.555 29.7287 304.244 29.3457 304.95H28.249C28.6145 304.244 29.0149 303.555 29.4502 302.875C32.6272 297.863 37.1447 293.557 39.4862 288.04C41.0704 284.318 41.5491 280.1 39.5471 276.448C38.9604 275.386 38.2504 274.397 37.432 273.501C35.8391 271.697 33.9329 270.154 32.2007 268.525C31.7655 268.115 31.339 267.697 30.9299 267.261C28.7609 265.054 27.0873 262.409 26.0207 259.503C24.7237 255.851 24.332 251.911 24.332 248.059C24.332 245.584 24.4626 243.091 24.7063 240.615C24.7324 240.302 24.7672 239.979 24.802 239.656C26.5821 224.079 32.4938 209.263 41.9234 196.747C42.0975 196.503 42.2803 196.267 42.4631 196.032C42.8374 195.544 43.525 196.224 43.1508 196.703Z" fill="white"/>
<path d="M25.1535 240.697C22.1386 240.19 19.4018 238.626 17.432 236.285C15.4622 233.944 14.3876 230.978 14.4 227.917C14.4017 227.792 14.4517 227.673 14.5394 227.584C14.6272 227.495 14.7459 227.444 14.8706 227.442C14.9952 227.439 15.1161 227.485 15.2076 227.569C15.2992 227.654 15.3543 227.771 15.3614 227.896C15.3446 230.746 16.3459 233.509 18.1846 235.685C20.0234 237.862 22.5785 239.308 25.3887 239.764C25.9993 239.863 25.7606 240.796 25.1535 240.697Z" fill="white"/>
<path d="M31.071 266.451C36.1931 262.866 39.7777 257.479 41.1098 251.365C41.2413 250.759 42.1733 250.995 42.042 251.6C40.6439 257.96 36.9023 263.558 31.5638 267.278C31.0548 267.632 30.5647 266.803 31.071 266.451L31.071 266.451Z" fill="white"/>
<path d="M32.6352 213.676C33.7609 214.116 34.978 214.268 36.1773 214.121C37.3765 213.973 38.5203 213.529 39.5059 212.829C40.0102 212.469 40.4998 213.298 39.9988 213.656C38.9062 214.424 37.6424 214.912 36.3178 215.079C34.9932 215.245 33.6481 215.084 32.4 214.61C32.2786 214.575 32.175 214.495 32.1103 214.386C32.0456 214.278 32.0245 214.149 32.0515 214.025C32.0833 213.902 32.1624 213.796 32.2717 213.73C32.381 213.665 32.5116 213.645 32.6352 213.676Z" fill="white"/>
<path d="M108.451 230.407C108.146 230.642 107.833 230.878 107.528 231.122C103.395 234.289 99.5266 237.787 95.9599 241.581C95.6814 241.869 95.4028 242.165 95.133 242.461L95.1243 242.47C86.6672 251.663 79.9802 262.343 75.4003 273.971L75.3742 274.049C75.3655 274.075 75.3568 274.093 75.3481 274.119C73.5328 278.773 72.0692 283.557 70.9698 288.431C69.9079 293.19 69.0375 298.289 67.3749 302.873C67.1225 303.579 66.844 304.277 66.548 304.948H27.8486C27.9792 304.259 28.1185 303.562 28.2578 302.873C30.3293 292.771 33.2366 282.809 37.4321 273.5C37.5713 273.186 37.7106 272.872 37.8673 272.559C39.9989 267.903 42.5053 263.428 45.3617 259.179C45.3617 259.178 45.3619 259.177 45.3623 259.176C45.3628 259.175 45.3634 259.174 45.3642 259.173C45.365 259.172 45.366 259.171 45.3671 259.171C45.3681 259.171 45.3693 259.17 45.3704 259.17C46.9389 256.852 48.6239 254.615 50.4189 252.468C55.0742 246.921 60.5731 242.145 66.7135 238.313C66.7483 238.286 66.7918 238.269 66.8266 238.243C79.0474 230.651 93.5314 227.034 107.38 230.163H107.389C107.746 230.241 108.094 230.32 108.451 230.407Z" fill="#E6E6E6"/>
<path d="M108.407 230.869C108.111 230.947 107.815 231.034 107.528 231.122C101.427 232.867 95.5392 235.285 89.9711 238.33C89.6926 238.478 89.414 238.635 89.1355 238.792C81.4405 243.092 74.4556 248.558 68.428 254.995C68.4232 255 68.4202 255.006 68.4192 255.013C68.3496 255.082 68.2713 255.161 68.2103 255.231C66.8177 256.73 65.4772 258.29 64.2064 259.894C61.804 262.927 59.6279 266.213 58.27 269.856C57.164 272.866 56.7736 276.092 57.1298 279.279C57.1559 279.601 57.1994 279.915 57.2429 280.237C57.2777 280.49 57.3125 280.743 57.3561 281.004C57.9306 284.5 58.9228 288.004 58.6443 291.568C58.3483 295.334 56.3638 298.541 53.413 300.834C52.4099 301.61 51.3376 302.293 50.2098 302.873C48.5973 303.706 46.9171 304.4 45.1874 304.948H41.7666C42.228 304.817 42.6806 304.686 43.1419 304.556C44.779 304.093 46.3864 303.531 47.9554 302.873C48.8517 302.498 49.7238 302.067 50.5667 301.583C54.0658 299.57 56.9818 296.484 57.591 292.362C58.122 288.753 57.0949 285.145 56.4856 281.615C56.3812 281.004 56.2854 280.403 56.2332 279.802C55.8176 276.745 56.07 273.634 56.9731 270.684C58.1307 266.98 60.185 263.607 62.509 260.521C64.0005 258.538 65.5926 256.632 67.2789 254.812C67.4878 254.577 67.7054 254.342 67.9318 254.106C74.0862 247.623 81.1923 242.118 89.0049 237.781H89.0136C94.8227 234.542 100.985 231.986 107.38 230.163H107.388C107.676 230.076 107.972 229.988 108.259 229.91C108.859 229.753 108.999 230.703 108.407 230.869Z" fill="white"/>
<path d="M67.5875 255.143C65.4851 252.921 64.2402 250.022 64.075 246.965C63.9098 243.908 64.8351 240.892 66.6856 238.456C67.0617 237.964 67.8425 238.526 67.4659 239.018C65.7385 241.284 64.8769 244.094 65.0365 246.94C65.1962 249.786 66.3666 252.482 68.3365 254.54C68.7641 254.987 68.0126 255.588 67.5875 255.143Z" fill="white"/>
<path d="M56.8284 279.273C63.0738 279.499 69.1746 277.359 73.9143 273.28C74.3836 272.876 74.9857 273.626 74.517 274.03C69.5768 278.265 63.2235 280.479 56.7249 280.23C56.1056 280.206 56.2124 279.249 56.8284 279.273Z" fill="white"/>
<path d="M89.808 238.079C90.4425 239.109 91.3225 239.964 92.3689 240.569C93.4153 241.174 94.5953 241.51 95.8031 241.545C96.4225 241.561 96.315 242.518 95.6996 242.502C94.3654 242.457 93.0626 242.085 91.905 241.419C90.7474 240.753 89.7703 239.814 89.059 238.683C88.983 238.582 88.9483 238.455 88.9619 238.33C88.9755 238.204 89.0364 238.088 89.1321 238.006C89.2317 237.926 89.3586 237.889 89.4851 237.903C89.6117 237.917 89.7277 237.98 89.808 238.079L89.808 238.079Z" fill="white"/>
<path d="M313 304.405C313 304.483 312.985 304.561 312.955 304.633C312.925 304.706 312.882 304.771 312.826 304.827C312.771 304.882 312.705 304.926 312.633 304.956C312.56 304.986 312.483 305.001 312.405 305.001H0.595315C0.437428 305.001 0.286006 304.938 0.174363 304.826C0.0627196 304.714 0 304.563 0 304.405C0 304.247 0.0627196 304.095 0.174363 303.983C0.286006 303.871 0.437428 303.809 0.595315 303.809H312.405C312.483 303.808 312.56 303.824 312.633 303.854C312.705 303.883 312.771 303.927 312.826 303.983C312.882 304.038 312.925 304.104 312.955 304.176C312.985 304.249 313 304.326 313 304.405Z" fill="#CCCCCC"/>
<path d="M192.648 82.1478H153.627C151.893 78.9139 149.271 76.155 153.627 69.6583C153.627 65.3458 155.299 61.2015 158.289 58.0981C161.28 54.9947 165.356 53.1744 169.66 53.0204C178.101 50.4942 184.179 55.6239 185.831 63.8416L192.648 82.1478Z" fill="#2F2E41"/>
<path d="M115.281 88.9335C115.991 89.0117 116.675 89.2447 117.285 89.6161C117.894 89.9876 118.416 90.4884 118.811 91.0833C119.207 91.6783 119.467 92.3528 119.575 93.0595C119.682 93.7662 119.633 94.4878 119.431 95.1736L149.714 120.395L141.3 123.64L113.019 98.4301C111.891 98.0148 110.954 97.1996 110.386 96.1389C109.818 95.0783 109.659 93.846 109.938 92.6754C110.217 91.5048 110.915 90.4774 111.9 89.7877C112.884 89.0981 114.088 88.7941 115.281 88.9335Z" fill="#FFB6B6"/>
<path d="M150.36 131.287C143.649 131.289 117.469 103.817 116.326 102.614L116.036 102.308L125.727 99.7121L148.977 116.593L157.452 102.23C158.389 100.646 159.792 99.3913 161.469 98.6371C163.146 97.8829 165.015 97.6663 166.82 98.017C168.417 98.3294 169.898 99.0745 171.102 100.171C172.306 101.268 173.187 102.674 173.648 104.237C174.11 105.8 174.135 107.46 173.72 109.036C173.305 110.612 172.466 112.044 171.295 113.176L155.265 128.671C154.033 129.86 152.533 130.733 150.891 131.217C150.718 131.266 150.539 131.289 150.36 131.287Z" fill="#FFB163"/>
<path d="M150.876 127.483L154.128 139.756L181.142 145.748L179.391 139.506L184.427 134.136L178.891 124.979L150.876 127.483Z" fill="#FFB8B8"/>
<path d="M148.486 294.897H143.209L140.697 274.512H148.486V294.897Z" fill="#FFB8B8"/>
<path d="M151.272 304.054H147.487L146.811 300.476L145.081 304.054H135.042C134.561 304.054 134.093 303.9 133.705 303.615C133.317 303.329 133.031 302.927 132.888 302.467C132.745 302.007 132.752 301.513 132.909 301.058C133.066 300.602 133.364 300.209 133.76 299.935L141.777 294.391V290.773L150.209 291.277L151.272 304.054Z" fill="#2F2E41"/>
<path d="M214.636 290.407L209.732 292.361L199.869 274.352L207.106 271.467L214.636 290.407Z" fill="#FFB8B8"/>
<path d="M220.606 297.883L217.09 299.285L215.14 296.211L214.854 300.176L205.527 303.894C205.08 304.072 204.588 304.103 204.122 303.981C203.657 303.859 203.242 303.592 202.939 303.217C202.636 302.843 202.461 302.381 202.438 301.9C202.416 301.419 202.548 300.943 202.815 300.542L208.215 292.422L206.879 289.061L214.899 286.406L220.606 297.883Z" fill="#2F2E41"/>
<path d="M184.317 135.56L183.816 135.125C183.668 134.997 168.86 122.488 150.393 134.168L149.794 134.546L146.012 117.881C145.572 115.965 145.672 113.964 146.301 112.102C146.931 110.239 148.064 108.589 149.576 107.334L162.909 96.2259L167.585 93.8846L166.991 90.0201C166.877 89.2602 167.026 88.4841 167.414 87.821C167.802 87.1578 168.405 86.6476 169.122 86.3753L176.388 83.647C177.201 83.338 178.101 83.3592 178.898 83.7062C179.695 84.0532 180.325 84.6984 180.653 85.504L181.423 87.3698L183.072 86.7889C184.072 86.4237 185.134 86.2602 186.197 86.3079C187.26 86.3555 188.304 86.6132 189.267 87.0663C190.233 87.5354 191.09 88.2024 191.783 89.024C192.476 89.8457 192.989 90.8038 193.288 91.8363C196.123 101.436 195.363 111.742 191.151 120.82L184.317 135.56Z" fill="#FFB163"/>
<path d="M150.522 285.533H139.605L142.622 234.171L140.416 199.357L140.421 199.329L148.648 149.425C149.295 145.49 151.043 141.819 153.691 138.84L153.791 138.727L181.322 145.535L184.09 151.856C193.542 157.485 196.527 189.229 196.649 190.581L200.651 230.153L210.439 278.652L203.546 282.368L203.431 282.139L181.669 238.807L167.926 193.11L159.125 234.238L150.522 285.533Z" fill="#2F2E41"/>
<path d="M194.558 176.932C194.055 176.425 193.668 175.814 193.426 175.141C193.184 174.469 193.092 173.751 193.157 173.04C193.222 172.328 193.441 171.639 193.801 171.021C194.16 170.404 194.65 169.873 195.237 169.465L187.463 130.799L196.048 133.559L202.271 170.959C202.889 171.991 203.107 173.214 202.885 174.397C202.662 175.58 202.014 176.64 201.064 177.376C200.113 178.112 198.926 178.473 197.727 178.391C196.528 178.31 195.4 177.79 194.558 176.932V176.932Z" fill="#FFB6B6"/>
<path d="M183.08 95.1238L188.406 91.0975C188.406 91.0975 193.105 90.7643 193.937 99.2498C194.77 107.735 196.478 124.272 196.478 124.272L204.629 162.075L193.346 164.555L184.616 123.759L179.379 111.644L183.08 95.1238Z" fill="#FFB163"/>
<path d="M167.146 81.7014C174.323 81.7014 180.141 75.8753 180.141 68.6886C180.141 61.5018 174.323 55.6758 167.146 55.6758C159.969 55.6758 154.151 61.5018 154.151 68.6886C154.151 75.8753 159.969 81.7014 167.146 81.7014Z" fill="#FFB8B8"/>
<path d="M174.567 56.0586C172.323 53.8342 169.292 52.5881 166.134 52.5918H163.633C160.449 52.5918 157.395 53.8585 155.143 56.1132C152.891 58.3679 151.626 61.4259 151.626 64.6145V64.6145C153.811 66.511 164.388 66.1215 170.636 65.6164C170.189 72.1355 164.658 78.5413 166.134 82.1477H191.147V79.6429C193.289 68.6372 185.293 59.4568 174.567 56.0586Z" fill="#2F2E41"/>
<path d="M61.8289 225.669C66.2495 225.669 69.8332 222.08 69.8332 217.654C69.8332 213.227 66.2495 209.639 61.8289 209.639C57.4083 209.639 53.8247 213.227 53.8247 217.654C53.8247 222.08 57.4083 225.669 61.8289 225.669Z" fill="#F2F2F2"/>
<path d="M259.183 256.978C262.775 256.978 265.687 254.062 265.687 250.465C265.687 246.869 262.775 243.953 259.183 243.953C255.591 243.953 252.68 246.869 252.68 250.465C252.68 254.062 255.591 256.978 259.183 256.978Z" fill="#F2F2F2"/>
<path d="M228.667 121.222C232.259 121.222 235.17 118.306 235.17 114.71C235.17 111.113 232.259 108.197 228.667 108.197C225.075 108.197 222.164 111.113 222.164 114.71C222.164 118.306 225.075 121.222 228.667 121.222Z" fill="#F2F2F2"/>
<path d="M95.5201 56.9755C99.3558 48.078 102.456 37.9943 100.053 28.2835C98.172 20.6839 92.7834 13.3984 84.8973 11.4557C80.8397 10.5163 76.5866 10.9327 72.7875 12.6411C68.9885 14.3496 65.8522 17.2562 63.8578 20.9172C61.9027 24.6205 61.1236 28.8334 61.6249 32.9922C62.1393 37.1231 63.9349 41.6714 67.7158 43.8363C71.1674 45.8126 75.98 45.2635 77.9562 41.5132C79.6175 38.3604 78.9709 34.3095 76.7897 31.5812C74.1285 28.2526 69.8217 26.7518 65.7681 26.0097C61.5071 25.2255 57.1464 25.1477 52.8603 25.7795C44.4296 27.0307 36.4609 31.328 31.6402 38.491C27.1851 45.1108 25.5071 53.8821 28.4714 61.4453C31.4266 68.9854 38.2002 74.3113 45.6889 76.9363C54.8775 80.1572 64.9725 79.0095 74.159 76.402C76.5776 75.7155 78.9635 74.9199 81.3257 74.06C82.2263 73.7322 81.8375 72.2794 80.9267 72.6109C71.9753 75.8692 62.372 78.3009 52.7883 77.075C45.388 76.1284 38.0984 72.6263 33.3179 66.796C30.9726 63.9519 29.4052 60.5467 28.769 56.9138C28.1849 53.2084 28.504 49.4165 29.6991 45.8613C30.9332 42.1857 32.9444 38.82 35.5956 35.9936C38.2468 33.1672 41.4757 30.9467 45.0618 29.4836C48.8028 27.9363 52.7861 27.0591 56.8301 26.892C60.8531 26.6642 64.8851 27.1317 68.7496 28.274C72.1944 29.3429 75.8616 31.4286 77.0018 35.0885C77.9102 38.0044 77.228 41.8881 74.0781 43.1153C73.1586 43.4356 72.1802 43.5499 71.2118 43.4503C70.2434 43.3506 69.3086 43.0394 68.4733 42.5386C66.7436 41.4604 65.3813 39.8818 64.5667 38.0117C62.9779 34.4211 62.5659 30.4187 63.3898 26.5791C64.2138 22.7394 66.2313 19.2598 69.1528 16.6397C72.1152 14.1371 75.8129 12.672 79.6833 12.4674C83.4282 12.2728 87.1278 13.3589 90.1749 15.5474C93.1527 17.7616 95.5078 20.7095 97.0112 24.1048C100.76 32.2014 99.5246 41.4253 96.7722 49.6229C96.0219 51.8578 95.1573 54.0526 94.2243 56.217C93.8455 57.0956 95.138 57.8619 95.5201 56.9755Z" fill="#F2F2F2"/>
<path d="M96.5975 86.1544C105.162 86.1544 112.106 79.2017 112.106 70.6251C112.106 62.0484 105.162 55.0957 96.5975 55.0957C88.0326 55.0957 81.0894 62.0484 81.0894 70.6251C81.0894 79.2017 88.0326 86.1544 96.5975 86.1544Z" fill="white"/>
<path d="M110.605 70.6263C110.604 73.5192 109.711 76.3412 108.047 78.706C106.382 81.0707 104.029 82.8627 101.309 83.8364C98.5884 84.8101 95.634 84.918 92.85 84.1454C90.066 83.3727 87.5886 81.7573 85.7569 79.5202C85.3374 79.0063 84.9555 78.4628 84.6141 77.894C84.2578 77.297 83.9391 76.6783 83.6599 76.0415C83.3766 75.3437 83.1463 74.6256 82.9711 73.893C82.7998 73.2226 82.6881 72.5383 82.6371 71.8482C82.387 68.9438 83.0443 66.0334 84.5183 63.5195C85.9923 61.0057 88.2099 59.0126 90.8645 57.816C92.8369 56.9328 94.9863 56.5177 97.1451 56.6032C99.304 56.6887 101.414 57.2724 103.31 58.3089C105.207 59.3453 106.839 60.8065 108.078 62.5784C109.318 64.3503 110.132 66.385 110.458 68.5238C110.489 68.7185 110.49 68.7274 110.499 68.8031C110.522 69.0031 110.542 69.2036 110.557 69.4045C110.589 69.8112 110.602 70.2185 110.605 70.6263C110.615 72.5598 113.617 72.564 113.606 70.6263C113.617 66.2186 111.925 61.9773 108.885 58.7893C105.846 55.6013 101.693 53.7134 97.2953 53.5203C92.8978 53.3272 88.5959 54.8438 85.2891 57.7531C81.9823 60.6624 79.9266 64.7391 79.5517 69.1309C79.1769 73.5227 80.512 77.8895 83.2778 81.3185C86.0437 84.7475 90.0262 86.9731 94.3927 87.53C98.7592 88.0869 103.172 86.932 106.708 84.3068C110.244 81.6816 112.629 77.7893 113.366 73.4436C113.516 72.5118 113.596 71.5701 113.606 70.6263C113.617 68.6919 110.615 68.6896 110.605 70.6263Z" fill="#F2F2F2"/>
<path d="M103.309 66.3241L103.307 66.3204C103.94 65.9388 104.413 65.3407 104.639 64.6368C104.055 64.9838 103.418 65.2307 102.753 65.3671C102.433 64.9414 102.019 64.5963 101.543 64.3594C101.066 64.1224 100.541 64 100.009 64.002C99.0473 64.0022 98.1247 64.385 97.4446 65.0663C96.7644 65.7476 96.3824 66.6716 96.3826 67.6349L96.3829 67.6852C94.3522 67.407 92.503 66.3663 91.21 64.7737C91.1367 64.6837 91.0381 64.6177 90.9269 64.5843C90.8157 64.551 90.6971 64.5518 90.5864 64.5867C90.5099 64.5968 90.4366 64.6238 90.3718 64.6657C90.3069 64.7077 90.2523 64.7635 90.2116 64.8293C89.9095 65.3948 89.7758 66.0353 89.8263 66.6747C89.8256 67.247 89.9625 67.8112 90.2256 68.3194C90.1063 68.3422 89.9987 68.406 89.9213 68.4997C89.8439 68.5934 89.8015 68.7112 89.8015 68.8328V68.8721C89.8009 69.3801 89.9087 69.8824 90.1178 70.3453C90.3268 70.8081 90.6322 71.2209 91.0135 71.556L91.0006 71.5701C90.9407 71.6379 90.8994 71.7203 90.8808 71.809C90.8621 71.8976 90.8669 71.9896 90.8945 72.0759C91.0493 72.5571 91.304 73.0001 91.6419 73.3757C91.9798 73.7513 92.3932 74.0512 92.855 74.2555C91.89 74.6618 90.8346 74.8045 89.7965 74.669C89.6968 74.6573 89.5959 74.6745 89.5058 74.7187C89.4157 74.7628 89.3402 74.832 89.2883 74.918C89.2701 74.9392 89.2534 74.9616 89.2383 74.9852C89.1972 75.0494 89.1691 75.121 89.1556 75.1961C89.1422 75.2712 89.1436 75.3481 89.1598 75.4226C89.1761 75.4972 89.2068 75.5677 89.2503 75.6303C89.2938 75.693 89.3492 75.7464 89.4133 75.7876C90.8996 76.7444 92.6296 77.2522 94.3966 77.2504C100.389 77.2504 103.646 72.2703 103.646 67.9886C103.646 67.7824 103.631 67.5764 103.601 67.3725C104.166 66.9503 104.656 66.4344 105.048 65.8471L105.049 65.8452C104.496 66.0903 103.91 66.2517 103.309 66.3241Z" fill="#FFB163"/>
<path d="M97.0975 32.5529C105.662 32.5529 112.606 25.6001 112.606 17.0235C112.606 8.44687 105.662 1.49414 97.0975 1.49414C88.5326 1.49414 81.5894 8.44687 81.5894 17.0235C81.5894 25.6001 88.5326 32.5529 97.0975 32.5529Z" fill="white"/>
<path d="M111.105 17.0248C111.105 19.9176 110.211 22.7397 108.547 25.1044C106.883 27.4692 104.53 29.2611 101.809 30.2348C99.0889 31.2085 96.1345 31.3165 93.3505 30.5438C90.5665 29.7712 88.089 28.1557 86.2573 25.9186C85.8379 25.4048 85.456 24.8613 85.1146 24.2924C84.7583 23.6955 84.4396 23.0768 84.1604 22.44C83.8771 21.7422 83.6468 21.024 83.4716 20.2915C83.3003 19.621 83.1886 18.9367 83.1376 18.2466C82.8874 15.3422 83.5448 12.4318 85.0188 9.91798C86.4928 7.40411 88.7104 5.41105 91.365 4.21448C93.3373 3.33123 95.4868 2.91615 97.6456 3.00164C99.8045 3.08712 101.914 3.67086 103.811 4.70731C105.707 5.74376 107.339 7.20491 108.579 8.97679C109.819 10.7487 110.633 12.7834 110.958 14.9223C110.99 15.1169 110.99 15.1258 110.999 15.2016C111.023 15.4016 111.042 15.602 111.058 15.8029C111.089 16.2096 111.103 16.617 111.105 17.0248C111.116 18.9583 114.117 18.9624 114.107 17.0248C114.117 12.617 112.426 8.37573 109.386 5.18775C106.346 1.99978 102.193 0.111876 97.7958 -0.0812393C93.3983 -0.274355 89.0964 1.24227 85.7896 4.15154C82.4828 7.06081 80.4271 11.1375 80.0522 15.5293C79.6774 19.9211 81.0125 24.288 83.7783 27.7169C86.5442 31.1459 90.5267 33.3715 94.8932 33.9284C99.2597 34.4854 103.672 33.3305 107.208 30.7053C110.744 28.08 113.13 24.1877 113.866 19.842C114.017 18.9103 114.097 17.9686 114.107 17.0248C114.117 15.0903 111.116 15.0881 111.105 17.0248Z" fill="#F2F2F2"/>
<path d="M100.567 18.6653L101.042 15.5697H98.0787C97.9789 12.9917 97.879 11.5457 101.167 11.892V9.26055C96.2424 8.17511 94.1885 10.6745 94.7413 15.5697H92.0278V18.6653H94.7413V25.8375C95.8371 26.1026 96.9794 26.11 98.0787 25.8591V18.6653H100.567Z" fill="#FFB163"/>
<path d="M37.0658 87.6583C45.6307 87.6583 52.574 80.7056 52.574 72.129C52.574 63.5523 45.6307 56.5996 37.0658 56.5996C28.5009 56.5996 21.5576 63.5523 21.5576 72.129C21.5576 80.7056 28.5009 87.6583 37.0658 87.6583Z" fill="white"/>
<path d="M51.0733 72.1283C51.0728 75.0211 50.1793 77.8432 48.5153 80.2079C46.8512 82.5727 44.4979 84.3646 41.7775 85.3383C39.0572 86.3121 36.1027 86.42 33.3187 85.6473C30.5347 84.8747 28.0573 83.2592 26.2256 81.0221C25.8062 80.5083 25.4243 79.9648 25.0828 79.396C24.7265 78.799 24.4078 78.1803 24.1286 77.5435C23.8454 76.8457 23.6151 76.1275 23.4398 75.395C23.2686 74.7245 23.1568 74.0403 23.1058 73.3501C22.8557 70.4458 23.5131 67.5354 24.9871 65.0215C26.461 62.5076 28.6787 60.5146 31.3333 59.318C33.3056 58.4347 35.455 58.0197 37.6139 58.1052C39.7728 58.1906 41.8827 58.7744 43.7792 59.8108C45.6757 60.8473 47.3075 62.3084 48.5472 64.0803C49.787 65.8522 50.6012 67.8869 50.9264 70.0258C50.9579 70.2204 50.9583 70.2293 50.9673 70.3051C50.991 70.5051 51.0106 70.7055 51.026 70.9064C51.0576 71.3131 51.071 71.7205 51.0733 72.1283C51.084 74.0618 54.0856 74.0659 54.0749 72.1283C54.0854 67.7205 52.394 63.4793 49.3542 60.2913C46.3144 57.1033 42.1616 55.2154 37.7641 55.0223C33.3665 54.8292 29.0646 56.3458 25.7578 59.2551C22.451 62.1643 20.3953 66.241 20.0205 70.6328C19.6457 75.0246 20.9807 79.3915 23.7466 82.8205C26.5124 86.2494 30.4949 88.475 34.8614 89.0319C39.228 89.5889 43.6404 88.434 47.1764 85.8088C50.7123 83.1835 53.0979 79.2912 53.8344 74.9456C53.9848 74.0138 54.0651 73.0721 54.0749 72.1283C54.0856 70.1939 51.084 70.1916 51.0733 72.1283Z" fill="#F2F2F2"/>
<path d="M37.4357 79.6982C36.8492 79.6982 36.2712 79.6811 35.7219 79.6647C35.0596 79.6449 34.4343 79.6268 33.9025 79.6417C33.3285 79.6725 32.7543 79.5841 32.216 79.382C31.6777 79.1799 31.187 78.8685 30.7747 78.4674C29.1281 76.7676 29.2211 73.6157 29.2961 71.0828C29.3156 70.4197 29.3342 69.7932 29.3191 69.261C29.2883 68.6862 29.3766 68.1113 29.5785 67.5723C29.7803 67.0333 30.0912 66.5419 30.4918 66.1291C32.1895 64.4802 35.3376 64.5742 37.8665 64.6483C38.529 64.6678 39.1546 64.6869 39.6859 64.6713L39.7005 64.671C40.2722 64.6417 40.8438 64.7309 41.3794 64.933C41.9151 65.1351 42.4033 65.4458 42.8135 65.8456C44.4604 67.5453 44.367 70.6973 44.2921 73.2302C44.2725 73.8933 44.2539 74.5197 44.2691 75.052C44.2998 75.6268 44.2115 76.2018 44.0097 76.7408C43.8079 77.2798 43.4969 77.7712 43.0964 78.1841C41.7675 79.4749 39.5495 79.6982 37.4357 79.6982Z" fill="#FFB163"/>
<path d="M40.5723 69.2463C40.3456 69.2396 40.1306 69.1447 39.9728 68.9816C39.815 68.8186 39.727 68.6003 39.7275 68.3733C39.728 68.1462 39.817 67.9283 39.9755 67.766C40.134 67.6036 40.3494 67.5096 40.5761 67.5039C40.8027 67.5106 41.0178 67.6056 41.1756 67.7686C41.3333 67.9317 41.4213 68.15 41.4208 68.377C41.4203 68.604 41.3314 68.8219 41.1729 68.9843C41.0144 69.1466 40.7989 69.2406 40.5723 69.2463Z" fill="#E6E6E6"/>
<path d="M36.7942 75.9344C36.0479 75.9345 35.3183 75.7129 34.6977 75.2977C34.0771 74.8825 33.5934 74.2923 33.3078 73.6019C33.0222 72.9114 32.9474 72.1516 33.093 71.4186C33.2386 70.6856 33.598 70.0123 34.1257 69.4838C34.6534 68.9553 35.3258 68.5954 36.0578 68.4496C36.7898 68.3038 37.5485 68.3786 38.2381 68.6646C38.9276 68.9505 39.517 69.4348 39.9317 70.0562C40.3463 70.6776 40.5677 71.4082 40.5677 72.1556C40.5666 73.1574 40.1687 74.1179 39.4613 74.8264C38.7538 75.5348 37.7947 75.9333 36.7942 75.9344ZM36.7942 69.3788C36.2457 69.3788 35.7096 69.5417 35.2535 69.8468C34.7975 70.1519 34.442 70.5856 34.2321 71.093C34.0222 71.6004 33.9673 72.1588 34.0743 72.6974C34.1813 73.2361 34.4454 73.7309 34.8332 74.1192C35.2211 74.5076 35.7152 74.7721 36.2531 74.8792C36.7911 74.9863 37.3486 74.9313 37.8553 74.7212C38.3621 74.511 38.7952 74.155 39.0999 73.6984C39.4046 73.2417 39.5672 72.7048 39.5672 72.1556C39.5663 71.4194 39.2739 70.7136 38.7541 70.1931C38.2342 69.6725 37.5294 69.3797 36.7942 69.3788Z" fill="#E6E6E6"/>
</g>
<defs>
<clipPath id="clip0_183_6191">
<rect width="313" height="305" fill="white"/>
</clipPath>
</defs>
</svg>
