<svg width="607" height="529" viewBox="0 0 607 529" fill="none" xmlns="http://www.w3.org/2000/svg">
<g clip-path="url(#clip0_229_6219)">
<path d="M100.679 184.155C99.2587 184.298 97.8297 184.331 96.4044 184.254C96.1614 184.228 95.9178 184.298 95.7258 184.449C95.5339 184.6 95.4091 184.821 95.3783 185.063L92.6517 205.501C92.442 206.985 91.8341 208.384 90.8927 209.55C90.1166 210.478 89.5396 211.556 89.1977 212.716C88.8557 213.876 88.7561 215.094 88.9049 216.295V251.013C88.9049 251.013 88.729 255.642 92.2882 255.642C96.5479 256.177 100.858 256.177 105.118 255.642C105.118 255.642 107.967 255.103 107.967 250.831V216.646C108.185 215.454 108.14 214.228 107.836 213.054C107.532 211.881 106.977 210.787 106.208 209.849C105.298 208.679 104.71 207.291 104.502 205.824L101.67 184.958C101.638 184.723 101.517 184.509 101.333 184.36C101.149 184.211 100.915 184.138 100.679 184.155Z" fill="white"/>
<path d="M98.6904 256.628C96.5375 256.628 94.3867 256.495 92.2504 256.228C91.7731 256.239 91.2986 256.152 90.8567 255.971C90.4148 255.79 90.0151 255.52 89.6827 255.178C88.2343 253.674 88.3148 251.1 88.319 250.991L88.3186 216.33C88.1675 215.056 88.2779 213.764 88.6431 212.534C89.0083 211.304 89.6206 210.161 90.4427 209.175C91.3142 208.093 91.8768 206.795 92.071 205.42L94.7971 184.986C94.8502 184.592 95.0543 184.236 95.3662 183.99C95.6781 183.745 96.0733 183.631 96.4681 183.672C97.8526 183.745 99.2408 183.711 100.62 183.572L100.637 183.57C101.021 183.542 101.403 183.662 101.703 183.905C102.002 184.148 102.198 184.496 102.251 184.878L105.083 205.745C105.278 207.11 105.825 208.401 106.671 209.489C107.486 210.485 108.076 211.644 108.401 212.888C108.726 214.133 108.778 215.432 108.554 216.698V250.831C108.554 255.534 105.26 256.212 105.227 256.218C103.059 256.491 100.876 256.628 98.6904 256.628ZM96.3247 184.837C96.2375 184.833 96.1518 184.861 96.0844 184.917C96.017 184.972 95.9726 185.051 95.9599 185.137L93.2329 205.579C93.0086 207.169 92.3576 208.668 91.349 209.918C90.624 210.786 90.0847 211.793 89.7644 212.878C89.4442 213.962 89.3497 215.1 89.4868 216.223L89.4913 216.295V251.013C89.4902 251.056 89.4279 253.227 90.5301 254.368C90.7582 254.6 91.0327 254.781 91.3356 254.9C91.6386 255.018 91.9632 255.072 92.2882 255.056L92.3614 255.061C96.5725 255.589 100.833 255.589 105.044 255.061C105.1 255.047 107.381 254.527 107.381 250.831L107.39 216.541C107.593 215.432 107.552 214.292 107.27 213.201C106.987 212.109 106.47 211.092 105.755 210.221C104.778 208.967 104.146 207.479 103.922 205.906L101.089 185.036C101.076 184.951 101.032 184.873 100.966 184.818C100.899 184.763 100.814 184.735 100.727 184.739C99.2806 184.884 97.8249 184.917 96.373 184.84C96.3569 184.838 96.3408 184.837 96.3246 184.837H96.3247Z" fill="#3F3D56"/>
<path d="M96.3752 216.916H100.697C102.415 216.916 104.063 217.598 105.278 218.812C106.493 220.026 107.176 221.673 107.176 223.391V239.639C107.176 241.357 106.493 243.004 105.278 244.218C104.063 245.432 102.415 246.114 100.697 246.114H96.3752C94.6568 246.114 93.0088 245.432 91.7937 244.218C90.5786 243.004 89.896 241.357 89.896 239.639V223.391C89.896 222.54 90.0636 221.698 90.3892 220.913C90.7148 220.127 91.1921 219.413 91.7937 218.812C92.3953 218.211 93.1096 217.734 93.8957 217.409C94.6818 217.083 95.5243 216.916 96.3752 216.916Z" fill="#E9694E"/>
<path d="M16.9283 515.352H31.017L37.7197 461.045L16.9258 461.046L16.9283 515.352Z" fill="#9F616A"/>
<path d="M13.3345 510.755L41.0804 510.754H41.0815C45.7709 510.755 50.2682 512.616 53.5841 515.93C56.9 519.244 58.763 523.738 58.7633 528.424V528.998L13.3353 529L13.3345 510.755Z" fill="#2F2E41"/>
<path d="M8.07108 321.382C8.07108 321.382 1.9651 328.28 12.0757 355.167L10.2948 502.596L43.0599 501.957L50.262 430.043L63.375 325.099L8.07108 321.382Z" fill="#2F2E41"/>
<path d="M74.6123 341.765L74.2535 341.711C32.3378 335.322 0.707536 329.198 0.392927 329.137L0 329.06L10.9879 302.353C10.9011 299.562 8.52259 221.194 13.0758 198.678C17.4836 176.881 38.2604 173.309 40.628 172.973L43.0053 165.101L73.0399 180.719L78.2782 198.736L79.3422 248.114L74.6123 341.765Z" fill="#FFB163"/>
<path d="M92.7018 240.134C91.3493 240.133 90.0114 240.413 88.7722 240.954C87.533 241.496 86.4193 242.288 85.5013 243.281H35.0181L16.5264 247.214L19.5624 270.615L85.3428 256.478C86.4319 257.707 87.8117 258.644 89.3563 259.203C90.9009 259.762 92.561 259.926 94.1852 259.679C95.8093 259.432 97.3457 258.783 98.654 257.79C99.9624 256.797 101.001 255.492 101.675 253.995C102.349 252.498 102.637 250.856 102.513 249.219C102.389 247.582 101.856 246.002 100.964 244.624C100.072 243.245 98.8479 242.112 97.4047 241.328C95.9614 240.543 94.3446 240.133 92.7018 240.134H92.7018Z" fill="#9F616A"/>
<path d="M93.1394 156.255C99.5847 144.472 95.2515 129.699 83.461 123.258C71.6705 116.817 56.8874 121.147 50.4422 132.93C43.9969 144.713 48.3301 159.486 60.1206 165.927C71.9111 172.368 86.6942 168.038 93.1394 156.255Z" fill="#9F616A"/>
<path d="M48.908 125.155L47.7285 122.782L53.6636 119.835C53.6636 119.835 60.2108 109.189 72.0583 112.181C83.9059 115.173 89.2363 116.963 89.2363 116.963L95.1563 119.94L92.185 122.894L97.5153 124.685L93.9543 126.453L98.0976 128.833L95.8672 141.033C95.8672 141.033 92.1626 131.78 85.0406 135.316C77.9187 138.852 64.8915 133.488 64.8915 133.488L53.5738 155.377C53.5738 155.377 51.2389 147.704 47.076 149.75C47.0759 149.75 36.4408 132.824 48.908 125.155Z" fill="#2F2E41"/>
<path d="M19.8855 275.002L14.1123 257.841L12.7158 200.634L15.1757 192.517C16.061 189.596 17.5275 186.884 19.4871 184.542C21.4467 182.201 23.8591 180.279 26.5798 178.892C29.3005 177.504 32.2735 176.68 35.3205 176.469C38.3676 176.257 41.426 176.662 44.3125 177.66C47.199 178.658 49.8542 180.229 52.119 182.277C54.3837 184.325 56.2115 186.809 57.4926 189.579C58.7737 192.35 59.4818 195.351 59.5746 198.402C59.6674 201.453 59.1428 204.491 58.0324 207.335L44.8479 241.098L45.5181 242.398L74.0824 242.167L84.2289 260.419L19.8855 275.002Z" fill="#FFB163"/>
<path d="M305.677 267.95C306.743 267.233 307.638 266.291 308.3 265.19C308.962 264.089 309.375 262.856 309.509 261.579C309.643 260.302 309.495 259.01 309.075 257.796C308.656 256.582 307.975 255.475 307.081 254.552L321.161 226.681L305.034 228.55L294.136 254.731C292.684 256.334 291.872 258.414 291.852 260.577C291.833 262.739 292.608 264.834 294.03 266.463C295.453 268.093 297.424 269.144 299.571 269.418C301.717 269.692 303.89 269.17 305.677 267.95Z" fill="#FFB7B7"/>
<path d="M418.595 465.375L405.906 465.374L399.869 416.462L418.597 416.464L418.595 465.375Z" fill="#FFB7B7"/>
<path d="M421.831 477.666L380.916 477.665V477.148C380.916 472.927 382.594 468.879 385.581 465.895C388.567 462.91 392.618 461.234 396.841 461.233H396.842L421.832 461.234L421.831 477.666Z" fill="#2F2E41"/>
<path d="M349.249 465.375L336.559 465.374L330.523 416.462L349.251 416.464L349.249 465.375Z" fill="#FFB7B7"/>
<path d="M349.38 477.666L308.465 477.665V477.148C308.466 472.927 310.144 468.879 313.13 465.895C316.117 462.91 320.167 461.234 324.391 461.233H324.392L349.381 461.234L349.38 477.666Z" fill="#2F2E41"/>
<path d="M348.209 258.797L335.789 287.391L325.544 451.746L351.419 450.712L358.486 372.363L380.287 302.581L392.82 380.376L397.995 448.642L419.406 449.569L427.938 258.797H348.209Z" fill="#2F2E41"/>
<path d="M410.294 117.698L374.296 118.598L353.162 129.44L352.002 209.432L338.821 264.66C338.821 264.66 421.178 270.325 432.563 262.05L419.108 198.956L437.154 130.77L410.294 117.698Z" fill="#FFB163"/>
<path d="M358.72 130.766L355.369 128.504C355.369 128.504 341.486 132.663 337.383 151.163C337.383 151.163 334.243 160.444 332.865 166.825C331.284 174.145 296.389 241.376 296.389 241.376L317.281 247.366L355.585 185.463L358.72 130.766Z" fill="#FFB163"/>
<path d="M436.59 278.208C435.763 277.225 435.162 276.072 434.83 274.831C434.497 273.591 434.44 272.292 434.664 271.027C434.888 269.763 435.387 268.562 436.125 267.511C436.863 266.459 437.823 265.583 438.937 264.942L433.094 234.271L448.08 240.513L451.331 268.681C452.284 270.622 452.491 272.846 451.913 274.93C451.335 277.014 450.012 278.813 448.195 279.988C446.378 281.162 444.193 281.629 442.054 281.301C439.915 280.973 437.971 279.873 436.59 278.208Z" fill="#FFB7B7"/>
<path d="M431.737 131.725L435.583 130.475C435.583 130.475 447.78 138.298 446.62 157.211C446.62 157.211 447.077 166.998 446.64 173.512C446.139 180.983 452.85 255.223 452.85 255.223H431.115L421.8 187.992L431.737 131.725Z" fill="#FFB163"/>
<path d="M419.131 84.1379C419.131 89.0701 417.667 93.8915 414.925 97.9925C412.183 102.093 408.286 105.29 403.726 107.177C399.166 109.065 394.149 109.559 389.308 108.596C384.467 107.634 380.021 105.259 376.531 101.771C373.041 98.2839 370.665 93.8404 369.702 89.003C368.739 84.1656 369.233 79.1514 371.122 74.5947C373.01 70.0379 376.209 66.1432 380.313 63.403C384.416 60.6628 389.241 59.2003 394.176 59.2003C400.778 59.1838 407.116 61.7888 411.796 66.4422C416.476 71.0956 419.114 77.4163 419.13 84.0136C419.131 84.0551 419.131 84.0965 419.131 84.1379Z" fill="#FFB7B7"/>
<path d="M369.305 50.6421C372.228 44.3603 377.886 45.6023 382.833 47.7317C389.098 46.3429 395.057 42.185 401.807 44.6439C408.457 54.3088 430.782 51.4652 426.032 67.1997C426.026 70.97 433.132 68.7754 431.891 74.9503C435.655 86.8339 418.305 109.34 408.344 104.6C410.808 100.088 416.435 89.8408 407.9 88.8244C389.54 105.897 406.006 56.3151 382.936 70.7342C375.298 77.7199 364.841 57.6296 369.305 50.6421Z" fill="#2F2E41"/>
<path d="M440.959 280.695C442.147 280.934 443.374 280.909 444.552 280.623C445.73 280.337 446.831 279.796 447.777 279.039C448.723 278.281 449.492 277.326 450.029 276.24C450.566 275.153 450.858 273.963 450.884 272.751L513.542 213.815L499.444 202.577L442.18 264.192C440.141 264.282 438.205 265.117 436.741 266.538C435.277 267.959 434.385 269.867 434.234 271.901C434.084 273.936 434.685 275.954 435.924 277.575C437.164 279.196 438.955 280.306 440.959 280.695Z" fill="#9F616A"/>
<path d="M504.663 223.342L492.473 209.066C492.126 208.659 491.871 208.183 491.725 207.67C491.579 207.156 491.545 206.617 491.626 206.089C491.707 205.561 491.901 205.057 492.195 204.611C492.489 204.165 492.875 203.787 493.328 203.504L509.198 193.576C511.288 191.814 513.991 190.952 516.716 191.179C519.44 191.406 521.964 192.704 523.732 194.788C525.501 196.871 526.37 199.571 526.15 202.294C525.93 205.018 524.638 207.543 522.558 209.316L510.293 223.373C509.942 223.775 509.508 224.097 509.021 224.317C508.534 224.536 508.005 224.649 507.471 224.646C506.937 224.643 506.409 224.525 505.925 224.3C505.44 224.075 505.01 223.748 504.663 223.342V223.342Z" fill="#E4E4E4"/>
<path d="M471.883 514.16L456.563 514.159L449.275 455.108L471.886 455.109L471.883 514.16Z" fill="#9F616A"/>
<path d="M475.79 529L426.393 528.998V528.374C426.393 523.278 428.419 518.391 432.024 514.788C435.63 511.185 440.52 509.16 445.619 509.16H445.621L475.791 509.161L475.79 529Z" fill="#2F2E41"/>
<path d="M594.342 514.16L579.023 514.159L571.735 455.108L594.346 455.109L594.342 514.16Z" fill="#9F616A"/>
<path d="M598.25 529L548.853 528.998V528.374C548.853 523.278 550.879 518.391 554.484 514.788C558.09 511.185 562.98 509.16 568.079 509.16H568.081L598.251 509.161L598.25 529Z" fill="#2F2E41"/>
<path d="M553.135 254.644L568.577 197.628L548.544 186.375H520.581L509.705 198.003C509.705 198.003 491.534 210.638 495.932 224.636L503.027 256.52L492.176 307.159L437.502 382.929L424.56 457.357L475.507 470.704L530.598 362.299L557.309 482.332L607 479.834L589.877 334.294C589.877 334.294 584.996 289.957 559.41 262.274L553.135 254.644Z" fill="#FFB163"/>
<path d="M585.026 305.091C585.887 304.238 586.551 303.207 586.97 302.07C587.389 300.934 587.554 299.719 587.453 298.511C587.351 297.304 586.986 296.134 586.384 295.083C585.781 294.031 584.954 293.125 583.963 292.428L571.982 211.649L554.784 217.075L571.999 294.874C570.937 296.616 570.551 298.687 570.915 300.694C571.278 302.701 572.366 304.505 573.971 305.765C575.577 307.024 577.589 307.651 579.627 307.527C581.664 307.403 583.585 306.536 585.026 305.091Z" fill="#9F616A"/>
<path d="M574.943 224.326L556.287 226.476C555.756 226.537 555.218 226.483 554.71 226.318C554.202 226.153 553.736 225.88 553.342 225.518C552.949 225.157 552.639 224.715 552.432 224.222C552.225 223.73 552.127 223.199 552.145 222.665L552.749 203.964C552.451 201.249 553.243 198.526 554.952 196.393C556.66 194.26 559.145 192.891 561.861 192.586C564.578 192.281 567.305 193.065 569.444 194.766C571.583 196.467 572.96 198.946 573.273 201.66L578.109 219.673C578.247 220.189 578.272 220.729 578.183 221.255C578.094 221.782 577.892 222.283 577.592 222.724C577.292 223.166 576.899 223.538 576.442 223.814C575.985 224.091 575.474 224.265 574.943 224.326V224.326Z" fill="#E4E4E4"/>
<path d="M503.292 170.161V146.138C503.292 137.6 506.685 129.413 512.726 123.376C518.767 117.339 526.961 113.947 535.504 113.947C544.047 113.947 552.24 117.339 558.281 123.376C564.322 129.413 567.716 137.6 567.716 146.138V170.161C567.715 171.307 567.258 172.407 566.447 173.217C565.636 174.028 564.536 174.484 563.389 174.485H507.619C506.471 174.484 505.371 174.028 504.56 173.217C503.749 172.407 503.293 171.307 503.292 170.161Z" fill="#2F2E41"/>
<path d="M540.212 171.034C551.657 164.782 555.863 150.441 549.607 139.004C543.351 127.567 529.001 123.364 517.556 129.616C506.111 135.868 501.905 150.208 508.162 161.645C514.418 173.083 528.768 177.286 540.212 171.034Z" fill="#9F616A"/>
<path d="M495.671 148.06C495.679 141.309 498.366 134.836 503.143 130.062C507.92 125.288 514.397 122.603 521.152 122.595H525.96C532.716 122.603 539.193 125.288 543.97 130.062C548.747 134.836 551.434 141.309 551.441 148.06V148.54H541.281L537.815 138.843L537.122 148.54H531.871L530.123 143.648L529.773 148.54H495.671V148.06Z" fill="#2F2E41"/>
<path d="M526.56 177.187C526.083 176.541 525.798 175.774 525.738 174.974C525.679 174.174 525.846 173.373 526.221 172.664C531.316 162.979 538.45 145.085 528.981 134.049L528.301 133.256H555.789V174.499L530.818 178.902C530.565 178.947 530.309 178.969 530.052 178.97C529.371 178.97 528.699 178.808 528.092 178.498C527.485 178.188 526.96 177.739 526.56 177.187Z" fill="#2F2E41"/>
<path d="M273.904 199.148C273.555 199.506 273.236 199.891 272.948 200.3L228.159 199.205L222.934 189.663L207.494 195.661L215.101 213.451C215.716 214.888 216.78 216.087 218.135 216.868C219.49 217.65 221.061 217.971 222.614 217.783L273.217 211.674C274.41 213.184 276.036 214.296 277.877 214.86C279.718 215.424 281.687 215.415 283.523 214.834C285.359 214.253 286.974 213.127 288.153 211.606C289.333 210.084 290.021 208.241 290.127 206.319C290.232 204.397 289.75 202.489 288.744 200.848C287.737 199.208 286.255 197.912 284.494 197.133C282.733 196.355 280.776 196.131 278.885 196.491C276.993 196.851 275.256 197.777 273.904 199.148H273.904Z" fill="#FFB7B7"/>
<path d="M127.9 470.972H142.627L149.633 414.207L127.897 414.208L127.9 470.972Z" fill="#FFB7B7"/>
<path d="M124.144 466.168L153.146 466.167H153.147C158.049 466.167 162.75 468.113 166.216 471.577C169.682 475.041 171.629 479.738 171.63 484.637V485.237L124.144 485.239L124.144 466.168Z" fill="#2F2E41"/>
<path d="M261.624 470.646L275.167 464.864L259.296 409.911L239.309 418.444L261.624 470.646Z" fill="#FFB7B7"/>
<path d="M256.281 467.701L282.951 456.315L282.952 456.315C287.46 454.391 292.548 454.335 297.097 456.159C301.646 457.984 305.284 461.54 307.209 466.044L307.445 466.596L263.778 485.239L256.281 467.701Z" fill="#2F2E41"/>
<path d="M199.482 211.445L200.547 228.69L169.419 232.02L136.847 235.503L146.434 209.316L199.482 211.445Z" fill="#FFB7B7"/>
<path d="M200.576 217.633C200.223 217.494 165.064 203.827 143.467 215.002L142.936 215.277L138.628 194.085L136.173 148.523L152.147 140.98L156.546 131.134L186.504 129.363L192.66 137.8L213.621 144.665L201.093 217.837L200.576 217.633Z" fill="#E4E4E4"/>
<path d="M201.677 176.507L205.382 147.41L213.82 144.844L213.962 144.896C214.157 144.968 218.742 146.722 219.997 153.066C221.202 159.155 230.276 197.05 230.368 197.432L230.459 197.811L209.139 206.336L201.677 176.507Z" fill="#E4E4E4"/>
<path d="M250.656 460.669L279.036 454.851L233.676 329.77L218.152 287.106C218.152 287.106 208.306 252.899 203.857 239.661L201.172 221.899L137.62 228.929C137.62 228.929 119.87 254.979 125.262 297.44L122.823 457.033L151.204 458.487L174.975 297.53L216.697 385.766C216.697 385.766 229.847 423.419 239.255 431.58L250.656 460.669Z" fill="#2F2E41"/>
<path d="M163.106 234.853C162.606 234.841 162.106 234.868 161.611 234.935L131.962 201.369L135.411 191.053L120.512 183.816L112.63 201.486C111.994 202.914 111.838 204.509 112.185 206.033C112.533 207.557 113.366 208.927 114.559 209.937L153.447 242.866C153.151 244.767 153.44 246.714 154.278 248.447C155.116 250.179 156.461 251.616 158.136 252.566C159.811 253.516 161.735 253.934 163.653 253.765C165.571 253.595 167.393 252.846 168.874 251.617C170.356 250.387 171.428 248.736 171.948 246.883C172.468 245.03 172.411 243.063 171.785 241.243C171.158 239.424 169.993 237.837 168.442 236.696C166.892 235.554 165.031 234.911 163.106 234.853Z" fill="#FFB7B7"/>
<path d="M117.828 188.789L129.418 155.796C130.721 151.906 132.353 149.544 134.27 148.773C134.648 148.603 135.056 148.513 135.47 148.509C135.885 148.506 136.295 148.588 136.676 148.75L141.873 155.312L146.697 175.563L134.329 204.635L117.828 188.789Z" fill="#E4E4E4"/>
<path d="M194.548 122.535H143.664C142.617 122.534 141.614 122.118 140.874 121.378C140.134 120.639 139.717 119.636 139.716 118.59V96.6719C139.716 88.8825 142.813 81.4121 148.324 75.9041C153.836 70.3961 161.311 67.3018 169.106 67.3018C176.901 67.3018 184.376 70.3961 189.888 75.9041C195.399 81.4121 198.496 88.8825 198.496 96.6719V118.59C198.494 119.636 198.078 120.639 197.338 121.378C196.598 122.118 195.594 122.534 194.548 122.535Z" fill="#2F2E41"/>
<path d="M175.145 122.025C187.045 122.025 196.693 112.384 196.693 100.492C196.693 88.5992 187.045 78.9585 175.145 78.9585C163.245 78.9585 153.598 88.5992 153.598 100.492C153.598 112.384 163.245 122.025 175.145 122.025Z" fill="#FFB7B7"/>
<path d="M205.449 98.8636H174.334L174.015 94.3995L172.42 98.8636H167.629L166.997 90.0159L163.835 98.8636H154.565V98.4253C154.572 92.2656 157.023 86.3602 161.382 82.0047C165.74 77.6491 171.65 75.1991 177.813 75.1921H182.2C188.364 75.1991 194.273 77.6491 198.632 82.0046C202.99 86.3602 205.442 92.2656 205.449 98.4253L205.449 98.8636Z" fill="#2F2E41"/>
<path d="M174.08 126.627C173.846 126.626 173.612 126.606 173.381 126.565L150.598 122.548V84.9189H175.678L175.057 85.6424C166.418 95.711 172.927 112.037 177.575 120.873C177.918 121.52 178.07 122.251 178.016 122.981C177.961 123.711 177.701 124.411 177.266 125C176.902 125.504 176.423 125.914 175.869 126.196C175.315 126.479 174.702 126.627 174.08 126.627Z" fill="#2F2E41"/>
<path d="M446.995 217.075C445.575 217.218 444.146 217.251 442.721 217.174C442.478 217.148 442.234 217.218 442.042 217.369C441.85 217.52 441.725 217.741 441.695 217.983L438.968 238.421C438.758 239.905 438.151 241.304 437.209 242.47C436.433 243.398 435.856 244.476 435.514 245.636C435.172 246.796 435.072 248.014 435.221 249.215V283.933C435.221 283.933 435.045 288.562 438.605 288.562C442.864 289.097 447.174 289.097 451.434 288.562C451.434 288.562 454.284 288.023 454.284 283.751V249.566C454.501 248.374 454.456 247.148 454.153 245.974C453.849 244.801 453.293 243.707 452.525 242.769C451.615 241.599 451.026 240.211 450.818 238.744L447.986 217.877C447.954 217.643 447.834 217.429 447.65 217.28C447.466 217.131 447.232 217.058 446.995 217.075Z" fill="white"/>
<path d="M445.007 289.548C442.854 289.548 440.703 289.415 438.567 289.148C438.089 289.159 437.615 289.072 437.173 288.891C436.731 288.71 436.332 288.44 435.999 288.098C434.551 286.594 434.631 284.02 434.635 283.911L434.635 249.25C434.484 247.976 434.594 246.684 434.959 245.454C435.325 244.224 435.937 243.081 436.759 242.095C437.631 241.012 438.193 239.715 438.387 238.339L441.114 217.905C441.167 217.512 441.371 217.155 441.683 216.91C441.995 216.665 442.39 216.551 442.784 216.592C444.169 216.665 445.557 216.631 446.937 216.492L446.953 216.49C447.338 216.462 447.719 216.582 448.019 216.825C448.319 217.068 448.515 217.416 448.567 217.798L451.399 238.665C451.594 240.03 452.141 241.32 452.987 242.409C453.802 243.405 454.393 244.564 454.717 245.808C455.042 247.052 455.094 248.352 454.87 249.618V283.751C454.87 288.454 451.576 289.132 451.543 289.138C449.375 289.411 447.192 289.548 445.007 289.548ZM442.641 217.757C442.554 217.753 442.468 217.781 442.401 217.837C442.333 217.892 442.289 217.97 442.276 218.057L439.549 238.499C439.325 240.089 438.674 241.588 437.665 242.838C436.94 243.706 436.401 244.713 436.081 245.798C435.761 246.882 435.666 248.02 435.803 249.143L435.808 249.215V283.933C435.807 283.976 435.744 286.147 436.847 287.288C437.075 287.52 437.349 287.701 437.652 287.819C437.955 287.938 438.28 287.992 438.605 287.976L438.678 287.981C442.889 288.509 447.15 288.509 451.361 287.981C451.416 287.967 453.697 287.447 453.697 283.751L453.707 249.461C453.91 248.352 453.869 247.212 453.586 246.121C453.304 245.029 452.786 244.012 452.071 243.14C451.094 241.886 450.462 240.399 450.238 238.826L447.405 217.956C447.393 217.87 447.349 217.793 447.282 217.738C447.215 217.683 447.13 217.655 447.044 217.659C445.597 217.803 444.141 217.837 442.689 217.76C442.673 217.758 442.657 217.757 442.641 217.757Z" fill="#3F3D56"/>
<path d="M442.691 249.836H447.013C448.731 249.836 450.379 250.518 451.594 251.732C452.809 252.946 453.492 254.593 453.492 256.311V272.559C453.492 274.277 452.809 275.923 451.594 277.138C450.379 278.352 448.731 279.034 447.012 279.034H442.691C440.973 279.034 439.325 278.352 438.11 277.138C436.895 275.923 436.212 274.277 436.212 272.559V256.311C436.212 254.593 436.895 252.946 438.11 251.732C439.325 250.518 440.973 249.836 442.691 249.836Z" fill="#894BD8"/>
<path d="M300.349 188.924C298.929 189.067 297.5 189.1 296.075 189.024C295.832 188.997 295.588 189.067 295.396 189.218C295.204 189.369 295.08 189.59 295.049 189.832L292.322 210.271C292.112 211.754 291.505 213.153 290.563 214.32C289.787 215.248 289.21 216.325 288.868 217.486C288.526 218.646 288.426 219.864 288.575 221.064V255.782C288.575 255.782 288.399 260.411 291.959 260.411C296.218 260.946 300.528 260.946 304.788 260.411C304.788 260.411 307.638 259.872 307.638 255.601V221.416C307.855 220.223 307.81 218.997 307.507 217.824C307.203 216.65 306.647 215.556 305.879 214.619C304.969 213.448 304.381 212.06 304.172 210.593L301.34 189.727C301.308 189.492 301.188 189.279 301.004 189.13C300.82 188.98 300.586 188.907 300.349 188.924Z" fill="white"/>
<path d="M298.361 261.398C296.208 261.398 294.057 261.264 291.921 260.997C291.443 261.009 290.969 260.921 290.527 260.74C290.085 260.56 289.686 260.289 289.353 259.947C287.905 258.444 287.985 255.869 287.989 255.76L287.989 221.1C287.838 219.825 287.948 218.534 288.313 217.303C288.679 216.073 289.291 214.93 290.113 213.944C290.985 212.862 291.547 211.564 291.741 210.189L294.468 189.755C294.521 189.362 294.725 189.005 295.037 188.76C295.349 188.514 295.744 188.4 296.139 188.441C297.523 188.514 298.911 188.481 300.291 188.341L300.307 188.34C300.692 188.312 301.073 188.431 301.373 188.674C301.673 188.917 301.869 189.265 301.921 189.647L304.753 210.514C304.948 211.879 305.495 213.17 306.342 214.259C307.156 215.254 307.747 216.413 308.072 217.658C308.396 218.902 308.448 220.202 308.224 221.468V255.601C308.224 260.303 304.93 260.981 304.897 260.987C302.729 261.26 300.546 261.397 298.361 261.398ZM295.995 189.606C295.908 189.602 295.822 189.63 295.755 189.686C295.687 189.741 295.643 189.82 295.63 189.906L292.903 210.348C292.679 211.938 292.028 213.438 291.019 214.688C290.294 215.556 289.755 216.563 289.435 217.647C289.115 218.731 289.02 219.87 289.157 220.992L289.162 221.064V255.782C289.161 255.825 289.098 257.996 290.201 259.137C290.429 259.369 290.703 259.55 291.006 259.669C291.309 259.787 291.634 259.841 291.959 259.826L292.032 259.83C296.243 260.358 300.504 260.358 304.715 259.83C304.77 259.816 307.051 259.297 307.051 255.601L307.061 221.311C307.264 220.202 307.223 219.062 306.94 217.97C306.658 216.878 306.141 215.861 305.425 214.99C304.448 213.736 303.816 212.248 303.592 210.675L300.759 189.805C300.747 189.72 300.703 189.642 300.636 189.587C300.569 189.532 300.484 189.504 300.398 189.508C298.951 189.653 297.495 189.686 296.043 189.609C296.027 189.607 296.011 189.606 295.995 189.606Z" fill="#3F3D56"/>
<path d="M296.046 221.685H300.367C302.085 221.685 303.733 222.367 304.948 223.582C306.163 224.796 306.846 226.443 306.846 228.16V244.409C306.846 246.126 306.163 247.773 304.948 248.987C303.733 250.201 302.085 250.884 300.367 250.884H296.046C294.327 250.884 292.679 250.201 291.464 248.987C290.249 247.773 289.566 246.126 289.566 244.409V228.16C289.566 226.443 290.249 224.796 291.464 223.582C292.679 222.367 294.327 221.685 296.046 221.685Z" fill="#D84B64"/>
<path d="M275.494 159.118C274.074 159.261 272.645 159.294 271.219 159.217C270.976 159.191 270.733 159.261 270.541 159.412C270.349 159.563 270.224 159.784 270.193 160.026L267.467 180.464C267.257 181.948 266.649 183.347 265.708 184.513C264.931 185.441 264.355 186.519 264.013 187.679C263.671 188.839 263.571 190.057 263.72 191.258V225.976C263.72 225.976 263.544 230.605 267.103 230.605C271.363 231.14 275.673 231.14 279.933 230.605C279.933 230.605 282.782 230.066 282.782 225.794V191.609C283 190.417 282.955 189.191 282.651 188.017C282.347 186.844 281.792 185.75 281.023 184.812C280.113 183.642 279.525 182.254 279.317 180.787L276.485 159.92C276.453 159.686 276.332 159.472 276.148 159.323C275.964 159.174 275.73 159.101 275.494 159.118Z" fill="white"/>
<path d="M273.505 231.591C271.352 231.591 269.202 231.458 267.065 231.191C266.588 231.202 266.114 231.115 265.672 230.934C265.23 230.753 264.83 230.483 264.498 230.141C263.049 228.637 263.13 226.063 263.134 225.954L263.134 191.293C262.982 190.019 263.093 188.727 263.458 187.497C263.823 186.267 264.436 185.124 265.258 184.138C266.129 183.055 266.692 181.758 266.886 180.382L269.612 159.948C269.665 159.555 269.869 159.198 270.181 158.953C270.493 158.708 270.888 158.594 271.283 158.635C272.668 158.708 274.056 158.674 275.435 158.535L275.452 158.533C275.836 158.505 276.218 158.625 276.517 158.868C276.817 159.111 277.013 159.459 277.066 159.841L279.898 180.708C280.093 182.073 280.64 183.363 281.486 184.452C282.301 185.448 282.891 186.607 283.216 187.851C283.541 189.095 283.593 190.395 283.369 191.661V225.794C283.369 230.497 280.075 231.175 280.042 231.181C277.874 231.454 275.691 231.591 273.505 231.591ZM271.14 159.8C271.052 159.796 270.967 159.824 270.899 159.88C270.832 159.935 270.788 160.013 270.775 160.1L268.048 180.542C267.824 182.132 267.173 183.631 266.164 184.881C265.439 185.749 264.9 186.756 264.579 187.841C264.259 188.925 264.165 190.063 264.302 191.185L264.306 191.258V225.976C264.305 226.019 264.243 228.19 265.345 229.331C265.573 229.562 265.848 229.744 266.151 229.862C266.454 229.981 266.778 230.034 267.103 230.019L267.176 230.024C271.387 230.552 275.648 230.552 279.859 230.024C279.915 230.01 282.196 229.49 282.196 225.794L282.205 191.504C282.408 190.395 282.367 189.255 282.085 188.164C281.802 187.072 281.285 186.055 280.569 185.183C279.593 183.929 278.961 182.442 278.736 180.869L275.904 159.999C275.891 159.913 275.847 159.836 275.781 159.781C275.714 159.726 275.629 159.698 275.542 159.702C274.096 159.846 272.64 159.88 271.188 159.803C271.172 159.801 271.156 159.8 271.14 159.8Z" fill="#3F3D56"/>
<path d="M271.19 191.879H275.511C277.23 191.879 278.878 192.561 280.093 193.775C281.308 194.989 281.991 196.636 281.991 198.354V214.602C281.991 216.32 281.308 217.966 280.093 219.181C278.878 220.395 277.23 221.077 275.511 221.077H271.19C269.472 221.077 267.824 220.395 266.609 219.181C265.394 217.966 264.711 216.32 264.711 214.602V198.354C264.711 196.636 265.394 194.989 266.609 193.775C267.824 192.561 269.472 191.879 271.19 191.879Z" fill="#4B72D8"/>
<path d="M46.5516 58.7851C57.9909 58.7851 67.2642 49.5179 67.2642 38.0862C67.2642 26.6544 57.9909 17.3872 46.5516 17.3872C35.1123 17.3872 25.8389 26.6544 25.8389 38.0862C25.8389 49.5179 35.1123 58.7851 46.5516 58.7851Z" fill="#A791FF"/>
<path d="M523.772 41.3979C535.212 41.3979 544.485 32.1307 544.485 20.699C544.485 9.26724 535.212 0 523.772 0C512.333 0 503.06 9.26724 503.06 20.699C503.06 32.1307 512.333 41.3979 523.772 41.3979Z" fill="#F8E47F"/>
<path d="M286.819 93.5592C295.055 93.5592 301.732 86.8868 301.732 78.6559C301.732 70.4251 295.055 63.7527 286.819 63.7527C278.583 63.7527 271.906 70.4251 271.906 78.6559C271.906 86.8868 278.583 93.5592 286.819 93.5592Z" fill="#FF6767"/>
</g>
<defs>
<clipPath id="clip0_229_6219">
<rect width="607" height="529" fill="white"/>
</clipPath>
</defs>
</svg>
