<svg width="33" height="55" viewBox="0 0 33 55" fill="none" xmlns="http://www.w3.org/2000/svg">
<path d="M6.12675 32.7408C8.445 32.7408 10.3243 30.8615 10.3243 28.5433C10.3243 26.225 8.445 24.3457 6.12675 24.3457C3.80851 24.3457 1.9292 26.225 1.9292 28.5433C1.9292 30.8615 3.80851 32.7408 6.12675 32.7408Z" fill="#F0BD70"/>
<path d="M6.12695 31.9004H20.3986V52.779C20.3986 52.779 17.3403 54.5672 13.2628 54.5672C9.18529 54.5672 6.12695 51.6482 6.12695 51.6482V31.9004Z" fill="#F0BD70"/>
<path d="M20.3985 42.7042C20.3985 47.4508 19.658 47.0008 14.8434 47.0008C10.0289 47.0008 7.80751 43.1533 7.80751 38.4067C7.80751 33.6601 7.6245 29.3828 11.5097 29.3828C22.4973 29.8026 20.3985 37.9576 20.3985 42.7042Z" fill="#E9B05B"/>
<path d="M29.5374 27.7872C29.5374 35.2773 32.6318 44.4876 19.1392 44.4876C5.64661 44.4876 5.64661 35.2773 5.64661 27.7872C3.60828 18.8884 4.02804 8.39453 17.88 8.39453C31.7319 8.39453 29.5374 20.2963 29.5374 27.7872Z" fill="#FFCB7E"/>
<path d="M22.9168 31.9004H22.0773C21.6137 31.9004 21.2378 32.2763 21.2378 32.7399C21.2378 33.2035 21.6137 33.5794 22.0773 33.5794H22.9168C23.3805 33.5794 23.7563 33.2035 23.7563 32.7399C23.7563 32.2763 23.3805 31.9004 22.9168 31.9004Z" fill="#F0BD70"/>
<path fill-rule="evenodd" clip-rule="evenodd" d="M29.6057 24.7507C30.3025 24.3574 30.8359 23.7283 31.1099 22.9765C31.3839 22.2248 31.3804 21.3999 31.1 20.6505C31.8663 20.281 32.4639 19.6345 32.7719 18.8414C33.08 18.0484 33.0755 17.168 32.7594 16.3781C32.4434 15.5882 31.8393 14.9478 31.0692 14.5861C30.2992 14.2244 29.4205 14.1686 28.6108 14.4297C29.8004 17.5141 29.7131 21.3288 29.6057 24.7507Z" fill="#47280B"/>
<path fill-rule="evenodd" clip-rule="evenodd" d="M21.4871 16.5882C20.7221 17.2608 19.7379 17.6309 18.7192 17.6292C17.7902 17.6307 16.8872 17.3226 16.1529 16.7536C15.6079 17.2983 14.9609 17.7302 14.2488 18.0245C13.5368 18.3188 12.7736 18.4698 12.0031 18.4687C11.4214 18.4691 10.8428 18.3831 10.2864 18.2135C10.0675 18.453 9.81532 18.6597 9.53751 18.8272C9.86799 19.2204 10.1039 19.6843 10.227 20.183C10.3501 20.6817 10.3571 21.202 10.2475 21.7038C10.138 22.2057 9.91477 22.6757 9.59505 23.0778C9.27532 23.4798 8.86763 23.8032 8.40333 24.0229C8.54189 24.2127 8.62458 24.4375 8.64203 24.6719C8.65948 24.9063 8.611 25.1408 8.50207 25.3491C8.39315 25.5573 8.22812 25.7309 8.02567 25.8502C7.82321 25.9696 7.5914 26.0299 7.35646 26.0243C6.94491 26.7404 6.28391 27.2797 5.4998 27.5391C4.7157 27.7985 3.86349 27.7599 3.10607 27.4306C2.34865 27.1013 1.73916 26.5044 1.3941 25.754C1.04903 25.0036 0.992601 24.1524 1.23559 23.3631C0.922755 23.0516 0.67462 22.6814 0.505471 22.2736C0.336322 21.8659 0.249499 21.4287 0.250002 20.9873C0.250002 20.0588 0.626942 19.2184 1.23559 18.6114C1.07344 18.0811 1.04516 17.5189 1.15327 16.975C1.26138 16.431 1.50252 15.9224 1.85515 15.4943C1.41842 14.7248 1.16103 13.8666 1.10217 12.9837C1.04331 12.1008 1.18449 11.216 1.5152 10.3953C1.84591 9.57459 2.35761 8.83911 3.01215 8.24369C3.66669 7.64827 4.44719 7.20828 5.29546 6.95652C5.25183 6.35319 5.37198 5.74928 5.64321 5.2086C5.91444 4.66791 6.32668 4.21053 6.83638 3.88478C7.34608 3.55903 7.9343 3.377 8.5389 3.35793C9.1435 3.33887 9.74203 3.48346 10.2712 3.77645C10.787 2.88298 11.5289 2.1411 12.4225 1.62544C13.316 1.10978 14.3296 0.838543 15.3612 0.839004C16.5138 0.839004 17.5893 1.17061 18.4968 1.74484C19.1201 1.07332 19.9025 0.569529 20.7718 0.279895C21.641 -0.00974014 22.5692 -0.0758971 23.4708 0.0875214C24.3724 0.25094 25.2183 0.638676 25.9306 1.21499C26.6429 1.7913 27.1987 2.53765 27.5467 3.38524C27.9908 3.44281 28.4189 3.58863 28.8058 3.81412C29.1928 4.03961 29.5307 4.34022 29.7997 4.69825C30.0687 5.05628 30.2634 5.46451 30.3723 5.8989C30.4812 6.3333 30.5021 6.78509 30.4338 7.22768C31.9911 8.38117 32.9909 10.1676 32.9909 12.1724C32.9909 15.6496 29.9838 18.4687 26.2748 18.4687C24.4002 18.4687 22.7052 17.7484 21.4871 16.5882Z" fill="#47280B"/>
<path d="M15.3018 36.0993C15.3018 35.8766 15.3902 35.6631 15.5476 35.5057C15.7051 35.3482 15.9186 35.2598 16.1413 35.2598H23.8169C24.0396 35.2598 24.2531 35.3482 24.4105 35.5057C24.568 35.6631 24.6564 35.8766 24.6564 36.0993C24.6564 37.2125 24.2142 38.2802 23.427 39.0674C22.6398 39.8546 21.5721 40.2968 20.4589 40.2968H19.4993C18.3861 40.2968 17.3184 39.8546 16.5312 39.0674C15.744 38.2802 15.3018 37.2125 15.3018 36.0993Z" fill="#66253C"/>
<path fill-rule="evenodd" clip-rule="evenodd" d="M21.8713 40.0532C21.4179 40.2149 20.9399 40.2972 20.4584 40.2966H19.4989C18.4147 40.2966 17.3726 39.8771 16.5907 39.126C15.8089 38.3748 15.3481 37.3503 15.3047 36.267C15.9461 36.0269 16.8981 36.0546 17.8375 36.0823C18.1364 36.0907 18.4335 36.0991 18.719 36.0991C20.5743 36.0991 22.077 37.4146 22.077 39.0374C22.077 39.3941 22.004 39.7367 21.8713 40.0532Z" fill="#B03E67"/>
<path d="M16.2007 35.2598H24.5958V36.0993C24.5958 36.3219 24.5073 36.5355 24.3499 36.6929C24.1925 36.8503 23.9789 36.9388 23.7563 36.9388H17.0402C16.8175 36.9388 16.604 36.8503 16.4466 36.6929C16.2891 36.5355 16.2007 36.3219 16.2007 36.0993V35.2598Z" fill="white"/>
<path d="M18.7192 28.9624C18.7192 28.2669 18.1554 27.7031 17.4599 27.7031C16.7645 27.7031 16.2007 28.2669 16.2007 28.9624V29.8019C16.2007 30.4974 16.7645 31.0612 17.4599 31.0612C18.1554 31.0612 18.7192 30.4974 18.7192 29.8019V28.9624Z" fill="#1B0B47"/>
<path d="M27.1142 28.9624C27.1142 28.2669 26.5504 27.7031 25.855 27.7031C25.1595 27.7031 24.5957 28.2669 24.5957 28.9624V29.8019C24.5957 30.4974 25.1595 31.0612 25.855 31.0612C26.5504 31.0612 27.1142 30.4974 27.1142 29.8019V28.9624Z" fill="#1B0B47"/>
<path d="M14.1019 30.2227H12.4228C11.7274 30.2227 11.1636 30.7864 11.1636 31.4819C11.1636 32.1774 11.7274 32.7412 12.4228 32.7412H14.1019C14.7973 32.7412 15.3611 32.1774 15.3611 31.4819C15.3611 30.7864 14.7973 30.2227 14.1019 30.2227Z" fill="#FF859B"/>
<path d="M29.213 30.2227H28.3735C27.6781 30.2227 27.1143 30.7864 27.1143 31.4819C27.1143 32.1774 27.6781 32.7412 28.3735 32.7412H29.213C29.9085 32.7412 30.4723 32.1774 30.4723 31.4819C30.4723 30.7864 29.9085 30.2227 29.213 30.2227Z" fill="#FF859B"/>
</svg>
