<svg width="209" height="322" viewBox="0 0 209 322" fill="none" xmlns="http://www.w3.org/2000/svg">
<path d="M38.4772 321.805L37.5615 321.601C47.7709 276.729 73.428 235.982 109.806 206.865C137.31 184.885 170.021 170.185 204.859 164.149C239.698 158.113 275.518 160.938 308.946 172.36C342.375 183.782 372.312 203.425 395.939 229.438C419.566 255.451 436.106 286.979 444 321.053L443.086 321.259C421.474 227.478 338.309 161.98 240.844 161.98C144.656 161.98 59.5481 229.196 38.4772 321.805Z" fill="#3F3D56"/>
<path d="M169.748 57.7291C183.825 57.7291 195.237 46.4509 195.237 32.5386C195.237 18.6263 183.825 7.34814 169.748 7.34814C155.671 7.34814 144.26 18.6263 144.26 32.5386C144.26 46.4509 155.671 57.7291 169.748 57.7291Z" fill="#FF6584"/>
<path d="M59.9378 316.082C60.7328 318.986 63.4555 320.785 63.4555 320.785C63.4555 320.785 64.8895 317.875 64.0945 314.971C63.2996 312.067 60.5768 310.268 60.5768 310.268C60.5768 310.268 59.1429 313.178 59.9378 316.082Z" fill="#3F3D56"/>
<path d="M61.1057 315.458C63.287 317.556 63.5534 320.782 63.5534 320.782C63.5534 320.782 60.2833 320.606 58.102 318.507C55.9207 316.409 55.6543 313.183 55.6543 313.183C55.6543 313.183 58.9244 313.359 61.1057 315.458Z" fill="#6C63FF"/>
<path d="M120.474 316.082C121.269 318.986 123.992 320.785 123.992 320.785C123.992 320.785 125.426 317.875 124.631 314.971C123.836 312.067 121.113 310.268 121.113 310.268C121.113 310.268 119.679 313.178 120.474 316.082Z" fill="#3F3D56"/>
<path d="M121.642 315.458C123.823 317.556 124.09 320.782 124.09 320.782C124.09 320.782 120.819 320.606 118.638 318.507C116.457 316.409 116.19 313.183 116.19 313.183C116.19 313.183 119.461 313.359 121.642 315.458Z" fill="#6C63FF"/>
<path d="M132.477 84.7538L122.893 77.1756L176.565 29.8145H312.663V71.4924L224.487 130.22L132.477 84.7538Z" fill="#3F3D56"/>
<path d="M268.575 77.1753H122.893V321.56H268.575V77.1753Z" fill="#F2F2F2"/>
<path d="M206.278 261.885H179.441V321.56H206.278V261.885Z" fill="#CCCCCC"/>
<path d="M150.688 278.935V269.462H139.187V278.935H149.73H150.688Z" fill="#3F3D56"/>
<path d="M149.73 286.513H139.187V295.985H150.688V286.513H149.73Z" fill="#3F3D56"/>
<path d="M169.857 269.463H158.355V278.935H169.857V269.463Z" fill="#3F3D56"/>
<path d="M169.857 286.513H158.355V295.985H169.857V286.513Z" fill="#3F3D56"/>
<path d="M250.365 89.4897H139.187V112.223H250.365V89.4897Z" fill="#3F3D56"/>
<path d="M250.365 134.957H139.187V157.69H250.365V134.957Z" fill="#3F3D56"/>
<path d="M250.365 180.423H139.187V203.157H250.365V180.423Z" fill="#3F3D56"/>
<path d="M250.365 225.89H139.187V248.624H250.365V225.89Z" fill="#3F3D56"/>
<path d="M443.794 316.661H-26V321.804H443.794V316.661Z" fill="#3F3D56"/>
<path d="M66.1089 213.512H63.3521V321.135H66.1089V213.512Z" fill="#3F3D56"/>
<path d="M91.5511 227.228C91.7266 264.861 64.9365 295.491 64.9365 295.491C64.9365 295.491 37.8619 265.106 37.6864 227.473C37.5109 189.84 64.301 159.21 64.301 159.21C64.301 159.21 91.3756 189.595 91.5511 227.228Z" fill="#6C63FF"/>
<path opacity="0.1" d="M91.5511 227.228C91.7266 264.861 64.9365 295.491 64.9365 295.491C64.9365 295.491 37.8619 265.106 37.6864 227.473C37.5109 189.84 64.301 159.21 64.301 159.21C64.301 159.21 91.3756 189.595 91.5511 227.228Z" fill="black"/>
<path d="M30.2696 213.512H27.5127V321.135H30.2696V213.512Z" fill="#3F3D56"/>
<path d="M55.7117 227.228C55.8872 264.861 29.0971 295.491 29.0971 295.491C29.0971 295.491 2.02253 265.106 1.84705 227.473C1.67157 189.84 28.4616 159.21 28.4616 159.21C28.4616 159.21 55.5362 189.595 55.7117 227.228Z" fill="#6C63FF"/>
<path d="M55.9136 129.895C34.1972 129.994 16.521 130.311 16.521 130.311C16.521 130.311 37.532 102.805 55.8348 112.996C74.1376 123.186 95.1628 129.952 95.1628 129.952C95.1628 129.952 77.6299 129.796 55.9136 129.895Z" fill="#F2F2F2"/>
<path d="M134.75 19.5143C113.034 19.6132 95.3579 19.9303 95.3579 19.9303C95.3579 19.9303 116.369 -7.57545 134.672 2.61522C152.974 12.8059 174 19.5721 174 19.5721C174 19.5721 156.467 19.4153 134.75 19.5143Z" fill="#F2F2F2"/>
</svg>
