<svg width="53" height="55" viewBox="0 0 53 55" fill="none" xmlns="http://www.w3.org/2000/svg">
<circle cx="14.9062" cy="26.8418" r="4.14062" fill="#EAC0B3"/>
<path d="M14.9058 30.1562H28.9839V50.7521C28.9839 50.7521 25.9671 52.5156 21.9448 52.5156C17.9225 52.5156 14.9058 49.6359 14.9058 49.6359V30.1562Z" fill="#EAC0B3"/>
<path d="M28.8282 40.1866C28.8282 44.6458 28.1067 44.2237 23.4174 44.2237C18.7281 44.2237 16.5638 40.6088 16.5638 36.1496C16.5638 31.6905 16.3858 27.6719 20.171 27.6719C30.8724 28.0662 28.8282 35.7275 28.8282 40.1866Z" fill="#C99688"/>
<path d="M37.9993 26.0978C37.9993 33.4867 36.8516 42.5725 27.7423 42.5725C18.6329 42.5725 14.433 33.4867 14.433 26.0978C12.4219 17.3203 12.836 6.96875 26.5001 6.96875C40.1641 6.96875 37.9993 18.7089 37.9993 26.0978Z" fill="#F5D0C5"/>
<rect x="29.8125" y="30.1562" width="2.48437" height="1.65625" rx="0.828125" fill="#EAC0B3"/>
<path fill-rule="evenodd" clip-rule="evenodd" d="M30.6406 32.6387C25.2578 33.8809 21.5312 34.2949 21.5312 34.2949C21.5312 34.2949 22.3594 36.3652 24.4297 35.9512C26.0859 35.6199 29.3984 34.847 30.6406 34.2949V32.6387ZM31.0542 32.6387C36.023 33.4668 39.3355 34.0927 39.3355 34.0927C39.3355 34.0927 38.4088 35.9006 36.437 35.5371C36.3515 35.5213 36.2629 35.505 36.1716 35.4883C34.5794 35.1956 32.1731 34.7533 31.0542 34.2949V32.6387Z" fill="#47280B"/>
<path fill-rule="evenodd" clip-rule="evenodd" d="M38.0675 24.7634C39.0722 24.1945 39.7502 23.1159 39.7502 21.879C39.7502 21.4707 39.6763 21.0798 39.5413 20.7187C40.6454 20.1814 41.4063 19.0487 41.4063 17.7383C41.4063 15.9088 39.9233 14.4258 38.0938 14.4258C37.7426 14.4258 37.4041 14.4805 37.0864 14.5818C38.2601 17.6244 38.1739 21.3878 38.0675 24.7634Z" fill="#47280B"/>
<path fill-rule="evenodd" clip-rule="evenodd" d="M30.0577 16.708C29.3288 17.3478 28.3733 17.7357 27.3273 17.7357C26.3732 17.7357 25.4946 17.4131 24.7945 16.871C23.746 17.9161 22.2995 18.5622 20.7021 18.5622C20.1128 18.5622 19.5441 18.4743 19.0083 18.3108C18.7933 18.5463 18.5448 18.7507 18.2703 18.9164C18.7542 19.4922 19.0457 20.2352 19.0457 21.0463C19.0457 22.3685 18.2711 23.5098 17.1509 24.041C17.301 24.2463 17.3896 24.4995 17.3896 24.7734C17.3896 25.4594 16.8335 26.0156 16.1474 26.0156C16.1379 26.0156 16.1285 26.0155 16.119 26.0152C15.5463 27.0057 14.4756 27.6722 13.2492 27.6722C11.4198 27.6722 9.93674 26.1891 9.93674 24.3597C9.93674 24.0226 9.98711 23.6972 10.0807 23.3907C9.48003 22.7911 9.1084 21.9621 9.1084 21.0463C9.1084 20.1308 9.47983 19.302 10.0802 18.7024C9.98693 18.3964 9.93674 18.0715 9.93674 17.735C9.93674 16.9351 10.2203 16.2014 10.6923 15.629C10.2114 14.7842 9.93674 13.8069 9.93674 12.7653C9.93674 10.1364 11.6867 7.91628 14.0852 7.20616C14.0797 7.12803 14.0769 7.04915 14.0769 6.96962C14.0769 5.14018 15.56 3.65712 17.3894 3.65712C17.9712 3.65712 18.5179 3.80709 18.9931 4.07049C19.9952 2.33725 21.8689 1.17107 24.015 1.17107C25.1525 1.17107 26.2134 1.49868 27.1086 2.06469C28.0916 1.00611 29.4954 0.34375 31.054 0.34375C33.304 0.34375 35.2315 1.72423 36.0359 3.68439C37.6636 3.89389 38.9213 5.28487 38.9213 6.96962C38.9213 7.14152 38.9083 7.31035 38.883 7.47519C40.4192 8.61264 41.4051 10.3744 41.4051 12.3521C41.4051 15.7823 38.439 18.563 34.7801 18.563C32.9313 18.563 31.2594 17.853 30.0577 16.708Z" fill="#47280B"/>
<mask id="path-9-inside-1_1765_13" fill="white">
<path d="M36.438 25.6016C36.438 26.2876 35.8818 26.8438 35.1958 26.8438V26.8438C34.5098 26.8438 33.9536 26.2876 33.9536 25.6016L33.9536 24.5852C33.9536 24.4605 34.0547 24.3594 34.1795 24.3594L36.2121 24.3594C36.3369 24.3594 36.438 24.4605 36.438 24.5852L36.438 25.6016Z"/>
</mask>
<path d="M36.438 25.6016C36.438 26.2876 35.8818 26.8438 35.1958 26.8438V26.8438C34.5098 26.8438 33.9536 26.2876 33.9536 25.6016L33.9536 24.5852C33.9536 24.4605 34.0547 24.3594 34.1795 24.3594L36.2121 24.3594C36.3369 24.3594 36.438 24.4605 36.438 24.5852L36.438 25.6016Z" fill="#47280B" stroke="#47280B" stroke-width="2" mask="url(#path-9-inside-1_1765_13)"/>
<mask id="path-10-inside-2_1765_13" fill="white">
<path d="M28.1567 25.6016C28.1567 26.2876 27.6006 26.8438 26.9146 26.8438V26.8438C26.2285 26.8438 25.6724 26.2876 25.6724 25.6016L25.6724 24.5852C25.6724 24.4605 25.7735 24.3594 25.8982 24.3594L27.9309 24.3594C28.0556 24.3594 28.1567 24.4605 28.1567 24.5852L28.1567 25.6016Z"/>
</mask>
<path d="M28.1567 25.6016C28.1567 26.2876 27.6006 26.8438 26.9146 26.8438V26.8438C26.2285 26.8438 25.6724 26.2876 25.6724 25.6016L25.6724 24.5852C25.6724 24.4605 25.7735 24.3594 25.8982 24.3594L27.9309 24.3594C28.0556 24.3594 28.1567 24.4605 28.1567 24.5852L28.1567 25.6016Z" fill="#47280B" stroke="#47280B" stroke-width="2" mask="url(#path-10-inside-2_1765_13)"/>
<line x1="25.3442" y1="24.6875" x2="28.4849" y2="24.6875" stroke="#47280B" stroke-linecap="round"/>
<line x1="33.6255" y1="24.6875" x2="36.7661" y2="24.6875" stroke="#47280B" stroke-linecap="round"/>
</svg>
