<svg width="365" height="322" viewBox="0 0 365 322" fill="none" xmlns="http://www.w3.org/2000/svg">
<path d="M364.793 242.744C364.793 274.87 345.679 286.088 322.1 286.088C298.522 286.088 279.407 274.87 279.407 242.744C279.407 210.617 322.1 169.746 322.1 169.746C322.1 169.746 364.793 210.617 364.793 242.744Z" fill="#FFB163"/>
<path d="M320.982 254.282L339.179 221.019L321.05 250.065L321.247 237.975L333.788 213.909L321.299 234.775L321.652 213.032L335.082 193.873L321.708 209.613L321.929 169.742L320.6 220.263L307.001 199.463L320.436 224.526L319.164 248.81L319.126 248.165L303.386 226.189L319.078 250.442L318.919 253.479L318.89 253.525L318.904 253.774L315.676 286.18H319.988L320.506 283.562L336.16 259.369L320.545 281.17L320.982 254.282Z" fill="#3F3D56"/>
<path d="M278.108 139.443C278.108 200.814 241.595 222.242 196.554 222.242C151.513 222.242 115 200.814 115 139.443C115 78.0729 196.554 0 196.554 0C196.554 0 278.108 78.0729 278.108 139.443Z" fill="#7F7F7F"/>
<path d="M193.583 212.854L194.418 161.493L229.178 97.9512L194.549 153.435L194.924 130.341L218.881 84.3697L195.024 124.23V124.23L195.699 82.6939L221.352 46.0948L195.805 76.1625L196.227 0L193.575 100.825L193.793 96.666L167.711 56.7752L193.375 104.65L190.945 151.039L190.872 149.808L160.805 107.829L190.782 154.157L190.478 159.959L190.423 160.046L190.448 160.522L184.282 278.214H192.52L193.508 217.424L223.412 171.209L193.583 212.854Z" fill="#3F3D56"/>
<path opacity="0.1" d="M252.53 312.847C311.564 312.847 359.421 309.148 359.421 304.585C359.421 300.023 311.564 296.324 252.53 296.324C193.495 296.324 145.639 300.023 145.639 304.585C145.639 309.148 193.495 312.847 252.53 312.847Z" fill="black"/>
<path d="M167.851 139.039C167.851 139.039 199.144 139.618 193.349 145.119C187.554 150.62 165.822 145.119 165.822 145.119L167.851 139.039Z" fill="#E2BCC2"/>
<path d="M102.651 72.2277C102.651 72.2277 115.286 69.9732 119.679 80.1647C124.072 90.3562 133.094 119.421 133.094 119.421C133.094 119.421 157.238 135.391 161.63 134.866C166.022 134.341 173.529 135.412 172.152 140.199C170.775 144.986 171.386 150.415 168.216 151.08C165.046 151.745 160.003 145.395 156.144 148.454C152.285 151.512 117.894 140.34 115.686 138.025C113.478 135.71 95.1299 85.5809 95.1299 85.5809C95.1299 85.5809 95.8638 72.0644 102.651 72.2277Z" fill="#FFB163"/>
<path d="M129.749 287.422L131.198 299.582L119.028 302.767L112.074 299.582V288.869L129.749 287.422Z" fill="#E2BCC2"/>
<path d="M97.0069 295.234L98.4556 307.394L86.2862 310.579L79.332 307.394V296.682L97.0069 295.234Z" fill="#E2BCC2"/>
<path d="M130.908 154.528L136.413 174.505L144.526 215.038C144.526 215.038 146.844 224.882 142.208 236.752C137.572 248.622 129.169 287.418 130.908 289.734C132.646 292.05 111.205 293.787 111.494 291.471C111.784 289.155 114.682 257.308 114.682 257.308C114.682 257.308 118.738 229.225 120.766 225.75C122.795 222.276 111.494 213.59 111.494 213.59C111.494 213.59 108.597 246.885 104.251 249.78C99.9042 252.676 100.484 297.551 98.4555 298.13C96.4272 298.709 81.6498 301.025 79.9113 298.13C78.1728 295.235 79.9113 246.885 79.9113 246.885C79.9113 246.885 89.7629 210.116 87.7346 204.905C85.7064 199.694 86.8654 177.401 86.8654 177.401C86.8654 177.401 79.3318 160.319 83.3884 151.344L130.908 154.528Z" fill="#2F2E41"/>
<path d="M130.038 43.3524C130.038 43.3524 117.868 58.4075 118.448 65.0664C119.027 71.7254 99.3242 52.9066 99.3242 52.9066C99.3242 52.9066 113.522 33.7983 113.522 29.745C113.522 25.6917 130.038 43.3524 130.038 43.3524Z" fill="#E2BCC2"/>
<path d="M129.893 48.9978C140.455 48.9978 149.017 40.4428 149.017 29.8895C149.017 19.3363 140.455 10.7812 129.893 10.7812C119.331 10.7812 110.77 19.3363 110.77 29.8895C110.77 40.4428 119.331 48.9978 129.893 48.9978Z" fill="#E2BCC2"/>
<path d="M81.699 143.699C80.8326 146.924 79.7576 150.581 79.9112 153.662C80.0098 155.656 85.3093 156.965 92.6371 157.822C99.4318 158.618 107.971 159.023 115.733 159.232C123.884 159.452 131.171 159.452 134.674 159.452C145.105 159.452 136.703 152.793 132.646 149.608C128.59 146.424 129.459 101.259 129.749 95.4681C130.038 89.6777 127.141 72.8856 127.141 69.7009C127.141 66.5161 120.323 58.204 120.323 58.204C120.323 58.204 118.738 62.7524 112.363 56.6725C105.989 50.5926 97.5861 48.8555 97.5861 48.8555C91.2115 51.1716 80.4907 76.6494 79.9112 80.9921C79.6765 82.7553 79.8706 91.7854 80.2647 102.095C80.8355 117.165 81.8323 134.979 82.519 136.869C83.0608 138.36 82.461 140.862 81.699 143.699Z" fill="#FFB163"/>
<path d="M112.653 160.609L114.681 167.847L106.858 175.954L104.25 164.662L112.653 160.609Z" fill="#E2BCC2"/>
<path d="M115.261 296.395C115.261 296.395 121.346 303.343 125.982 298.711C130.618 294.079 130.328 291.184 131.197 291.184C132.066 291.184 145.105 302.764 145.105 302.764C145.105 302.764 167.416 307.976 155.247 311.74C143.077 315.503 108.597 312.898 108.597 311.74C108.597 310.581 107.727 295.237 110.915 295.237L115.261 296.395Z" fill="#2F2E41"/>
<path d="M82.5187 304.211C82.5187 304.211 88.6035 311.16 93.2395 306.528C97.8755 301.895 97.5858 299 98.455 299C99.3243 299 112.363 310.581 112.363 310.581C112.363 310.581 134.674 315.792 122.504 319.556C110.335 323.32 75.8544 320.714 75.8544 319.556C75.8544 318.398 74.9851 303.053 78.1724 303.053L82.5187 304.211Z" fill="#2F2E41"/>
<path d="M108.423 45.1468C107.805 45.5456 107.001 45.9497 106.382 45.5521C104.082 39.8211 102.363 33.8742 101.251 27.8006C100.86 25.6672 100.589 23.2956 101.775 21.4792C102.243 20.7629 102.917 20.1771 103.259 19.3932C103.778 18.2062 103.437 16.8321 103.609 15.5482C103.97 12.8585 106.515 10.9825 109.074 10.0727C111.633 9.16281 114.412 8.88058 116.851 7.68669C119.167 6.55307 121.022 4.673 123.169 3.2463C125.317 1.81961 128.068 0.844132 130.459 1.80819C132.575 2.66104 133.893 4.81587 135.893 5.91304C137.25 6.65759 138.824 6.86478 140.339 7.18437C144.549 8.0769 148.502 9.91186 151.9 12.5512C152.727 13.1405 153.44 13.8748 154.004 14.7184C156.57 18.9401 151.976 24.6796 154.003 29.1846L149.62 25.7293C148.45 24.7065 147.13 23.8683 145.706 23.2439C144.255 22.6944 142.536 22.6281 141.217 23.4465C139.366 24.595 138.864 26.9945 138.218 29.0732C137.572 31.1518 136.142 33.4569 133.964 33.4036C131.003 33.3312 129.967 29.2012 127.309 27.8937C125.576 27.0413 123.395 27.6026 121.918 28.8458C120.441 30.0889 119.555 31.8926 118.905 33.7096C118.498 34.8451 118.117 36.1251 117.396 37.1094C116.6 38.1949 115.582 38.2823 114.732 39.0929C112.52 41.2031 111.16 43.3801 108.423 45.1468Z" fill="#2F2E41"/>
<path opacity="0.1" d="M81.6989 143.699C85.3005 148.919 89.36 154.304 92.637 157.822C99.4318 158.618 107.971 159.023 115.733 159.232C114.346 157.353 112.612 155.757 110.625 154.53C106.858 152.214 97.8758 124.709 97.8758 124.709C97.8758 124.709 108.886 96.3363 111.784 85.6241C114.681 74.9119 103.381 68.8319 103.381 68.8319C98.1656 64.4891 89.1832 74.6223 89.1832 74.6223C89.1832 74.6223 84.5993 88.4382 80.2646 102.095C80.8354 117.164 81.8322 134.978 82.5189 136.869C83.0608 138.36 82.461 140.862 81.6989 143.699Z" fill="black"/>
<path d="M102.512 66.5155C102.512 66.5155 113.813 72.5954 110.915 83.3077C108.018 94.0199 97.0071 122.393 97.0071 122.393C97.0071 122.393 105.989 149.897 109.756 152.213C113.523 154.53 118.738 160.03 114.682 162.926C110.625 165.821 107.728 170.453 104.83 169.006C101.933 167.558 101.933 159.451 97.0071 159.451C92.0813 159.451 72.0884 129.341 71.7986 126.157C71.5089 122.972 88.3145 72.3059 88.3145 72.3059C88.3145 72.3059 97.2968 62.1727 102.512 66.5155Z" fill="#FFB163"/>
<path d="M337.488 145.65L334.229 142.393C332.327 140.493 329.749 139.426 327.06 139.426C324.371 139.426 321.792 140.493 319.891 142.393L256.664 205.569L193.437 142.393C191.536 140.493 188.957 139.426 186.268 139.426C183.579 139.426 181.001 140.493 179.099 142.393L175.84 145.65C174.898 146.591 174.151 147.707 173.642 148.936C173.132 150.165 172.87 151.483 172.87 152.813C172.87 154.143 173.132 155.461 173.642 156.69C174.151 157.919 174.898 159.036 175.84 159.976L239.066 223.152L175.84 286.328C174.898 287.269 174.151 288.386 173.642 289.615C173.132 290.844 172.87 292.161 172.87 293.492C172.87 294.822 173.132 296.139 173.642 297.368C174.151 298.597 174.898 299.714 175.84 300.655L179.099 303.912C181.001 305.812 183.579 306.879 186.268 306.879C188.957 306.879 191.536 305.812 193.437 303.912L256.664 240.736L319.891 303.912C321.792 305.812 324.371 306.879 327.06 306.879C329.749 306.879 332.327 305.812 334.229 303.912L337.488 300.655C339.39 298.755 340.458 296.178 340.458 293.492C340.458 290.805 339.39 288.228 337.488 286.328L274.261 223.152L337.488 159.976C339.39 158.076 340.458 155.5 340.458 152.813C340.458 150.126 339.39 147.55 337.488 145.65V145.65Z" fill="#FF6584"/>
<path opacity="0.1" d="M173.584 289.765L234.933 228.465L234.343 227.875L175.84 286.33C174.86 287.309 174.092 288.478 173.584 289.765V289.765Z" fill="black"/>
<path opacity="0.1" d="M174.966 147.704C176.867 145.804 179.446 144.737 182.135 144.737C184.824 144.737 187.403 145.804 189.304 147.704L252.531 210.88L315.758 147.704C317.659 145.804 320.238 144.737 322.927 144.737C325.615 144.737 328.194 145.804 330.095 147.704L333.355 150.961C334.754 152.358 335.712 154.134 336.113 156.069C336.514 158.005 336.34 160.015 335.612 161.852L337.489 159.976C338.43 159.036 339.177 157.919 339.687 156.69C340.196 155.461 340.458 154.143 340.458 152.813C340.458 151.483 340.196 150.165 339.687 148.936C339.177 147.707 338.43 146.591 337.489 145.65L334.229 142.393C332.328 140.493 329.749 139.426 327.06 139.426C324.372 139.426 321.793 140.493 319.892 142.393L256.665 205.569L193.438 142.393C191.537 140.493 188.958 139.426 186.269 139.426C183.58 139.426 181.001 140.493 179.1 142.393L175.84 145.65C174.86 146.628 174.092 147.797 173.584 149.085L174.966 147.704Z" fill="black"/>
<path opacity="0.1" d="M274.852 223.742L270.128 228.463L333.355 291.639C334.753 293.037 335.712 294.812 336.113 296.748C336.514 298.683 336.339 300.693 335.611 302.531L337.489 300.654C338.43 299.714 339.177 298.597 339.686 297.368C340.196 296.139 340.458 294.822 340.458 293.491C340.458 292.161 340.196 290.844 339.686 289.615C339.177 288.386 338.43 287.269 337.489 286.328L274.852 223.742Z" fill="black"/>
<path d="M71.6213 265.865C71.6213 292.548 55.7461 301.865 36.1632 301.865C16.5802 301.865 0.705078 292.548 0.705078 265.865C0.705078 239.183 36.1632 205.238 36.1632 205.238C36.1632 205.238 71.6213 239.183 71.6213 265.865Z" fill="#FFB163"/>
<path d="M35.2343 275.452L50.3476 247.825L35.2913 271.949L35.4546 261.908L45.8705 241.92L35.4979 259.251L35.7914 241.192L46.9449 225.279L35.8375 238.352L36.0208 205.238L34.9174 247.197L23.6229 229.923L34.7807 250.738L33.7243 270.907L33.693 270.372L20.6201 252.12L33.6531 272.263L33.521 274.785L33.4973 274.823L33.5082 275.03L30.8274 301.944H34.4092L34.8391 299.77L47.8402 279.677L34.8714 297.783L35.2343 275.452Z" fill="#3F3D56"/>
</svg>
