<svg width="198" height="210" viewBox="0 0 198 210" fill="none" xmlns="http://www.w3.org/2000/svg">
<path d="M75.7981 33.4152C80.9821 33.4152 85.1845 29.2089 85.1845 24.0201C85.1845 18.8313 80.9821 14.625 75.7981 14.625C70.6141 14.625 66.4116 18.8313 66.4116 24.0201C66.4116 29.2089 70.6141 33.4152 75.7981 33.4152Z" fill="#FD6584"/>
<path d="M96.8054 19.5717C96.5406 18.7029 96.0279 17.9306 95.3302 17.3498C94.6325 16.769 93.7803 16.4051 92.8786 16.3029C92.8576 16.3011 92.8364 16.3011 92.8154 16.3029C92.7901 16.2949 92.7642 16.2891 92.738 16.2853C89.5952 15.8771 86.1009 16.8694 83.7491 19.0298C82.876 19.8192 82.1778 20.7829 81.6996 21.8588C81.2636 21.2628 80.689 20.7821 80.0257 20.4584C79.3623 20.1347 78.6301 19.9777 77.8924 20.001C76.941 20.0639 76.0322 20.419 75.2899 21.0179C74.5475 21.6167 74.0078 22.4301 73.7442 23.3472C73.7152 23.4593 73.7232 23.5777 73.7669 23.6848C73.8106 23.792 73.8877 23.8821 73.9867 23.9419C74.2695 24.1839 74.6057 24.3552 74.9676 24.4415C75.7445 24.6069 76.5284 24.7582 77.3123 24.8954C78.8451 25.1629 80.386 25.3798 81.9351 25.5464C82.9581 25.6555 83.9834 25.7423 85.0111 25.8068C87.1344 25.9405 89.2683 25.9721 91.3951 25.9053C92.4498 25.8701 93.4622 25.8349 94.4254 25.3705C95.1273 25.0249 95.7271 24.5022 96.1656 23.8539C96.5783 23.2303 96.8495 22.5237 96.9601 21.7838C97.0706 21.044 97.0178 20.2889 96.8054 19.5717Z" fill="#E6E6E6"/>
<path d="M77.495 33.2589C77.4772 32.8652 77.411 32.4752 77.2981 32.0977C77.0321 31.229 76.5185 30.4569 75.8203 29.8762C75.1221 29.2955 74.2698 28.9315 73.3678 28.8289C73.3479 28.8271 73.328 28.8271 73.3081 28.8289C73.2815 28.8213 73.2545 28.8154 73.2272 28.8113C71.4878 28.598 69.7228 28.7796 68.0631 29.3426C65.5109 30.1976 63.2715 31.9217 62.1923 34.3848C61.7559 33.7884 61.1807 33.3075 60.5167 32.9837C59.8527 32.66 59.1198 32.5032 58.3816 32.527C57.4302 32.5899 56.5214 32.945 55.7791 33.5438C55.0367 34.1427 54.497 34.9561 54.2334 35.8732C54.206 35.9853 54.2148 36.1031 54.2583 36.2099C54.3019 36.3167 54.3781 36.407 54.4759 36.4679C54.7591 36.7092 55.0951 36.8804 55.4567 36.9675C56.2372 37.1329 57.0176 37.2842 57.8051 37.4214C59.3378 37.6888 60.8775 37.9058 62.4243 38.0724C65.5668 38.41 68.7288 38.53 71.8878 38.4313C72.939 38.3961 73.9549 38.3609 74.9181 37.8964C75.619 37.5508 76.2176 37.0281 76.6548 36.3799C77.271 35.4607 77.5664 34.3635 77.495 33.2589Z" fill="#E6E6E6"/>
<path d="M146.99 151.823H138.434V18.1246C137.857 17.6989 137.277 17.2766 136.69 16.865C136.574 16.784 136.458 16.7031 136.342 16.6222C129.575 11.8842 122.254 7.99183 114.543 5.03169L112.884 27.9382L112.884 27.9396H102.207V1.19283C101.511 1.02041 100.815 0.858552 100.112 0.70725V27.9396H59.7974V0C59.0978 0.130191 58.3982 0.263901 57.7022 0.408166V27.9396H46.6744L46.6743 27.9382L44.9341 3.91627C37.43 6.51986 30.2583 9.99916 23.5674 14.2823C23.3354 14.43 23.1034 14.5778 22.8713 14.7326C22.4038 15.0352 21.9362 15.3449 21.4757 15.6581V151.823H9.42835C7.887 151.822 6.36896 152.2 5.0073 152.923C3.64564 153.646 2.48196 154.692 1.61826 155.97C0.754571 157.248 0.217239 158.718 0.0533909 160.252C-0.110457 161.786 0.104176 163.337 0.678471 164.768C0.850781 165.201 1.05647 165.62 1.29367 166.021C1.60003 166.544 1.95554 167.037 2.35534 167.492C3.23848 168.499 4.32628 169.306 5.54604 169.859C6.7658 170.412 8.08941 170.698 9.42837 170.697H146.99C149.491 170.697 151.889 169.703 153.657 167.933C155.426 166.164 156.419 163.763 156.419 161.26C156.419 158.758 155.426 156.357 153.657 154.587C151.889 152.818 149.491 151.823 146.99 151.823L146.99 151.823ZM110.585 59.7407L103.93 151.823H55.6281L48.9734 59.7407H110.585ZM112.733 30.0363L111.091 52.7514H102.207V30.0363H112.733ZM100.112 30.0363V52.7514H84.0706C83.7493 52.1205 83.2601 51.5908 82.6569 51.2208C82.0537 50.8507 81.3601 50.6548 80.6527 50.6546H78.5578C77.8503 50.6548 77.1567 50.8507 76.5536 51.2208C75.9504 51.5908 75.4611 52.1205 75.1399 52.7514H59.7974V30.0363H100.112ZM57.7022 52.7514H48.4672L46.8255 30.0363H57.7022V52.7514Z" fill="#F2F2F2"/>
<path d="M0.83252 167.041C3.88646 170.663 7.18964 174.067 10.7179 177.228L144.156 177.579C147.685 174.419 150.988 171.015 154.042 167.393L0.83252 167.041Z" fill="#3F3D56"/>
<path d="M68.2197 132.975V169.063H93.4781V132.975C93.4785 132.716 93.3958 132.463 93.242 132.254C93.0882 132.045 92.8716 131.891 92.6238 131.814C92.507 131.776 92.3847 131.757 92.2617 131.758H69.4396C69.2796 131.758 69.1211 131.789 68.9732 131.85C68.8253 131.911 68.6909 132 68.5776 132.114C68.4643 132.227 68.3744 132.361 68.313 132.509C68.2516 132.657 68.2199 132.815 68.2197 132.975ZM78.077 145.375C78.0837 144.664 78.3707 143.984 78.8756 143.483C79.3806 142.982 80.0626 142.702 80.7733 142.702C81.4841 142.702 82.1661 142.982 82.671 143.483C83.1759 143.984 83.463 144.664 83.4697 145.375V149.562C83.466 150.276 83.1803 150.959 82.6751 151.462C82.1698 151.965 81.4861 152.247 80.7733 152.247C80.0606 152.247 79.3768 151.965 78.8716 151.462C78.3663 150.959 78.0806 150.276 78.077 149.562V145.375Z" fill="#2F2E41"/>
<path d="M68.1421 167.91V171.39C68.1427 171.57 68.2142 171.743 68.3412 171.871C68.4682 171.999 68.6405 172.071 68.8206 172.073H92.8766C93.0569 172.072 93.2295 172 93.3566 171.872C93.4838 171.744 93.5551 171.571 93.5551 171.39V167.91H68.1421Z" fill="#3F3D56"/>
<path d="M28.4849 78.6066V144.497C28.4855 145.337 28.8191 146.142 29.4123 146.736C30.0055 147.329 30.8098 147.663 31.6487 147.664H129.202C130.041 147.663 130.845 147.329 131.438 146.736C132.031 146.142 132.365 145.337 132.366 144.497V78.6066C132.364 77.7677 132.03 76.9637 131.437 76.3708C130.844 75.7779 130.04 75.4444 129.202 75.4434H31.6487C30.8106 75.4444 30.007 75.7779 29.414 76.3708C28.821 76.9637 28.4869 77.7677 28.4849 78.6066Z" fill="#3F3D56"/>
<path d="M30.7734 79.4265V143.684C30.7742 144.133 30.9526 144.563 31.2696 144.88C31.5865 145.197 32.0161 145.376 32.4644 145.377H128.39C128.838 145.376 129.268 145.197 129.585 144.88C129.902 144.563 130.08 144.133 130.081 143.684V79.4265C130.081 78.9773 129.903 78.5465 129.586 78.2285C129.269 77.9106 128.839 77.7314 128.39 77.7305H32.4644C32.0156 77.7314 31.5855 77.9106 31.2685 78.2285C30.9515 78.5465 30.7735 78.9773 30.7734 79.4265Z" fill="#FFB163"/>
<path d="M50.3333 172.893C50.4309 173.015 50.555 173.114 50.6963 173.182C50.8375 173.249 50.9923 173.284 51.1489 173.283H108.218C108.374 173.283 108.528 173.248 108.669 173.181C108.81 173.113 108.934 173.016 109.033 172.894C109.131 172.773 109.201 172.631 109.238 172.479C109.274 172.327 109.277 172.169 109.245 172.016L108.359 167.805C108.322 167.633 108.243 167.473 108.129 167.34C108.015 167.206 107.869 167.104 107.705 167.041C107.586 166.994 107.46 166.971 107.332 166.971H52.0312C51.9037 166.971 51.7773 166.994 51.6586 167.041C51.4946 167.104 51.3489 167.206 51.2347 167.34C51.1205 167.473 51.0414 167.633 51.0047 167.805L50.1188 172.016C50.0873 172.169 50.0902 172.327 50.1273 172.479C50.1644 172.63 50.2348 172.772 50.3333 172.893Z" fill="#2F2E41"/>
<path d="M52.031 167.85C52.0137 167.849 51.9964 167.852 51.9802 167.859C51.9523 167.868 51.9271 167.884 51.907 167.906C51.8869 167.928 51.8725 167.954 51.865 167.983L50.9786 172.197C50.9739 172.221 50.9747 172.246 50.9809 172.27C50.987 172.294 50.9985 172.317 51.0143 172.336L51.0183 172.341C51.0335 172.361 51.0533 172.377 51.076 172.387C51.0987 172.398 51.1236 172.403 51.1487 172.403H108.218C108.243 172.403 108.268 172.398 108.29 172.387C108.313 172.376 108.333 172.361 108.348 172.341C108.365 172.322 108.377 172.3 108.383 172.276C108.39 172.251 108.391 172.226 108.385 172.201L107.499 167.985C107.492 167.957 107.479 167.932 107.46 167.91C107.442 167.889 107.418 167.872 107.392 167.862C107.373 167.854 107.353 167.85 107.332 167.85H52.031Z" fill="white"/>
<path d="M35.5483 86.5817H125.305C125.399 86.5797 125.487 86.5411 125.553 86.4743C125.618 86.4075 125.654 86.3179 125.654 86.2245C125.654 86.1311 125.618 86.0414 125.553 85.9746C125.487 85.9078 125.399 85.8693 125.305 85.8672H35.5483C35.455 85.8693 35.3663 85.9078 35.301 85.9746C35.2358 86.0414 35.1992 86.1311 35.1992 86.2245C35.1992 86.3179 35.2358 86.4075 35.301 86.4743C35.3663 86.5411 35.455 86.5797 35.5483 86.5817Z" fill="#3F3D56"/>
<path d="M119.195 84.0425C120.351 84.0425 121.287 83.0843 121.287 81.9021C121.287 80.72 120.351 79.7617 119.195 79.7617C118.04 79.7617 117.104 80.72 117.104 81.9021C117.104 83.0843 118.04 84.0425 119.195 84.0425Z" fill="#3F3D56"/>
<path d="M111.969 84.0425C113.125 84.0425 114.061 83.0843 114.061 81.9021C114.061 80.72 113.125 79.7617 111.969 79.7617C110.814 79.7617 109.877 80.72 109.877 81.9021C109.877 83.0843 110.814 84.0425 111.969 84.0425Z" fill="#3F3D56"/>
<path d="M104.743 84.0425C105.898 84.0425 106.835 83.0843 106.835 81.9021C106.835 80.72 105.898 79.7617 104.743 79.7617C103.587 79.7617 102.651 80.72 102.651 81.9021C102.651 83.0843 103.587 84.0425 104.743 84.0425Z" fill="#3F3D56"/>
<path d="M39.5166 80.6816C39.5164 80.7322 39.5261 80.7823 39.5452 80.8292C39.5643 80.876 39.5925 80.9186 39.6281 80.9546C39.6637 80.9905 39.706 81.0191 39.7526 81.0387C39.7992 81.0583 39.8492 81.0684 39.8998 81.0687H45.0323C45.1338 81.0663 45.2303 81.0243 45.3012 80.9516C45.3721 80.879 45.4118 80.7814 45.4118 80.6798C45.4118 80.5783 45.3721 80.4807 45.3012 80.4081C45.2303 80.3354 45.1338 80.2934 45.0323 80.291H39.8998C39.7973 80.2923 39.6995 80.334 39.6277 80.4072C39.5559 80.4804 39.516 80.579 39.5166 80.6816Z" fill="#3F3D56"/>
<path d="M39.5166 82.1425C39.5164 82.1931 39.5261 82.2433 39.5452 82.2901C39.5643 82.337 39.5925 82.3796 39.6281 82.4155C39.6637 82.4515 39.706 82.48 39.7526 82.4996C39.7992 82.5192 39.8492 82.5294 39.8998 82.5296H45.0323C45.1339 82.5273 45.2305 82.4854 45.3015 82.4127C45.3725 82.34 45.4123 82.2424 45.4123 82.1408C45.4123 82.0391 45.3725 81.9415 45.3015 81.8688C45.2305 81.7962 45.1339 81.7542 45.0323 81.752H39.8998C39.7973 81.7532 39.6995 81.795 39.6277 81.8682C39.5559 81.9413 39.516 82.04 39.5166 82.1425Z" fill="#3F3D56"/>
<path d="M39.5166 83.598C39.516 83.7006 39.5559 83.7992 39.6277 83.8724C39.6995 83.9455 39.7973 83.9873 39.8998 83.9886H45.0323C45.1338 83.9862 45.2303 83.9442 45.3012 83.8715C45.3721 83.7989 45.4118 83.7013 45.4118 83.5998C45.4118 83.4982 45.3721 83.4006 45.3012 83.328C45.2303 83.2553 45.1338 83.2133 45.0323 83.2109H39.8998C39.8492 83.2112 39.7992 83.2213 39.7526 83.2409C39.706 83.2605 39.6637 83.2891 39.6281 83.325C39.5925 83.361 39.5643 83.4036 39.5452 83.4504C39.5261 83.4972 39.5164 83.5474 39.5166 83.598Z" fill="#3F3D56"/>
<path d="M111.932 97.4863H48.922C48.0942 97.4873 47.3006 97.8168 46.7153 98.4027C46.13 98.9885 45.8008 99.7829 45.7998 100.611V131.307C45.8007 132.136 46.13 132.93 46.7153 133.516C47.3006 134.102 48.0942 134.431 48.922 134.432H111.932C112.759 134.431 113.553 134.102 114.138 133.516C114.724 132.93 115.053 132.136 115.054 131.307V100.611C115.053 99.7829 114.723 98.9885 114.138 98.4027C113.553 97.8168 112.759 97.4873 111.932 97.4863ZM114.351 100.611V109.567H92.2034V98.1901H111.932C112.573 98.1908 113.188 98.4461 113.641 98.9C114.095 99.354 114.35 99.9694 114.351 100.611H114.351ZM69.3531 121.648V110.271H91.5003V121.648H69.3531ZM91.5003 122.352V133.729H69.3531V122.352H91.5003ZM68.6501 121.648H46.5029V110.271H68.6501V121.648ZM69.3531 109.567V98.1901H91.5003V109.567H69.3531ZM92.2034 110.271H114.351V121.648H92.2034V110.271ZM48.922 98.1901H68.6501V109.567H46.5029V100.611C46.5036 99.9694 46.7587 99.354 47.2122 98.9C47.6657 98.4461 48.2806 98.1908 48.922 98.1901V98.1901ZM46.5029 131.307V122.352H68.6501V133.729H48.922C48.2806 133.728 47.6657 133.472 47.2122 133.019C46.7587 132.565 46.5036 131.949 46.5029 131.307ZM111.932 133.729H92.2034V122.352H114.351V131.307C114.35 131.949 114.095 132.565 113.641 133.019C113.188 133.472 112.573 133.728 111.932 133.729H111.932Z" fill="#3F3D56"/>
<path d="M77.2246 105.281C76.6654 104.355 76.0028 103.367 74.9652 103.064C73.7635 102.714 72.5291 103.41 71.482 104.096C68.3507 106.148 65.3351 108.372 62.4492 110.757L62.4524 110.793L69.1928 110.328C70.8161 110.216 72.4952 110.088 73.9298 109.32C74.4741 109.028 75.0048 108.638 75.6216 108.611C76.388 108.577 77.0563 109.113 77.5814 109.673C80.6878 112.984 81.5867 118.047 85.0718 120.956C82.8742 115.531 80.2502 110.29 77.2246 105.281Z" fill="white"/>
<path d="M96.319 133.364C95.9755 132.929 95.8351 132.828 95.4963 132.39C92.7372 128.818 90.144 125.126 87.7164 121.313C86.0676 118.723 84.5005 116.084 83.0151 113.394C82.308 112.116 81.6203 110.828 80.9519 109.529C80.4332 108.522 79.9262 107.509 79.4307 106.491C79.289 106.2 79.1513 105.907 79.0143 105.614C78.6915 104.925 78.3746 104.233 78.0344 103.553C77.6829 102.737 77.1446 102.015 76.4631 101.446C76.1392 101.199 75.7518 101.05 75.3463 101.016C74.7751 101.019 74.2157 101.179 73.7295 101.479C70.0484 103.416 66.6126 105.788 63.4954 108.543C60.3735 111.287 57.583 114.388 55.1809 117.781C55.1074 117.886 54.9336 117.786 55.0078 117.68C55.2999 117.267 55.5977 116.858 55.9014 116.453C59.6772 111.427 64.3069 107.104 69.5789 103.683C70.4659 103.108 71.3695 102.56 72.2898 102.038C72.7537 101.776 73.2195 101.516 73.6934 101.272C74.1474 101.006 74.6568 100.848 75.1819 100.811C76.9878 100.783 77.9229 102.83 78.5652 104.207C78.767 104.641 78.9713 105.073 79.178 105.504C79.9594 107.139 80.7707 108.76 81.6122 110.366C82.1316 111.357 82.6622 112.343 83.2043 113.323C84.8912 116.374 86.6843 119.364 88.5833 122.291C91.0991 126.169 93.5948 129.595 96.4607 133.222C96.5396 133.322 96.3986 133.465 96.319 133.364Z" fill="white"/>
<path d="M63.3171 107.532C63.2122 107.415 63.1079 107.298 63.0023 107.181C62.1695 106.259 61.276 105.348 60.1324 104.819C59.5871 104.559 58.9918 104.421 58.3879 104.415C57.7647 104.432 57.1503 104.566 56.5766 104.81C56.3039 104.919 56.0372 105.043 55.7746 105.175C55.4745 105.326 55.1797 105.487 54.8863 105.65C54.3356 105.955 53.792 106.273 53.2555 106.605C52.1881 107.265 51.1542 107.976 50.1536 108.737C49.6349 109.132 49.127 109.539 48.6297 109.96C48.1672 110.351 47.714 110.752 47.2703 111.163C47.1753 111.251 47.0337 111.109 47.1285 111.022C47.2455 110.912 47.3638 110.804 47.4821 110.697C47.8163 110.395 48.1558 110.098 48.5007 109.807C49.1296 109.276 49.7748 108.765 50.4363 108.275C51.465 107.513 52.529 106.802 53.6284 106.143C54.1779 105.813 54.7348 105.498 55.2994 105.197C55.4698 105.106 55.6423 105.017 55.8167 104.932C56.2125 104.733 56.6238 104.565 57.0465 104.431C57.6453 104.237 58.2789 104.175 58.9039 104.249C59.5074 104.337 60.0889 104.538 60.6176 104.842C61.7405 105.47 62.6113 106.442 63.4588 107.39C63.5444 107.486 63.4033 107.628 63.3171 107.532Z" fill="white"/>
<path d="M86.3237 117.084L89.0143 116.099L90.3502 115.61C90.7818 115.436 91.222 115.284 91.6691 115.155C92.06 115.044 92.475 115.049 92.8629 115.171C93.2088 115.299 93.5254 115.495 93.794 115.748C94.0683 116.001 94.3236 116.274 94.5577 116.565C94.8485 116.914 95.1351 117.268 95.4229 117.62C96.6109 119.074 97.7911 120.535 98.9636 122.002C100.136 123.469 101.301 124.942 102.457 126.421C103.617 127.904 104.768 129.393 105.912 130.888C106.052 131.071 106.192 131.255 106.332 131.438C106.409 131.539 106.583 131.439 106.505 131.337C105.353 129.826 104.193 128.322 103.025 126.824C101.854 125.323 100.675 123.828 99.4876 122.339C98.3005 120.85 97.1053 119.368 95.9021 117.892C95.6024 117.524 95.3021 117.157 95.0014 116.79C94.7477 116.481 94.4969 116.168 94.2186 115.88C93.9817 115.594 93.6908 115.358 93.3626 115.185C93.0344 115.012 92.6754 114.905 92.306 114.871C91.8585 114.887 91.4177 114.984 91.005 115.157C90.5552 115.32 90.1064 115.486 89.6572 115.651L86.9477 116.643L86.2703 116.891C86.1501 116.935 86.2021 117.129 86.3237 117.084V117.084Z" fill="white"/>
<path d="M59.7782 105.979C59.0868 105.638 58.3172 105.487 57.5483 105.542C56.7795 105.597 56.0392 105.856 55.4033 106.292C57.7999 106.706 60.1703 107.26 62.5024 107.951C61.534 107.383 60.7765 106.493 59.7782 105.979Z" fill="white"/>
<path d="M55.3897 106.289L55.1265 106.503C55.2155 106.428 55.3081 106.358 55.4032 106.291L55.3897 106.289Z" fill="white"/>
<path d="M93.6927 117.094C93.4572 116.747 93.129 116.473 92.7454 116.303L92.3755 116.317C95.191 121.297 98.9936 125.648 103.55 129.104L93.6927 117.094Z" fill="white"/>
<path d="M91.9625 111.643C93.1388 111.643 94.0925 110.688 94.0925 109.511C94.0925 108.333 93.1388 107.379 91.9625 107.379C90.7861 107.379 89.8325 108.333 89.8325 109.511C89.8325 110.688 90.7861 111.643 91.9625 111.643Z" fill="white"/>
<path d="M122.872 133.201C123.291 133.2 123.693 133.033 123.99 132.736C124.286 132.44 124.453 132.037 124.454 131.618V98.8939C124.454 98.474 124.287 98.0713 123.991 97.7743C123.694 97.4774 123.292 97.3105 122.872 97.3105C122.452 97.3105 122.05 97.4774 121.753 97.7743C121.457 98.0713 121.29 98.474 121.29 98.8939V131.618C121.291 132.037 121.458 132.44 121.754 132.736C122.051 133.033 122.453 133.2 122.872 133.201Z" fill="#3F3D56"/>
<path d="M122.872 133.201C123.291 133.201 123.693 133.034 123.99 132.737C124.286 132.44 124.453 132.038 124.454 131.618V124.679C124.272 124.431 124.034 124.228 123.759 124.089C123.484 123.95 123.18 123.877 122.872 123.877C122.564 123.877 122.26 123.95 121.985 124.089C121.71 124.228 121.472 124.431 121.29 124.679V131.618C121.291 132.038 121.458 132.44 121.754 132.737C122.051 133.034 122.453 133.201 122.872 133.201Z" fill="#2F2E41"/>
<path d="M122.872 126.516C123.323 126.516 123.755 126.336 124.074 126.017C124.393 125.698 124.572 125.265 124.573 124.814V117.351C124.377 117.084 124.121 116.866 123.825 116.716C123.53 116.566 123.203 116.488 122.872 116.488C122.54 116.488 122.214 116.566 121.918 116.716C121.623 116.866 121.366 117.084 121.17 117.351V124.814C121.171 125.265 121.351 125.698 121.669 126.017C121.988 126.336 122.421 126.516 122.872 126.516Z" fill="#FFB163"/>
<path d="M122.872 125.16C123.201 125.16 123.516 125.029 123.749 124.796C123.981 124.563 124.112 124.247 124.113 123.918V118.475C123.97 118.28 123.783 118.121 123.567 118.012C123.352 117.903 123.113 117.846 122.872 117.846C122.63 117.846 122.392 117.903 122.176 118.012C121.961 118.121 121.774 118.28 121.631 118.475V123.918C121.631 124.247 121.762 124.563 121.995 124.796C122.227 125.029 122.543 125.16 122.872 125.16Z" fill="#3F3D56"/>
<path d="M74.0696 169.963C73.7919 169.714 73.6242 169.365 73.6033 168.993C73.5824 168.62 73.71 168.255 73.9582 167.976L87.7794 152.497C87.9024 152.359 88.0514 152.247 88.2178 152.167C88.3841 152.087 88.5647 152.04 88.749 152.03C88.9334 152.019 89.118 152.045 89.2923 152.106C89.4666 152.167 89.6272 152.262 89.7649 152.385C89.9026 152.509 90.0147 152.658 90.0948 152.824C90.1749 152.991 90.2215 153.171 90.2318 153.356C90.2421 153.54 90.2161 153.725 90.1551 153.9C90.0941 154.074 89.9994 154.235 89.8763 154.373L76.0551 169.852C75.8064 170.13 75.4576 170.298 75.0854 170.319C74.7132 170.34 74.3478 170.212 74.0696 169.963Z" fill="#FFB163"/>
<path d="M188.725 195.45C188.725 198.015 188.121 199.978 188.194 201.547C184.048 203.359 179.785 204.889 175.433 206.129C174.941 206.269 174.449 206.403 173.953 206.537C171.271 198.317 168.585 190.791 167.527 189.992C165.105 188.173 163.892 195.699 163.892 193.88C163.892 192.061 165.105 192.061 162.078 189.637C159.048 187.212 160.866 176.301 160.866 176.301L156.626 165.39L161.368 147.986L167.527 125.379H173.584C173.584 125.379 173.764 125.509 174.062 125.752C175.578 126.99 180.148 131.128 179.641 135.685C179.49 137.043 179.828 140.991 180.415 146.248C182.201 162.121 186.303 179.376 186.303 183.929C186.303 189.992 188.725 191.811 188.725 195.45Z" fill="#E6E6E6"/>
<path d="M183.647 146.19C183.64 146.172 183.636 146.158 183.629 146.144C183.493 145.778 183.335 145.421 183.154 145.075C182.132 143.15 183.214 140.194 182.061 136.929C180.198 131.637 177.927 128.516 174.598 125.718C174.5 125.634 174.401 125.553 174.299 125.469L174.296 125.465C172.074 123.639 169.395 121.932 166.07 119.807C165.377 119.364 164.653 118.903 163.9 118.417C162.93 117.794 162.983 115.718 163.039 113.523C163.102 111.084 163.169 108.558 161.974 106.982L161.897 106.879L161.774 106.848C157.676 106.036 153.496 105.714 149.322 105.887H149.318C147.546 105.953 145.786 106.211 144.07 106.658C143.943 106.693 143.817 106.728 143.694 106.77C143.599 106.795 143.504 106.827 143.409 106.858L143.332 106.887L143.272 106.943C142.115 108.1 141.848 110.176 141.722 112.34V112.344C141.697 112.738 141.676 113.132 141.658 113.526C141.56 115.63 141.469 117.618 140.695 118.481C138.97 120.437 136.885 122.042 134.554 123.21C130.922 125.004 128.05 124.948 128.008 124.948L127.674 124.937L127.642 125.268C125.231 129.867 125.322 141.732 125.248 154.438C125.245 155.145 125.24 155.856 125.234 156.57C125.192 162.488 125.08 168.509 124.637 173.994C124.443 176.352 124.194 178.607 123.86 180.715C122.236 190.979 114.878 182.457 111.359 189.287C111.475 189.958 111.669 190.614 111.939 191.239C112.343 191.479 112.758 191.711 113.169 191.943C114.994 192.96 116.852 193.909 118.745 194.79C118.85 194.839 118.956 194.888 119.061 194.934C122.532 196.542 126.11 197.908 129.769 199.023C130.483 199.241 131.196 199.448 131.917 199.646C138.292 201.407 144.856 202.391 151.466 202.577C151.493 202.574 151.52 202.572 151.547 202.573C159.365 202.357 167.132 201.236 174.693 199.234C174.798 199.206 174.904 199.178 175.009 199.149C175.505 199.016 175.997 198.882 176.489 198.741C180.841 197.502 185.104 195.971 189.25 194.16C189.254 194.314 189.27 194.469 189.296 194.621C189.299 194.671 189.307 194.72 189.317 194.769C189.324 194.712 189.331 194.656 189.335 194.6C189.356 194.434 189.373 194.265 189.391 194.097C191.542 173.097 187.074 155.268 183.647 146.19Z" fill="#3F3D56"/>
<path d="M135.333 94.7223C137.478 98.6494 140.896 101.728 145.023 103.451C149.15 105.174 153.741 105.439 158.039 104.202C162.336 102.965 166.085 100.3 168.667 96.6458C171.249 92.9915 172.511 88.566 172.245 84.098C171.979 79.6299 170.2 75.3859 167.202 72.0648C164.204 68.7437 160.166 66.5435 155.752 65.8266C151.338 65.1097 146.811 65.9189 142.918 68.1208C139.025 70.3227 135.997 73.7861 134.333 77.9406C134.243 78.1661 134.161 78.3915 134.08 78.626C133.14 81.245 132.765 84.0339 132.981 86.8086C133.197 89.5834 133.998 92.2806 135.333 94.7223Z" fill="#FFB6B6"/>
<path d="M132.504 78.6259C133.351 76.2543 132.981 77.4897 133.837 75.1271C133.278 77.2192 134.161 78.3914 134.08 78.6259H157.513V64.9914C150.648 62.268 143.936 59.9505 139.882 64.9914C136.27 64.9915 132.805 66.428 130.25 68.985C127.696 71.5419 126.26 75.0098 126.26 78.6259H132.504Z" fill="#2F2E41"/>
<path d="M140.81 116.528C140.828 116.275 140.855 116.014 140.892 115.761C141.144 113.904 141.774 112.118 142.414 110.351C143.09 108.448 143.775 106.536 144.459 104.634C143.577 108.087 143.846 111.735 145.225 115.022C149.18 111.938 146.684 104.886 151.856 104.886C164.289 104.886 177.082 94.7954 177.082 82.3421C177.082 69.8979 171.748 60.5918 159.315 60.5918C146.874 60.5918 136.783 66.2909 136.54 78.7351C151.856 82.3422 137.918 115.265 140.81 116.528Z" fill="#2F2E41"/>
<path d="M175.528 80.4343C183.489 80.4343 189.943 73.9746 189.943 66.0062C189.943 58.0378 183.489 51.5781 175.528 51.5781C167.567 51.5781 161.113 58.0378 161.113 66.0062C161.113 73.9746 167.567 80.4343 175.528 80.4343Z" fill="#2F2E41"/>
<path d="M198 148.751C197.951 149.493 197.907 150.284 197.87 151.122C197.124 166.918 197.768 188.181 192.744 199.719C191.619 200.334 190.483 200.923 189.334 201.485C189.289 201.506 189.246 201.527 189.208 201.548C188.898 201.7 188.589 201.847 188.28 201.988C188.268 201.998 188.255 202.005 188.241 202.009C184.844 203.616 181.343 204.992 177.762 206.13C177.322 206.27 176.879 206.404 176.436 206.538C176.341 206.566 176.246 206.594 176.151 206.622C169.404 208.619 162.429 209.742 155.396 209.961C155.031 209.972 154.672 209.979 154.324 209.986C154.201 209.99 154.082 209.993 153.962 209.993C153.568 209.997 153.178 210 152.784 210C151.99 210 151.199 209.988 150.412 209.965C143.801 209.779 137.237 208.795 130.862 207.034C130.142 206.837 129.428 206.629 128.714 206.411C125.055 205.296 121.478 203.93 118.006 202.322C117.901 202.277 117.795 202.227 117.69 202.178C115.799 201.299 113.94 200.35 112.114 199.332C111.703 199.099 111.288 198.867 110.884 198.628C110.614 198.002 110.42 197.347 110.304 196.675C109.506 192.836 108.866 195.426 108.409 187.438C107.991 180.116 107.724 172.773 107.625 168.575C107.594 167.456 107.583 166.559 107.58 165.947C107.952 163.279 113.942 160.253 122.678 157.379C123.504 157.108 124.359 156.837 125.234 156.569C127.596 155.841 130.12 155.127 132.757 154.437C139.472 152.678 146.928 151.063 154.328 149.729C157.98 149.074 161.619 148.487 165.152 147.987C171.349 147.108 177.213 146.499 182.23 146.249C182.711 146.224 183.182 146.203 183.646 146.189C184.146 146.168 184.634 146.154 185.112 146.143C192.34 145.985 197.276 146.738 198 148.751Z" fill="#2F2E41"/>
<path opacity="0.2" d="M198 148.751C197.951 149.493 197.907 150.284 197.87 151.122C192.393 145.218 133.39 171.594 108.409 187.438C107.991 180.116 107.724 172.773 107.625 168.575C107.594 167.456 107.583 166.559 107.58 165.946C107.952 163.279 113.943 160.253 122.678 157.379C123.505 157.108 124.359 156.837 125.234 156.569C127.596 155.841 130.121 155.127 132.757 154.437C139.472 152.678 146.928 151.063 154.328 149.729C157.98 149.074 161.619 148.487 165.152 147.987C171.349 147.108 177.213 146.499 182.23 146.249C182.711 146.224 183.182 146.203 183.646 146.189C184.146 146.168 184.634 146.154 185.112 146.143C192.34 145.985 197.276 146.738 198 148.751Z" fill="black"/>
<path d="M78.0073 167.052C78.5606 167.751 79.2601 168.319 80.0566 168.717C80.853 169.116 81.727 169.334 82.6171 169.358C83.5071 169.382 84.3915 169.21 85.2079 168.854C86.0244 168.499 86.7531 167.969 87.3426 167.301L107.362 175.531L105.202 164.483L86.5221 158.362C85.3356 157.445 83.8543 156.995 82.3589 157.099C80.8634 157.202 79.4577 157.85 78.4081 158.922C77.3586 159.993 76.738 161.412 76.6642 162.911C76.5903 164.409 77.0682 165.883 78.0073 167.052Z" fill="#FFB6B6"/>
<path d="M144.602 121.049L144.492 121.037L132.818 121.885C131.336 121.993 129.893 122.415 128.586 123.123C127.28 123.832 126.138 124.81 125.238 125.994C124.82 126.542 124.458 127.131 124.157 127.752L124.154 127.754C123.148 129.815 122.845 132.15 123.291 134.4L128.787 162.093L115.563 160.89L110.735 161.716L105.038 159.415L93.3492 159.615L93.0782 160.511L90.6261 168.648L90.4336 169.287L108.283 180.545L113.458 178.97L115.896 180.844L116.013 180.847L120.848 180.943L141.465 181.347L147.101 171.354L147.981 169.787C154.526 155.111 156.141 144.866 155.629 137.808C155.36 134.078 154.499 131.244 153.456 129.107C150.232 122.505 144.829 121.104 144.602 121.049Z" fill="#3F3D56"/>
<path d="M177.351 78.8149C174.617 78.1999 172.083 76.904 169.983 75.0475C167.883 73.191 166.285 70.8338 165.338 68.1946C164.492 65.7393 164.173 63.0433 162.753 60.8581C164.916 57.8855 166.65 54.6233 167.905 51.1673C168.391 49.8294 169.528 47.4005 167.6 46.6645C166.063 46.0781 164.318 47.4934 163.407 48.6101C162.715 49.4564 162.219 50.4454 161.954 51.5062C161.64 50.1181 161.326 48.73 161.012 47.3418C160.972 47.2086 160.882 47.096 160.762 47.0273C160.641 46.9587 160.498 46.9393 160.363 46.9732C157.79 47.4124 155.923 49.7979 155.599 52.3105C155.422 53.6041 155.716 54.9182 156.427 56.0127C157.254 57.2718 158.464 58.1744 159.617 59.1127C160.842 60.1105 161.881 61.1732 162.539 62.6323C163.224 64.1489 163.532 65.8085 163.987 67.401C164.849 70.4595 166.519 73.2286 168.822 75.4165C171.125 77.6044 173.974 79.1301 177.071 79.8328C177.732 79.9775 178.015 78.9601 177.351 78.8149ZM162.816 53.5807C162.733 52.2547 163.083 50.9376 163.813 49.8281C164.179 49.2656 164.637 48.769 165.168 48.3595C165.671 47.9744 166.414 47.4645 167.08 47.6059C167.944 47.7894 167.597 48.7547 167.413 49.3369C167.171 50.1049 166.905 50.8648 166.615 51.6165C166.049 53.0762 165.393 54.4991 164.65 55.8767C164.264 56.5937 163.851 57.2955 163.421 57.9859C163.124 56.6737 162.827 55.3615 162.53 54.0492C162.623 54.0149 162.702 53.9499 162.754 53.8649C162.806 53.7798 162.828 53.6796 162.816 53.5807ZM156.657 53.7907C156.485 52.5916 156.735 51.3699 157.364 50.3354C157.994 49.3009 158.964 48.5182 160.108 48.1219C160.945 51.8213 161.782 55.5207 162.619 59.2201C162.447 59.4751 162.268 59.7263 162.09 59.9773C162.043 59.9234 162 59.8677 161.951 59.8147C160.196 57.9022 157.134 56.5985 156.657 53.7907Z" fill="#FFB163"/>
</svg>
