<svg width="356" height="399" viewBox="0 0 356 399" fill="none" xmlns="http://www.w3.org/2000/svg">
<path d="M450.457 259.964C450.457 255.884 449.098 252.572 447.429 252.564H-7.56097C-9.23748 252.572 -10.5892 255.884 -10.5968 259.964V427.945C-10.5967 428.324 -10.7366 428.689 -10.9891 428.969C-11.2416 429.25 -11.5887 429.426 -11.9627 429.462C-13.1839 429.581 -14.4051 429.691 -15.6263 429.792C-15.6565 429.792 -15.6867 429.8 -15.717 429.8C-16.3815 429.861 -17.046 429.907 -17.7106 429.96H-17.7182C-18.06 429.323 -18.3979 428.68 -18.7318 428.032C-18.8447 427.813 -18.9037 427.571 -18.9038 427.324V250.364C-18.9038 249.237 -18.8585 248.103 -18.783 246.984C-18.6752 245.447 -18.4861 243.917 -18.2166 242.401C-16.9403 235.328 -14.0555 230.539 -10.778 230.524H450.639C451.117 230.527 451.59 230.628 452.028 230.821C452.672 231.108 453.254 231.519 453.742 232.031C454.405 232.726 454.971 233.507 455.426 234.353C457.043 237.224 458.198 241.502 458.606 246.481C458.606 246.527 458.613 246.573 458.613 246.618C458.719 247.852 458.772 249.108 458.764 250.364L458.87 266.679L458.938 276.409L459.142 306.938L459.217 317.779L459.55 429.084C459.55 429.488 459.391 429.876 459.107 430.161C458.824 430.447 458.44 430.607 458.039 430.607H451.968C451.567 430.607 451.183 430.447 450.9 430.161C450.616 429.876 450.457 429.488 450.457 429.084V259.964Z" fill="#E6E6E6"/>
<path d="M326.821 154.182H277.795C277.102 154.183 276.437 154.461 275.947 154.956C275.458 155.451 275.183 156.122 275.184 156.822V234.898H329.44V156.822C329.44 156.475 329.373 156.131 329.241 155.811C329.109 155.491 328.917 155.2 328.673 154.954C328.43 154.709 328.141 154.515 327.824 154.382C327.506 154.25 327.165 154.181 326.821 154.182V154.182ZM302.473 198.544C300.94 198.536 299.472 197.919 298.388 196.826C297.304 195.733 296.691 194.253 296.684 192.707V183.702C296.686 182.155 297.297 180.673 298.382 179.579C299.468 178.486 300.939 177.872 302.473 177.872C304.008 177.872 305.479 178.486 306.565 179.579C307.65 180.673 308.261 182.155 308.262 183.702V192.707C308.255 194.253 307.643 195.733 306.559 196.826C305.475 197.919 304.007 198.536 302.473 198.544Z" fill="#2F2E41"/>
<path d="M275.017 232.4V239.933C275.017 240.323 275.172 240.697 275.445 240.973C275.719 241.249 276.09 241.405 276.477 241.405H328.149C328.536 241.403 328.906 241.248 329.18 240.972C329.453 240.696 329.608 240.323 329.61 239.933V232.4H275.017Z" fill="#3F3D56"/>
<path d="M408.005 32.3345H198.439C196.638 32.3374 194.912 33.0597 193.639 34.3432C192.366 35.6267 191.649 37.3667 191.646 39.1818V181.748C191.648 183.564 192.364 185.304 193.638 186.588C194.911 187.872 196.638 188.594 198.439 188.595H408.005C409.806 188.594 411.533 187.872 412.806 186.588C414.08 185.304 414.796 183.564 414.798 181.748V39.1818C414.795 37.3667 414.078 35.6267 412.805 34.3432C411.532 33.0597 409.806 32.3374 408.005 32.3345V32.3345Z" fill="#3F3D56"/>
<path d="M406.255 37.2803H200.188C199.224 37.2824 198.3 37.6699 197.619 38.3579C196.938 39.0458 196.556 39.978 196.556 40.9499V179.983C196.557 180.953 196.941 181.884 197.621 182.57C198.302 183.256 199.225 183.643 200.188 183.644H406.255C407.218 183.643 408.141 183.256 408.821 182.57C409.502 181.884 409.886 180.953 409.887 179.983V40.9499C409.887 39.978 409.505 39.0458 408.824 38.3579C408.143 37.6699 407.219 37.2824 406.255 37.2803Z" fill="white"/>
<path d="M366.117 244.026H243.518C243.183 244.026 242.851 243.95 242.549 243.805C242.246 243.659 241.979 243.447 241.767 243.185C241.556 242.922 241.405 242.615 241.326 242.286C241.247 241.957 241.242 241.615 241.312 241.284L243.214 232.175C243.322 231.666 243.6 231.209 244.001 230.88C244.403 230.552 244.904 230.372 245.42 230.37H364.215C364.732 230.372 365.233 230.552 365.634 230.88C366.035 231.209 366.313 231.666 366.421 232.175L368.324 241.284C368.393 241.615 368.388 241.957 368.309 242.286C368.23 242.615 368.08 242.922 367.868 243.185C367.657 243.447 367.39 243.659 367.087 243.805C366.784 243.95 366.452 244.026 366.117 244.026H366.117Z" fill="#2F2E41"/>
<path d="M249.7 232.012H246.661C246.458 232.012 246.292 232.178 246.292 232.383V233.924C246.292 234.129 246.458 234.296 246.661 234.296H249.7C249.903 234.296 250.068 234.129 250.068 233.924V232.383C250.068 232.178 249.903 232.012 249.7 232.012Z" fill="#3F3D56"/>
<path d="M257.25 232.012H254.211C254.008 232.012 253.843 232.178 253.843 232.383V233.924C253.843 234.129 254.008 234.296 254.211 234.296H257.25C257.454 234.296 257.619 234.129 257.619 233.924V232.383C257.619 232.178 257.454 232.012 257.25 232.012Z" fill="#3F3D56"/>
<path d="M264.803 232.012H261.764C261.561 232.012 261.396 232.178 261.396 232.383V233.924C261.396 234.129 261.561 234.296 261.764 234.296H264.803C265.006 234.296 265.171 234.129 265.171 233.924V232.383C265.171 232.178 265.006 232.012 264.803 232.012Z" fill="#3F3D56"/>
<path d="M272.355 232.012H269.317C269.113 232.012 268.948 232.178 268.948 232.383V233.924C268.948 234.129 269.113 234.296 269.317 234.296H272.355C272.559 234.296 272.724 234.129 272.724 233.924V232.383C272.724 232.178 272.559 232.012 272.355 232.012Z" fill="#3F3D56"/>
<path d="M279.904 232.012H276.866C276.662 232.012 276.497 232.178 276.497 232.383V233.924C276.497 234.129 276.662 234.296 276.866 234.296H279.904C280.108 234.296 280.273 234.129 280.273 233.924V232.383C280.273 232.178 280.108 232.012 279.904 232.012Z" fill="#3F3D56"/>
<path d="M287.457 232.012H284.418C284.215 232.012 284.05 232.178 284.05 232.383V233.924C284.05 234.129 284.215 234.296 284.418 234.296H287.457C287.661 234.296 287.826 234.129 287.826 233.924V232.383C287.826 232.178 287.661 232.012 287.457 232.012Z" fill="#3F3D56"/>
<path d="M295.01 232.012H291.971C291.768 232.012 291.603 232.178 291.603 232.383V233.924C291.603 234.129 291.768 234.296 291.971 234.296H295.01C295.213 234.296 295.378 234.129 295.378 233.924V232.383C295.378 232.178 295.213 232.012 295.01 232.012Z" fill="#3F3D56"/>
<path d="M302.562 232.012H299.523C299.319 232.012 299.154 232.178 299.154 232.383V233.924C299.154 234.129 299.319 234.296 299.523 234.296H302.562C302.765 234.296 302.93 234.129 302.93 233.924V232.383C302.93 232.178 302.765 232.012 302.562 232.012Z" fill="#3F3D56"/>
<path d="M310.113 232.012H307.074C306.871 232.012 306.706 232.178 306.706 232.383V233.924C306.706 234.129 306.871 234.296 307.074 234.296H310.113C310.316 234.296 310.481 234.129 310.481 233.924V232.383C310.481 232.178 310.316 232.012 310.113 232.012Z" fill="#3F3D56"/>
<path d="M317.666 232.012H314.627C314.423 232.012 314.258 232.178 314.258 232.383V233.924C314.258 234.129 314.423 234.296 314.627 234.296H317.666C317.869 234.296 318.034 234.129 318.034 233.924V232.383C318.034 232.178 317.869 232.012 317.666 232.012Z" fill="#3F3D56"/>
<path d="M325.217 232.012H322.178C321.975 232.012 321.81 232.178 321.81 232.383V233.924C321.81 234.129 321.975 234.296 322.178 234.296H325.217C325.42 234.296 325.585 234.129 325.585 233.924V232.383C325.585 232.178 325.42 232.012 325.217 232.012Z" fill="#3F3D56"/>
<path d="M332.769 232.012H329.73C329.526 232.012 329.361 232.178 329.361 232.383V233.924C329.361 234.129 329.526 234.296 329.73 234.296H332.769C332.972 234.296 333.137 234.129 333.137 233.924V232.383C333.137 232.178 332.972 232.012 332.769 232.012Z" fill="#3F3D56"/>
<path d="M340.321 232.012H337.283C337.079 232.012 336.914 232.178 336.914 232.383V233.924C336.914 234.129 337.079 234.296 337.283 234.296H340.321C340.525 234.296 340.69 234.129 340.69 233.924V232.383C340.69 232.178 340.525 232.012 340.321 232.012Z" fill="#3F3D56"/>
<path d="M347.872 232.012H344.833C344.629 232.012 344.464 232.178 344.464 232.383V233.924C344.464 234.129 344.629 234.296 344.833 234.296H347.872C348.075 234.296 348.24 234.129 348.24 233.924V232.383C348.24 232.178 348.075 232.012 347.872 232.012Z" fill="#3F3D56"/>
<path d="M355.423 232.012H352.384C352.181 232.012 352.016 232.178 352.016 232.383V233.924C352.016 234.129 352.181 234.296 352.384 234.296H355.423C355.626 234.296 355.792 234.129 355.792 233.924V232.383C355.792 232.178 355.626 232.012 355.423 232.012Z" fill="#3F3D56"/>
<path d="M249.609 235.818H246.571C246.367 235.818 246.202 235.985 246.202 236.19V237.731C246.202 237.936 246.367 238.102 246.571 238.102H249.609C249.813 238.102 249.978 237.936 249.978 237.731V236.19C249.978 235.985 249.813 235.818 249.609 235.818Z" fill="#3F3D56"/>
<path d="M257.161 235.818H254.122C253.918 235.818 253.753 235.985 253.753 236.19V237.731C253.753 237.936 253.918 238.102 254.122 238.102H257.161C257.364 238.102 257.529 237.936 257.529 237.731V236.19C257.529 235.985 257.364 235.818 257.161 235.818Z" fill="#3F3D56"/>
<path d="M264.712 235.818H261.673C261.47 235.818 261.305 235.985 261.305 236.19V237.731C261.305 237.936 261.47 238.102 261.673 238.102H264.712C264.916 238.102 265.081 237.936 265.081 237.731V236.19C265.081 235.985 264.916 235.818 264.712 235.818Z" fill="#3F3D56"/>
<path d="M272.265 235.818H269.226C269.022 235.818 268.857 235.985 268.857 236.19V237.731C268.857 237.936 269.022 238.102 269.226 238.102H272.265C272.468 238.102 272.633 237.936 272.633 237.731V236.19C272.633 235.985 272.468 235.818 272.265 235.818Z" fill="#3F3D56"/>
<path d="M279.817 235.818H276.779C276.575 235.818 276.41 235.985 276.41 236.19V237.731C276.41 237.936 276.575 238.102 276.779 238.102H279.817C280.021 238.102 280.186 237.936 280.186 237.731V236.19C280.186 235.985 280.021 235.818 279.817 235.818Z" fill="#3F3D56"/>
<path d="M287.368 235.818H284.329C284.126 235.818 283.96 235.985 283.96 236.19V237.731C283.96 237.936 284.126 238.102 284.329 238.102H287.368C287.571 238.102 287.736 237.936 287.736 237.731V236.19C287.736 235.985 287.571 235.818 287.368 235.818Z" fill="#3F3D56"/>
<path d="M294.92 235.818H291.882C291.678 235.818 291.513 235.985 291.513 236.19V237.731C291.513 237.936 291.678 238.102 291.882 238.102H294.92C295.124 238.102 295.289 237.936 295.289 237.731V236.19C295.289 235.985 295.124 235.818 294.92 235.818Z" fill="#3F3D56"/>
<path d="M302.473 235.818H299.435C299.231 235.818 299.066 235.985 299.066 236.19V237.731C299.066 237.936 299.231 238.102 299.435 238.102H302.473C302.677 238.102 302.842 237.936 302.842 237.731V236.19C302.842 235.985 302.677 235.818 302.473 235.818Z" fill="#3F3D56"/>
<path d="M310.022 235.818H306.983C306.78 235.818 306.615 235.985 306.615 236.19V237.731C306.615 237.936 306.78 238.102 306.983 238.102H310.022C310.226 238.102 310.391 237.936 310.391 237.731V236.19C310.391 235.985 310.226 235.818 310.022 235.818Z" fill="#3F3D56"/>
<path d="M317.575 235.818H314.536C314.333 235.818 314.167 235.985 314.167 236.19V237.731C314.167 237.936 314.333 238.102 314.536 238.102H317.575C317.778 238.102 317.943 237.936 317.943 237.731V236.19C317.943 235.985 317.778 235.818 317.575 235.818Z" fill="#3F3D56"/>
<path d="M325.127 235.818H322.089C321.885 235.818 321.72 235.985 321.72 236.19V237.731C321.72 237.936 321.885 238.102 322.089 238.102H325.127C325.331 238.102 325.496 237.936 325.496 237.731V236.19C325.496 235.985 325.331 235.818 325.127 235.818Z" fill="#3F3D56"/>
<path d="M332.679 235.818H329.64C329.437 235.818 329.271 235.985 329.271 236.19V237.731C329.271 237.936 329.437 238.102 329.64 238.102H332.679C332.882 238.102 333.047 237.936 333.047 237.731V236.19C333.047 235.985 332.882 235.818 332.679 235.818Z" fill="#3F3D56"/>
<path d="M340.23 235.818H337.192C336.988 235.818 336.823 235.985 336.823 236.19V237.731C336.823 237.936 336.988 238.102 337.192 238.102H340.23C340.434 238.102 340.599 237.936 340.599 237.731V236.19C340.599 235.985 340.434 235.818 340.23 235.818Z" fill="#3F3D56"/>
<path d="M347.783 235.818H344.745C344.541 235.818 344.376 235.985 344.376 236.19V237.731C344.376 237.936 344.541 238.102 344.745 238.102H347.783C347.987 238.102 348.152 237.936 348.152 237.731V236.19C348.152 235.985 347.987 235.818 347.783 235.818Z" fill="#3F3D56"/>
<path d="M355.334 235.818H352.296C352.092 235.818 351.927 235.985 351.927 236.19V237.731C351.927 237.936 352.092 238.102 352.296 238.102H355.334C355.538 238.102 355.703 237.936 355.703 237.731V236.19C355.703 235.985 355.538 235.818 355.334 235.818Z" fill="#3F3D56"/>
<path d="M312.289 240.386H282.819C282.615 240.386 282.45 240.552 282.45 240.757V242.298C282.45 242.503 282.615 242.67 282.819 242.67H312.289C312.492 242.67 312.658 242.503 312.658 242.298V240.757C312.658 240.552 312.492 240.386 312.289 240.386Z" fill="#3F3D56"/>
<path d="M409.888 40.9499V179.983C409.886 180.953 409.503 181.884 408.822 182.57C408.141 183.256 407.218 183.643 406.255 183.644H333.591C325.553 176.129 318.958 167.184 314.138 157.257C313.821 156.618 313.519 155.97 313.232 155.316C308.84 145.708 306.18 135.388 305.378 124.84C305.325 124.193 305.28 123.546 305.25 122.891C305.151 121.216 305.106 119.518 305.106 117.813C305.092 106.471 307.216 95.2298 311.366 84.6878C311.616 84.0331 311.88 83.386 312.152 82.7388C320.505 62.9542 335.597 46.8314 354.706 37.2803H406.255C407.219 37.2824 408.143 37.6699 408.824 38.3579C409.505 39.0458 409.888 39.978 409.888 40.9499V40.9499Z" fill="#FFB163"/>
<path d="M395.897 56.4357H203.081C202.881 56.4312 202.69 56.3478 202.55 56.2033C202.41 56.0589 202.331 55.8648 202.331 55.6626C202.331 55.4605 202.41 55.2664 202.55 55.122C202.69 54.9775 202.881 54.8941 203.081 54.8896H395.897C396.097 54.8941 396.288 54.9775 396.428 55.122C396.569 55.2664 396.647 55.4605 396.647 55.6626C396.647 55.8648 396.569 56.0589 396.428 56.2033C396.288 56.3478 396.097 56.4312 395.897 56.4357Z" fill="#CACACA"/>
<path d="M216.207 50.9439C218.688 50.9439 220.7 48.8705 220.7 46.3128C220.7 43.7551 218.688 41.6816 216.207 41.6816C213.725 41.6816 211.713 43.7551 211.713 46.3128C211.713 48.8705 213.725 50.9439 216.207 50.9439Z" fill="#3F3D56"/>
<path d="M231.729 50.9439C234.21 50.9439 236.222 48.8705 236.222 46.3128C236.222 43.7551 234.21 41.6816 231.729 41.6816C229.247 41.6816 227.235 43.7551 227.235 46.3128C227.235 48.8705 229.247 50.9439 231.729 50.9439Z" fill="#3F3D56"/>
<path d="M247.253 50.9439C249.735 50.9439 251.747 48.8705 251.747 46.3128C251.747 43.7551 249.735 41.6816 247.253 41.6816C244.771 41.6816 242.759 43.7551 242.759 46.3128C242.759 48.8705 244.771 50.9439 247.253 50.9439Z" fill="#3F3D56"/>
<path d="M260.683 101.595H236.59C234.78 101.595 233.313 103.074 233.313 104.899V104.899C233.313 106.723 234.78 108.202 236.59 108.202H260.683C262.493 108.202 263.96 106.723 263.96 104.899C263.96 103.074 262.493 101.595 260.683 101.595Z" fill="#FFB163"/>
<path d="M276.248 114.809H221.026C219.217 114.809 217.75 116.288 217.75 118.112C217.75 119.936 219.217 121.415 221.026 121.415H276.248C278.058 121.415 279.525 119.936 279.525 118.112C279.525 116.288 278.058 114.809 276.248 114.809Z" fill="#E6E6E6"/>
<path d="M276.248 128.023H221.026C219.217 128.023 217.75 129.502 217.75 131.327V131.327C217.75 133.151 219.217 134.63 221.026 134.63H276.248C278.058 134.63 279.525 133.151 279.525 131.327C279.525 129.502 278.058 128.023 276.248 128.023Z" fill="#E6E6E6"/>
<path d="M222.791 175.674C222.795 178.395 222.314 181.095 221.371 183.645H200.188C199.225 183.643 198.302 183.257 197.621 182.571C196.941 181.884 196.557 180.954 196.556 179.983V153.124C197.739 152.931 198.936 152.834 200.135 152.834C203.11 152.834 206.057 153.425 208.805 154.573C211.554 155.72 214.052 157.403 216.155 159.524C218.259 161.645 219.928 164.162 221.067 166.934C222.205 169.705 222.791 172.675 222.791 175.674Z" fill="#FFB163"/>
<path opacity="0.2" d="M410.075 84.6873V82.7383H377.671V60.1499H375.745V82.7383H338.605V60.1499H336.679V82.7383H312.151C311.879 83.3854 311.615 84.0326 311.365 84.6873H336.679V122.89H305.249C305.279 123.545 305.324 124.192 305.377 124.839H336.679V155.315H313.231C313.518 155.97 313.82 156.617 314.137 157.257H336.679V182.875H338.605V157.257H375.745V182.875H377.671V157.257H410.075V155.315H377.671V124.839H410.075V122.89H377.671V84.6873H410.075ZM375.745 155.315H338.605V124.839H375.745V155.315ZM375.745 122.89H338.605V84.6873H375.745V122.89Z" fill="black"/>
<path d="M383.986 169.221C383.573 169.24 383.164 169.13 382.814 168.907C382.465 168.684 382.192 168.358 382.032 167.973C381.872 167.588 381.834 167.163 381.922 166.756C382.01 166.348 382.22 165.977 382.524 165.694L382.662 165.14C382.644 165.096 382.626 165.051 382.607 165.007C382.191 164.015 381.493 163.17 380.602 162.577C379.71 161.984 378.665 161.67 377.596 161.674C376.528 161.678 375.485 162 374.598 162.599C373.711 163.199 373.02 164.05 372.611 165.044C370.976 169.014 368.894 172.991 368.381 177.188C368.156 179.044 368.251 180.925 368.663 182.747C364.823 174.302 362.829 165.124 362.816 155.834C362.815 153.502 362.943 151.173 363.201 148.856C363.413 146.957 363.708 145.071 364.085 143.199C366.143 133.04 370.563 123.519 376.98 115.417C380.086 113.708 382.597 111.081 384.176 107.889C384.749 106.742 385.153 105.517 385.377 104.253C385.027 104.299 384.67 104.328 384.32 104.351C384.211 104.357 384.096 104.363 383.987 104.369L383.946 104.371C383.561 104.388 383.179 104.293 382.846 104.097C382.514 103.9 382.244 103.611 382.071 103.264C381.897 102.917 381.827 102.527 381.868 102.141C381.91 101.754 382.061 101.388 382.304 101.087C382.455 100.899 382.606 100.711 382.758 100.524C382.988 100.234 383.223 99.9506 383.453 99.6611C383.479 99.6336 383.504 99.6046 383.527 99.5742C383.792 99.2442 384.056 98.9199 384.32 98.5898C383.838 97.8352 383.189 97.2031 382.425 96.7427C379.777 95.1793 376.124 96.2622 374.211 98.6767C372.293 101.091 371.931 104.479 372.597 107.495C373.252 110.062 374.336 112.498 375.802 114.699C375.659 114.884 375.509 115.063 375.366 115.249C372.741 118.651 370.453 122.305 368.535 126.158C369.002 121.842 368.445 117.476 366.911 113.419C365.356 109.638 362.442 106.454 359.876 103.185C356.794 99.2595 350.474 100.973 349.931 105.95C349.926 105.998 349.92 106.046 349.915 106.094C350.297 106.311 350.67 106.541 351.035 106.784C351.493 107.093 351.849 107.535 352.054 108.051C352.26 108.567 352.306 109.133 352.187 109.676C352.067 110.219 351.788 110.713 351.386 111.093C350.983 111.473 350.476 111.722 349.931 111.806L349.875 111.815C350.011 113.2 350.251 114.572 350.593 115.92C351.585 119.684 353.337 123.201 355.739 126.25C358.142 129.299 361.144 131.814 364.556 133.639C364.78 133.755 364.998 133.871 365.222 133.981C363.295 139.486 362.087 145.22 361.627 151.039C361.366 154.472 361.382 157.921 361.673 161.352L361.656 161.23C360.92 157.415 358.902 153.973 355.941 151.485C351.543 147.843 345.329 146.502 340.584 143.574C340.08 143.248 339.494 143.073 338.895 143.072C338.295 143.07 337.708 143.242 337.202 143.566C336.697 143.89 336.293 144.353 336.04 144.9C335.786 145.447 335.694 146.056 335.772 146.655C335.779 146.698 335.785 146.741 335.792 146.783C336.499 147.074 337.188 147.408 337.854 147.785C338.235 148.002 338.608 148.232 338.973 148.475C339.432 148.784 339.787 149.225 339.992 149.741C340.198 150.257 340.244 150.824 340.125 151.367C340.006 151.909 339.726 152.403 339.324 152.783C338.921 153.164 338.414 153.412 337.869 153.497L337.813 153.506C337.773 153.512 337.739 153.517 337.699 153.523C338.907 156.432 340.603 159.11 342.713 161.439C345.319 164.258 348.469 166.51 351.969 168.059C355.469 169.607 359.246 170.418 363.068 170.443H363.074C364.112 174.988 365.615 179.413 367.56 183.645H383.585C383.642 183.465 383.694 183.28 383.746 183.1C382.262 183.194 380.773 183.105 379.312 182.834C380.501 181.363 381.689 179.881 382.878 178.41C382.905 178.383 382.93 178.354 382.953 178.323C383.556 177.571 384.165 176.824 384.768 176.071L384.768 176.07C384.801 173.763 384.538 171.461 383.987 169.221L383.986 169.221ZM365.636 132.828L365.644 132.817L365.636 132.84V132.828ZM362.086 165.087L361.948 164.774C361.954 164.548 361.954 164.322 361.948 164.091C361.948 164.027 361.937 163.963 361.937 163.9C361.989 164.299 362.035 164.699 362.092 165.098L362.086 165.087Z" fill="#2F2E41"/>
<path d="M-13 255.492V258.228C-12.9961 262.763 -11.193 267.111 -7.98651 270.317C-4.78006 273.524 -0.432307 275.327 4.10229 275.331H149.13C153.665 275.329 158.014 273.527 161.221 270.32C164.428 267.113 166.23 262.764 166.232 258.228V255.492C166.241 251.49 164.835 247.613 162.264 244.546C161.408 243.528 160.44 242.61 159.377 241.81H84.1544C83.2473 241.81 82.3775 241.449 81.7362 240.808C81.0948 240.166 80.7343 239.297 80.7339 238.39H4.10229C-0.43159 238.396 -4.77799 240.2 -7.98393 243.406C-11.1899 246.612 -12.9937 250.958 -13 255.492V255.492Z" fill="#B2B2B2"/>
<path d="M67.0457 400.524H84.832L84.832 274.651H67.0457L67.0457 400.524Z" fill="#CCCCCC"/>
<path d="M16.4229 399.899C16.4229 401.821 43.3753 400.642 76.6229 400.642C109.871 400.642 136.823 401.821 136.823 399.899C136.823 397.977 109.871 382.737 76.6229 382.737C43.3753 382.737 16.4229 397.977 16.4229 399.899Z" fill="#CCCCCC"/>
<path d="M167.18 384.5L184.171 384.499L192.254 318.962L167.177 318.963L167.18 384.5Z" fill="#DC9EA7"/>
<path d="M162.846 378.953L196.307 378.951H196.308C201.964 378.951 207.388 381.198 211.387 385.197C215.386 389.196 217.632 394.62 217.633 400.275V400.968L162.847 400.97L162.846 378.953Z" fill="#2F2E41"/>
<path d="M101.409 349.693L87.6428 359.653L42.6748 311.297L62.9918 296.597L101.409 349.693Z" fill="#A0616A"/>
<path d="M114.574 360.496L70.1885 392.612L69.7823 392.05C66.4673 387.468 65.108 381.757 66.0035 376.173C66.899 370.589 69.9759 365.589 74.5574 362.274L74.5585 362.273L101.668 342.658L114.574 360.496Z" fill="#2F2E41"/>
<path d="M120.005 94.9383C120.005 94.9383 102.179 81.5859 82.9033 94.9383L69.5625 206.209H109.62L115.554 170.602L128.907 117.192L120.005 94.9383Z" fill="#E4E4E4"/>
<path d="M160.135 266.787L88.2429 243.312L53.9701 270.509L90.3791 326.171L71.3361 351.145L70.7914 350.525C68.4289 347.834 12.9305 284.411 13.0912 266.423C13.2505 248.585 19.1606 230.654 19.2203 230.474L37.2484 204.885L62.8356 197.36L147.546 209.249L147.684 209.269L181.91 230.101C185.297 232.277 188.152 235.186 190.264 238.612C192.376 242.039 193.692 245.897 194.115 249.9C195.585 263.128 198.54 369.061 198.57 370.13L198.589 370.824H161.622L160.135 266.787Z" fill="#2F2E41"/>
<path d="M114.539 240.208C102.043 234.655 86.0859 212.972 83.4558 209.315C78.3144 212.114 40.8197 232.153 30.2496 227.001C28.7142 227.848 21.7745 231.989 20.5244 238.238L20.211 239.806L19.3051 238.489C19.1381 238.246 2.85326 214.031 23.9202 198.982C43.1291 185.262 48.2969 171.401 48.8382 169.815L38.4156 114.726L38.6891 114.472C39.5439 113.678 59.8339 95.0098 78.3474 92.7895L89.7677 90.7764L90.2671 134.254V189.913C99.4949 188.753 114.093 91.4999 114.093 91.4999L121.722 94.2952C123.693 94.6733 145.845 99.0981 151.724 107.916L151.915 108.202L131.766 162.676L125.874 171.548V182.905L160.299 212.84L159.81 213.352C158.637 214.58 133.252 240.983 118.465 240.979C117.116 241.001 115.779 240.738 114.539 240.208V240.208Z" fill="#343247"/>
<path d="M130.538 62.3954C139.331 46.3114 133.42 26.1451 117.336 17.3528C101.252 8.56046 81.0853 14.4716 72.2929 30.5556C63.5006 46.6396 69.4117 66.8058 85.4957 75.5981C101.58 84.3904 121.746 78.4794 130.538 62.3954Z" fill="#DC9EA7"/>
<path d="M93.0589 250.092C93.2967 248.208 93.9448 246.398 94.9577 244.79C95.9705 243.183 97.3235 241.817 98.9213 240.789C100.519 239.762 102.323 239.096 104.205 238.841C106.088 238.586 108.004 238.746 109.818 239.311L128.841 216.507L145.519 224.687L118.202 256.514C117.051 259.498 114.845 261.957 112.002 263.423C109.159 264.89 105.877 265.263 102.778 264.471C99.6788 263.68 96.9776 261.779 95.1863 259.129C93.395 256.479 92.6381 253.263 93.0589 250.092V250.092Z" fill="#A0616A"/>
<path d="M106.505 230.754L136.349 190.465L128.957 150.547L140.95 105.574L141.251 105.444C141.493 105.34 147.233 102.922 151.602 104.734C152.496 105.103 153.304 105.653 153.974 106.35C154.644 107.046 155.163 107.874 155.497 108.782C158.467 116.205 165.625 191.803 165.928 195.148C165.867 195.759 164.397 210.178 161.409 216.155C158.434 222.104 131.303 252.121 130.15 253.397L129.673 253.923L106.505 230.754Z" fill="#343247"/>
<path d="M129.927 37.9329C118.879 51.8277 99.9441 49.2815 84.7935 44.1969C85.6749 55.3203 82.6545 66.4033 76.2514 75.5414C78.2079 67.6599 69.9657 66.0915 65.1561 63.1606C63.3045 60.8167 64.8428 57.3183 64.0828 54.4299C55.4469 44.3048 49.7243 36.6659 60.8098 24.7844C67.299 16.0979 75.0878 5.25245 87.4517 7.53415C97.2348 -3.8785 113.267 -0.910338 124.206 7.07288C129.124 10.7117 133.597 14.9155 137.534 19.5978C136.276 25.7593 133.931 31.648 130.611 36.9888" fill="#2F2E41"/>
<path d="M121.103 268.378H83.209C84.6298 250.894 89.211 234.567 83.209 222.906H121.102C128.237 238.063 128.237 253.221 121.103 268.378Z" fill="#6C63FF"/>
<path d="M104.546 259.794C104.308 257.909 103.66 256.099 102.647 254.492C101.634 252.885 100.281 251.519 98.6833 250.491C97.0856 249.463 95.2818 248.798 93.3992 248.543C91.5165 248.287 89.6008 248.448 87.7869 249.013L68.7636 226.208L52.0859 234.389L79.4028 266.216C80.5541 269.2 82.7601 271.659 85.6028 273.125C88.4455 274.592 91.7274 274.964 94.8266 274.173C97.9258 273.381 100.627 271.48 102.418 268.83C104.21 266.18 104.967 262.965 104.546 259.794V259.794Z" fill="#DC9EA7"/>
<path d="M67.6734 255.709C65.972 254.433 25.9535 224.354 21.4825 215.413C17.0049 206.457 18.1148 179.936 18.1728 178.73C18.2424 178.313 25.2095 136.867 31.1028 122.135C37.2174 106.849 52.5974 112.794 52.7521 112.856L53.2169 113.042L46.52 191.173L83.0487 239.63L68.1663 256.078L67.6734 255.709Z" fill="#343247"/>
</svg>
