<svg width="641" height="416" viewBox="0 0 641 416" fill="none" xmlns="http://www.w3.org/2000/svg">
<path d="M547.549 249.28C546.315 248.956 545.158 248.387 544.149 247.607C543.14 246.827 542.298 245.852 541.673 244.739C540.736 243.094 539.882 241.386 538.923 239.761C538.103 238.145 536.793 236.828 535.182 235.998C533.57 235.167 531.737 234.866 529.944 235.137C528.139 235.288 526.425 235.993 525.037 237.157C523.65 238.32 522.656 239.885 522.194 241.636C521.569 243.573 521.09 245.531 520.444 247.447C520.067 248.648 519.456 249.762 518.648 250.727C517.839 251.691 516.848 252.486 515.731 253.067C514.614 253.647 513.394 254.002 512.139 254.11C510.885 254.218 509.622 254.077 508.422 253.696C504.797 252.675 501.151 251.613 497.526 250.509C496.28 250.169 495.114 249.582 494.097 248.785C493.081 247.987 492.234 246.995 491.607 245.865C490.98 244.736 490.585 243.492 490.446 242.208C490.307 240.923 490.426 239.624 490.797 238.386C491.318 236.449 491.985 234.533 492.485 232.575C492.982 230.864 492.939 229.042 492.361 227.357C491.783 225.671 490.698 224.206 489.255 223.16C487.942 222.009 486.301 221.299 484.562 221.131C482.824 220.963 481.077 221.345 479.568 222.223C477.88 223.077 476.255 224.056 474.567 224.931C473.413 225.556 472.146 225.943 470.84 226.072C469.534 226.2 468.215 226.066 466.962 225.678C465.708 225.29 464.544 224.656 463.539 223.812C462.534 222.968 461.708 221.932 461.109 220.765C459.192 217.349 457.296 213.933 455.442 210.476C454.774 209.349 454.346 208.097 454.183 206.798C454.02 205.498 454.127 204.179 454.496 202.923C454.866 201.666 455.49 200.5 456.33 199.495C457.17 198.49 458.208 197.669 459.379 197.083C460.963 196.187 462.609 195.375 464.192 194.458C465.763 193.683 467.049 192.432 467.868 190.884C468.687 189.336 468.997 187.57 468.755 185.835C468.669 184.059 468.033 182.354 466.936 180.955C465.839 179.555 464.334 178.532 462.63 178.024C460.713 177.358 458.734 176.9 456.817 176.275C455.517 175.93 454.303 175.319 453.253 174.48C452.202 173.641 451.338 172.593 450.715 171.401C450.091 170.21 449.723 168.902 449.633 167.561C449.543 166.22 449.733 164.875 450.192 163.611C451.192 160.174 452.275 156.716 453.233 153.196C453.863 150.802 455.401 148.748 457.521 147.468C459.641 146.189 462.176 145.786 464.588 146.344C466.671 146.76 468.609 147.427 470.609 148.01C472.369 148.683 474.298 148.778 476.115 148.279C477.932 147.781 479.543 146.716 480.713 145.24C481.916 143.797 482.622 142.005 482.727 140.129C482.832 138.253 482.331 136.394 481.297 134.825C480.443 133.284 479.568 131.764 478.776 130.181C478.176 129.089 477.797 127.889 477.663 126.651C477.529 125.413 477.641 124.16 477.994 122.965C478.346 121.77 478.932 120.657 479.717 119.69C480.502 118.723 481.471 117.92 482.568 117.329C486.255 115.246 490.005 113.163 493.797 111.351C496.045 110.24 498.633 110.034 501.028 110.774C503.424 111.514 505.444 113.145 506.672 115.33C507.652 117.017 508.527 118.787 509.527 120.453C510.343 121.994 511.617 123.243 513.173 124.03C514.728 124.817 516.49 125.103 518.214 124.848C519.993 124.74 521.693 124.08 523.079 122.96C524.464 121.84 525.466 120.316 525.944 118.6C526.527 116.788 526.986 114.955 527.548 113.143C527.889 111.826 528.5 110.595 529.342 109.527C530.184 108.459 531.239 107.578 532.44 106.94C533.641 106.301 534.962 105.919 536.318 105.818C537.674 105.717 539.037 105.899 540.319 106.352L550.445 109.331C551.734 109.647 552.946 110.223 554.005 111.023C555.064 111.824 555.949 112.833 556.604 113.987C557.26 115.142 557.672 116.418 557.817 117.738C557.961 119.057 557.835 120.393 557.445 121.662C557.007 123.432 556.445 125.161 555.924 126.91C555.371 128.658 555.358 130.531 555.887 132.286C556.416 134.04 557.463 135.595 558.89 136.745C560.318 137.895 562.059 138.587 563.886 138.732C565.714 138.876 567.542 138.466 569.133 137.554C570.674 136.721 572.216 135.846 573.779 135.034C574.911 134.412 576.155 134.02 577.439 133.88C578.724 133.739 580.023 133.853 581.263 134.215C582.503 134.576 583.66 135.179 584.667 135.988C585.674 136.797 586.512 137.796 587.133 138.929C589.133 142.456 591.085 145.997 592.987 149.551C593.622 150.661 594.026 151.887 594.174 153.157C594.322 154.427 594.212 155.713 593.85 156.939C593.488 158.165 592.881 159.305 592.067 160.29C591.253 161.276 590.248 162.086 589.112 162.674C587.404 163.632 585.654 164.486 583.945 165.465C582.489 166.227 581.29 167.403 580.501 168.845C579.711 170.286 579.366 171.929 579.508 173.567C579.485 175.283 579.993 176.965 580.963 178.382C581.933 179.799 583.316 180.881 584.925 181.482C586.904 182.294 589.091 182.773 591.175 183.419C592.391 183.693 593.536 184.218 594.536 184.962C595.537 185.705 596.37 186.65 596.983 187.736C597.595 188.821 597.973 190.023 598.092 191.263C598.212 192.504 598.07 193.755 597.675 194.937C596.654 198.916 595.488 202.873 594.217 206.768C593.898 208.008 593.322 209.167 592.525 210.169C591.728 211.171 590.729 211.993 589.592 212.583C588.456 213.173 587.208 213.516 585.93 213.591C584.652 213.666 583.372 213.47 582.175 213.017C580.362 212.517 578.549 211.892 576.716 211.475C575.031 211.02 573.246 211.096 571.605 211.692C569.965 212.289 568.548 213.377 567.549 214.808C566.449 216.122 565.781 217.742 565.635 219.45C565.49 221.157 565.875 222.867 566.737 224.348C567.633 226.076 568.653 227.743 569.57 229.472C570.2 230.585 570.601 231.813 570.748 233.083C570.895 234.354 570.786 235.641 570.426 236.868C570.067 238.096 569.465 239.238 568.656 240.229C567.847 241.22 566.847 242.038 565.716 242.635C562.195 244.718 558.632 246.53 555.07 248.447C553.94 249.094 552.69 249.503 551.396 249.646C550.102 249.789 548.792 249.665 547.549 249.28ZM494.089 171.109C492.35 177.033 492.405 183.339 494.248 189.231C496.09 195.123 499.638 200.338 504.442 204.216C509.247 208.094 515.092 210.463 521.242 211.023C527.392 211.582 533.569 210.308 538.995 207.36C544.421 204.413 548.852 199.924 551.728 194.462C554.605 188.999 555.798 182.807 555.157 176.666C554.516 170.526 552.071 164.713 548.128 159.962C544.186 155.21 538.924 151.732 533.007 149.968C529.063 148.792 524.926 148.406 520.832 148.833C516.739 149.26 512.771 150.491 509.155 152.456C505.538 154.42 502.346 157.079 499.761 160.28C497.175 163.481 495.248 167.161 494.089 171.109Z" fill="#464646"/>
<path d="M415.211 415.14C412.315 415.196 409.436 414.672 406.746 413.599C404.055 412.526 401.606 410.925 399.544 408.891C396.461 405.933 393.544 402.767 390.419 399.851C383.877 393.728 376.335 391.895 367.981 395.498C364.148 396.969 360.867 399.592 358.587 403.005C356.307 406.418 355.142 410.454 355.251 414.556C355.147 419.139 355.355 423.721 355.147 428.283C355.104 431.134 354.496 433.948 353.36 436.563C352.223 439.178 350.58 441.542 348.525 443.519C346.47 445.496 344.044 447.047 341.387 448.082C338.729 449.117 335.893 449.615 333.042 449.549C324.472 449.549 315.903 449.549 307.333 449.549C304.407 449.602 301.501 449.069 298.784 447.983C296.067 446.897 293.594 445.279 291.512 443.224C289.429 441.169 287.778 438.719 286.656 436.017C285.534 433.315 284.964 430.417 284.978 427.491C284.874 422.909 284.978 418.327 284.978 413.765C284.991 409.737 283.751 405.805 281.429 402.513C279.107 399.222 275.819 396.734 272.02 395.394C268.419 393.755 264.397 393.275 260.511 394.022C256.626 394.768 253.068 396.703 250.331 399.56C247.206 402.476 244.31 405.642 241.206 408.599C239.113 410.697 236.622 412.356 233.88 413.481C231.139 414.605 228.2 415.172 225.237 415.149C222.273 415.126 219.344 414.513 216.62 413.345C213.896 412.178 211.432 410.479 209.372 408.35C203.038 402.143 196.788 395.894 190.621 389.604C181.434 380.251 181.475 367.317 190.621 357.965C193.517 355.007 196.559 352.216 199.413 349.216C202.3 346.511 204.278 342.978 205.076 339.103C205.875 335.228 205.454 331.201 203.872 327.575C202.548 323.769 200.076 320.466 196.796 318.123C193.516 315.781 189.59 314.513 185.559 314.495C180.996 314.286 176.413 314.495 171.829 314.37C158.12 313.87 149.433 304.789 149.412 291.083C149.412 282.96 149.412 274.837 149.412 266.713C149.246 261.109 151.277 255.661 155.072 251.533C158.867 247.404 164.125 244.921 169.725 244.614C174.433 244.218 179.183 244.364 183.892 244.364C193.309 244.364 200.038 240.198 203.768 231.533C207.288 223.389 205.33 215.495 198.413 208.622C195.601 205.81 192.705 203.04 190.08 200.144C188.083 198.154 186.5 195.788 185.419 193.185C184.338 190.581 183.782 187.79 183.782 184.971C183.782 182.152 184.338 179.36 185.419 176.757C186.5 174.153 188.083 171.788 190.08 169.797C196.774 162.854 203.636 156.14 210.664 149.655C214.822 145.811 220.292 143.702 225.955 143.761C231.618 143.819 237.045 146.039 241.123 149.968C244.331 153.009 247.373 156.216 250.602 159.299C253.36 162.132 256.931 164.039 260.82 164.755C264.709 165.472 268.724 164.962 272.311 163.298C276.102 161.936 279.375 159.427 281.675 156.12C283.975 152.812 285.188 148.871 285.145 144.844C285.249 140.678 285.145 136.283 285.145 132.013C285.457 118.245 294.749 109.102 308.541 109.102H332.48C345.709 109.102 355.001 118.12 355.397 131.451C355.564 135.617 355.397 139.782 355.397 143.948C355.178 148.122 356.292 152.257 358.576 155.757C360.86 159.257 364.197 161.942 368.106 163.423C376.148 166.964 384.294 165.152 390.856 158.695C393.69 155.883 396.461 153.009 399.336 150.239C401.404 148.17 403.859 146.53 406.562 145.41C409.264 144.291 412.161 143.715 415.086 143.715C418.011 143.715 420.908 144.291 423.61 145.41C426.313 146.53 428.768 148.17 430.837 150.239C437.42 156.612 443.92 163.062 450.337 169.589C452.424 171.592 454.084 173.997 455.218 176.658C456.352 179.319 456.936 182.182 456.936 185.075C456.936 187.967 456.352 190.83 455.218 193.491C454.084 196.152 452.424 198.557 450.337 200.561C447.254 203.748 443.962 206.81 440.879 209.892C438.178 212.467 436.307 215.789 435.505 219.432C434.703 223.076 435.008 226.876 436.378 230.346C437.455 234.074 439.644 237.385 442.651 239.838C445.659 242.29 449.343 243.767 453.212 244.072C458.025 244.593 462.942 244.281 467.796 244.385C480.651 244.614 488.838 252.404 489.255 265.214C489.547 274.503 489.568 283.814 489.255 293.124C488.797 306.392 480.401 314.266 467.088 314.432C462.921 314.432 458.525 314.286 454.254 314.432C450.301 314.519 446.47 315.822 443.283 318.162C440.096 320.503 437.707 323.767 436.441 327.513C434.868 331.062 434.436 335.013 435.204 338.818C435.973 342.624 437.905 346.097 440.733 348.758C443.795 351.945 446.983 355.007 450.171 358.11C452.245 360.125 453.894 362.536 455.021 365.2C456.147 367.863 456.727 370.726 456.727 373.617C456.727 376.509 456.147 379.372 455.021 382.035C453.894 384.699 452.245 387.109 450.171 389.125C443.775 395.706 437.253 402.101 430.712 408.537C428.696 410.611 426.287 412.263 423.625 413.397C420.964 414.53 418.104 415.123 415.211 415.14ZM227.977 279.107C227.931 297.354 233.299 315.206 243.401 330.404C253.503 345.602 267.885 357.465 284.73 364.491C301.575 371.518 320.125 373.394 338.036 369.881C355.947 366.369 372.414 357.626 385.356 344.758C398.297 331.89 407.131 315.474 410.741 297.587C414.352 279.7 412.576 261.144 405.639 244.265C398.702 227.387 386.914 212.944 371.767 202.762C356.62 192.58 338.794 187.118 320.542 187.064C308.411 187.004 296.388 189.339 285.163 193.937C273.938 198.536 263.732 205.305 255.131 213.858C246.53 222.41 239.703 232.577 235.043 243.774C230.383 254.971 227.982 266.979 227.977 279.107Z" fill="#464646"/>
<g opacity="0.19">
<path opacity="0.19" d="M415.211 415.14C412.315 415.196 409.436 414.672 406.746 413.599C404.055 412.526 401.606 410.925 399.544 408.891C396.461 405.933 393.544 402.767 390.419 399.851C383.877 393.728 376.335 391.895 367.981 395.498C364.148 396.969 360.867 399.592 358.587 403.005C356.307 406.418 355.142 410.454 355.251 414.556C355.147 419.139 355.355 423.721 355.147 428.283C355.104 431.134 354.496 433.948 353.36 436.563C352.223 439.178 350.58 441.542 348.525 443.519C346.47 445.496 344.044 447.047 341.387 448.082C338.729 449.117 335.893 449.615 333.042 449.549C324.472 449.549 315.903 449.549 307.333 449.549C304.407 449.602 301.501 449.069 298.784 447.983C296.067 446.897 293.594 445.279 291.512 443.224C289.429 441.169 287.778 438.719 286.656 436.017C285.534 433.315 284.964 430.417 284.978 427.491C284.874 422.909 284.978 418.327 284.978 413.765C284.991 409.737 283.751 405.805 281.429 402.513C279.107 399.222 275.819 396.734 272.02 395.394C268.419 393.755 264.397 393.275 260.511 394.022C256.626 394.768 253.068 396.703 250.331 399.56C247.206 402.476 244.31 405.642 241.206 408.599C239.113 410.697 236.622 412.356 233.88 413.481C231.139 414.605 228.2 415.172 225.237 415.149C222.273 415.126 219.344 414.513 216.62 413.345C213.896 412.178 211.432 410.479 209.372 408.35C203.038 402.143 196.788 395.894 190.621 389.604C181.434 380.251 181.475 367.317 190.621 357.965C193.517 355.007 196.559 352.216 199.413 349.216C202.3 346.511 204.278 342.978 205.076 339.103C205.875 335.228 205.454 331.201 203.872 327.575C202.548 323.769 200.076 320.466 196.796 318.123C193.516 315.781 189.59 314.513 185.559 314.495C180.996 314.286 176.413 314.495 171.829 314.37C158.12 313.87 149.433 304.789 149.412 291.083C149.412 282.96 149.412 274.837 149.412 266.713C149.246 261.109 151.277 255.661 155.072 251.533C158.867 247.404 164.125 244.921 169.725 244.614C174.433 244.218 179.183 244.364 183.892 244.364C193.309 244.364 200.038 240.198 203.768 231.533C207.288 223.389 205.33 215.495 198.413 208.622C195.601 205.81 192.705 203.04 190.08 200.144C188.083 198.154 186.5 195.788 185.419 193.185C184.338 190.581 183.782 187.79 183.782 184.971C183.782 182.152 184.338 179.36 185.419 176.757C186.5 174.153 188.083 171.788 190.08 169.797C196.774 162.854 203.636 156.14 210.664 149.655C214.822 145.811 220.292 143.702 225.955 143.761C231.618 143.819 237.045 146.039 241.123 149.968C244.331 153.009 247.373 156.216 250.602 159.299C253.36 162.132 256.931 164.039 260.82 164.755C264.709 165.472 268.724 164.962 272.311 163.298C276.102 161.936 279.375 159.427 281.675 156.12C283.975 152.812 285.188 148.871 285.145 144.844C285.249 140.678 285.145 136.283 285.145 132.013C285.457 118.245 294.749 109.102 308.541 109.102H332.48C345.709 109.102 355.001 118.12 355.397 131.451C355.564 135.617 355.397 139.782 355.397 143.948C355.178 148.122 356.292 152.257 358.576 155.757C360.86 159.257 364.197 161.942 368.106 163.423C376.148 166.964 384.294 165.152 390.856 158.695C393.69 155.883 396.461 153.009 399.336 150.239C401.404 148.17 403.859 146.53 406.562 145.41C409.264 144.291 412.161 143.715 415.086 143.715C418.011 143.715 420.908 144.291 423.61 145.41C426.313 146.53 428.768 148.17 430.837 150.239C437.42 156.612 443.92 163.062 450.337 169.589C452.424 171.592 454.084 173.997 455.218 176.658C456.352 179.319 456.936 182.182 456.936 185.075C456.936 187.967 456.352 190.83 455.218 193.491C454.084 196.152 452.424 198.557 450.337 200.561C447.254 203.748 443.962 206.81 440.879 209.892C438.178 212.467 436.307 215.789 435.505 219.432C434.703 223.076 435.008 226.876 436.378 230.346C437.455 234.074 439.644 237.385 442.651 239.838C445.659 242.29 449.343 243.767 453.212 244.072C458.025 244.593 462.942 244.281 467.796 244.385C480.651 244.614 488.838 252.404 489.255 265.214C489.547 274.503 489.568 283.814 489.255 293.124C488.797 306.392 480.401 314.266 467.088 314.432C462.921 314.432 458.525 314.286 454.254 314.432C450.301 314.519 446.47 315.822 443.283 318.162C440.096 320.503 437.707 323.767 436.441 327.513C434.868 331.062 434.436 335.013 435.204 338.818C435.973 342.624 437.905 346.097 440.733 348.758C443.795 351.945 446.983 355.007 450.171 358.11C452.245 360.125 453.894 362.536 455.021 365.2C456.147 367.863 456.727 370.726 456.727 373.617C456.727 376.509 456.147 379.372 455.021 382.035C453.894 384.699 452.245 387.109 450.171 389.125C443.775 395.706 437.253 402.101 430.712 408.537C428.696 410.611 426.287 412.263 423.625 413.397C420.964 414.53 418.104 415.123 415.211 415.14ZM227.977 279.107C227.931 297.354 233.299 315.206 243.401 330.404C253.503 345.602 267.885 357.465 284.73 364.491C301.575 371.518 320.125 373.394 338.036 369.881C355.947 366.369 372.414 357.626 385.356 344.758C398.297 331.89 407.131 315.474 410.741 297.587C414.352 279.7 412.576 261.144 405.639 244.265C398.702 227.387 386.914 212.944 371.767 202.762C356.62 192.58 338.794 187.118 320.542 187.064C308.411 187.004 296.388 189.339 285.163 193.937C273.938 198.536 263.732 205.305 255.131 213.858C246.53 222.41 239.703 232.577 235.043 243.774C230.383 254.971 227.982 266.979 227.977 279.107Z" fill="#020202"/>
</g>
<path d="M254.747 240.365C256.051 242.326 256.585 244.7 256.247 247.03C256.117 249.275 255.796 251.505 255.289 253.696C254.247 258.049 252.476 262.59 253.851 266.839C255.002 269.41 256.442 271.842 258.143 274.087C259.711 276.57 260.441 279.49 260.227 282.419C260.096 283.878 259.617 285.284 258.83 286.52C258.044 287.755 256.972 288.785 255.706 289.521C252.268 283.148 246.789 278.17 242.268 272.504C237.747 266.839 233.934 259.819 235.122 252.675C235.517 250.364 236.392 248.162 237.691 246.21C238.99 244.258 240.684 242.601 242.664 241.344C245.643 239.532 251.747 236.72 254.747 240.365Z" fill="#FF681C"/>
<path opacity="0.19" d="M254.747 240.365C256.051 242.326 256.585 244.7 256.247 247.03C256.117 249.275 255.796 251.505 255.289 253.696C254.247 258.049 252.476 262.59 253.851 266.839C255.002 269.41 256.442 271.842 258.143 274.087C259.711 276.57 260.441 279.49 260.227 282.419C260.096 283.878 259.617 285.284 258.83 286.52C258.044 287.755 256.972 288.785 255.706 289.521C252.268 283.148 246.789 278.17 242.268 272.504C237.747 266.839 233.934 259.819 235.122 252.675C235.517 250.364 236.392 248.162 237.691 246.21C238.99 244.258 240.684 242.601 242.664 241.344C245.643 239.532 251.747 236.72 254.747 240.365Z" fill="#020202"/>
<path d="M409.129 415.202C406.235 415.262 403.358 414.74 400.67 413.667C397.982 412.593 395.538 410.99 393.482 408.953C390.399 405.996 387.482 402.85 384.357 399.914C377.815 393.79 370.252 391.957 361.919 395.56C358.088 397.036 354.807 399.659 352.525 403.071C350.242 406.482 349.07 410.516 349.168 414.619C349.064 419.201 349.168 423.783 349.168 428.345C349.12 431.196 348.508 434.009 347.368 436.623C346.229 439.237 344.583 441.6 342.527 443.576C340.471 445.552 338.045 447.103 335.387 448.139C332.73 449.174 329.894 449.675 327.043 449.611C318.487 449.611 309.924 449.611 301.355 449.611C298.429 449.664 295.522 449.132 292.805 448.045C290.088 446.959 287.616 445.341 285.533 443.286C283.451 441.231 281.8 438.781 280.678 436.079C279.556 433.377 278.985 430.479 279 427.553C279 422.992 279.104 418.389 279 413.827C279.015 409.802 277.777 405.872 275.459 402.58C273.141 399.289 269.857 396.799 266.062 395.456C262.458 393.815 258.433 393.335 254.544 394.081C250.654 394.828 247.093 396.764 244.353 399.622C241.228 402.538 238.332 405.704 235.228 408.662C233.134 410.759 230.644 412.418 227.902 413.543C225.16 414.667 222.222 415.235 219.258 415.211C216.295 415.188 213.365 414.575 210.641 413.407C207.918 412.24 205.454 410.542 203.393 408.412C197.143 402.163 190.768 395.914 184.643 389.666C175.455 380.314 175.497 367.379 184.643 358.027C187.539 355.069 190.601 352.278 193.456 349.279C196.345 346.574 198.325 343.042 199.123 339.166C199.922 335.291 199.499 331.263 197.914 327.637C196.586 323.789 194.085 320.454 190.763 318.1C187.441 315.747 183.464 314.493 179.393 314.515C174.809 314.307 170.226 314.515 165.642 314.39C151.954 313.953 143.204 304.851 143.204 291.145C143.204 283.022 143.204 274.899 143.204 266.776C143.044 261.169 145.079 255.721 148.878 251.593C152.676 247.465 157.936 244.983 163.538 244.676C168.226 244.28 172.976 244.426 177.705 244.426C181.948 244.671 186.159 243.56 189.729 241.254C193.298 238.947 196.041 235.564 197.56 231.596C201.102 223.452 199.143 215.557 192.206 208.684C189.393 205.872 186.518 203.102 183.872 200.207C181.874 198.219 180.288 195.856 179.206 193.254C178.124 190.652 177.567 187.861 177.567 185.043C177.567 182.225 178.124 179.435 179.206 176.833C180.288 174.23 181.874 171.868 183.872 169.88C190.539 162.937 197.393 156.216 204.435 149.717C208.621 145.876 214.12 143.785 219.802 143.874C225.483 143.963 230.914 146.226 234.978 150.197C238.186 153.238 241.228 156.445 244.436 159.528C247.203 162.341 250.773 164.229 254.656 164.934C258.539 165.639 262.545 165.126 266.124 163.465C269.921 162.103 273.198 159.592 275.498 156.28C277.799 152.968 279.008 149.021 278.958 144.989C278.958 140.824 278.958 136.429 278.958 132.159C279.271 118.391 288.563 109.247 302.375 109.247H326.293C339.522 109.247 348.814 118.266 349.335 131.596C349.502 135.762 349.335 139.928 349.335 144.094C349.121 148.264 350.236 152.394 352.52 155.89C354.804 159.386 358.139 162.067 362.044 163.548C370.065 167.089 378.211 165.277 384.774 158.82C387.628 156.029 390.378 153.133 393.253 150.363C397.436 146.19 403.104 143.846 409.014 143.846C414.924 143.846 420.592 146.19 424.775 150.363C431.337 156.737 437.859 163.173 444.255 169.713C446.338 171.719 447.996 174.124 449.128 176.785C450.261 179.446 450.844 182.308 450.844 185.199C450.844 188.091 450.261 190.953 449.128 193.614C447.996 196.275 446.338 198.68 444.255 200.686C441.15 203.872 437.859 206.934 434.796 210.038C432.096 212.608 430.223 215.925 429.418 219.565C428.613 223.205 428.911 227.002 430.275 230.471C431.352 234.199 433.54 237.51 436.548 239.962C439.556 242.415 443.24 243.892 447.109 244.197C451.942 244.718 456.838 244.405 461.693 244.51C474.547 244.739 482.756 252.549 483.172 265.338C483.464 274.628 483.464 283.959 483.172 293.249C482.797 306.579 474.464 314.515 461.068 314.619C456.776 314.619 452.484 314.474 448.213 314.619C444.26 314.71 440.431 316.013 437.245 318.353C434.058 320.693 431.668 323.956 430.4 327.7C428.827 331.25 428.395 335.2 429.163 339.006C429.932 342.811 431.864 346.284 434.692 348.945C437.754 352.132 441.067 355.194 444.15 358.298C446.226 360.314 447.875 362.727 449.002 365.392C450.128 368.057 450.708 370.922 450.708 373.815C450.708 376.708 450.128 379.573 449.002 382.238C447.875 384.903 446.226 387.316 444.15 389.332C437.775 395.894 431.233 402.288 424.712 408.724C422.678 410.788 420.251 412.425 417.575 413.537C414.899 414.65 412.027 415.216 409.129 415.202ZM221.894 279.231C221.853 297.477 227.223 315.326 237.327 330.521C247.43 345.716 261.813 357.575 278.657 364.599C295.501 371.623 314.05 373.497 331.959 369.984C349.868 366.471 366.333 357.728 379.273 344.861C392.213 331.995 401.047 315.581 404.658 297.696C408.269 279.81 406.495 261.256 399.56 244.379C392.626 227.501 380.842 213.058 365.698 202.875C350.554 192.691 332.73 187.225 314.48 187.168C302.347 187.107 290.321 189.444 279.093 194.043C267.865 198.642 257.657 205.413 249.054 213.967C240.451 222.522 233.623 232.691 228.962 243.891C224.301 255.091 221.899 267.101 221.894 279.231Z" fill="#464646"/>
<path opacity="0.19" d="M330.874 399.914C332.208 401.725 333.786 403.345 335.562 404.725C336.62 405.294 337.538 406.091 338.25 407.058C338.58 407.834 338.791 408.656 338.875 409.495C339.729 414.223 344.271 418.576 348.958 417.514L351.208 401.767C351.5 400.57 351.5 399.32 351.208 398.122C350.736 397.057 350.022 396.116 349.125 395.373C343.483 389.827 338.581 383.575 334.541 376.773C333.655 374.862 332.283 373.218 330.562 372.003C328.874 371.024 330.562 369.795 328.645 370.337C323.603 371.753 320.166 371.67 308.457 371.566C308.457 371.566 312.145 376.565 313.77 378.564L322.374 389.249C323.457 390.728 329.27 399.914 330.874 399.914Z" fill="#020202"/>
<g opacity="0.27">
<path opacity="0.27" d="M547.549 249.28C546.315 248.956 545.158 248.387 544.149 247.607C543.14 246.827 542.298 245.852 541.673 244.739C540.736 243.094 539.882 241.386 538.923 239.761C538.103 238.145 536.793 236.828 535.182 235.998C533.57 235.167 531.737 234.866 529.944 235.137C528.139 235.288 526.425 235.993 525.037 237.157C523.65 238.32 522.656 239.885 522.194 241.636C521.569 243.573 521.09 245.531 520.444 247.447C520.067 248.648 519.456 249.762 518.648 250.727C517.839 251.691 516.848 252.486 515.731 253.067C514.614 253.647 513.394 254.002 512.139 254.11C510.885 254.218 509.622 254.077 508.422 253.696C504.797 252.675 501.151 251.613 497.526 250.509C496.28 250.169 495.114 249.582 494.097 248.785C493.081 247.987 492.234 246.995 491.607 245.865C490.98 244.736 490.585 243.492 490.446 242.208C490.307 240.923 490.426 239.624 490.797 238.386C491.318 236.449 491.985 234.533 492.485 232.575C492.982 230.864 492.939 229.042 492.361 227.357C491.783 225.671 490.698 224.206 489.255 223.16C487.942 222.009 486.301 221.299 484.562 221.131C482.824 220.963 481.077 221.345 479.568 222.223C477.88 223.077 476.255 224.056 474.567 224.931C473.413 225.556 472.146 225.943 470.84 226.072C469.534 226.2 468.215 226.066 466.962 225.678C465.708 225.29 464.544 224.656 463.539 223.812C462.534 222.968 461.708 221.932 461.109 220.765C459.192 217.349 457.296 213.933 455.442 210.476C454.774 209.349 454.346 208.097 454.183 206.798C454.02 205.498 454.127 204.179 454.496 202.923C454.866 201.666 455.49 200.5 456.33 199.495C457.17 198.49 458.208 197.669 459.379 197.083C460.963 196.187 462.609 195.375 464.192 194.458C465.763 193.683 467.049 192.432 467.868 190.884C468.687 189.336 468.997 187.57 468.755 185.835C468.669 184.059 468.033 182.354 466.936 180.955C465.839 179.555 464.334 178.532 462.63 178.024C460.713 177.358 458.734 176.9 456.817 176.275C455.517 175.93 454.303 175.319 453.253 174.48C452.202 173.641 451.338 172.593 450.715 171.401C450.091 170.21 449.723 168.902 449.633 167.561C449.543 166.22 449.733 164.875 450.192 163.611C451.192 160.174 452.275 156.716 453.233 153.196C453.863 150.802 455.401 148.748 457.521 147.468C459.641 146.189 462.176 145.786 464.588 146.344C466.671 146.76 468.609 147.427 470.609 148.01C472.369 148.683 474.298 148.778 476.115 148.279C477.932 147.781 479.543 146.716 480.713 145.24C481.916 143.797 482.622 142.005 482.727 140.129C482.832 138.253 482.331 136.394 481.297 134.825C480.443 133.284 479.568 131.764 478.776 130.181C478.176 129.089 477.797 127.889 477.663 126.651C477.529 125.413 477.641 124.16 477.994 122.965C478.346 121.77 478.932 120.657 479.717 119.69C480.502 118.723 481.471 117.92 482.568 117.329C486.255 115.246 490.005 113.163 493.797 111.351C496.045 110.24 498.633 110.034 501.028 110.774C503.424 111.514 505.444 113.145 506.672 115.33C507.652 117.017 508.527 118.787 509.527 120.453C510.343 121.994 511.617 123.243 513.173 124.03C514.728 124.817 516.49 125.103 518.214 124.848C519.993 124.74 521.693 124.08 523.079 122.96C524.464 121.84 525.466 120.316 525.944 118.6C526.527 116.788 526.986 114.955 527.548 113.143C527.889 111.826 528.5 110.595 529.342 109.527C530.184 108.459 531.239 107.578 532.44 106.94C533.641 106.301 534.962 105.919 536.318 105.818C537.674 105.717 539.037 105.899 540.319 106.352L550.445 109.331C551.734 109.647 552.946 110.223 554.005 111.023C555.064 111.824 555.949 112.833 556.604 113.987C557.26 115.142 557.672 116.418 557.817 117.738C557.961 119.057 557.835 120.393 557.445 121.662C557.007 123.432 556.445 125.161 555.924 126.91C555.371 128.658 555.358 130.531 555.887 132.286C556.416 134.04 557.463 135.595 558.89 136.745C560.318 137.895 562.059 138.587 563.886 138.732C565.714 138.876 567.542 138.466 569.133 137.554C570.674 136.721 572.216 135.846 573.779 135.034C574.911 134.412 576.155 134.02 577.439 133.88C578.724 133.739 580.023 133.853 581.263 134.215C582.503 134.576 583.66 135.179 584.667 135.988C585.674 136.797 586.512 137.796 587.133 138.929C589.133 142.456 591.085 145.997 592.987 149.551C593.622 150.661 594.026 151.887 594.174 153.157C594.322 154.427 594.212 155.713 593.85 156.939C593.488 158.165 592.881 159.305 592.067 160.29C591.253 161.276 590.248 162.086 589.112 162.674C587.404 163.632 585.654 164.486 583.945 165.465C582.489 166.227 581.29 167.403 580.501 168.845C579.711 170.286 579.366 171.929 579.508 173.567C579.485 175.283 579.993 176.965 580.963 178.382C581.933 179.799 583.316 180.881 584.925 181.482C586.904 182.294 589.091 182.773 591.175 183.419C592.391 183.693 593.536 184.218 594.536 184.962C595.537 185.705 596.37 186.65 596.983 187.736C597.595 188.821 597.973 190.023 598.092 191.263C598.212 192.504 598.07 193.755 597.675 194.937C596.654 198.916 595.488 202.873 594.217 206.768C593.898 208.008 593.322 209.167 592.525 210.169C591.728 211.171 590.729 211.993 589.592 212.583C588.456 213.173 587.208 213.516 585.93 213.591C584.652 213.666 583.372 213.47 582.175 213.017C580.362 212.517 578.549 211.892 576.716 211.475C575.031 211.02 573.246 211.096 571.605 211.692C569.965 212.289 568.548 213.377 567.549 214.808C566.449 216.122 565.781 217.742 565.635 219.45C565.49 221.157 565.875 222.867 566.737 224.348C567.633 226.076 568.653 227.743 569.57 229.472C570.2 230.585 570.601 231.813 570.748 233.083C570.895 234.354 570.786 235.641 570.426 236.868C570.067 238.096 569.465 239.238 568.656 240.229C567.847 241.22 566.847 242.038 565.716 242.635C562.195 244.718 558.632 246.53 555.07 248.447C553.94 249.094 552.69 249.503 551.396 249.646C550.102 249.789 548.792 249.665 547.549 249.28ZM494.089 171.109C492.35 177.033 492.405 183.339 494.248 189.231C496.09 195.123 499.638 200.338 504.442 204.216C509.247 208.094 515.092 210.463 521.242 211.023C527.392 211.582 533.569 210.308 538.995 207.36C544.421 204.413 548.852 199.924 551.728 194.462C554.605 188.999 555.798 182.807 555.157 176.666C554.516 170.526 552.071 164.713 548.128 159.962C544.186 155.21 538.924 151.732 533.007 149.968C529.063 148.792 524.926 148.406 520.832 148.833C516.739 149.26 512.771 150.491 509.155 152.456C505.538 154.42 502.346 157.079 499.761 160.28C497.175 163.481 495.248 167.161 494.089 171.109Z" fill="#020202"/>
</g>
<path d="M427.918 143.613C426.684 143.283 425.529 142.709 424.52 141.926C423.511 141.142 422.669 140.165 422.043 139.052C421.105 137.406 420.272 135.719 419.293 134.095C418.481 132.474 417.178 131.151 415.568 130.317C413.959 129.483 412.127 129.179 410.334 129.45C408.524 129.601 406.805 130.309 405.413 131.476C404.022 132.643 403.026 134.213 402.563 135.969C401.959 137.886 401.48 139.864 400.813 141.76C400.438 142.96 399.83 144.074 399.023 145.038C398.217 146.002 397.227 146.797 396.112 147.378C394.997 147.959 393.778 148.313 392.525 148.422C391.273 148.53 390.011 148.389 388.813 148.008C385.174 146.967 381.542 145.905 377.916 144.822C376.67 144.481 375.503 143.895 374.486 143.098C373.468 142.301 372.62 141.309 371.992 140.179C371.363 139.05 370.966 137.807 370.824 136.522C370.683 135.238 370.799 133.938 371.166 132.699C371.687 130.741 372.354 128.825 372.854 126.867C373.358 125.162 373.321 123.342 372.746 121.659C372.171 119.976 371.088 118.514 369.645 117.473C368.324 116.331 366.682 115.625 364.943 115.454C363.205 115.282 361.456 115.653 359.937 116.515C358.249 117.369 356.624 118.348 354.937 119.223C353.79 119.852 352.53 120.247 351.229 120.384C349.928 120.521 348.613 120.398 347.36 120.022C346.108 119.646 344.942 119.024 343.932 118.193C342.922 117.362 342.088 116.339 341.478 115.182C339.561 111.766 337.672 108.336 335.811 104.893C335.143 103.764 334.714 102.511 334.551 101.21C334.389 99.9089 334.495 98.5883 334.864 97.3303C335.234 96.0722 335.858 94.9036 336.698 93.8969C337.538 92.8903 338.577 92.0672 339.749 91.4789C341.353 90.5832 342.999 89.7709 344.561 88.8752C346.119 88.0834 347.395 86.8306 348.216 85.2876C349.036 83.7445 349.36 81.9862 349.145 80.2521C349.056 78.4717 348.417 76.7626 347.316 75.3601C346.216 73.9576 344.707 72.9306 342.999 72.4205C341.082 71.7748 339.103 71.3165 337.186 70.6708C335.889 70.3265 334.678 69.7159 333.63 68.878C332.582 68.0401 331.719 66.9931 331.098 65.8038C330.477 64.6145 330.11 63.3089 330.021 61.9701C329.932 60.6313 330.123 59.2887 330.582 58.0277C331.582 54.5701 332.589 51.0987 333.603 47.6133C334.228 45.2164 335.765 43.1584 337.886 41.8782C340.007 40.5981 342.544 40.197 344.957 40.7606C347.041 41.1772 348.999 41.8229 350.999 42.4061C352.766 43.0356 354.688 43.0863 356.486 42.5508C358.284 42.0153 359.865 40.9214 360.999 39.4276C362.215 37.9904 362.929 36.1969 363.034 34.3179C363.139 32.439 362.63 30.5769 361.583 29.0131C360.749 27.4718 359.853 25.9513 359.062 24.3892C358.464 23.297 358.088 22.0976 357.956 20.8598C357.823 19.622 357.936 18.3702 358.288 17.1762C358.64 15.9822 359.225 14.8695 360.009 13.9019C360.792 12.9343 361.759 12.1309 362.854 11.5377C366.534 9.42709 370.277 7.42753 374.083 5.53905C376.335 4.43222 378.924 4.22765 381.322 4.96723C383.719 5.70682 385.743 7.33459 386.979 9.51735C387.958 11.2253 388.813 12.9749 389.834 14.6413C390.638 16.1919 391.91 17.4504 393.469 18.2391C395.028 19.0277 396.795 19.3066 398.521 19.0361C400.3 18.9281 402 18.268 403.386 17.1479C404.771 16.0278 405.773 14.5036 406.251 12.7875C406.834 10.9962 407.292 9.14243 407.876 7.35115C408.214 6.0355 408.823 4.80468 409.663 3.73697C410.503 2.66926 411.556 1.78803 412.755 1.14936C413.955 0.510694 415.274 0.12856 416.629 0.027258C417.984 -0.0740444 419.345 0.107708 420.626 0.560954L430.772 3.51865C432.06 3.83724 433.27 4.41483 434.328 5.21617C435.385 6.01751 436.268 7.02582 436.923 8.17961C437.579 9.3334 437.992 10.6085 438.137 11.9271C438.283 13.2457 438.159 14.5803 437.772 15.8493C437.314 17.6198 436.772 19.3694 436.252 21.119C435.702 22.8636 435.691 24.7331 436.22 26.4839C436.749 28.2347 437.794 29.7855 439.217 30.9343C440.64 32.0832 442.377 32.7766 444.2 32.9244C446.024 33.0721 447.849 32.6672 449.439 31.7625C451.002 30.9294 452.523 30.0338 454.085 29.2214C455.219 28.6009 456.464 28.21 457.749 28.071C459.034 27.932 460.334 28.0476 461.575 28.4113C462.815 28.775 463.971 29.3796 464.978 30.1905C465.984 31.0015 466.821 32.0028 467.44 33.1373C469.44 36.6365 471.398 40.1774 473.315 43.76C473.946 44.87 474.345 46.0959 474.49 47.3641C474.635 48.6323 474.522 49.9167 474.158 51.1402C473.794 52.3638 473.187 53.5012 472.373 54.4843C471.558 55.4674 470.554 56.2759 469.419 56.8613C467.732 57.8403 465.961 58.6943 464.252 59.6524C462.796 60.4147 461.597 61.5907 460.807 63.0324C460.018 64.4742 459.672 66.1172 459.815 67.7548C459.794 69.4738 460.305 71.1572 461.278 72.5742C462.252 73.9912 463.64 75.0725 465.252 75.6698C467.336 76.4821 469.419 76.9611 471.503 77.6068C472.721 77.8801 473.868 78.4062 474.871 79.1511C475.873 79.896 476.707 80.843 477.32 81.9308C477.933 83.0187 478.31 84.223 478.428 85.4659C478.545 86.7089 478.401 87.9626 478.003 89.146C476.982 93.1243 475.919 97.0818 474.544 100.977C474.226 102.217 473.649 103.375 472.853 104.377C472.056 105.379 471.057 106.202 469.92 106.792C468.784 107.381 467.536 107.725 466.257 107.8C464.979 107.874 463.7 107.679 462.502 107.225C460.69 106.705 458.898 106.101 457.044 105.663C455.358 105.211 453.575 105.288 451.935 105.884C450.295 106.48 448.878 107.567 447.877 108.996C446.777 110.31 446.109 111.93 445.963 113.637C445.818 115.344 446.202 117.055 447.064 118.536C447.96 120.285 449.002 121.951 449.919 123.68C450.574 124.807 450.992 126.056 451.146 127.351C451.301 128.645 451.188 129.957 450.815 131.207C450.442 132.456 449.817 133.615 448.978 134.613C448.14 135.612 447.106 136.428 445.939 137.011C442.418 139.094 438.856 140.906 435.293 142.822C434.177 143.434 432.95 143.819 431.685 143.955C430.419 144.091 429.139 143.975 427.918 143.613ZM374.458 65.4428C372.723 71.367 372.782 77.6723 374.628 83.5629C376.474 89.4535 380.024 94.6654 384.83 98.5409C389.636 102.416 395.482 104.782 401.632 105.338C407.781 105.895 413.957 104.618 419.381 101.669C424.805 98.7192 429.234 94.2296 432.108 88.7663C434.982 83.3029 436.173 77.1108 435.531 70.9714C434.888 64.832 432.441 59.0204 428.498 54.2702C424.555 49.5199 419.293 46.0438 413.376 44.2807C409.431 43.1052 405.292 42.7205 401.198 43.1487C397.104 43.577 393.134 44.8097 389.518 46.7761C385.902 48.7425 382.71 51.4039 380.125 54.6073C377.541 57.8107 375.615 61.493 374.458 65.4428Z" fill="#464646"/>
<path d="M392.376 317.723C392.99 317.142 393.694 316.663 394.46 316.307C394.843 316.144 395.265 316.091 395.677 316.153C396.089 316.216 396.475 316.392 396.793 316.661C397.049 316.986 397.22 317.368 397.293 317.775C397.366 318.182 397.337 318.6 397.21 318.994C397.002 319.785 396.585 320.535 396.397 321.327C396.295 322.076 396.128 322.814 395.897 323.534C395.27 324.597 394.311 325.424 393.168 325.888C388.339 328.583 384.022 332.109 380.418 336.303C380.084 336.723 379.699 337.101 379.272 337.427C378.544 337.787 377.737 337.959 376.925 337.926C376.113 337.893 375.323 337.657 374.626 337.24C371.563 335.525 368.928 333.14 366.917 330.262C366.658 329.978 366.472 329.635 366.376 329.262C366.336 328.913 366.393 328.56 366.542 328.242C368.626 322.826 374.188 324.68 378.689 323.93C383.715 323.092 388.435 320.952 392.376 317.723Z" fill="#FFBAA8"/>
<path d="M248.227 346.696C248.227 346.696 260.435 361.859 277.186 354.403C293.936 346.946 313.562 322.326 313.562 322.326C313.562 322.326 339.042 331.47 356.209 331.178L367.751 331.574C369.302 330.711 370.53 329.365 371.248 327.742C371.966 326.118 372.135 324.304 371.73 322.576C371.73 322.576 321.166 303.58 316.374 303.08C310.667 302.319 304.862 303.284 299.707 305.85C292.936 309.058 266.81 321.326 266.81 321.326L248.227 346.696Z" fill="#473F47"/>
<path opacity="0.19" d="M248.227 346.696C248.227 346.696 260.435 361.859 277.186 354.403C293.936 346.946 313.562 322.326 313.562 322.326C313.562 322.326 339.042 331.47 356.209 331.178L367.751 331.574C369.302 330.711 370.53 329.365 371.248 327.742C371.966 326.118 372.135 324.304 371.73 322.576C371.73 322.576 321.166 303.58 316.374 303.08C310.667 302.319 304.862 303.284 299.707 305.85C292.936 309.058 266.81 321.326 266.81 321.326L248.227 346.696Z" fill="#020202"/>
<path d="M251.54 331.179C251.54 331.179 247.728 351.279 264.958 357.569C282.187 363.859 315.438 359.131 315.438 359.131C315.438 359.131 327.376 383.438 339.897 395.165L347.897 403.497C349.613 403.961 351.432 403.852 353.08 403.187C354.727 402.521 356.112 401.335 357.023 399.81C357.023 399.81 333.918 350.987 330.834 347.3C327.251 342.758 322.389 339.392 316.876 337.636C309.792 335.24 269.333 320.848 269.333 320.848L251.54 331.179Z" fill="#473F47"/>
<path d="M375.272 410.724C376.11 410.732 376.941 410.88 377.731 411.161C378.125 411.309 378.469 411.566 378.723 411.901C378.978 412.237 379.132 412.637 379.168 413.057C379.127 413.466 378.984 413.858 378.75 414.197C378.517 414.536 378.202 414.81 377.835 414.994C377.147 415.431 376.335 415.681 375.647 416.119C375.05 416.585 374.416 417.003 373.751 417.368C372.557 417.687 371.291 417.607 370.147 417.139C364.822 415.703 359.285 415.223 353.792 415.723C353.26 415.796 352.72 415.796 352.188 415.723C351.411 415.478 350.71 415.04 350.148 414.45C349.587 413.86 349.185 413.137 348.98 412.349C347.962 408.975 347.727 405.413 348.292 401.934C348.303 401.546 348.41 401.167 348.605 400.83C348.827 400.563 349.114 400.355 349.438 400.226C354.688 397.789 357.397 402.976 361.167 405.579C365.339 408.495 370.202 410.269 375.272 410.724Z" fill="#FFBAA8"/>
<path d="M320.521 260.361L312.604 303.289L279.311 311.829L278.832 308.892L309.291 300.477L316.687 259.882L320.521 260.361Z" fill="#464646"/>
<path d="M310.041 287.313L297.708 289.605L278.832 308.892L309.291 300.477L310.041 287.313Z" fill="#464646"/>
<path d="M310.041 287.313L297.708 289.605L278.832 308.892L309.291 300.477L310.041 287.313Z" fill="url(#paint0_linear_1313_247)"/>
<path d="M309.958 288.688L304.979 289.604L293.041 303.289L306.854 300.414L309.958 288.688Z" fill="#464646"/>
<path d="M307.5 301.477L315.104 259.153L336.668 248.988L338.147 249.655L309.292 300.477L307.5 301.477Z" fill="#464646"/>
<path d="M254.31 248.779C255.123 249.738 256.518 250.154 257.143 251.258C257.768 252.362 257.143 254.195 256.873 255.695C256.498 257.778 257.081 259.86 256.727 262.047C256.672 262.498 256.491 262.924 256.206 263.276C255.921 263.533 255.588 263.731 255.227 263.86C253.812 264.408 252.323 264.745 250.81 264.859C250.505 264.839 250.202 264.927 249.956 265.109C249.768 265.344 249.678 265.643 249.706 265.942C249.472 269.826 250.187 273.707 251.789 277.252C252.31 278.419 252.914 279.856 252.164 280.898C251.88 281.24 251.515 281.505 251.102 281.668C248.393 282.814 245.31 281.168 243.039 279.294C241.009 277.611 239.183 275.696 237.601 273.587C237.125 273.013 236.757 272.356 236.518 271.65C236.33 270.708 236.33 269.738 236.518 268.796C236.851 265.576 236.851 262.33 236.518 259.111C236.059 254.945 235.059 250.779 235.997 246.759C236.238 245.376 236.926 244.11 237.955 243.156C239.188 242.311 240.63 241.821 242.122 241.739C245.122 241.364 248.372 241.219 250.831 243.052C251.393 243.697 253.31 247.592 254.31 248.779Z" fill="#FFBAA8"/>
<path d="M236.747 271.858C236.747 271.858 250.019 276.17 254.519 280.502C259.019 284.835 265.686 287.522 264.936 297.29C264.186 307.059 269.394 320.91 269.394 320.91C269.394 320.91 266.852 338.49 254.539 344.864C242.227 351.237 245.539 349.3 245.539 349.3C245.539 349.3 233.476 319.515 229.351 311.35C225.226 303.185 224.601 272.462 236.747 271.858Z" fill="white"/>
<path opacity="0.19" d="M258.833 338.364C259.072 339.329 258.992 340.345 258.603 341.26C258.16 341.942 257.578 342.524 256.895 342.968C255.343 344.241 253.599 345.261 251.728 345.988C250.791 346.348 249.782 346.477 248.785 346.365C247.787 346.252 246.832 345.902 245.999 345.342C245.147 344.597 244.44 343.7 243.915 342.697C239.017 335.123 234.964 327.035 231.832 318.577C228.703 310.08 227.785 300.927 229.165 291.979L237.353 301.206C240.681 305.242 244.455 308.89 248.603 312.078C252.787 315.263 257.93 316.931 263.187 316.807C269.208 316.39 269.687 320.118 267.124 325.138C264.562 330.158 261.666 327.596 257.395 326.867C255.332 330.158 258.228 334.886 258.833 338.364Z" fill="#020202"/>
<path d="M245.393 270.025C245.927 272.063 246.131 274.172 245.998 276.274C245.973 277.124 245.774 277.961 245.414 278.732C244.96 279.46 244.365 280.09 243.664 280.586C241.892 281.935 239.969 283.074 237.935 283.981C236.012 284.685 234.14 285.52 232.331 286.48L232.185 286.584C229.494 288.25 227.508 290.843 226.601 293.874C226.393 294.583 224.726 292.541 224.664 292.437C224.195 291.548 223.785 290.63 223.434 289.688C222.707 287.359 222.246 284.955 222.059 282.523C221.184 277.357 214.747 268.484 217.893 263.443C218.976 261.694 220.893 260.652 222.247 259.111C225.185 255.674 224.83 250.613 226.414 246.385C227.087 244.512 228.126 242.793 229.471 241.327C230.816 239.86 232.44 238.677 234.247 237.845C239.227 235.595 248.831 235.637 249.31 242.906C249.539 246.135 247.519 248.218 245.852 250.675C243.981 253.129 242.841 256.06 242.56 259.132C242.456 262.86 244.456 266.359 245.393 270.025Z" fill="#FF681C"/>
<path d="M244.143 287.168C244.143 287.168 255.31 306.747 257.081 307.996C258.851 309.246 243.997 321.223 243.997 321.223C243.997 321.223 229.955 302.706 229.017 293.812C228.08 284.918 236.747 279.878 244.143 287.168Z" fill="white"/>
<path d="M243.539 318.41C243.539 318.41 245.206 325.034 253.435 323.534L289.999 316.973C292.29 315.265 295.666 314.494 297.186 312.078C297.916 310.933 298.145 309.537 298.832 308.35C299.815 306.86 301.29 305.761 302.999 305.246C304.66 304.709 306.382 304.38 308.124 304.267C308.38 303.815 308.467 303.287 308.372 302.777C308.277 302.267 308.005 301.806 307.603 301.476C306.757 300.852 305.739 300.503 304.687 300.477C300.3 300.096 295.941 301.466 292.561 304.288C291.618 305.245 290.545 306.066 289.374 306.725C288.483 307.059 287.551 307.269 286.603 307.35C275.936 308.579 265.144 308.058 254.498 309.329C251.978 309.526 249.526 310.235 247.289 311.412C246.155 312.199 245.224 313.243 244.572 314.46C243.92 315.676 243.566 317.03 243.539 318.41Z" fill="#FFBAA8"/>
<path opacity="0.1" d="M231.748 254.778C231.602 258.611 233.102 262.401 232.665 266.234C232.163 268.783 231.466 271.29 230.581 273.732C229.727 277.065 229.331 281.46 231.165 284.542C231.563 285.21 231.911 285.906 232.206 286.625C229.516 288.291 227.53 290.885 226.623 293.915C226.414 294.624 224.748 292.582 224.685 292.478C224.217 291.589 223.806 290.671 223.456 289.729C222.728 287.4 222.267 284.996 222.081 282.564C221.206 277.398 214.768 268.525 217.914 263.485C218.998 261.735 220.914 260.693 222.268 259.152C222.734 258.804 223.173 258.421 223.581 258.007C225.255 255.884 226.74 253.619 228.019 251.237C230.591 247.384 234.385 244.508 238.79 243.072C236.762 244.315 235.064 246.027 233.838 248.065C232.613 250.102 231.896 252.405 231.748 254.778Z" fill="#020202"/>
<path d="M338.146 249.654L316.687 259.881L309.291 300.477L312.604 303.289L329.333 291.333L338.146 249.654Z" fill="#464646"/>
<path d="M338.146 249.654L316.687 259.881L309.291 300.477L312.604 303.289L329.333 291.333L338.146 249.654Z" fill="url(#paint1_linear_1313_247)"/>
<path d="M294.354 294.103L300.125 293.479L294.791 299.769L288.791 300.019L294.354 294.103Z" fill="#464646"/>
<defs>
<linearGradient id="paint0_linear_1313_247" x1="302.083" y1="278.336" x2="290.15" y2="317.538" gradientUnits="userSpaceOnUse">
<stop offset="0.01"/>
<stop offset="0.13" stop-opacity="0.69"/>
<stop offset="0.25" stop-opacity="0.32"/>
<stop offset="1" stop-opacity="0"/>
</linearGradient>
<linearGradient id="paint1_linear_1313_247" x1="4340.33" y1="8836.5" x2="4200.37" y2="7039.44" gradientUnits="userSpaceOnUse">
<stop offset="0.01"/>
<stop offset="0.13" stop-opacity="0.69"/>
<stop offset="0.25" stop-opacity="0.32"/>
<stop offset="1" stop-opacity="0"/>
</linearGradient>
</defs>
</svg>
