<svg width="525" height="312" viewBox="0 0 525 312" fill="none" xmlns="http://www.w3.org/2000/svg">
<path d="M525 288.153C522.94 293.752 520.405 299.124 517.427 304.198C516.031 306.617 514.499 308.938 512.84 311.148H0C0.461474 310.751 3.17032 308.336 7.38358 304.198C10.4062 301.234 14.1995 297.38 18.4589 292.744L72.5113 280.44C73.2097 280.282 73.921 280.202 74.6341 280.201L132.258 280.11H132.318L160.86 280.069H160.925L185.014 280.039H200.783H216.934L283.119 279.937H283.225H288.352H297.36H308.606H311.596L322.962 279.795H326.719L359.779 279.744H370.337H375.413L413.6 279.688H424.971L461.141 279.632L491.672 279.591C492.523 279.592 493.37 279.703 494.197 279.922L525 288.153Z" fill="#2F2E41"/>
<path opacity="0.4" d="M7.38358 304.197H517.427C516.031 306.616 514.499 308.937 512.84 311.147H0C0.452244 310.725 3.16109 308.31 7.38358 304.197Z" fill="#2F2E41"/>
<path d="M338.293 146.084L337.268 146.303L290.955 156.105C277.503 158.952 263.857 161.814 250.193 160.721C240.294 159.928 231.046 156.695 221.535 153.858C216.159 152.251 210.46 151.611 208.637 144.981C206.122 135.83 210.215 122.281 211.18 113.008C212.103 103.907 212.647 94.5781 211.004 85.5845C210.64 83.5634 210.159 81.5699 209.565 79.6159C207.917 74.2319 205.328 68.6344 206.727 63.169C207.83 58.8324 211.194 55.7362 214.341 52.8688C220.506 47.2764 226.801 41.0078 229.247 32.6242C230.446 28.557 230.672 24.1796 231.965 20.1429C234.415 12.466 240.571 6.72617 247.419 3.68592C254.268 0.645671 261.799 0 269.187 0C275.711 0.0003998 282.227 0.477651 288.694 1.42861C295.745 2.44542 302.861 4.11806 309.058 7.97175C315.256 11.8254 320.48 18.1398 321.924 25.837C323.969 36.7219 318.292 48.3135 321.338 58.8832C322.87 64.2265 326.414 68.5428 328.874 73.4337C330.88 77.5248 332.117 82.0188 332.514 86.648C332.91 91.2771 332.457 95.9468 331.181 100.379C328.237 110.43 321.029 120.598 324.721 130.344C327.07 136.542 333.069 139.851 337.25 144.763C337.622 145.203 337.97 145.644 338.293 146.084Z" fill="#2F2E41"/>
<path opacity="0.1" d="M337.269 144.803V146.303L290.955 156.105C277.503 158.952 263.858 161.814 250.193 160.721C240.295 159.928 231.047 156.695 221.536 153.858C216.16 152.251 210.46 151.61 208.638 144.981C206.123 135.83 210.216 122.281 211.18 113.007C212.103 103.907 226.312 70.683 224.669 61.6893L309.58 65.7566C310.153 70.7236 332.594 95.6557 331.196 100.419C328.252 110.471 321.043 120.639 324.735 130.385C327.089 136.582 333.088 139.892 337.269 144.803Z" fill="black"/>
<path d="M250.511 119.647C251.014 122.794 251.282 126.256 249.824 129.002C247.881 132.682 243.645 133.857 239.856 134.691L226.704 137.589C225.809 137.787 224.858 138.011 224.189 138.687C223.4 139.465 223.132 140.695 223.017 141.854C222.486 147.101 224.171 152.271 225.707 157.269C228.813 167.391 231.42 177.727 235.347 187.493C239.275 197.26 244.665 206.584 252.357 213.112C260.05 219.64 270.23 223.117 279.649 220.565C287.854 218.343 294.582 211.963 300.383 205.196C305.168 199.603 309.645 193.503 311.966 186.248C313.567 181.265 314.089 175.958 314.592 170.701C315.37 162.641 316.148 154.581 316.927 146.521C317.291 142.739 317.531 138.483 315.302 135.58C314.324 134.304 312.995 133.455 311.638 132.667C306.59 129.713 301.274 127.273 296.576 123.714C291.878 120.155 287.711 115.254 286.285 109.174C285.431 105.524 285.583 101.548 284.13 98.1467C282.505 94.3336 279.054 91.751 275.362 90.6172C271.67 89.4835 267.775 89.636 263.973 90.1088C260.17 90.5816 245.514 91.7916 243.94 96.5147C243.096 99.0567 246.598 104.512 247.429 107.013C248.796 111.115 249.828 115.343 250.511 119.647Z" fill="#2C2B3C"/>
<path opacity="0.1" d="M250.511 119.647C251.014 122.794 251.282 126.256 249.824 129.002C247.881 132.682 243.645 133.857 239.856 134.691L226.704 137.589C225.809 137.787 224.858 138.011 224.189 138.687C223.4 139.465 223.132 140.695 223.017 141.854C222.486 147.101 224.171 152.271 225.707 157.269C228.813 167.391 231.42 177.727 235.347 187.493C239.275 197.26 244.665 206.584 252.357 213.112C260.05 219.64 270.23 223.117 279.649 220.565C287.854 218.343 294.582 211.963 300.383 205.196C305.168 199.603 309.645 193.503 311.966 186.248C313.567 181.265 314.089 175.958 314.592 170.701C315.37 162.641 316.148 154.581 316.927 146.521C317.291 142.739 317.531 138.483 315.302 135.58C314.324 134.304 312.995 133.455 311.638 132.667C306.59 129.713 301.274 127.273 296.576 123.714C291.878 120.155 287.711 115.254 286.285 109.174C285.431 105.524 285.583 101.548 284.13 98.1467C282.505 94.3336 279.054 91.751 275.362 90.6172C271.67 89.4835 267.775 89.636 263.973 90.1088C260.17 90.5816 245.514 91.7916 243.94 96.5147C243.096 99.0567 246.598 104.512 247.429 107.013C248.796 111.115 249.828 115.343 250.511 119.647Z" fill="black"/>
<path d="M282.163 174.931L289.874 156.944C293.487 148.514 297.179 139.658 296.796 130.349C296.722 128.499 296.704 126.185 298.181 125.346C298.822 125.058 299.52 124.96 300.206 125.062C308.325 125.519 316.336 127.304 323.977 130.359C325.458 130.949 326.976 131.63 328.015 132.932C329.053 134.233 329.473 135.982 329.828 137.66C331.039 143.333 331.922 149.084 332.473 154.88C333.857 169.227 333.169 183.701 332.473 198.094L330.424 242.035C330.435 242.658 330.32 243.277 330.087 243.845C329.579 244.862 328.435 245.202 327.406 245.396C323.442 246.143 319.39 245.99 315.375 245.823C287.133 244.643 258.743 242.833 230.685 246.606C230.812 242.033 230.745 237.458 230.487 232.879C229.375 213.107 224.723 193.818 220.155 174.662C217.492 163.477 214.912 151.275 219.199 140.736C219.83 139.071 220.736 137.551 221.871 136.252C223.694 134.284 226.181 133.247 228.646 132.505C232.896 131.231 237.299 130.682 241.701 130.878L270.797 200.666C272.126 203.859 273.219 207.22 274.544 210.372C275.734 204.927 274.304 198.546 275.734 192.644C277.276 186.517 279.703 180.656 282.163 174.931Z" fill="#FFB163"/>
<path d="M279.122 222.95C284.328 223.311 289.386 220.372 292.967 216.218C296.548 212.065 298.91 206.798 300.909 201.475C303.781 193.887 306.064 186.045 307.734 178.032C309.118 171.22 310.101 164.168 309.146 157.264C307.826 147.731 302.93 139.068 302.095 129.47C301.951 127.792 302.044 125.829 303.267 124.818C304.023 124.192 305.02 124.106 305.962 124.045C314.665 123.476 324.227 123.582 330.969 129.668C333.022 131.519 334.688 133.832 336.696 135.738C341.477 140.314 348.233 142.642 351.301 148.718C352.372 150.833 352.884 153.227 353.632 155.505C355.395 160.894 358.445 165.632 361.477 170.294C358.537 183.96 355.159 197.636 352.22 211.302C350.498 219.32 348.763 227.368 346.059 235.045C344.287 240.078 342.058 245.213 342.603 250.602C342.82 252.722 343.461 254.75 344.019 256.794C345.977 263.967 346.894 271.436 346.737 278.925L215.061 279.281C221.369 269.316 223.219 257.094 222.578 244.969C222.269 239.157 221.078 233.311 218.425 228.283C214.244 220.403 206.888 215.268 199.638 210.87C194.562 207.82 189.112 224.983 183.625 223.016C184.511 216.112 184.917 189.461 184.548 182.511C184.428 180.234 184.243 177.895 184.88 175.719C185.314 174.229 186.112 172.897 186.652 171.448C188.817 165.648 186.754 158.23 190.252 153.293C192.67 149.862 196.911 148.886 200.358 146.771C203.898 144.595 206.634 141.178 209.717 138.26C215.765 132.601 223.156 128.966 231.018 127.782C233.312 131.767 234.706 136.3 235.084 141C235.319 143.954 235.149 146.949 235.522 149.887C236.035 153.868 237.53 157.605 239.011 161.285C245.181 176.634 251.374 192.029 259.191 206.442C261.402 210.509 263.806 214.576 267.009 217.744C270.211 220.911 274.821 223.173 279.122 222.95Z" fill="#FAE3E8"/>
<path opacity="0.1" d="M279.122 222.95C284.328 223.311 289.386 220.372 292.967 216.218C296.548 212.065 298.91 206.798 300.909 201.475C303.781 193.887 306.064 186.045 307.734 178.032C309.118 171.22 310.101 164.168 309.146 157.264C307.826 147.731 302.93 139.068 302.095 129.47C301.951 127.792 302.044 125.829 303.267 124.818C304.023 124.192 305.02 124.106 305.962 124.045C314.665 123.476 324.227 123.582 330.969 129.668C333.022 131.519 334.688 133.832 336.696 135.738C341.477 140.314 348.233 142.642 351.301 148.718C352.372 150.833 352.884 153.227 353.632 155.505C355.395 160.894 358.445 165.632 361.477 170.294C358.537 183.96 355.159 197.636 352.22 211.302C350.498 219.32 348.763 227.368 346.059 235.045C344.287 240.078 342.058 245.213 342.603 250.602C342.82 252.722 343.461 254.75 344.019 256.794C345.977 263.967 346.894 271.436 346.737 278.925L215.061 279.281C221.369 269.316 223.219 257.094 222.578 244.969C222.269 239.157 221.078 233.311 218.425 228.283C214.244 220.403 206.888 215.268 199.638 210.87C194.562 207.82 189.112 224.983 183.625 223.016C184.511 216.112 184.917 189.461 184.548 182.511C184.428 180.234 184.243 177.895 184.88 175.719C185.314 174.229 186.112 172.897 186.652 171.448C188.817 165.648 186.754 158.23 190.252 153.293C192.67 149.862 196.911 148.886 200.358 146.771C203.898 144.595 206.634 141.178 209.717 138.26C215.765 132.601 223.156 128.966 231.018 127.782C233.312 131.767 234.706 136.3 235.084 141C235.319 143.954 235.149 146.949 235.522 149.887C236.035 153.868 237.53 157.605 239.011 161.285C245.181 176.634 251.374 192.029 259.191 206.442C261.402 210.509 263.806 214.576 267.009 217.744C270.211 220.911 274.821 223.173 279.122 222.95Z" fill="#FAE3E8"/>
<path d="M272.159 118.493C294.006 118.493 311.717 98.9815 311.717 74.9128C311.717 50.8441 294.006 31.3325 272.159 31.3325C250.312 31.3325 232.602 50.8441 232.602 74.9128C232.602 98.9815 250.312 118.493 272.159 118.493Z" fill="#FFE1E2"/>
<path d="M251.401 132.988C252.486 121.711 248.231 110.679 243.413 100.659C241.106 95.8694 238.632 91.0955 237.474 85.8335C236.316 80.5716 236.648 74.6131 239.611 70.2866C242.13 66.6057 246.127 64.6179 249.823 62.4572C260.257 56.3564 269.796 47.3881 274.383 35.3949C271.789 36.9506 272.463 41.5923 274.752 43.6412C277.041 45.6901 280.16 46.0866 282.975 47.0627C293.238 50.6216 299.395 61.8979 304.332 72.432C305.14 74.1504 305.961 75.9654 305.952 77.9025C305.943 79.8395 305.14 81.5579 304.3 83.2051C301.863 87.9841 298.882 92.575 297.775 97.9183C296.506 104.019 297.844 110.435 299.584 116.419C301.43 122.784 303.88 129.2 308.31 133.766C312.74 138.331 319.612 140.599 325.062 137.65C319.621 127.345 313.986 115.829 316.109 104.146C317.134 98.5538 319.889 93.4697 321.061 87.9078C323.294 77.2975 319.575 66.382 315.925 56.2547L305.015 26.0301C303.349 21.4088 301.453 16.4773 297.632 13.859C295.047 12.0948 291.919 11.6373 288.891 11.317C279.145 10.3612 269.048 10.6764 259.975 14.6724C243.446 21.9477 233.081 39.8841 224.857 57.2816C222.393 62.4928 219.961 68.0293 220.063 73.9064C220.118 77.1297 220.935 80.2665 221.599 83.4084C224.304 96.1999 224.451 109.454 224.59 122.586C224.696 132.662 224.221 142.159 220.22 151.336C225.702 152.536 233.653 155.774 239.08 153.405C246.154 150.324 250.511 140.833 251.401 132.988Z" fill="#2F2E41"/>
<g opacity="0.1">
<path opacity="0.1" d="M224.567 122.372C224.585 120.938 224.585 119.491 224.567 118.03C224.428 104.898 224.281 91.6443 221.576 78.8528C220.972 76.3636 220.501 73.8376 220.164 71.2878C220.069 72.1633 220.028 73.0448 220.04 73.9264C220.095 77.1497 220.912 80.2865 221.576 83.4285C224.267 96.1436 224.433 109.316 224.567 122.372Z" fill="black"/>
<path opacity="0.1" d="M321.061 87.9079C321.667 84.9374 321.869 81.8842 321.661 78.8482C321.571 80.3582 321.37 81.8577 321.061 83.3323C319.889 88.9247 317.134 93.963 316.11 99.5707C315.668 102.044 315.544 104.573 315.74 107.085C315.814 106.099 315.937 105.118 316.11 104.146C317.134 98.5386 319.889 93.48 321.061 87.9079Z" fill="black"/>
<path opacity="0.1" d="M305.592 75.5687C305.818 74.8466 305.939 74.0901 305.952 73.3266C305.952 71.3896 305.14 69.5746 304.333 67.8562C299.395 57.3221 293.257 46.0559 282.976 42.4869C280.161 41.5108 277.046 41.1142 274.752 39.0654C274.162 38.5054 273.679 37.8212 273.332 37.053C272.985 36.2847 272.78 35.4478 272.731 34.5914C267.728 44.7086 259.136 52.4465 249.823 57.8814C246.131 60.0421 242.131 62.0299 239.611 65.7108C237.244 69.1679 236.556 73.6673 236.967 78.0192C237.199 75.2262 238.113 72.5544 239.611 70.2864C242.131 66.6055 246.127 64.6177 249.823 62.457C259.136 57.0222 267.728 49.2843 272.731 39.1671C272.78 40.0235 272.985 40.8603 273.332 41.6286C273.679 42.3968 274.162 43.081 274.752 43.641C277.059 45.6746 280.161 46.0864 282.976 47.0625C293.239 50.6214 299.395 61.8977 304.333 72.4318C304.833 73.4358 305.255 74.4853 305.592 75.5687Z" fill="black"/>
<path opacity="0.1" d="M308.311 129.19C303.881 124.614 301.439 118.208 299.584 111.843C298.471 108.267 297.728 104.565 297.369 100.806C296.94 106.027 298.117 111.37 299.584 116.419C301.43 122.784 303.881 129.2 308.311 133.765C312.741 138.331 319.612 140.598 325.062 137.649C324.407 136.414 323.756 135.158 323.11 133.892C318.048 135.463 312.233 133.226 308.311 129.19Z" fill="black"/>
<path opacity="0.1" d="M251.402 128.412C250.511 136.257 246.155 145.748 239.062 148.85C234.138 151 227.128 148.529 221.78 147.162C221.32 148.589 220.793 149.989 220.202 151.356C225.684 152.556 233.635 155.794 239.062 153.425C246.155 150.324 250.511 140.832 251.402 132.988C251.585 131.025 251.619 129.049 251.503 127.08C251.476 127.522 251.434 127.97 251.402 128.412Z" fill="black"/>
</g>
<path d="M307.319 254.466C300.189 253.22 292.953 250.815 285.884 252.432C281.786 253.367 278.038 255.615 274.633 258.329C276.506 259.982 278.694 261.456 279.884 263.754C280.623 265.344 281.178 267.03 281.536 268.772C282.284 271.822 283.036 274.934 283.152 278.106C283.267 281.279 282.69 284.583 280.973 287.141C289.963 288.117 298.676 285.676 307.444 283.292C308.446 283.098 309.401 282.674 310.245 282.046C311.629 280.847 312.035 278.711 312.044 276.764C312.044 273.287 311.158 269.896 310.259 266.56C309.188 262.559 308.394 258.441 307.319 254.466Z" fill="#FFB163"/>
<path d="M355.459 168.713C358.999 169.221 361.745 172.368 363.766 175.602C369.437 184.601 371.883 195.511 374.606 206.05C377.99 219.157 381.97 232.057 386.544 244.75C387.529 247.681 388.727 250.52 390.125 253.24C391.265 255.34 392.65 257.358 393.153 259.742C394.371 265.508 390.056 270.927 385.557 274.14C383.159 275.921 380.54 277.312 377.781 278.269C375.095 279.153 372.294 279.489 369.511 279.824L343.895 282.875C332.104 284.288 320.207 285.701 308.412 284.339C307.669 281.492 309.127 279.479 309.021 276.515C308.947 274.395 308.098 272.422 307.342 270.47C305.946 266.993 305.024 263.308 304.605 259.534C304.471 258.146 304.425 256.723 303.945 255.431C303.465 254.14 302.436 252.981 301.176 252.889C308.098 252.132 313.355 250.693 320.277 249.93C322.847 249.646 325.519 249.325 327.711 247.82C330.429 245.955 331.952 242.589 333.161 239.325C336.156 231.241 338.085 222.334 336.511 213.773C335.219 206.752 331.615 200.214 331.634 193.05C331.634 188.785 332.953 184.651 334.513 180.747C336.165 176.619 338.32 172.399 341.947 170.304C345.575 168.21 351.366 168.103 355.459 168.713Z" fill="#FAE3E8"/>
<path opacity="0.08" d="M355.459 168.713C358.999 169.221 361.745 172.368 363.766 175.602C369.437 184.601 371.883 195.511 374.606 206.05C377.99 219.157 381.97 232.057 386.544 244.75C387.529 247.681 388.727 250.52 390.125 253.24C391.265 255.34 392.65 257.358 393.153 259.742C394.371 265.508 390.056 270.927 385.557 274.14C383.159 275.921 380.54 277.312 377.781 278.269C375.095 279.153 372.294 279.489 369.511 279.824L343.895 282.875C332.104 284.288 320.207 285.701 308.412 284.339C307.669 281.492 309.127 279.479 309.021 276.515C308.947 274.395 308.098 272.422 307.342 270.47C305.946 266.993 305.024 263.308 304.605 259.534C304.471 258.146 304.425 256.723 303.945 255.431C303.465 254.14 302.436 252.981 301.176 252.889C308.098 252.132 313.355 250.693 320.277 249.93C322.847 249.646 325.519 249.325 327.711 247.82C330.429 245.955 331.952 242.589 333.161 239.325C336.156 231.241 338.085 222.334 336.511 213.773C335.219 206.752 331.615 200.214 331.634 193.05C331.634 188.785 332.953 184.651 334.513 180.747C336.165 176.619 338.32 172.399 341.947 170.304C345.575 168.21 351.366 168.103 355.459 168.713Z" fill="#FAE3E8"/>
<path d="M195.047 162.109C196.722 157.727 198.425 153.202 198.471 148.449C198.522 143.309 196.626 138.428 195.177 133.547C193.385 127.576 192.192 121.406 191.619 115.148C191.5 114.549 191.582 113.922 191.849 113.384C192.232 112.789 192.971 112.667 193.621 112.51C196.815 111.706 199.228 108.864 201.222 106.002C204.315 101.582 206.926 96.7764 209.002 91.6854C210.53 87.9385 212.597 83.3679 216.326 83.3324C214.825 91.1004 212.964 98.7788 210.751 106.338C214.651 105.239 218.356 103.643 222.256 102.545C223.019 102.279 223.819 102.162 224.619 102.199C226.954 102.469 228.384 105.951 227.027 108.061C228.933 110.522 232.104 111.183 234.596 112.871C237.088 114.558 238.878 118.738 236.663 120.858C236.229 121.269 235.68 121.559 235.366 122.088C234.296 123.908 236.917 125.997 236.7 128.153C236.525 129.917 234.471 130.741 232.916 130.273C231.361 129.805 230.147 128.524 228.763 127.584C227.378 126.643 225.569 126.059 224.226 127.035C223.866 131.819 223.479 136.694 221.601 141.051C220.913 142.643 220.032 144.132 219.478 145.785C218.948 147.586 218.62 149.452 218.499 151.341L216.824 168.215C208.832 169.979 201.665 167.341 195.047 162.109Z" fill="#FCD3D4"/>
<path d="M193.095 177.234L191.623 166.258C191.482 165.364 191.403 164.46 191.387 163.553C191.387 161.011 192.402 158.586 193.385 156.273C201.53 160.462 210.335 161.952 219.32 161.957C220.506 161.957 221.858 161.835 222.597 160.813C224.124 162.75 224.17 165.866 223.52 168.327C222.869 170.788 221.618 173.004 220.788 175.404C220.368 176.619 220.026 177.946 219.223 178.881C217.977 180.361 215.956 180.615 214.119 180.605C212.187 180.591 210.26 180.389 208.36 180C203.441 178.993 198.014 176.263 193.095 177.234Z" fill="#FFB163"/>
<path d="M223.473 176.787C217.151 175.993 210.871 174.875 204.632 173.431C201.572 172.724 198.485 171.936 195.365 172.074C193.335 172.165 191.152 172.613 189.366 171.504C191.106 178.027 191.212 184.901 189.131 191.301C187.898 195.114 186.02 198.668 185.116 202.593C183.233 210.804 185.817 219.757 183.464 227.82C183.215 228.874 182.726 229.84 182.042 230.626C181.323 231.353 180.34 231.73 179.675 232.518C178.697 233.677 178.637 235.421 178.632 237.002L178.591 251.008C178.563 259.926 178.669 269.382 182.942 276.937C187.815 285.58 198.074 290.059 207.003 287.43C209.378 286.761 211.602 285.562 213.538 283.907C216.639 281.192 218.614 277.267 220.548 273.444C222.855 268.868 225.162 264.191 225.905 259.041C226.432 255.396 226.136 251.674 225.758 248.009C223.672 227.673 219.145 207.509 220.119 187.097C220.264 183.365 221.434 179.77 223.473 176.787Z" fill="#FAE3E8"/>
<path d="M249.897 261.181C246.69 261.385 243.46 261.588 240.266 261.181C237.959 260.876 235.707 260.251 233.418 259.824C227.167 258.712 220.772 259.103 214.671 260.97C208.57 262.838 202.908 266.137 198.074 270.643C196.302 272.31 194.511 274.868 195.49 277.201C196.542 279.713 199.758 279.642 202.236 279.174C199.561 280.581 197.199 282.617 195.314 285.137C194.622 286.068 193.967 287.171 194.101 288.376C194.382 290.892 197.483 291.35 199.777 291.131C199.029 292.016 199.532 293.582 200.483 294.182C201.433 294.782 202.615 294.66 203.69 294.441C206.067 293.962 208.364 293.086 210.501 291.843C210.067 293.089 210.82 294.548 211.886 295.168C212.952 295.788 214.248 295.743 215.444 295.529C221.083 294.512 225.79 290.191 231.291 288.493C240.086 285.783 249.288 290.104 258.43 290.41C261.291 290.506 264.226 290.186 266.833 288.884C270.031 287.283 272.611 284.278 275.989 283.211C279.741 282.031 284.046 283.388 287.48 281.35C289.976 279.87 287.724 268.467 287.087 266.271C285.92 262.254 284.748 259.59 280.858 259.183C271.014 258.121 259.814 260.551 249.897 261.181Z" fill="#FCD3D4"/>
<path d="M274.452 258.07C274.452 258.07 289.353 271.965 280.755 287.125L297.368 280.806V267.541C297.368 266.911 291.06 257.44 291.06 257.44L283.607 256.174L274.452 258.07Z" fill="#FFB163"/>
<path d="M118.433 257.211H124.021C127.081 257.211 130.015 258.55 132.179 260.934C134.343 263.318 135.558 266.55 135.558 269.921V288.788H106.896V269.921C106.896 268.252 107.194 266.599 107.774 265.057C108.354 263.515 109.204 262.114 110.275 260.934C111.346 259.754 112.618 258.817 114.018 258.179C115.418 257.54 116.918 257.211 118.433 257.211Z" fill="#3F3D56"/>
<path opacity="0.1" d="M118.433 257.211H124.021C127.081 257.211 130.015 258.55 132.179 260.934C134.343 263.318 135.558 266.55 135.558 269.921V288.788H106.896V269.921C106.896 268.252 107.194 266.599 107.774 265.057C108.354 263.515 109.204 262.114 110.275 260.934C111.346 259.754 112.618 258.817 114.018 258.179C115.418 257.54 116.918 257.211 118.433 257.211Z" fill="black"/>
<path d="M120.08 264.156C121.347 264.156 122.374 263.024 122.374 261.629C122.374 260.233 121.347 259.102 120.08 259.102C118.813 259.102 117.787 260.233 117.787 261.629C117.787 263.024 118.813 264.156 120.08 264.156Z" fill="#3F3D56"/>
<path d="M120.08 260.998C121.347 260.998 122.374 259.867 122.374 258.472C122.374 257.076 121.347 255.945 120.08 255.945C118.813 255.945 117.787 257.076 117.787 258.472C117.787 259.867 118.813 260.998 120.08 260.998Z" fill="#3F3D56"/>
<path d="M120.08 257.842C121.347 257.842 122.374 256.71 122.374 255.315C122.374 253.919 121.347 252.788 120.08 252.788C118.813 252.788 117.787 253.919 117.787 255.315C117.787 256.71 118.813 257.842 120.08 257.842Z" fill="#3F3D56"/>
<path d="M120.08 254.684C121.347 254.684 122.374 253.553 122.374 252.157C122.374 250.762 121.347 249.63 120.08 249.63C118.813 249.63 117.787 250.762 117.787 252.157C117.787 253.553 118.813 254.684 120.08 254.684Z" fill="#3F3D56"/>
<path d="M120.08 251.527C121.347 251.527 122.374 250.396 122.374 249C122.374 247.605 121.347 246.474 120.08 246.474C118.813 246.474 117.787 247.605 117.787 249C117.787 250.396 118.813 251.527 120.08 251.527Z" fill="#3F3D56"/>
<path d="M120.08 248.369C121.347 248.369 122.374 247.238 122.374 245.843C122.374 244.447 121.347 243.316 120.08 243.316C118.813 243.316 117.787 244.447 117.787 245.843C117.787 247.238 118.813 248.369 120.08 248.369Z" fill="#3F3D56"/>
<path d="M120.08 245.208C121.347 245.208 122.374 244.076 122.374 242.681C122.374 241.285 121.347 240.154 120.08 240.154C118.813 240.154 117.787 241.285 117.787 242.681C117.787 244.076 118.813 245.208 120.08 245.208Z" fill="#3F3D56"/>
<path d="M123.523 246.473C124.79 246.473 125.817 245.342 125.817 243.946C125.817 242.551 124.79 241.419 123.523 241.419C122.256 241.419 121.229 242.551 121.229 243.946C121.229 245.342 122.256 246.473 123.523 246.473Z" fill="#3F3D56"/>
<path d="M125.817 245.208C127.084 245.208 128.11 244.076 128.11 242.681C128.11 241.285 127.084 240.154 125.817 240.154C124.55 240.154 123.523 241.285 123.523 242.681C123.523 244.076 124.55 245.208 125.817 245.208Z" fill="#3F3D56"/>
<path d="M128.11 243.946C129.377 243.946 130.404 242.815 130.404 241.419C130.404 240.024 129.377 238.893 128.11 238.893C126.844 238.893 125.817 240.024 125.817 241.419C125.817 242.815 126.844 243.946 128.11 243.946Z" fill="#3F3D56"/>
<path d="M120.08 242.05C121.347 242.05 122.374 240.919 122.374 239.524C122.374 238.128 121.347 236.997 120.08 236.997C118.813 236.997 117.787 238.128 117.787 239.524C117.787 240.919 118.813 242.05 120.08 242.05Z" fill="#3F3D56"/>
<path d="M120.08 238.893C121.347 238.893 122.374 237.762 122.374 236.367C122.374 234.971 121.347 233.84 120.08 233.84C118.813 233.84 117.787 234.971 117.787 236.367C117.787 237.762 118.813 238.893 120.08 238.893Z" fill="#3F3D56"/>
<path d="M120.08 235.735C121.347 235.735 122.374 234.604 122.374 233.209C122.374 231.813 121.347 230.682 120.08 230.682C118.813 230.682 117.787 231.813 117.787 233.209C117.787 234.604 118.813 235.735 120.08 235.735Z" fill="#3F3D56"/>
<path d="M120.08 232.579C121.347 232.579 122.374 231.447 122.374 230.052C122.374 228.656 121.347 227.525 120.08 227.525C118.813 227.525 117.787 228.656 117.787 230.052C117.787 231.447 118.813 232.579 120.08 232.579Z" fill="#3F3D56"/>
<path d="M129.605 221.903C129.033 221.994 128.461 222.06 127.889 222.101C128.421 221.589 128.915 221.032 129.365 220.433C129.048 219.372 128.58 218.371 127.981 217.469C127.413 217.821 126.784 218.039 126.135 218.11C125.567 218.201 124.995 218.268 124.423 218.313C125.175 217.637 125.877 216.62 126.615 215.771C124.961 214.119 122.841 213.144 120.612 213.009C118.383 212.873 116.179 213.586 114.37 215.027C112.561 216.469 111.256 218.551 110.675 220.926C110.093 223.301 110.271 225.824 111.176 228.072C112.082 230.32 113.662 232.157 115.651 233.275C117.64 234.393 119.917 234.724 122.101 234.212C124.285 233.701 126.243 232.378 127.647 230.466C129.051 228.553 129.816 226.167 129.813 223.707C129.813 223.089 129.764 222.471 129.665 221.862L129.605 221.903Z" fill="#9A94FF"/>
<path d="M137.252 234.454C136.668 234.851 136.007 235.093 135.324 235.161C134.756 235.253 134.184 235.324 133.611 235.364C134.22 234.763 134.787 234.114 135.31 233.422C133.927 233.025 132.459 233.21 131.194 233.942C129.929 234.673 128.956 235.899 128.467 237.378C127.978 238.857 128.008 240.484 128.55 241.941C129.092 243.398 130.107 244.579 131.398 245.255C132.689 245.931 134.162 246.051 135.529 245.594C136.897 245.137 138.06 244.134 138.792 242.782C139.524 241.429 139.772 239.825 139.487 238.282C139.202 236.739 138.406 235.369 137.252 234.439V234.454Z" fill="#9A94FF"/>
<path d="M116.642 246.473C117.908 246.473 118.935 245.342 118.935 243.946C118.935 242.551 117.908 241.419 116.642 241.419C115.375 241.419 114.348 242.551 114.348 243.946C114.348 245.342 115.375 246.473 116.642 246.473Z" fill="#3F3D56"/>
<path d="M114.349 245.208C115.615 245.208 116.642 244.076 116.642 242.681C116.642 241.285 115.615 240.154 114.349 240.154C113.082 240.154 112.055 241.285 112.055 242.681C112.055 244.076 113.082 245.208 114.349 245.208Z" fill="#3F3D56"/>
<path d="M112.056 243.946C113.322 243.946 114.349 242.815 114.349 241.419C114.349 240.024 113.322 238.893 112.056 238.893C110.789 238.893 109.762 240.024 109.762 241.419C109.762 242.815 110.789 243.946 112.056 243.946Z" fill="#3F3D56"/>
<path d="M102.914 234.454C103.498 234.851 104.159 235.093 104.843 235.161C105.41 235.253 105.982 235.324 106.555 235.364C105.945 234.765 105.378 234.116 104.856 233.422C106.239 233.025 107.707 233.21 108.972 233.942C110.238 234.673 111.21 235.899 111.699 237.378C112.188 238.857 112.159 240.484 111.617 241.941C111.075 243.398 110.059 244.579 108.768 245.255C107.477 245.931 106.004 246.051 104.637 245.594C103.269 245.137 102.106 244.134 101.374 242.782C100.642 241.429 100.394 239.825 100.679 238.282C100.964 236.739 101.761 235.369 102.914 234.439V234.454Z" fill="#9A94FF"/>
<path d="M118.433 259.082H124.021C127.081 259.082 130.016 260.421 132.179 262.805C134.343 265.188 135.558 268.421 135.558 271.792V288.503C135.558 289.075 135.352 289.623 134.985 290.028C134.618 290.432 134.121 290.659 133.602 290.659H108.839C108.32 290.659 107.822 290.432 107.455 290.028C107.088 289.623 106.882 289.075 106.882 288.503V271.792C106.882 270.122 107.181 268.468 107.762 266.925C108.342 265.382 109.194 263.98 110.266 262.799C111.339 261.619 112.612 260.683 114.014 260.045C115.415 259.407 116.917 259.08 118.433 259.082Z" fill="#2F2E41"/>
<g opacity="0.1">
<path opacity="0.1" d="M129.762 222.593C129.53 222.867 129.283 223.125 129.023 223.366C129.286 223.366 129.545 223.32 129.808 223.29C129.799 223.056 129.785 222.822 129.762 222.593Z" fill="black"/>
<path opacity="0.1" d="M125.581 219.573C126.157 219.533 126.725 219.467 127.297 219.375C127.811 219.304 128.312 219.153 128.788 218.928C128.554 218.42 128.286 217.932 127.985 217.469C127.698 217.661 127.387 217.807 127.062 217.901C126.609 218.501 126.114 219.06 125.581 219.573Z" fill="black"/>
<path opacity="0.1" d="M111.483 224.999C111.48 223.071 111.948 221.178 112.839 219.519C113.73 217.861 115.011 216.497 116.546 215.573C118.081 214.649 119.814 214.198 121.563 214.267C123.311 214.337 125.01 214.925 126.481 215.969L126.629 215.796C125.669 214.856 124.55 214.133 123.335 213.671C122.121 213.209 120.836 213.016 119.554 213.104C118.271 213.192 117.018 213.558 115.864 214.182C114.711 214.805 113.681 215.674 112.835 216.739C111.988 217.803 111.34 219.041 110.93 220.382C110.519 221.723 110.353 223.141 110.442 224.553C110.531 225.964 110.873 227.343 111.447 228.609C112.022 229.875 112.818 231.003 113.79 231.928C112.298 229.994 111.48 227.537 111.483 224.999Z" fill="black"/>
</g>
<g opacity="0.1">
<path opacity="0.1" d="M133.611 236.626C134.184 236.585 134.756 236.519 135.323 236.428C136.008 236.358 136.668 236.114 137.252 235.716C137.9 236.242 138.441 236.912 138.838 237.683C139.236 238.453 139.481 239.308 139.56 240.19C139.582 239.969 139.593 239.747 139.592 239.524C139.596 238.537 139.39 237.562 138.989 236.679C138.588 235.796 138.004 235.029 137.285 234.44C136.7 234.836 136.04 235.078 135.356 235.147L134.894 235.213C134.5 235.72 134.072 236.192 133.611 236.626Z" fill="black"/>
<path opacity="0.1" d="M133.841 234.469C134.033 234.472 134.224 234.487 134.414 234.515C134.714 234.164 135.009 233.788 135.309 233.422C134.46 233.172 133.571 233.141 132.71 233.331C131.849 233.521 131.039 233.926 130.343 234.516C129.647 235.106 129.084 235.864 128.696 236.732C128.309 237.601 128.108 238.556 128.11 239.523C128.11 239.736 128.11 239.945 128.138 240.153C128.279 238.596 128.942 237.151 129.996 236.101C131.05 235.051 132.42 234.469 133.841 234.469Z" fill="black"/>
</g>
<g opacity="0.1">
<path opacity="0.1" d="M106.554 236.625C105.982 236.585 105.41 236.518 104.842 236.427C104.158 236.357 103.498 236.113 102.913 235.715C102.266 236.241 101.725 236.911 101.328 237.682C100.93 238.452 100.684 239.307 100.606 240.189C100.584 239.968 100.573 239.746 100.574 239.523C100.569 238.536 100.776 237.561 101.177 236.678C101.578 235.795 102.162 235.028 102.881 234.439C103.466 234.835 104.126 235.077 104.81 235.146L105.272 235.212C105.663 235.721 106.092 236.194 106.554 236.625Z" fill="black"/>
<path opacity="0.1" d="M106.323 234.47C106.13 234.472 105.937 234.487 105.746 234.515C105.451 234.164 105.155 233.788 104.855 233.422C105.704 233.173 106.593 233.141 107.454 233.331C108.315 233.521 109.125 233.926 109.821 234.516C110.517 235.106 111.081 235.864 111.468 236.733C111.855 237.601 112.056 238.556 112.054 239.523C112.054 239.737 112.054 239.945 112.027 240.153C111.885 238.596 111.223 237.151 110.169 236.101C109.115 235.051 107.744 234.469 106.323 234.47Z" fill="black"/>
</g>
<path d="M90.7726 296.77H45.6866C45.1787 296.77 44.6916 296.547 44.3324 296.152C43.9733 295.756 43.7715 295.219 43.7715 294.66V271.151C43.7714 270.795 43.8531 270.445 44.009 270.133C44.1649 269.821 44.3899 269.558 44.663 269.367C44.9362 269.177 45.2486 269.066 45.5712 269.045C45.8938 269.023 46.2161 269.092 46.508 269.245C59.4616 276.017 73.4165 278.34 89.8865 269.352C90.1785 269.193 90.5023 269.119 90.8274 269.136C91.1526 269.153 91.4684 269.261 91.7453 269.449C92.0222 269.638 92.251 269.901 92.4102 270.214C92.5694 270.527 92.6537 270.879 92.6554 271.238V294.624C92.6597 294.901 92.6143 295.177 92.522 295.434C92.4297 295.692 92.2922 295.927 92.1174 296.127C91.9425 296.326 91.7338 296.485 91.503 296.596C91.2723 296.706 91.0241 296.765 90.7726 296.77Z" fill="#6C63FF"/>
<path opacity="0.1" d="M90.7726 296.77H45.6866C45.1787 296.77 44.6916 296.547 44.3324 296.152C43.9733 295.756 43.7715 295.219 43.7715 294.66V271.151C43.7714 270.795 43.8531 270.445 44.009 270.133C44.1649 269.821 44.3899 269.558 44.663 269.367C44.9362 269.177 45.2486 269.066 45.5712 269.045C45.8938 269.023 46.2161 269.092 46.508 269.245C59.4616 276.017 73.4165 278.34 89.8865 269.352C90.1785 269.193 90.5023 269.119 90.8274 269.136C91.1526 269.153 91.4684 269.261 91.7453 269.449C92.0222 269.638 92.251 269.901 92.4102 270.214C92.5694 270.527 92.6537 270.879 92.6554 271.238V294.624C92.6597 294.901 92.6143 295.177 92.522 295.434C92.4297 295.692 92.2922 295.927 92.1174 296.127C91.9425 296.326 91.7338 296.485 91.503 296.596C91.2723 296.706 91.0241 296.765 90.7726 296.77Z" fill="black"/>
<path d="M67.9163 278.899C69.3895 278.899 70.5837 277.176 70.5837 275.05C70.5837 272.925 69.3895 271.202 67.9163 271.202C66.4432 271.202 65.249 272.925 65.249 275.05C65.249 277.176 66.4432 278.899 67.9163 278.899Z" fill="#3F3D56"/>
<path d="M67.9163 274.196C69.3895 274.196 70.5837 272.473 70.5837 270.348C70.5837 268.222 69.3895 266.499 67.9163 266.499C66.4432 266.499 65.249 268.222 65.249 270.348C65.249 272.473 66.4432 274.196 67.9163 274.196Z" fill="#3F3D56"/>
<path d="M67.9163 269.489C69.3895 269.489 70.5837 267.766 70.5837 265.64C70.5837 263.515 69.3895 261.792 67.9163 261.792C66.4432 261.792 65.249 263.515 65.249 265.64C65.249 267.766 66.4432 269.489 67.9163 269.489Z" fill="#3F3D56"/>
<path d="M67.9163 264.786C69.3895 264.786 70.5837 263.063 70.5837 260.937C70.5837 258.812 69.3895 257.089 67.9163 257.089C66.4432 257.089 65.249 258.812 65.249 260.937C65.249 263.063 66.4432 264.786 67.9163 264.786Z" fill="#3F3D56"/>
<path d="M67.9163 260.079C69.3895 260.079 70.5837 258.355 70.5837 256.23C70.5837 254.104 69.3895 252.381 67.9163 252.381C66.4432 252.381 65.249 254.104 65.249 256.23C65.249 258.355 66.4432 260.079 67.9163 260.079Z" fill="#3F3D56"/>
<path d="M67.9163 255.37C69.3895 255.37 70.5837 253.647 70.5837 251.521C70.5837 249.396 69.3895 247.673 67.9163 247.673C66.4432 247.673 65.249 249.396 65.249 251.521C65.249 253.647 66.4432 255.37 67.9163 255.37Z" fill="#3F3D56"/>
<path d="M67.9163 250.667C69.3895 250.667 70.5837 248.944 70.5837 246.819C70.5837 244.693 69.3895 242.97 67.9163 242.97C66.4432 242.97 65.249 244.693 65.249 246.819C65.249 248.944 66.4432 250.667 67.9163 250.667Z" fill="#3F3D56"/>
<path d="M77.9191 214.617C78.2812 214.104 78.6127 213.566 78.9113 213.005L71.8969 211.734L79.4835 211.795C80.2154 210.048 80.6148 208.154 80.6568 206.231C80.6989 204.307 80.3828 202.394 79.7281 200.61L69.5526 206.427L78.9389 198.8C78.06 197.126 76.8776 195.669 75.4652 194.52C74.0528 193.371 72.4407 192.554 70.7294 192.122C69.0182 191.689 67.2443 191.649 65.5185 192.005C63.7926 192.36 62.1518 193.104 60.698 194.188C59.2443 195.273 58.009 196.676 57.0689 198.31C56.1288 199.943 55.5042 201.773 55.2339 203.684C54.9637 205.595 55.0536 207.547 55.498 209.419C55.9425 211.29 56.732 213.04 57.8173 214.561C57.2471 215.355 56.758 216.216 56.359 217.128L65.4593 222.395L55.7684 218.786C55.0891 221.005 54.922 223.375 55.2821 225.682C55.6423 227.99 56.5183 230.163 57.8311 232.004C56.3475 234.082 55.4247 236.578 55.168 239.207C54.9113 241.836 55.3312 244.491 56.3796 246.869C57.4281 249.247 59.0628 251.252 61.0969 252.655C63.131 254.058 65.4823 254.802 67.882 254.802C70.2818 254.802 72.6331 254.058 74.6672 252.655C76.7013 251.252 78.336 249.247 79.3844 246.869C80.4329 244.491 80.8528 241.836 80.5961 239.207C80.3394 236.578 79.4165 234.082 77.9329 232.004C79.7054 229.521 80.6691 226.454 80.6691 223.295C80.6691 220.136 79.7054 217.069 77.9329 214.586L77.9191 214.617Z" fill="#9A94FF"/>
<path opacity="0.1" d="M55.0723 223.326C55.0681 226.485 56.0323 229.554 57.8088 232.035C56.3252 234.113 55.4023 236.609 55.1456 239.237C54.889 241.866 55.3088 244.521 56.3573 246.899C57.4058 249.277 59.0405 251.282 61.0746 252.685C63.1086 254.088 65.46 254.832 67.8597 254.832C70.2595 254.832 72.6108 254.088 74.6449 252.685C76.6789 251.282 78.3136 249.277 79.3621 246.899C80.4106 244.521 80.8305 241.866 80.5738 239.237C80.3171 236.609 79.3942 234.113 77.9106 232.035C79.6227 229.64 55.0723 221.745 55.0723 223.326Z" fill="black"/>
<path d="M90.7726 298.015H45.6866C45.1787 298.015 44.6916 297.793 44.3324 297.397C43.9733 297.002 43.7715 296.465 43.7715 295.905V271.151C43.7714 270.795 43.8531 270.445 44.009 270.133C44.1649 269.821 44.3899 269.558 44.663 269.367C44.9362 269.177 45.2486 269.066 45.5712 269.045C45.8938 269.023 46.2161 269.092 46.508 269.245C59.4616 276.017 69.734 283.912 89.8865 269.352C91.0818 268.487 92.6554 269.667 92.6554 271.238V295.895C92.6579 296.45 92.4616 296.984 92.1092 297.381C91.7567 297.778 91.2765 298.006 90.7726 298.015Z" fill="#FFB163"/>
<path d="M425.331 291.015L358.815 300.71L355.487 301.193L322.967 282.057V277.577L424.593 265.366L425.331 291.015Z" fill="#9C9CA1"/>
<path d="M341.813 284.09L413.872 274.73L413.134 289.388L357.005 293.923L341.813 284.09Z" fill="#939498"/>
<path opacity="0.4" d="M358.814 295.895V300.705L355.487 301.213L322.962 282.056V277.577L354.006 295.88C354.006 295.88 358.076 296.302 358.814 295.895Z" fill="black"/>
<path d="M371.582 219.558L356.649 295.844C356.498 296.608 356.517 297.4 356.703 298.154C356.889 298.908 357.237 299.602 357.718 300.177C358.198 300.752 358.797 301.191 359.464 301.457C360.131 301.723 360.847 301.808 361.55 301.706L456.027 287.928C456.85 287.809 457.626 287.436 458.266 286.854C458.906 286.271 459.384 285.502 459.645 284.634L480.029 216.914C480.254 216.163 480.31 215.363 480.192 214.582C480.074 213.802 479.785 213.064 479.351 212.434C478.917 211.804 478.35 211.299 477.7 210.963C477.049 210.628 476.334 210.472 475.617 210.509L375.699 215.735C374.727 215.786 373.797 216.188 373.053 216.879C372.309 217.57 371.792 218.511 371.582 219.558Z" fill="#2F2E41"/>
<path d="M423.497 247.701C423.729 245.272 422.768 243.17 421.351 243.006C419.934 242.841 418.598 244.678 418.366 247.107C418.134 249.537 419.095 251.639 420.512 251.803C421.929 251.967 423.265 250.131 423.497 247.701Z" fill="white"/>
</svg>
