<svg width="198" height="210" viewBox="0 0 198 210" fill="none" xmlns="http://www.w3.org/2000/svg">
<path d="M75.7986 33.4157C80.9826 33.4157 85.185 29.2094 85.185 24.0206C85.185 18.8318 80.9826 14.6255 75.7986 14.6255C70.6146 14.6255 66.4121 18.8318 66.4121 24.0206C66.4121 29.2094 70.6146 33.4157 75.7986 33.4157Z" fill="#FD6584"/>
<path d="M96.8049 19.5719C96.5402 18.7032 96.0274 17.9308 95.3297 17.35C94.632 16.7692 93.7798 16.4053 92.8781 16.3031C92.8571 16.3013 92.8359 16.3013 92.8149 16.3031C92.7896 16.2952 92.7637 16.2893 92.7375 16.2855C89.5947 15.8773 86.1004 16.8696 83.7486 19.0301C82.8755 19.8194 82.1773 20.7831 81.6991 21.8591C81.2631 21.263 80.6886 20.7823 80.0252 20.4586C79.3618 20.1349 78.6296 19.9779 77.8919 20.0012C76.9406 20.0642 76.0317 20.4193 75.2894 21.0181C74.547 21.6169 74.0073 22.4304 73.7437 23.3475C73.7147 23.4595 73.7227 23.5779 73.7664 23.6851C73.8101 23.7922 73.8872 23.8824 73.9862 23.9421C74.269 24.1842 74.6052 24.3554 74.9671 24.4418C75.744 24.6071 76.5279 24.7585 77.3118 24.8957C78.8446 25.1631 80.3855 25.3801 81.9346 25.5466C82.9576 25.6557 83.983 25.7425 85.0106 25.807C87.134 25.9407 89.2678 25.9724 91.3946 25.9055C92.4493 25.8703 93.4617 25.8352 94.4249 25.3707C95.1268 25.0252 95.7266 24.5025 96.1651 23.8542C96.5779 23.2305 96.849 22.5239 96.9596 21.7841C97.0701 21.0443 97.0173 20.2892 96.8049 19.5719Z" fill="#E6E6E6"/>
<path d="M77.4959 33.2593C77.4781 32.8657 77.412 32.4757 77.2991 32.0982C77.0331 31.2295 76.5195 30.4574 75.8213 29.8767C75.1231 29.296 74.2707 28.932 73.3688 28.8293C73.3489 28.8276 73.3289 28.8276 73.309 28.8293C73.2825 28.8218 73.2555 28.8159 73.2282 28.8118C71.4888 28.5985 69.7237 28.7801 68.064 29.3431C65.5118 30.1981 63.2725 31.9222 62.1933 34.3853C61.7568 33.7889 61.1817 33.308 60.5177 32.9842C59.8537 32.6605 59.1208 32.5037 58.3826 32.5274C57.4312 32.5904 56.5224 32.9455 55.7801 33.5443C55.0377 34.1432 54.4979 34.9566 54.2344 35.8737C54.207 35.9858 54.2158 36.1036 54.2593 36.2104C54.3029 36.3172 54.379 36.4075 54.4769 36.4684C54.7601 36.7097 55.0961 36.8809 55.4577 36.968C56.2381 37.1334 57.0186 37.2847 57.806 37.4219C59.3388 37.6893 60.8785 37.9063 62.4253 38.0729C65.5678 38.4105 68.7298 38.5304 71.8888 38.4318C72.9399 38.3966 73.9559 38.3614 74.9191 37.8969C75.62 37.5513 76.2186 37.0286 76.6557 36.3804C77.272 35.4612 77.5674 34.364 77.4959 33.2593Z" fill="#E6E6E6"/>
<path d="M146.99 151.823H138.434V18.1246C137.857 17.6989 137.277 17.2766 136.69 16.865C136.574 16.784 136.458 16.7031 136.342 16.6222C129.575 11.8842 122.254 7.99183 114.543 5.03169L112.884 27.9382L112.884 27.9396H102.207V1.19283C101.511 1.02041 100.815 0.858552 100.112 0.70725V27.9396H59.7974V0C59.0978 0.130191 58.3982 0.263901 57.7022 0.408166V27.9396H46.6744L46.6743 27.9382L44.9341 3.91627C37.43 6.51986 30.2583 9.99916 23.5674 14.2823C23.3354 14.43 23.1034 14.5778 22.8713 14.7326C22.4038 15.0352 21.9362 15.3449 21.4757 15.6581V151.823H9.42835C7.887 151.822 6.36896 152.2 5.0073 152.923C3.64564 153.646 2.48196 154.692 1.61826 155.97C0.754571 157.248 0.217239 158.718 0.0533909 160.252C-0.110457 161.786 0.104176 163.337 0.678471 164.768C0.850781 165.201 1.05647 165.62 1.29367 166.021C1.60003 166.544 1.95554 167.037 2.35534 167.492C3.23848 168.499 4.32628 169.306 5.54604 169.859C6.7658 170.412 8.08941 170.698 9.42837 170.697H146.99C149.491 170.697 151.889 169.703 153.657 167.933C155.426 166.164 156.419 163.763 156.419 161.26C156.419 158.758 155.426 156.357 153.657 154.587C151.889 152.818 149.491 151.823 146.99 151.823L146.99 151.823ZM110.585 59.7407L103.93 151.823H55.6281L48.9734 59.7407H110.585ZM112.733 30.0363L111.091 52.7514H102.207V30.0363H112.733ZM100.112 30.0363V52.7514H84.0706C83.7493 52.1205 83.2601 51.5908 82.6569 51.2208C82.0537 50.8507 81.3601 50.6548 80.6527 50.6546H78.5578C77.8503 50.6548 77.1567 50.8507 76.5536 51.2208C75.9504 51.5908 75.4611 52.1205 75.1399 52.7514H59.7974V30.0363H100.112ZM57.7022 52.7514H48.4672L46.8255 30.0363H57.7022V52.7514Z" fill="#F2F2F2"/>
<path d="M0.832031 167.04C3.88597 170.662 7.18915 174.066 10.7174 177.227L144.156 177.579C147.684 174.418 150.987 171.014 154.041 167.392L0.832031 167.04Z" fill="#3F3D56"/>
<path d="M68.2188 132.976V169.064H93.4771V132.976C93.4775 132.717 93.3948 132.464 93.241 132.255C93.0873 132.046 92.8706 131.892 92.6228 131.815C92.5061 131.776 92.3837 131.757 92.2608 131.759H69.4386C69.2786 131.758 69.1201 131.79 68.9722 131.851C68.8243 131.912 68.6899 132.001 68.5766 132.114C68.4633 132.227 68.3734 132.362 68.312 132.51C68.2506 132.657 68.2189 132.816 68.2188 132.976ZM78.076 145.376C78.0827 144.664 78.3697 143.985 78.8747 143.484C79.3796 142.983 80.0616 142.702 80.7723 142.702C81.4831 142.702 82.1651 142.983 82.67 143.484C83.175 143.985 83.462 144.664 83.4687 145.376V149.563C83.465 150.276 83.1794 150.959 82.6741 151.463C82.1688 151.966 81.4851 152.248 80.7723 152.248C80.0596 152.248 79.3759 151.966 78.8706 151.463C78.3653 150.959 78.0797 150.276 78.076 149.563V145.376Z" fill="#2F2E41"/>
<path d="M68.1426 167.909V171.389C68.1431 171.57 68.2147 171.742 68.3417 171.87C68.4687 171.998 68.641 172.071 68.8211 172.072H92.8771C93.0574 172.071 93.23 171.999 93.3571 171.871C93.4842 171.743 93.5556 171.57 93.5556 171.389V167.909H68.1426Z" fill="#3F3D56"/>
<path d="M28.4844 78.6057V144.496C28.485 145.336 28.8186 146.141 29.4118 146.735C30.005 147.328 30.8093 147.662 31.6483 147.663H129.201C130.04 147.662 130.845 147.328 131.438 146.735C132.031 146.141 132.365 145.336 132.365 144.496V78.6057C132.363 77.7667 132.029 76.9628 131.436 76.3699C130.843 75.777 130.039 75.4434 129.201 75.4424H31.6483C30.8101 75.4435 30.0065 75.777 29.4135 76.3699C28.8205 76.9628 28.4864 77.7667 28.4844 78.6057Z" fill="#3F3D56"/>
<path d="M30.7734 79.4257V143.684C30.7742 144.132 30.9526 144.562 31.2696 144.879C31.5865 145.197 32.0161 145.375 32.4644 145.376H128.39C128.838 145.375 129.268 145.197 129.585 144.879C129.902 144.562 130.08 144.132 130.081 143.684V79.4257C130.081 78.9766 129.903 78.5457 129.586 78.2278C129.269 77.9098 128.839 77.7307 128.39 77.7297H32.4644C32.0156 77.7307 31.5855 77.9098 31.2685 78.2278C30.9515 78.5457 30.7735 78.9766 30.7734 79.4257Z" fill="#FFB163"/>
<path d="M50.3338 172.892C50.4314 173.014 50.5555 173.113 50.6968 173.181C50.838 173.249 50.9928 173.283 51.1494 173.282H108.219C108.375 173.282 108.529 173.247 108.67 173.18C108.811 173.113 108.935 173.015 109.033 172.893C109.131 172.772 109.201 172.63 109.238 172.479C109.275 172.327 109.277 172.169 109.245 172.016L108.359 167.804C108.323 167.632 108.244 167.472 108.129 167.339C108.015 167.206 107.869 167.103 107.706 167.04C107.587 166.994 107.46 166.97 107.333 166.97H52.0317C51.9042 166.97 51.7778 166.994 51.6591 167.04C51.4951 167.103 51.3494 167.206 51.2352 167.339C51.121 167.472 51.0419 167.632 51.0052 167.804L50.1193 172.016C50.0878 172.169 50.0907 172.326 50.1278 172.478C50.1649 172.63 50.2353 172.771 50.3338 172.892Z" fill="#2F2E41"/>
<path d="M52.032 167.85C52.0146 167.85 51.9974 167.853 51.9812 167.859C51.9532 167.868 51.9281 167.885 51.908 167.906C51.8879 167.928 51.8735 167.954 51.866 167.983L50.9796 172.197C50.9749 172.221 50.9757 172.247 50.9818 172.271C50.988 172.295 50.9994 172.317 51.0153 172.336L51.0192 172.341C51.0345 172.361 51.0543 172.377 51.077 172.388C51.0997 172.398 51.1246 172.404 51.1497 172.403H108.219C108.244 172.403 108.269 172.398 108.291 172.387C108.314 172.376 108.334 172.361 108.349 172.341C108.366 172.322 108.378 172.3 108.384 172.276C108.391 172.252 108.392 172.226 108.386 172.201L107.5 167.985C107.493 167.957 107.48 167.932 107.461 167.91C107.443 167.889 107.419 167.873 107.393 167.862C107.374 167.854 107.354 167.85 107.333 167.85H52.032Z" fill="white"/>
<path d="M35.5483 86.5815H125.305C125.399 86.5794 125.487 86.5409 125.553 86.4741C125.618 86.4073 125.654 86.3176 125.654 86.2242C125.654 86.1308 125.618 86.0411 125.553 85.9743C125.487 85.9076 125.399 85.869 125.305 85.8669H35.5483C35.455 85.869 35.3663 85.9076 35.301 85.9743C35.2358 86.0411 35.1992 86.1308 35.1992 86.2242C35.1992 86.3176 35.2358 86.4073 35.301 86.4741C35.3663 86.5409 35.455 86.5794 35.5483 86.5815Z" fill="#3F3D56"/>
<path d="M119.195 84.0428C120.351 84.0428 121.287 83.0845 121.287 81.9024C121.287 80.7203 120.351 79.762 119.195 79.762C118.04 79.762 117.104 80.7203 117.104 81.9024C117.104 83.0845 118.04 84.0428 119.195 84.0428Z" fill="#3F3D56"/>
<path d="M111.969 84.0428C113.124 84.0428 114.061 83.0845 114.061 81.9024C114.061 80.7203 113.124 79.762 111.969 79.762C110.813 79.762 109.877 80.7203 109.877 81.9024C109.877 83.0845 110.813 84.0428 111.969 84.0428Z" fill="#3F3D56"/>
<path d="M104.742 84.0428C105.898 84.0428 106.834 83.0845 106.834 81.9024C106.834 80.7203 105.898 79.762 104.742 79.762C103.587 79.762 102.65 80.7203 102.65 81.9024C102.65 83.0845 103.587 84.0428 104.742 84.0428Z" fill="#3F3D56"/>
<path d="M39.5176 80.6818C39.5173 80.7324 39.5271 80.7826 39.5462 80.8294C39.5653 80.8763 39.5935 80.9189 39.6291 80.9548C39.6646 80.9908 39.707 81.0194 39.7536 81.0389C39.8002 81.0585 39.8502 81.0687 39.9008 81.0689H45.0333C45.1347 81.0665 45.2313 81.0245 45.3022 80.9519C45.3731 80.8792 45.4128 80.7817 45.4128 80.6801C45.4128 80.5785 45.3731 80.481 45.3022 80.4083C45.2313 80.3356 45.1347 80.2936 45.0333 80.2913H39.9008C39.7983 80.2925 39.7005 80.3343 39.6287 80.4075C39.5569 80.4806 39.517 80.5793 39.5176 80.6818Z" fill="#3F3D56"/>
<path d="M39.5176 82.142C39.5173 82.1926 39.5271 82.2428 39.5462 82.2896C39.5653 82.3365 39.5935 82.3791 39.6291 82.415C39.6646 82.451 39.707 82.4795 39.7536 82.4991C39.8002 82.5187 39.8502 82.5289 39.9008 82.5291H45.0333C45.1348 82.5269 45.2315 82.4849 45.3025 82.4122C45.3735 82.3396 45.4133 82.2419 45.4133 82.1403C45.4133 82.0386 45.3735 81.941 45.3025 81.8683C45.2315 81.7957 45.1348 81.7537 45.0333 81.7515H39.9008C39.7983 81.7527 39.7005 81.7945 39.6287 81.8677C39.5569 81.9408 39.517 82.0395 39.5176 82.142Z" fill="#3F3D56"/>
<path d="M39.5176 83.5987C39.517 83.7013 39.5569 83.7999 39.6287 83.8731C39.7005 83.9463 39.7983 83.988 39.9008 83.9893H45.0333C45.1347 83.9869 45.2313 83.9449 45.3022 83.8723C45.3731 83.7996 45.4128 83.7021 45.4128 83.6005C45.4128 83.4989 45.3731 83.4014 45.3022 83.3287C45.2313 83.256 45.1347 83.214 45.0333 83.2117H39.9008C39.8502 83.2119 39.8002 83.2221 39.7536 83.2417C39.707 83.2612 39.6646 83.2898 39.6291 83.3257C39.5935 83.3617 39.5653 83.4043 39.5462 83.4511C39.5271 83.498 39.5173 83.5481 39.5176 83.5987Z" fill="#3F3D56"/>
<path d="M111.932 97.4873H48.923C48.0952 97.4883 47.3016 97.8178 46.7163 98.4037C46.131 98.9895 45.8017 99.7838 45.8008 100.612V131.308C45.8017 132.137 46.1309 132.931 46.7163 133.517C47.3016 134.103 48.0952 134.432 48.923 134.433H111.932C112.76 134.432 113.554 134.103 114.139 133.517C114.725 132.931 115.054 132.137 115.055 131.308V100.612C115.054 99.7838 114.724 98.9895 114.139 98.4037C113.554 97.8178 112.76 97.4883 111.932 97.4873ZM114.352 100.612V109.568H92.2044V98.191H111.932C112.574 98.1918 113.189 98.4471 113.642 98.901C114.096 99.3549 114.351 99.9704 114.352 100.612H114.352ZM69.3541 121.649V110.272H91.5013V121.649H69.3541ZM91.5013 122.353V133.73H69.3541V122.353H91.5013ZM68.651 121.649H46.5039V110.272H68.651V121.649ZM69.3541 109.568V98.191H91.5013V109.568H69.3541ZM92.2044 110.272H114.352V121.649H92.2044V110.272ZM48.923 98.191H68.6511V109.568H46.5039V100.612C46.5046 99.9704 46.7597 99.3549 47.2132 98.901C47.6667 98.4471 48.2816 98.1918 48.923 98.191V98.191ZM46.5039 131.308V122.353H68.6511V133.73H48.923C48.2816 133.729 47.6667 133.473 47.2132 133.019C46.7596 132.566 46.5046 131.95 46.5039 131.308ZM111.933 133.73H92.2044V122.353H114.352V131.308C114.351 131.95 114.096 132.566 113.642 133.02C113.189 133.473 112.574 133.729 111.932 133.73H111.933Z" fill="#3F3D56"/>
<path d="M77.2246 105.281C76.6654 104.355 76.0028 103.367 74.9652 103.064C73.7635 102.714 72.5291 103.41 71.482 104.096C68.3507 106.148 65.3351 108.372 62.4492 110.757L62.4524 110.793L69.1928 110.328C70.8161 110.216 72.4952 110.088 73.9298 109.32C74.4741 109.028 75.0048 108.638 75.6216 108.611C76.388 108.577 77.0563 109.113 77.5814 109.673C80.6878 112.984 81.5867 118.047 85.0718 120.956C82.8742 115.531 80.2502 110.29 77.2246 105.281Z" fill="white"/>
<path d="M96.3195 133.363C95.976 132.929 95.8356 132.827 95.4968 132.389C92.7377 128.817 90.1444 125.125 87.7169 121.312C86.0681 118.722 84.501 116.083 83.0156 113.394C82.3085 112.116 81.6207 110.827 80.9524 109.529C80.4337 108.522 79.9267 107.509 79.4312 106.49C79.2895 106.199 79.1518 105.907 79.0148 105.614C78.692 104.925 78.3751 104.232 78.0349 103.553C77.6834 102.737 77.1451 102.015 76.4636 101.445C76.1396 101.199 75.7523 101.049 75.3467 101.015C74.7755 101.018 74.2162 101.179 73.73 101.479C70.0489 103.416 66.613 105.787 63.4959 108.542C60.374 111.287 57.5835 114.387 55.1814 117.78C55.1079 117.886 54.9341 117.785 55.0083 117.679C55.3004 117.266 55.5982 116.857 55.9019 116.453C59.6777 111.426 64.3074 107.104 69.5794 103.683C70.4664 103.108 71.37 102.559 72.2903 102.038C72.7542 101.775 73.22 101.515 73.6939 101.272C74.1479 101.005 74.6573 100.848 75.1823 100.81C76.9883 100.782 77.9233 102.829 78.5656 104.207C78.7675 104.64 78.9718 105.072 79.1785 105.503C79.9598 107.139 80.7712 108.76 81.6127 110.365C82.132 111.357 82.6627 112.343 83.2048 113.322C84.8917 116.374 86.6847 119.363 88.5838 122.291C91.0996 126.169 93.5953 129.595 96.4612 133.221C96.5401 133.322 96.3991 133.465 96.3195 133.363Z" fill="white"/>
<path d="M63.3176 107.532C63.2127 107.415 63.1084 107.298 63.0028 107.181C62.17 106.259 61.2764 105.348 60.1328 104.819C59.5876 104.559 58.9923 104.421 58.3884 104.414C57.7652 104.431 57.1508 104.566 56.5771 104.81C56.3044 104.919 56.0377 105.043 55.7751 105.174C55.475 105.325 55.1802 105.487 54.8868 105.649C54.3361 105.954 53.7925 106.273 53.256 106.605C52.1886 107.265 51.1546 107.976 50.1541 108.737C49.6354 109.131 49.1275 109.539 48.6302 109.96C48.1677 110.35 47.7145 110.751 47.2707 111.163C47.1758 111.251 47.0342 111.109 47.129 111.021C47.246 110.912 47.3643 110.804 47.4826 110.697C47.8168 110.394 48.1563 110.098 48.5012 109.807C49.1301 109.276 49.7753 108.765 50.4368 108.275C51.4654 107.512 52.5295 106.802 53.6289 106.142C54.1783 105.813 54.7353 105.498 55.2999 105.196C55.4703 105.105 55.6428 105.016 55.8172 104.932C56.213 104.732 56.6243 104.565 57.047 104.431C57.6458 104.237 58.2793 104.175 58.9044 104.248C59.5079 104.336 60.0894 104.538 60.6181 104.842C61.7409 105.47 62.6118 106.441 63.4593 107.389C63.5449 107.486 63.4038 107.628 63.3176 107.532Z" fill="white"/>
<path d="M86.3246 117.085L89.0153 116.1L90.3512 115.611C90.7828 115.437 91.223 115.285 91.6701 115.156C92.0609 115.044 92.4759 115.05 92.8638 115.171C93.2098 115.299 93.5264 115.496 93.7949 115.749C94.0693 116.002 94.3245 116.275 94.5586 116.565C94.8495 116.915 95.1361 117.269 95.4239 117.621C96.6119 119.075 97.7921 120.536 98.9645 122.003C100.137 123.469 101.302 124.942 102.458 126.422C103.618 127.904 104.769 129.394 105.913 130.889C106.053 131.072 106.193 131.255 106.333 131.439C106.41 131.54 106.584 131.44 106.506 131.337C105.354 129.827 104.194 128.323 103.026 126.825C101.855 125.323 100.676 123.828 99.4886 122.34C98.3015 120.851 97.1063 119.368 95.9031 117.893C95.6034 117.525 95.3031 117.158 95.0024 116.791C94.7487 116.481 94.4979 116.168 94.2196 115.88C93.9827 115.595 93.6918 115.359 93.3636 115.185C93.0354 115.012 92.6763 114.906 92.3069 114.872C91.8595 114.888 91.4187 114.985 91.006 115.158C90.5561 115.321 90.1074 115.487 89.6581 115.651L86.9487 116.643L86.2713 116.891C86.1511 116.935 86.203 117.129 86.3246 117.085V117.085Z" fill="white"/>
<path d="M59.7791 105.979C59.0877 105.638 58.3181 105.487 57.5493 105.542C56.7805 105.597 56.0402 105.856 55.4043 106.292C57.8009 106.706 60.1713 107.26 62.5034 107.951C61.535 107.383 60.7774 106.493 59.7791 105.979Z" fill="white"/>
<path d="M55.3902 106.29L55.127 106.504C55.216 106.429 55.3086 106.359 55.4036 106.292L55.3902 106.29Z" fill="white"/>
<path d="M93.6922 117.095C93.4567 116.747 93.1285 116.473 92.7449 116.303L92.375 116.318C95.1905 121.297 98.9931 125.649 103.549 129.104L93.6922 117.095Z" fill="white"/>
<path d="M91.962 111.642C93.1383 111.642 94.092 110.688 94.092 109.51C94.092 108.333 93.1383 107.378 91.962 107.378C90.7856 107.378 89.832 108.333 89.832 109.51C89.832 110.688 90.7856 111.642 91.962 111.642Z" fill="white"/>
<path d="M122.871 133.202C123.29 133.201 123.692 133.034 123.989 132.737C124.285 132.44 124.452 132.038 124.453 131.618V98.8947C124.453 98.4747 124.286 98.072 123.99 97.775C123.693 97.4781 123.291 97.3113 122.871 97.3113C122.451 97.3113 122.049 97.4781 121.752 97.775C121.456 98.072 121.289 98.4747 121.289 98.8947V131.618C121.29 132.038 121.457 132.44 121.753 132.737C122.05 133.034 122.452 133.201 122.871 133.202Z" fill="#3F3D56"/>
<path d="M122.871 133.202C123.29 133.201 123.692 133.034 123.989 132.737C124.285 132.44 124.452 132.038 124.453 131.618V124.679C124.271 124.431 124.033 124.229 123.758 124.089C123.483 123.95 123.179 123.877 122.871 123.877C122.563 123.877 122.259 123.95 121.984 124.089C121.709 124.229 121.471 124.431 121.289 124.679V131.618C121.29 132.038 121.457 132.44 121.753 132.737C122.05 133.034 122.452 133.201 122.871 133.202Z" fill="#2F2E41"/>
<path d="M122.871 126.516C123.322 126.516 123.755 126.336 124.074 126.017C124.392 125.697 124.572 125.265 124.573 124.813V117.351C124.377 117.083 124.12 116.866 123.825 116.716C123.529 116.566 123.203 116.488 122.871 116.488C122.54 116.488 122.213 116.566 121.918 116.716C121.622 116.866 121.366 117.083 121.17 117.351V124.813C121.171 125.265 121.35 125.697 121.669 126.017C121.988 126.336 122.42 126.516 122.871 126.516Z" fill="#FFB163"/>
<path d="M122.872 125.159C123.201 125.159 123.516 125.028 123.749 124.795C123.981 124.562 124.112 124.247 124.113 123.917V118.474C123.97 118.279 123.783 118.121 123.567 118.011C123.352 117.902 123.113 117.845 122.872 117.845C122.63 117.845 122.392 117.902 122.176 118.011C121.961 118.121 121.774 118.279 121.631 118.474V123.917C121.631 124.247 121.762 124.562 121.995 124.795C122.227 125.028 122.543 125.159 122.872 125.159Z" fill="#3F3D56"/>
<path d="M74.0701 169.964C73.7924 169.715 73.6247 169.366 73.6038 168.993C73.5829 168.621 73.7105 168.255 73.9586 167.977L87.7799 152.497C87.9029 152.36 88.0519 152.247 88.2183 152.167C88.3846 152.087 88.5651 152.04 88.7495 152.03C88.9339 152.02 89.1185 152.046 89.2928 152.107C89.4671 152.168 89.6277 152.263 89.7654 152.386C89.903 152.509 90.0152 152.658 90.0953 152.825C90.1754 152.991 90.2219 153.172 90.2323 153.356C90.2426 153.541 90.2166 153.726 90.1556 153.9C90.0946 154.075 89.9998 154.235 89.8768 154.373L76.0556 169.852C75.8069 170.13 75.4581 170.298 75.0859 170.319C74.7136 170.34 74.3483 170.212 74.0701 169.964Z" fill="#FFB163"/>
<path d="M188.726 195.45C188.726 198.015 188.122 199.979 188.195 201.548C184.049 203.359 179.786 204.89 175.434 206.129C174.942 206.27 174.45 206.404 173.954 206.537C171.272 198.318 168.586 190.791 167.528 189.993C165.106 188.173 163.893 195.7 163.893 193.881C163.893 192.062 165.106 192.062 162.079 189.637C159.049 187.213 160.867 176.301 160.867 176.301L156.627 165.39L161.369 147.987L167.528 125.379H173.585C173.585 125.379 173.765 125.51 174.063 125.752C175.579 126.991 180.149 131.129 179.642 135.686C179.491 137.044 179.829 140.992 180.416 146.249C182.202 162.121 186.304 179.377 186.304 183.93C186.304 189.993 188.726 191.812 188.726 195.45Z" fill="#E6E6E6"/>
<path d="M183.647 146.189C183.64 146.171 183.637 146.157 183.63 146.143C183.494 145.777 183.335 145.42 183.155 145.074C182.132 143.149 183.215 140.193 182.062 136.928C180.199 131.636 177.928 128.515 174.598 125.717C174.5 125.633 174.402 125.552 174.3 125.468L174.296 125.464C172.074 123.638 169.396 121.931 166.07 119.806C165.377 119.363 164.653 118.902 163.901 118.416C162.931 117.793 162.983 115.717 163.04 113.522C163.103 111.083 163.17 108.557 161.975 106.981L161.897 106.878L161.774 106.847C157.676 106.036 153.496 105.713 149.322 105.886H149.319C147.547 105.952 145.787 106.21 144.07 106.657C143.944 106.692 143.817 106.727 143.694 106.769C143.599 106.794 143.504 106.826 143.41 106.857L143.332 106.886L143.272 106.942C142.116 108.099 141.849 110.175 141.722 112.339V112.343C141.698 112.737 141.676 113.131 141.659 113.525C141.56 115.629 141.469 117.617 140.696 118.48C138.971 120.436 136.885 122.041 134.554 123.209C130.923 125.003 128.051 124.947 128.008 124.947L127.674 124.936L127.643 125.267C125.231 129.866 125.323 141.731 125.249 154.437C125.245 155.144 125.241 155.855 125.235 156.569C125.193 162.487 125.08 168.508 124.637 173.994C124.444 176.351 124.194 178.606 123.86 180.714C122.236 190.978 114.878 182.456 111.359 189.286C111.475 189.957 111.67 190.613 111.939 191.238C112.344 191.478 112.759 191.71 113.17 191.942C114.994 192.959 116.853 193.908 118.745 194.789C118.851 194.838 118.956 194.887 119.062 194.933C122.533 196.541 126.111 197.907 129.77 199.022C130.483 199.24 131.197 199.448 131.918 199.645C138.292 201.406 144.856 202.39 151.467 202.576C151.494 202.573 151.521 202.571 151.548 202.572C159.366 202.356 167.132 201.235 174.693 199.233C174.799 199.205 174.904 199.177 175.01 199.148C175.505 199.015 175.998 198.881 176.49 198.74C180.841 197.501 185.104 195.97 189.251 194.159C189.255 194.313 189.27 194.468 189.296 194.62C189.3 194.67 189.307 194.719 189.318 194.768C189.325 194.711 189.332 194.655 189.335 194.599C189.356 194.433 189.374 194.265 189.391 194.096C191.543 173.096 187.075 155.267 183.647 146.189Z" fill="#3F3D56"/>
<path d="M135.333 94.7225C137.479 98.6496 140.897 101.728 145.024 103.451C149.151 105.174 153.741 105.439 158.039 104.202C162.337 102.965 166.085 100.3 168.668 96.646C171.25 92.9917 172.512 88.5662 172.246 84.0982C171.979 79.6302 170.201 75.3862 167.203 72.065C164.205 68.7439 160.166 66.5437 155.752 65.8268C151.338 65.11 146.812 65.9191 142.918 68.121C139.025 70.323 135.997 73.7864 134.333 77.9409C134.243 78.1663 134.162 78.3918 134.081 78.6262C133.14 81.2452 132.765 84.0342 132.981 86.8089C133.197 89.5836 133.999 92.2809 135.333 94.7225Z" fill="#FFB6B6"/>
<path d="M132.503 78.6261C133.35 76.2545 132.981 77.4899 133.837 75.1273C133.278 77.2194 134.161 78.3917 134.08 78.6261H157.513V64.9916C150.648 62.2683 143.936 59.9508 139.882 64.9916C136.269 64.9918 132.804 66.4283 130.25 68.9852C127.695 71.5422 126.26 75.0101 126.26 78.6261H132.503Z" fill="#2F2E41"/>
<path d="M140.809 116.527C140.827 116.275 140.854 116.013 140.891 115.76C141.143 113.903 141.773 112.117 142.413 110.35C143.089 108.447 143.774 106.535 144.458 104.633C143.576 108.087 143.845 111.734 145.224 115.021C149.179 111.937 146.683 104.885 151.855 104.885C164.288 104.885 177.081 94.7947 177.081 82.3414C177.081 69.8971 171.747 60.5911 159.315 60.5911C146.873 60.5911 136.782 66.2901 136.539 78.7344C151.855 82.3414 137.918 115.265 140.809 116.527Z" fill="#2F2E41"/>
<path d="M175.528 80.4341C183.489 80.4341 189.943 73.9744 189.943 66.006C189.943 58.0376 183.489 51.5779 175.528 51.5779C167.567 51.5779 161.113 58.0376 161.113 66.006C161.113 73.9744 167.567 80.4341 175.528 80.4341Z" fill="#2F2E41"/>
<path d="M198 148.751C197.951 149.493 197.908 150.283 197.87 151.122C197.125 166.917 197.768 188.181 192.745 199.718C191.62 200.334 190.483 200.923 189.335 201.485C189.289 201.506 189.247 201.527 189.208 201.548C188.899 201.699 188.589 201.847 188.28 201.988C188.269 201.998 188.256 202.005 188.241 202.009C184.844 203.616 181.343 204.992 177.762 206.129C177.323 206.27 176.88 206.404 176.437 206.538C176.342 206.566 176.247 206.594 176.152 206.622C169.405 208.619 162.429 209.741 155.397 209.961C155.031 209.972 154.673 209.979 154.325 209.986C154.202 209.989 154.082 209.993 153.963 209.993C153.569 209.996 153.179 210 152.785 210C151.99 210 151.2 209.988 150.412 209.965C143.801 209.779 137.237 208.795 130.863 207.034C130.142 206.837 129.428 206.629 128.715 206.411C125.056 205.296 121.478 203.93 118.007 202.322C117.901 202.276 117.796 202.227 117.69 202.178C115.799 201.298 113.941 200.349 112.115 199.331C111.704 199.099 111.289 198.867 110.885 198.628C110.615 198.002 110.42 197.346 110.305 196.675C109.507 192.836 108.867 195.426 108.41 187.438C107.991 180.116 107.724 172.772 107.626 168.575C107.594 167.456 107.584 166.559 107.58 165.946C107.953 163.279 113.943 160.253 122.679 157.378C123.505 157.107 124.359 156.836 125.235 156.569C127.597 155.841 130.121 155.126 132.758 154.437C139.472 152.677 146.928 151.062 154.328 149.729C157.981 149.074 161.619 148.487 165.152 147.987C171.35 147.107 177.214 146.499 182.23 146.249C182.712 146.224 183.183 146.203 183.647 146.189C184.146 146.168 184.635 146.154 185.113 146.143C192.34 145.985 197.276 146.738 198 148.751Z" fill="#2F2E41"/>
<path opacity="0.2" d="M198 148.751C197.951 149.493 197.908 150.284 197.87 151.122C192.393 145.218 133.39 171.594 108.41 187.438C107.991 180.116 107.724 172.772 107.626 168.575C107.594 167.456 107.584 166.558 107.58 165.946C107.953 163.279 113.943 160.253 122.679 157.378C123.505 157.107 124.359 156.836 125.235 156.569C127.597 155.841 130.121 155.126 132.758 154.437C139.472 152.677 146.928 151.062 154.328 149.729C157.981 149.074 161.619 148.487 165.152 147.987C171.35 147.107 177.214 146.499 182.23 146.249C182.712 146.224 183.183 146.203 183.647 146.189C184.146 146.168 184.635 146.154 185.113 146.143C192.341 145.985 197.276 146.738 198 148.751Z" fill="black"/>
<path d="M78.0068 167.052C78.5601 167.75 79.2596 168.319 80.0561 168.717C80.8525 169.115 81.7265 169.334 82.6166 169.358C83.5066 169.381 84.391 169.21 85.2074 168.854C86.0239 168.499 86.7526 167.968 87.3421 167.3L107.362 175.53L105.202 164.483L86.5216 158.362C85.3351 157.445 83.8538 156.995 82.3584 157.098C80.8629 157.201 79.4572 157.85 78.4076 158.921C77.3581 159.993 76.7376 161.412 76.6637 162.911C76.5898 164.409 77.0677 165.883 78.0068 167.052Z" fill="#FFB6B6"/>
<path d="M144.602 121.049L144.492 121.037L132.818 121.886C131.336 121.993 129.893 122.415 128.586 123.124C127.28 123.832 126.138 124.81 125.238 125.994C124.82 126.542 124.458 127.131 124.157 127.752L124.154 127.754C123.148 129.815 122.845 132.15 123.291 134.4L128.787 162.093L115.563 160.89L110.735 161.716L105.038 159.416L93.3492 159.615L93.0782 160.512L90.6261 168.648L90.4336 169.287L108.283 180.546L113.458 178.97L115.896 180.844L116.013 180.847L120.848 180.943L141.465 181.348L147.101 171.354L147.981 169.787C154.526 155.111 156.141 144.866 155.629 137.808C155.36 134.079 154.499 131.244 153.456 129.107C150.232 122.505 144.829 121.105 144.602 121.049Z" fill="#3F3D56"/>
<path d="M177.352 78.8154C174.618 78.2003 172.084 76.9045 169.984 75.048C167.884 73.1914 166.286 70.8343 165.338 68.1951C164.492 65.7398 164.173 63.0437 162.754 60.8586C164.916 57.886 166.651 54.6238 167.905 51.1678C168.391 49.8298 169.529 47.401 167.6 46.665C166.064 46.0786 164.318 47.4939 163.408 48.6106C162.716 49.4568 162.22 50.4459 161.955 51.5067C161.641 50.1186 161.327 48.7305 161.013 47.3423C160.973 47.2091 160.883 47.0965 160.762 47.0278C160.641 46.9591 160.499 46.9397 160.364 46.9737C157.79 47.4129 155.923 49.7984 155.599 52.311C155.422 53.6046 155.716 54.9187 156.427 56.0132C157.254 57.2723 158.465 58.1749 159.617 59.1132C160.842 60.111 161.881 61.1737 162.54 62.6328C163.225 64.1494 163.533 65.809 163.987 67.4014C164.849 70.46 166.52 73.2291 168.822 75.417C171.125 77.6049 173.975 79.1306 177.071 79.8333C177.733 79.978 178.015 78.9606 177.352 78.8154ZM162.816 53.5811C162.734 52.2551 163.084 50.9381 163.814 49.8286C164.179 49.2661 164.637 48.7695 165.168 48.36C165.672 47.9749 166.415 47.465 167.081 47.6064C167.945 47.7899 167.597 48.7552 167.414 49.3374C167.172 50.1054 166.905 50.8653 166.615 51.6169C166.05 53.0767 165.393 54.4996 164.65 55.8771C164.264 56.5942 163.852 57.296 163.421 57.9864C163.124 56.6742 162.827 55.3619 162.53 54.0497C162.624 54.0154 162.703 53.9504 162.755 53.8653C162.807 53.7803 162.829 53.6801 162.816 53.5811ZM156.658 53.7912C156.485 52.5921 156.735 51.3704 157.365 50.3359C157.995 49.3014 158.965 48.5187 160.109 48.1224C160.946 51.8218 161.783 55.5212 162.62 59.2206C162.447 59.4756 162.269 59.7268 162.09 59.9778C162.043 59.9239 162.001 59.8682 161.952 59.8152C160.196 57.9027 157.135 56.5989 156.658 53.7912Z" fill="#FFB163"/>
</svg>
