<svg width="62" height="62" viewBox="0 0 62 62" fill="none" xmlns="http://www.w3.org/2000/svg">
<rect width="62" height="62" rx="8" fill="#F16063"/>
<path d="M21.8402 34.5166C24.2481 34.5166 26.2 32.5647 26.2 30.1569C26.2 27.749 24.2481 25.7971 21.8402 25.7971C19.4324 25.7971 17.4805 27.749 17.4805 30.1569C17.4805 32.5647 19.4324 34.5166 21.8402 34.5166Z" fill="#EAC0B3"/>
<path d="M21.8398 33.6445H36.663V55.33C36.663 55.33 33.4865 57.1872 29.2514 57.1872C25.0164 57.1872 21.8398 54.1554 21.8398 54.1554V33.6445Z" fill="#EAC0B3"/>
<path d="M36.4981 44.2057C36.4981 48.9012 35.7395 48.4565 30.8016 48.4565C25.8638 48.4565 23.5854 44.6504 23.5854 39.955C23.5854 35.2604 23.3979 31.0288 27.3827 31.0288C38.6509 31.4439 36.4981 39.5103 36.4981 44.2057Z" fill="#C99688"/>
<path d="M46.1555 29.3721C46.1555 37.1516 44.947 46.7178 35.3555 46.7178C25.764 46.7178 21.3415 37.1516 21.3415 29.3721C19.2244 20.1294 19.6604 9.22998 34.0476 9.22998C48.4348 9.22998 46.1555 21.5916 46.1555 29.3721Z" fill="#F5D0C5"/>
<path d="M39.2791 33.6445H38.4071C37.9255 33.6445 37.5352 34.0349 37.5352 34.5165C37.5352 34.998 37.9255 35.3884 38.4071 35.3884H39.2791C39.7606 35.3884 40.151 34.998 40.151 34.5165C40.151 34.0349 39.7606 33.6445 39.2791 33.6445Z" fill="#EAC0B3"/>
<path fill-rule="evenodd" clip-rule="evenodd" d="M47.9996 19.6934C47.9992 15.5689 46.3752 11.6103 43.4788 8.67374C40.5825 5.73721 36.6467 4.05881 32.5225 4.00152C28.3984 3.94423 24.4174 5.51265 21.4406 8.36759C18.4638 11.2225 16.7305 15.1345 16.6155 19.2575H16.6094V54.5715H26.2008V28.0615C28.3676 27.6448 32.1127 26.7275 36.8456 24.7865C41.61 22.8325 44.5824 20.9857 46.1476 19.8713C46.3586 22.0721 46.2854 24.3706 46.2174 26.5069C46.186 27.5061 46.1554 28.4687 46.1554 29.3712C46.1554 29.727 46.1485 30.0845 46.1336 30.4428C46.3351 30.3792 46.5234 30.3094 46.6908 30.2336C47.9987 29.6372 47.9987 28.8411 47.9987 28.8411V19.6934H47.9996ZM19.2252 26.669C18.5991 27.1374 18.1111 27.7661 17.8127 28.4888C17.4424 29.3831 17.3802 30.3751 17.636 31.3086C17.8917 32.2421 18.4509 33.064 19.2252 33.6446V26.669Z" fill="#1B0B47"/>
<path d="M31.3711 38.0043C31.3711 37.773 31.463 37.5512 31.6265 37.3877C31.79 37.2242 32.0118 37.1323 32.243 37.1323H40.2153C40.4465 37.1323 40.6683 37.2242 40.8319 37.3877C40.9954 37.5512 41.0872 37.773 41.0872 38.0043C41.0872 39.1606 40.6279 40.2695 39.8103 41.0871C38.9927 41.9047 37.8838 42.364 36.7275 42.364H35.7308C34.5746 42.364 33.4656 41.9047 32.648 41.0871C31.8304 40.2695 31.3711 39.1606 31.3711 38.0043Z" fill="#66253C"/>
<path fill-rule="evenodd" clip-rule="evenodd" d="M38.1954 42.1113C37.7244 42.2793 37.228 42.3649 36.7279 42.3642H35.7313C34.6052 42.3642 33.5228 41.9285 32.7107 41.1483C31.8987 40.3681 31.42 39.304 31.375 38.1788C32.0412 37.9295 33.03 37.9582 34.0057 37.987C34.3161 37.9957 34.6248 38.0045 34.9212 38.0045C36.8482 38.0045 38.409 39.3708 38.409 41.0563C38.409 41.4269 38.3332 41.7826 38.1954 42.1113Z" fill="#B03E67"/>
<path d="M32.3047 37.1323H41.0242V38.0043C41.0242 38.2355 40.9323 38.4573 40.7688 38.6208C40.6053 38.7844 40.3835 38.8762 40.1522 38.8762H33.1766C32.9454 38.8762 32.7236 38.7844 32.5601 38.6208C32.3966 38.4573 32.3047 38.2355 32.3047 38.0043V37.1323Z" fill="white"/>
<path d="M34.9205 30.5928C34.9205 29.8705 34.335 29.2849 33.6126 29.2849C32.8903 29.2849 32.3047 29.8705 32.3047 30.5928V31.4648C32.3047 32.1871 32.8903 32.7727 33.6126 32.7727C34.335 32.7727 34.9205 32.1871 34.9205 31.4648V30.5928Z" fill="#1B0B47"/>
<path d="M43.6393 30.5928C43.6393 29.8705 43.0537 29.2849 42.3314 29.2849C41.609 29.2849 41.0234 29.8705 41.0234 30.5928V31.4648C41.0234 32.1871 41.609 32.7727 42.3314 32.7727C43.0537 32.7727 43.6393 32.1871 43.6393 31.4648V30.5928Z" fill="#1B0B47"/>
</svg>
