<svg width="313" height="305" viewBox="0 0 313 305" fill="none" xmlns="http://www.w3.org/2000/svg">
<g clip-path="url(#clip0_688_139)">
<path d="M266.266 297.109C266.992 299.834 268.898 302.103 271.199 303.756C271.574 304.027 271.959 304.277 272.349 304.513C272.47 304.583 272.59 304.658 272.715 304.723C272.85 304.803 272.985 304.878 273.12 304.949H283.941C284.136 304.553 284.326 304.152 284.516 303.756C289.153 293.998 292.41 283.468 291.855 272.743C291.634 268.583 290.762 264.483 289.268 260.595C286.297 252.845 280.874 246.137 273.415 242.761C273.23 242.676 273.035 242.591 272.845 242.51C272.905 242.726 272.965 242.936 273.025 243.152C273.825 246.038 274.391 248.985 274.716 251.963C274.746 252.194 274.771 252.424 274.791 252.66C275.501 259.842 274.87 267.094 272.93 274.045C272.925 274.06 272.92 274.08 272.915 274.095C272.49 275.633 271.996 277.148 271.434 278.639C270.994 279.816 270.518 280.978 269.998 282.12C267.827 286.914 264.916 292.024 266.266 297.109Z" fill="#E6E6E6"/>
<path d="M272.711 242.736C272.816 242.876 272.921 243.012 273.026 243.152C275.223 246.068 277.089 249.22 278.589 252.55C278.669 252.715 278.744 252.88 278.809 253.051C280.864 257.7 282.184 262.642 282.721 267.698C282.727 267.733 282.73 267.768 282.731 267.803C282.856 268.986 282.931 270.178 282.961 271.37C283.072 273.605 282.831 275.843 282.246 278.003C281.712 279.766 280.777 281.381 279.514 282.722C279.389 282.857 279.264 282.992 279.129 283.122C279.029 283.228 278.919 283.333 278.814 283.433C277.803 284.4 276.698 285.296 275.747 286.333C275.312 286.798 274.918 287.301 274.572 287.836C274.019 288.733 273.661 289.736 273.523 290.781C273.385 291.826 273.47 292.888 273.771 293.898C274.452 296.432 276.007 298.572 277.598 300.61C278.394 301.632 279.214 302.664 279.924 303.756C280.185 304.147 280.425 304.543 280.645 304.949H281.275C281.065 304.543 280.835 304.147 280.585 303.756C278.759 300.876 276.162 298.401 274.817 295.23C273.906 293.091 273.631 290.667 274.782 288.568C275.119 287.957 275.527 287.389 275.997 286.874C276.913 285.837 278.008 284.951 279.004 284.014C279.254 283.779 279.499 283.538 279.734 283.288C280.981 282.019 281.943 280.499 282.556 278.829C283.25 276.708 283.578 274.484 283.526 272.252C283.526 270.829 283.451 269.396 283.311 267.974C283.296 267.793 283.276 267.608 283.256 267.423C282.233 258.47 278.835 249.955 273.416 242.761C273.316 242.621 273.211 242.486 273.106 242.35C272.891 242.07 272.495 242.46 272.711 242.736Z" fill="white"/>
<path d="M283.055 268.021C284.787 267.73 286.36 266.831 287.492 265.485C288.624 264.14 289.242 262.435 289.235 260.676C289.234 260.604 289.205 260.535 289.155 260.485C289.104 260.434 289.036 260.404 288.964 260.403C288.893 260.401 288.823 260.427 288.771 260.476C288.718 260.525 288.686 260.592 288.682 260.664C288.692 262.302 288.117 263.89 287.06 265.141C286.003 266.391 284.535 267.223 282.919 267.485C282.568 267.542 282.706 268.078 283.055 268.021V268.021Z" fill="white"/>
<path d="M279.652 282.822C276.709 280.762 274.649 277.666 273.883 274.152C273.807 273.804 273.272 273.94 273.347 274.287C274.151 277.943 276.301 281.16 279.369 283.297C279.662 283.501 279.943 283.025 279.652 282.822V282.822Z" fill="white"/>
<path d="M278.753 252.491C278.106 252.744 277.407 252.831 276.717 252.746C276.028 252.661 275.371 252.406 274.804 252.004C274.514 251.797 274.233 252.273 274.521 252.479C275.149 252.921 275.875 253.202 276.637 253.297C277.398 253.393 278.171 253.3 278.888 253.027C278.958 253.007 279.018 252.962 279.055 252.899C279.092 252.837 279.104 252.763 279.089 252.692C279.07 252.621 279.025 252.56 278.962 252.522C278.899 252.485 278.824 252.473 278.753 252.491V252.491Z" fill="white"/>
<path d="M235.18 262.108C235.355 262.243 235.535 262.378 235.71 262.518C238.085 264.339 240.309 266.349 242.358 268.53C242.519 268.695 242.679 268.865 242.834 269.036L242.839 269.041C247.699 274.324 251.543 280.462 254.175 287.145L254.19 287.19C254.195 287.205 254.2 287.215 254.205 287.23C255.248 289.905 256.089 292.655 256.721 295.456C257.331 298.191 257.832 301.121 258.787 303.756C258.932 304.162 259.092 304.563 259.262 304.949H281.504C281.429 304.553 281.349 304.152 281.269 303.756C280.138 297.952 278.369 292.29 275.996 286.874C275.916 286.694 275.836 286.514 275.746 286.333C274.521 283.657 273.08 281.086 271.439 278.644C271.439 278.643 271.439 278.643 271.438 278.642C271.438 278.641 271.438 278.641 271.437 278.64C271.437 278.64 271.436 278.639 271.436 278.639C271.435 278.639 271.434 278.639 271.434 278.639C270.532 277.306 269.564 276.021 268.532 274.787C265.857 271.599 262.696 268.854 259.167 266.651C259.147 266.636 259.122 266.626 259.102 266.611C252.079 262.248 243.754 260.169 235.795 261.967H235.79C235.585 262.012 235.385 262.058 235.18 262.108Z" fill="#E6E6E6"/>
<path d="M235.206 262.373C235.377 262.418 235.547 262.468 235.712 262.518C239.218 263.522 242.602 264.911 245.802 266.661C245.962 266.746 246.122 266.837 246.282 266.927C250.705 269.398 254.719 272.54 258.184 276.239C258.186 276.242 258.188 276.245 258.189 276.249C258.229 276.289 258.274 276.334 258.309 276.375C259.109 277.236 259.879 278.133 260.61 279.055C262.039 280.773 263.19 282.705 264.022 284.78C264.657 286.51 264.882 288.364 264.677 290.196C264.662 290.381 264.637 290.561 264.612 290.747C264.592 290.892 264.572 291.037 264.547 291.188C264.217 293.196 263.646 295.21 263.807 297.259C263.904 298.309 264.222 299.326 264.74 300.244C265.259 301.162 265.965 301.959 266.813 302.584C267.39 303.03 268.006 303.423 268.654 303.756C269.581 304.235 270.547 304.634 271.541 304.948H273.507C273.242 304.873 272.981 304.798 272.716 304.723C271.775 304.457 270.852 304.134 269.95 303.756C269.435 303.54 268.933 303.293 268.449 303.015C266.438 301.858 264.762 300.084 264.412 297.715C264.107 295.641 264.697 293.567 265.047 291.538C265.107 291.188 265.162 290.842 265.192 290.496C265.431 288.739 265.286 286.951 264.767 285.256C264.047 283.142 262.971 281.166 261.585 279.415C260.728 278.275 259.813 277.18 258.844 276.134C258.724 275.999 258.599 275.864 258.469 275.728C254.932 272.002 250.847 268.838 246.357 266.346H246.352C243.014 264.484 239.472 263.015 235.797 261.967H235.792C235.627 261.917 235.457 261.867 235.292 261.822C234.946 261.732 234.866 262.278 235.206 262.373Z" fill="white"/>
<path d="M258.666 276.324C259.874 275.047 260.59 273.381 260.685 271.624C260.779 269.867 260.248 268.134 259.184 266.733C258.968 266.451 258.519 266.774 258.736 267.057C259.728 268.359 260.224 269.974 260.132 271.61C260.04 273.245 259.367 274.794 258.235 275.977C257.99 276.235 258.421 276.58 258.666 276.324V276.324Z" fill="white"/>
<path d="M264.85 290.193C261.26 290.322 257.754 289.092 255.03 286.748C254.76 286.516 254.414 286.947 254.683 287.179C257.523 289.613 261.174 290.886 264.909 290.743C265.265 290.729 265.204 290.179 264.85 290.193V290.193Z" fill="white"/>
<path d="M245.895 266.517C245.53 267.109 245.024 267.6 244.423 267.948C243.822 268.296 243.143 268.488 242.449 268.509C242.093 268.518 242.155 269.068 242.509 269.059C243.276 269.033 244.024 268.819 244.69 268.436C245.355 268.054 245.917 267.514 246.325 266.864C246.369 266.806 246.389 266.733 246.381 266.661C246.373 266.589 246.338 266.522 246.283 266.475C246.226 266.429 246.153 266.408 246.08 266.416C246.008 266.424 245.941 266.46 245.895 266.517V266.517Z" fill="white"/>
<path d="M54.3623 291.308C53.1001 296.049 49.7838 299.998 45.7798 302.874C45.127 303.345 44.4568 303.781 43.7778 304.19C43.5689 304.312 43.36 304.443 43.1424 304.556C42.9074 304.696 42.6724 304.827 42.4374 304.949H23.6099C23.2704 304.26 22.9397 303.563 22.6089 302.874C14.54 285.895 8.87352 267.573 9.83967 248.912C10.223 241.674 11.7416 234.541 14.3398 227.775C19.5101 214.291 28.9456 202.62 41.9238 196.746C42.2458 196.597 42.5853 196.449 42.9161 196.31C42.8116 196.685 42.7072 197.051 42.6027 197.426C41.2104 202.448 40.2265 207.576 39.6607 212.757C39.6084 213.158 39.5649 213.559 39.5301 213.969C38.2935 226.466 39.3916 239.084 42.7681 251.178C42.7768 251.204 42.7855 251.239 42.7942 251.265C43.5341 253.941 44.3929 256.577 45.3707 259.171C46.1367 261.219 46.9636 263.242 47.8688 265.229C51.6465 273.57 56.7124 282.461 54.3623 291.308Z" fill="#E6E6E6"/>
<path d="M43.1508 196.702C42.968 196.946 42.7851 197.181 42.6024 197.425C38.7793 202.499 35.5328 207.983 32.9232 213.777C32.7839 214.065 32.6534 214.352 32.5402 214.649C28.9644 222.739 26.668 231.337 25.7334 240.135C25.7233 240.195 25.7175 240.257 25.716 240.318C25.4984 242.375 25.3679 244.449 25.3156 246.524C25.2112 250.403 25.4549 254.334 26.5603 258.064C27.4887 261.132 29.1156 263.943 31.3128 266.275C31.5305 266.51 31.7481 266.745 31.9831 266.972C32.1572 267.155 32.3487 267.338 32.5315 267.512C34.2898 269.195 36.2134 270.755 37.8672 272.559C38.6252 273.368 39.3098 274.243 39.9127 275.174C41.9408 278.355 42.2803 282.112 41.3054 285.721C40.1216 290.131 37.4146 293.853 34.6466 297.4C33.2627 299.178 31.8351 300.974 30.5991 302.874C30.1465 303.554 29.7287 304.243 29.3457 304.949H28.249C28.6145 304.243 29.0149 303.554 29.4502 302.874C32.6272 297.862 37.1447 293.556 39.4862 288.039C41.0704 284.317 41.5491 280.099 39.5471 276.447C38.9604 275.385 38.2504 274.396 37.432 273.5C35.8391 271.696 33.9329 270.153 32.2007 268.524C31.7655 268.114 31.339 267.696 30.9299 267.26C28.7609 265.053 27.0873 262.408 26.0207 259.502C24.7237 255.85 24.332 251.911 24.332 248.058C24.332 245.583 24.4626 243.09 24.7063 240.614C24.7324 240.301 24.7672 239.978 24.802 239.656C26.5821 224.078 32.4938 209.262 41.9234 196.746C42.0975 196.502 42.2803 196.266 42.4631 196.031C42.8374 195.543 43.525 196.223 43.1508 196.702Z" fill="white"/>
<path d="M25.154 240.697C22.1391 240.19 19.4023 238.626 17.4325 236.285C15.4627 233.944 14.388 230.978 14.4005 227.917C14.4022 227.792 14.4521 227.672 14.5399 227.584C14.6277 227.495 14.7464 227.444 14.8711 227.441C14.9957 227.439 15.1165 227.484 15.2081 227.569C15.2997 227.654 15.3548 227.771 15.3619 227.895C15.3451 230.746 16.3464 233.509 18.1851 235.685C20.0239 237.861 22.579 239.308 25.3892 239.763C25.9998 239.863 25.7611 240.796 25.154 240.697Z" fill="white"/>
<path d="M31.0705 266.45C36.1926 262.865 39.7772 257.478 41.1093 251.364C41.2408 250.758 42.1728 250.995 42.0415 251.6C40.6434 257.96 36.9018 263.558 31.5633 267.277C31.0543 267.631 30.5642 266.802 31.0705 266.45L31.0705 266.45Z" fill="white"/>
<path d="M32.6342 213.675C33.7599 214.115 34.9771 214.268 36.1763 214.12C37.3755 213.972 38.5193 213.528 39.5049 212.828C40.0093 212.468 40.4988 213.297 39.9978 213.655C38.9052 214.423 37.6414 214.912 36.3168 215.078C34.9922 215.244 33.6471 215.083 32.399 214.609C32.2776 214.574 32.1741 214.494 32.1093 214.386C32.0446 214.277 32.0236 214.148 32.0505 214.024C32.0823 213.901 32.1614 213.795 32.2707 213.73C32.38 213.664 32.5106 213.645 32.6342 213.675V213.675Z" fill="white"/>
<path d="M108.45 230.408C108.145 230.643 107.832 230.878 107.527 231.122C103.394 234.289 99.5257 237.787 95.9589 241.582C95.6804 241.87 95.4019 242.166 95.132 242.462L95.1233 242.471C86.6662 251.664 79.9792 262.344 75.3994 273.971L75.3732 274.05C75.3645 274.076 75.3558 274.093 75.3471 274.119C73.5318 278.774 72.0682 283.558 70.9688 288.431C69.9069 293.19 69.0365 298.289 67.3739 302.874C67.1215 303.58 66.843 304.277 66.5471 304.949H27.8477C27.9782 304.26 28.1175 303.563 28.2568 302.874C30.3284 292.772 33.2356 282.809 37.4311 273.501C37.5704 273.187 37.7097 272.873 37.8664 272.559C39.9979 267.903 42.5043 263.429 45.3608 259.18C45.3607 259.179 45.3609 259.178 45.3614 259.177C45.3618 259.175 45.3624 259.174 45.3632 259.174C45.3641 259.173 45.365 259.172 45.3661 259.172C45.3672 259.171 45.3683 259.171 45.3695 259.171C46.938 256.853 48.623 254.616 50.418 252.468C55.0732 246.922 60.5721 242.145 66.7125 238.313C66.7473 238.287 66.7908 238.27 66.8256 238.244C79.0465 230.652 93.5305 227.035 107.379 230.164H107.388C107.745 230.242 108.093 230.321 108.45 230.408Z" fill="#E6E6E6"/>
<path d="M108.408 230.87C108.112 230.948 107.816 231.035 107.529 231.122C101.428 232.868 95.5402 235.285 89.9721 238.331C89.6936 238.479 89.415 238.636 89.1365 238.793C81.4415 243.093 74.4566 248.559 68.4289 254.996C68.4242 255.001 68.4211 255.007 68.4202 255.013C68.3506 255.083 68.2723 255.162 68.2113 255.231C66.8186 256.731 65.4782 258.291 64.2074 259.895C61.805 262.928 59.6289 266.214 58.271 269.857C57.1649 272.866 56.7745 276.093 57.1307 279.279C57.1568 279.602 57.2004 279.916 57.2439 280.238C57.2787 280.491 57.3135 280.744 57.3571 281.005C57.9315 284.5 58.9238 288.004 58.6453 291.569C58.3493 295.335 56.3648 298.542 53.414 300.834C52.4109 301.611 51.3386 302.294 50.2108 302.874C48.5983 303.707 46.9181 304.401 45.1884 304.949H41.7676C42.2289 304.818 42.6815 304.687 43.1429 304.556C44.7799 304.094 46.3874 303.532 47.9563 302.874C48.8526 302.499 49.7248 302.068 50.5676 301.584C54.0668 299.571 56.9828 296.485 57.592 292.362C58.123 288.754 57.0959 285.145 56.4866 281.615C56.3822 281.005 56.2864 280.404 56.2342 279.802C55.8186 276.745 56.071 273.635 56.974 270.685C58.1316 266.981 60.1859 263.608 62.51 260.522C64.0015 258.539 65.5935 256.633 67.2799 254.813C67.4888 254.578 67.7064 254.342 67.9328 254.107C74.0872 247.624 81.1933 242.118 89.0059 237.781H89.0146C94.8236 234.543 100.986 231.987 107.381 230.164H107.389C107.677 230.076 107.973 229.989 108.26 229.911C108.86 229.754 109 230.704 108.408 230.87Z" fill="white"/>
<path d="M67.588 255.144C65.4856 252.921 64.2407 250.023 64.0755 246.966C63.9103 243.909 64.8356 240.893 66.6861 238.456C67.0622 237.964 67.843 238.526 67.4664 239.019C65.739 241.285 64.8774 244.094 65.037 246.941C65.1967 249.787 66.3671 252.482 68.337 254.54C68.7646 254.988 68.0131 255.589 67.588 255.144V255.144Z" fill="white"/>
<path d="M56.8289 279.274C63.0743 279.5 69.1751 277.36 73.9148 273.281C74.3841 272.877 74.9862 273.627 74.5175 274.031C69.5773 278.266 63.224 280.48 56.7254 280.231C56.106 280.207 56.2129 279.25 56.8289 279.274V279.274Z" fill="white"/>
<path d="M89.808 238.079C90.4425 239.109 91.3225 239.965 92.3689 240.57C93.4153 241.175 94.5953 241.51 95.8031 241.545C96.4225 241.562 96.315 242.519 95.6996 242.502C94.3654 242.457 93.0626 242.085 91.905 241.419C90.7474 240.754 89.7703 239.814 89.059 238.683C88.983 238.582 88.9483 238.456 88.9619 238.33C88.9755 238.204 89.0364 238.088 89.1321 238.006C89.2317 237.927 89.3586 237.89 89.4851 237.903C89.6117 237.917 89.7277 237.98 89.808 238.079L89.808 238.079Z" fill="white"/>
<path d="M313 304.404C313 304.482 312.985 304.56 312.955 304.632C312.925 304.705 312.882 304.77 312.826 304.826C312.771 304.881 312.705 304.925 312.633 304.955C312.56 304.985 312.483 305 312.405 305H0.595315C0.437428 305 0.286006 304.937 0.174363 304.825C0.0627196 304.713 0 304.562 0 304.404C0 304.246 0.0627196 304.094 0.174363 303.982C0.286006 303.87 0.437428 303.808 0.595315 303.808H312.405C312.483 303.807 312.56 303.823 312.633 303.853C312.705 303.882 312.771 303.926 312.826 303.982C312.882 304.037 312.925 304.103 312.955 304.175C312.985 304.248 313 304.325 313 304.404V304.404Z" fill="#CCCCCC"/>
<path d="M192.649 82.1473H153.628C151.893 78.9134 149.271 76.1545 153.628 69.6579C153.628 65.3453 155.299 61.201 158.29 58.0976C161.28 54.9942 165.356 53.1739 169.66 53.02C178.101 50.4937 184.18 55.6234 185.832 63.8411L192.649 82.1473Z" fill="#2F2E41"/>
<path d="M115.282 88.9337C115.992 89.0119 116.676 89.2449 117.286 89.6164C117.895 89.9878 118.417 90.4886 118.812 91.0836C119.208 91.6785 119.468 92.3531 119.576 93.0598C119.683 93.7665 119.634 94.4881 119.432 95.1738L149.715 120.395L141.301 123.641L113.02 98.4303C111.892 98.015 110.955 97.1998 110.387 96.1392C109.819 95.0786 109.66 93.8462 109.939 92.6757C110.218 91.5051 110.916 90.4776 111.901 89.788C112.885 89.0983 114.089 88.7944 115.282 88.9337V88.9337Z" fill="#FFB6B6"/>
<path d="M150.359 131.286C143.649 131.288 117.468 103.816 116.326 102.614L116.035 102.308L125.727 99.7116L148.976 116.592L157.451 102.23C158.388 100.646 159.791 99.3908 161.468 98.6366C163.146 97.8824 165.014 97.6658 166.819 98.0165C168.417 98.3289 169.898 99.074 171.102 100.171C172.306 101.267 173.187 102.674 173.648 104.237C174.109 105.8 174.134 107.459 173.719 109.035C173.304 110.611 172.466 112.043 171.295 113.175L155.265 128.671C154.033 129.86 152.532 130.733 150.891 131.217C150.718 131.265 150.539 131.289 150.359 131.286V131.286Z" fill="#FFB163"/>
<path d="M150.877 127.483L154.129 139.756L181.143 145.748L179.392 139.506L184.428 134.136L178.892 124.978L150.877 127.483Z" fill="#FFB8B8"/>
<path d="M148.487 294.896H143.209L140.697 274.511H148.487V294.896Z" fill="#FFB8B8"/>
<path d="M151.271 304.054H147.486L146.811 300.475L145.081 304.054H135.042C134.561 304.054 134.092 303.9 133.704 303.614C133.317 303.329 133.031 302.926 132.887 302.466C132.744 302.006 132.752 301.513 132.909 301.057C133.065 300.602 133.364 300.208 133.76 299.934L141.776 294.39V290.773L150.208 291.277L151.271 304.054Z" fill="#2F2E41"/>
<path d="M214.636 290.407L209.732 292.361L199.869 274.352L207.106 271.467L214.636 290.407Z" fill="#FFB8B8"/>
<path d="M220.606 297.883L217.089 299.284L215.14 296.21L214.854 300.175L205.527 303.893C205.08 304.071 204.588 304.102 204.122 303.98C203.656 303.858 203.242 303.591 202.939 303.216C202.636 302.842 202.46 302.38 202.438 301.899C202.416 301.418 202.547 300.942 202.814 300.541L208.215 292.421L206.879 289.06L214.899 286.405L220.606 297.883Z" fill="#2F2E41"/>
<path d="M184.317 135.561L183.816 135.126C183.668 134.998 168.86 122.489 150.393 134.169L149.794 134.547L146.012 117.882C145.572 115.966 145.672 113.965 146.301 112.103C146.931 110.24 148.064 108.59 149.576 107.335L162.909 96.2269L167.585 93.8856L166.991 90.0211C166.877 89.2612 167.026 88.4851 167.414 87.8219C167.802 87.1588 168.405 86.6486 169.122 86.3763L176.388 83.648C177.201 83.339 178.101 83.3602 178.898 83.7072C179.695 84.0542 180.325 84.6993 180.653 85.505L181.423 87.3708L183.072 86.7899C184.072 86.4247 185.134 86.2612 186.197 86.3088C187.26 86.3564 188.304 86.6142 189.267 87.0673C190.233 87.5364 191.09 88.2034 191.783 89.025C192.476 89.8467 192.989 90.8047 193.288 91.8373C196.123 101.437 195.363 111.743 191.151 120.821L184.317 135.561Z" fill="#FFB163"/>
<path d="M150.523 285.532H139.605L142.623 234.17L140.417 199.356L140.422 199.328L148.648 149.424C149.295 145.489 151.044 141.818 153.691 138.839L153.791 138.726L181.322 145.534L184.09 151.855C193.542 157.484 196.527 189.228 196.65 190.58L200.651 230.152L210.44 278.651L203.546 282.368L203.431 282.138L181.67 238.806L167.927 193.109L159.126 234.237L150.523 285.532Z" fill="#2F2E41"/>
<path d="M194.558 176.932C194.055 176.425 193.668 175.814 193.426 175.142C193.184 174.469 193.092 173.752 193.157 173.04C193.222 172.328 193.441 171.639 193.801 171.021C194.16 170.404 194.65 169.873 195.237 169.465L187.463 130.799L196.048 133.559L202.271 170.959C202.889 171.991 203.107 173.215 202.885 174.397C202.662 175.58 202.014 176.64 201.064 177.376C200.113 178.112 198.926 178.474 197.727 178.392C196.528 178.31 195.4 177.79 194.558 176.932V176.932Z" fill="#FFB6B6"/>
<path d="M183.08 95.1238L188.406 91.0975C188.406 91.0975 193.105 90.7643 193.937 99.2498C194.77 107.735 196.478 124.272 196.478 124.272L204.629 162.075L193.346 164.555L184.616 123.759L179.379 111.644L183.08 95.1238Z" fill="#FFB163"/>
<path d="M167.145 81.7016C174.322 81.7016 180.14 75.8756 180.14 68.6888C180.14 61.5021 174.322 55.676 167.145 55.676C159.968 55.676 154.15 61.5021 154.15 68.6888C154.15 75.8756 159.968 81.7016 167.145 81.7016Z" fill="#FFB8B8"/>
<path d="M174.567 56.0584C172.323 53.8339 169.292 52.5878 166.135 52.5916H163.633C160.449 52.5916 157.395 53.8582 155.144 56.1129C152.892 58.3676 151.627 61.4256 151.627 64.6142V64.6143C153.811 66.5107 164.388 66.1213 170.637 65.6162C170.189 72.1352 164.658 78.5411 166.135 82.1474H191.148V79.6427C193.289 68.6369 185.293 59.4565 174.567 56.0584Z" fill="#2F2E41"/>
<path d="M61.8284 225.669C66.2491 225.669 69.8327 222.08 69.8327 217.654C69.8327 213.227 66.2491 209.638 61.8284 209.638C57.4078 209.638 53.8242 213.227 53.8242 217.654C53.8242 222.08 57.4078 225.669 61.8284 225.669Z" fill="#F2F2F2"/>
<path d="M259.183 256.978C262.775 256.978 265.687 254.062 265.687 250.466C265.687 246.869 262.775 243.953 259.183 243.953C255.591 243.953 252.68 246.869 252.68 250.466C252.68 254.062 255.591 256.978 259.183 256.978Z" fill="#F2F2F2"/>
<path d="M228.667 121.221C232.259 121.221 235.171 118.306 235.171 114.709C235.171 111.112 232.259 108.197 228.667 108.197C225.076 108.197 222.164 111.112 222.164 114.709C222.164 118.306 225.076 121.221 228.667 121.221Z" fill="#F2F2F2"/>
<path d="M95.5201 56.9747C99.3558 48.0772 102.456 37.9935 100.053 28.2828C98.172 20.6832 92.7834 13.3977 84.8973 11.455C80.8397 10.5156 76.5866 10.9319 72.7875 12.6404C68.9885 14.3488 65.8522 17.2555 63.8578 20.9165C61.9027 24.6198 61.1236 28.8327 61.6248 32.9915C62.1393 37.1223 63.9349 41.6706 67.7158 43.8356C71.1674 45.8119 75.98 45.2628 77.9562 41.5124C79.6175 38.3597 78.9709 34.3088 76.7897 31.5805C74.1285 28.2518 69.8217 26.751 65.7681 26.009C61.5071 25.2248 57.1464 25.147 52.8603 25.7788C44.4296 27.03 36.4609 31.3272 31.6402 38.4903C27.1851 45.1101 25.5071 53.8813 28.4714 61.4446C31.4266 68.9846 38.2002 74.3106 45.6889 76.9356C54.8775 80.1565 64.9725 79.0088 74.159 76.4012C76.5776 75.7147 78.9635 74.9192 81.3257 74.0593C82.2263 73.7315 81.8375 72.2786 80.9267 72.6101C71.9753 75.8685 62.372 78.3002 52.7883 77.0743C45.388 76.1277 38.0984 72.6255 33.3179 66.7952C30.9726 63.9511 29.4052 60.546 28.769 56.9131C28.1849 53.2077 28.504 49.4158 29.6991 45.8605C30.9332 42.185 32.9444 38.8192 35.5956 35.9929C38.2468 33.1665 41.4757 30.946 45.0618 29.4829C48.8028 27.9356 52.7861 27.0584 56.8301 26.8912C60.8531 26.6635 64.8851 27.131 68.7496 28.2732C72.1944 29.3421 75.8616 31.4278 77.0018 35.0878C77.9102 38.0037 77.228 41.8873 74.0781 43.1146C73.1586 43.4348 72.1802 43.5492 71.2118 43.4495C70.2434 43.3499 69.3086 43.0387 68.4733 42.5379C66.7436 41.4597 65.3813 39.8811 64.5667 38.0109C62.9779 34.4203 62.5659 30.418 63.3898 26.5783C64.2138 22.7387 66.2313 19.2591 69.1528 16.639C72.1152 14.1364 75.8129 12.6713 79.6833 12.4667C83.4282 12.2721 87.1278 13.3581 90.1749 15.5466C93.1527 17.7608 95.5078 20.7088 97.0112 24.1041C100.76 32.2007 99.5246 41.4245 96.7722 49.6221C96.0218 51.857 95.1573 54.0519 94.2243 56.2162C93.8455 57.0949 95.138 57.8612 95.5201 56.9747Z" fill="#F2F2F2"/>
<path d="M96.598 86.1549C105.163 86.1549 112.106 79.2022 112.106 70.6256C112.106 62.0489 105.163 55.0962 96.598 55.0962C88.0331 55.0962 81.0898 62.0489 81.0898 70.6256C81.0898 79.2022 88.0331 86.1549 96.598 86.1549Z" fill="white"/>
<path d="M110.605 70.6256C110.605 73.5185 109.711 76.3405 108.047 78.7052C106.383 81.07 104.03 82.8619 101.309 83.8357C98.5889 84.8094 95.6345 84.9173 92.8505 84.1446C90.0665 83.372 87.589 81.7565 85.7573 79.5195C85.3379 79.0056 84.956 78.4621 84.6146 77.8933C84.2583 77.2963 83.9396 76.6776 83.6604 76.0408C83.3771 75.343 83.1468 74.6248 82.9716 73.8923C82.8003 73.2219 82.6886 72.5376 82.6376 71.8474C82.3874 68.9431 83.0448 66.0327 84.5188 63.5188C85.9928 61.0049 88.2104 59.0119 90.865 57.8153C92.8373 56.932 94.9868 56.517 97.1456 56.6025C99.3045 56.688 101.414 57.2717 103.311 58.3081C105.207 59.3446 106.839 60.8057 108.079 62.5776C109.319 64.3495 110.133 66.3842 110.458 68.5231C110.49 68.7177 110.49 68.7266 110.499 68.8024C110.523 69.0024 110.542 69.2028 110.558 69.4038C110.589 69.8104 110.603 70.2178 110.605 70.6256C110.616 72.5591 113.617 72.5632 113.607 70.6256C113.617 66.2178 111.926 61.9766 108.886 58.7886C105.846 55.6006 101.693 53.7127 97.2958 53.5196C92.8983 53.3265 88.5964 54.8431 85.2896 57.7524C81.9828 60.6617 79.9271 64.7383 79.5522 69.1301C79.1774 73.5219 80.5125 77.8888 83.2783 81.3178C86.0442 84.7467 90.0267 86.9723 94.3932 87.5293C98.7597 88.0862 103.172 86.9313 106.708 84.3061C110.244 81.6809 112.63 77.7885 113.366 73.4429C113.517 72.5111 113.597 71.5694 113.607 70.6256C113.617 68.6912 110.616 68.6889 110.605 70.6256Z" fill="#F2F2F2"/>
<path d="M103.309 66.3236L103.307 66.3199C103.94 65.9383 104.413 65.3402 104.639 64.6363C104.055 64.9833 103.418 65.2302 102.753 65.3666C102.433 64.9409 102.019 64.5959 101.543 64.3589C101.066 64.1219 100.541 63.9995 100.009 64.0015C99.0473 64.0017 98.1247 64.3845 97.4446 65.0658C96.7644 65.7471 96.3824 66.6711 96.3826 67.6344L96.3829 67.6847C94.3522 67.4066 92.503 66.3658 91.21 64.7733C91.1367 64.6832 91.0381 64.6172 90.9269 64.5839C90.8157 64.5505 90.6971 64.5513 90.5864 64.5862C90.5099 64.5963 90.4366 64.6233 90.3718 64.6652C90.3069 64.7072 90.2523 64.7631 90.2116 64.8288C89.9095 65.3943 89.7758 66.0348 89.8263 66.6742C89.8256 67.2466 89.9625 67.8107 90.2256 68.3189C90.1063 68.3417 89.9987 68.4055 89.9213 68.4992C89.8439 68.5929 89.8015 68.7107 89.8015 68.8323V68.8716C89.8009 69.3796 89.9087 69.8819 90.1178 70.3448C90.3268 70.8076 90.6322 71.2204 91.0135 71.5555L91.0006 71.5696C90.9407 71.6375 90.8994 71.7198 90.8808 71.8085C90.8621 71.8972 90.8669 71.9892 90.8945 72.0755C91.0493 72.5566 91.304 72.9996 91.6419 73.3752C91.9798 73.7509 92.3932 74.0507 92.855 74.255C91.89 74.6613 90.8346 74.804 89.7965 74.6685C89.6968 74.6568 89.5959 74.674 89.5058 74.7182C89.4157 74.7623 89.3402 74.8316 89.2883 74.9176C89.2701 74.9387 89.2534 74.9611 89.2383 74.9847C89.1972 75.0489 89.1691 75.1205 89.1556 75.1956C89.1422 75.2707 89.1436 75.3476 89.1598 75.4222C89.1761 75.4967 89.2068 75.5672 89.2503 75.6299C89.2938 75.6925 89.3492 75.7459 89.4133 75.7871C90.8996 76.7439 92.6296 77.2517 94.3966 77.2499C100.389 77.2499 103.646 72.2699 103.646 67.9881C103.646 67.7819 103.631 67.5759 103.601 67.372C104.166 66.9498 104.656 66.4339 105.048 65.8467L105.049 65.8447C104.496 66.0898 103.91 66.2512 103.309 66.3236V66.3236Z" fill="#FFB163"/>
<path d="M97.098 32.5536C105.663 32.5536 112.606 25.6009 112.606 17.0242C112.606 8.4476 105.663 1.49487 97.098 1.49487C88.5331 1.49487 81.5898 8.4476 81.5898 17.0242C81.5898 25.6009 88.5331 32.5536 97.098 32.5536Z" fill="white"/>
<path d="M111.105 17.0243C111.105 19.9171 110.211 22.7392 108.547 25.1039C106.883 27.4687 104.53 29.2606 101.809 30.2343C99.0889 31.208 96.1345 31.316 93.3505 30.5433C90.5665 29.7707 88.089 28.1552 86.2573 25.9181C85.8379 25.4043 85.456 24.8608 85.1146 24.2919C84.7583 23.695 84.4396 23.0763 84.1604 22.4395C83.8771 21.7417 83.6468 21.0235 83.4716 20.291C83.3003 19.6205 83.1886 18.9363 83.1376 18.2461C82.8874 15.3418 83.5448 12.4314 85.0188 9.91749C86.4928 7.40363 88.7104 5.41056 91.365 4.21399C93.3373 3.33074 95.4868 2.91566 97.6456 3.00115C99.8045 3.08664 101.914 3.67037 103.811 4.70682C105.707 5.74327 107.339 7.20442 108.579 8.9763C109.819 10.7482 110.633 12.7829 110.958 14.9218C110.99 15.1164 110.99 15.1253 110.999 15.2011C111.023 15.4011 111.042 15.6015 111.058 15.8024C111.089 16.2091 111.103 16.6165 111.105 17.0243C111.116 18.9578 114.117 18.9619 114.107 17.0243C114.117 12.6165 112.426 8.37525 109.386 5.18727C106.346 1.99929 102.193 0.111388 97.7958 -0.0817276C93.3983 -0.274843 89.0964 1.24178 85.7896 4.15105C82.4828 7.06033 80.4271 11.137 80.0522 15.5288C79.6774 19.9206 81.0125 24.2875 83.7783 27.7165C86.5442 31.1454 90.5267 33.371 94.8932 33.928C99.2597 34.4849 103.672 33.33 107.208 30.7048C110.744 28.0795 113.13 24.1872 113.866 19.8415C114.017 18.9098 114.097 17.9681 114.107 17.0243C114.117 15.0898 111.116 15.0876 111.105 17.0243Z" fill="#F2F2F2"/>
<path d="M100.567 18.6646L101.041 15.5689H98.0782C97.9784 12.991 97.8785 11.545 101.166 11.8913V9.25981C96.2419 8.17438 94.188 10.6738 94.7408 15.5689H92.0273V18.6646H94.7408V25.8368C95.8367 26.1019 96.979 26.1093 98.0782 25.8584V18.6646H100.567Z" fill="#FFB163"/>
<path d="M37.0668 87.6578C45.6317 87.6578 52.5749 80.7051 52.5749 72.1285C52.5749 63.5519 45.6317 56.5991 37.0668 56.5991C28.5018 56.5991 21.5586 63.5519 21.5586 72.1285C21.5586 80.7051 28.5018 87.6578 37.0668 87.6578Z" fill="white"/>
<path d="M51.0738 72.1285C51.0733 75.0214 50.1798 77.8434 48.5158 80.2082C46.8517 82.5729 44.4984 84.3649 41.778 85.3386C39.0577 86.3123 36.1032 86.4202 33.3192 85.6476C30.5352 84.8749 28.0578 83.2595 26.2261 81.0224C25.8067 80.5085 25.4248 79.965 25.0833 79.3962C24.727 78.7992 24.4083 78.1805 24.1291 77.5437C23.8459 76.8459 23.6156 76.1277 23.4403 75.3952C23.2691 74.7248 23.1573 74.0405 23.1063 73.3504C22.8562 70.446 23.5136 67.5356 24.9875 65.0217C26.4615 62.5079 28.6792 60.5148 31.3338 59.3182C33.3061 58.435 35.4555 58.0199 37.6144 58.1054C39.7733 58.1909 41.8832 58.7746 43.7797 59.8111C45.6762 60.8475 47.308 62.3087 48.5477 64.0806C49.7875 65.8524 50.6017 67.8872 50.9269 70.026C50.9584 70.2207 50.9588 70.2296 50.9678 70.3053C50.9915 70.5053 51.0111 70.7058 51.0265 70.9067C51.0581 71.3134 51.0715 71.7207 51.0738 72.1285C51.0845 74.062 54.0861 74.0662 54.0754 72.1285C54.0859 67.7207 52.3945 63.4795 49.3547 60.2915C46.3149 57.1035 42.1621 55.2156 37.7646 55.0225C33.367 54.8294 29.0651 56.346 25.7583 59.2553C22.4515 62.1646 20.3958 66.2413 20.021 70.6331C19.6462 75.0249 20.9812 79.3917 23.7471 82.8207C26.5129 86.2497 30.4954 88.4753 34.8619 89.0322C39.2285 89.5891 43.6409 88.4342 47.1768 85.809C50.7128 83.1838 53.0984 79.2915 53.8349 74.9458C53.9852 74.014 54.0656 73.0723 54.0754 72.1285C54.0861 70.1941 51.0845 70.1918 51.0738 72.1285Z" fill="#F2F2F2"/>
<path d="M37.4366 79.6977C36.8501 79.6977 36.2722 79.6806 35.7228 79.6642C35.0606 79.6444 34.4353 79.6263 33.9035 79.6412C33.3295 79.672 32.7552 79.5836 32.217 79.3815C31.6787 79.1794 31.188 78.868 30.7756 78.4669C29.129 76.7671 29.2221 73.6152 29.2971 71.0823C29.3166 70.4192 29.3352 69.7928 29.32 69.2605C29.2893 68.6857 29.3776 68.1108 29.5794 67.5718C29.7813 67.0328 30.0922 66.5415 30.4928 66.1286C32.1905 64.4797 35.3386 64.5737 37.8675 64.6478C38.53 64.6674 39.1556 64.6864 39.6868 64.6708L39.7015 64.6705C40.2732 64.6412 40.8447 64.7304 41.3804 64.9325C41.916 65.1346 42.4043 65.4453 42.8145 65.8451C44.4613 67.5449 44.368 70.6968 44.293 73.2297C44.2735 73.8928 44.2549 74.5192 44.2701 75.0515C44.3008 75.6263 44.2125 76.2013 44.0107 76.7403C43.8089 77.2793 43.4979 77.7707 43.0973 78.1836C41.7685 79.4744 39.5505 79.6977 37.4366 79.6977Z" fill="#FFB163"/>
<path d="M40.5713 69.2458C40.3447 69.2391 40.1296 69.1442 39.9718 68.9811C39.8141 68.8181 39.7261 68.5998 39.7266 68.3728C39.7271 68.1457 39.816 67.9279 39.9745 67.7655C40.133 67.6031 40.3485 67.5091 40.5751 67.5034C40.8017 67.5101 41.0168 67.6051 41.1746 67.7681C41.3323 67.9312 41.4203 68.1495 41.4198 68.3765C41.4193 68.6035 41.3304 68.8214 41.1719 68.9838C41.0134 69.1461 40.7979 69.2401 40.5713 69.2458V69.2458Z" fill="#E6E6E6"/>
<path d="M36.7952 75.9349C36.0488 75.935 35.3192 75.7134 34.6987 75.2982C34.0781 74.883 33.5944 74.2928 33.3088 73.6024C33.0231 72.9119 32.9484 72.1521 33.094 71.4191C33.2396 70.6861 33.5989 70.0128 34.1267 69.4843C34.6544 68.9558 35.3268 68.5959 36.0588 68.4501C36.7908 68.3042 37.5495 68.3791 38.2391 68.665C38.9286 68.951 39.518 69.4353 39.9326 70.0567C40.3473 70.6781 40.5686 71.4087 40.5687 72.1561C40.5676 73.1579 40.1697 74.1184 39.4622 74.8268C38.7548 75.5353 37.7957 75.9338 36.7952 75.9349ZM36.7952 69.3793C36.2467 69.3793 35.7105 69.5422 35.2545 69.8473C34.7985 70.1524 34.443 70.5861 34.2331 71.0935C34.0232 71.6009 33.9683 72.1592 34.0753 72.6979C34.1823 73.2366 34.4464 73.7314 34.8342 74.1197C35.222 74.5081 35.7162 74.7725 36.2541 74.8797C36.792 74.9868 37.3496 74.9318 37.8563 74.7216C38.363 74.5115 38.7961 74.1555 39.1008 73.6989C39.4055 73.2422 39.5682 72.7053 39.5681 72.1561C39.5673 71.4199 39.2749 70.7141 38.755 70.1936C38.2352 69.673 37.5304 69.3802 36.7952 69.3793V69.3793Z" fill="#E6E6E6"/>
</g>
<defs>
<clipPath id="clip0_688_139">
<rect width="313" height="305" fill="white"/>
</clipPath>
</defs>
</svg>
