<svg width="62" height="62" viewBox="0 0 62 62" fill="none" xmlns="http://www.w3.org/2000/svg">
<rect width="62" height="62" rx="8" fill="#6F6FFB"/>
<path d="M21.1272 36.7403C23.4455 36.7403 25.3248 34.861 25.3248 32.5428C25.3248 30.2245 23.4455 28.3452 21.1272 28.3452C18.809 28.3452 16.9297 30.2245 16.9297 32.5428C16.9297 34.861 18.809 36.7403 21.1272 36.7403Z" fill="#F0BD70"/>
<path d="M21.127 35.9009H35.3986V56.7795C35.3986 56.7795 32.3403 58.5677 28.2628 58.5677C24.1853 58.5677 21.127 55.6487 21.127 55.6487V35.9009Z" fill="#F0BD70"/>
<path d="M35.399 46.7037C35.399 51.4503 34.6585 51.0003 29.8439 51.0003C25.0293 51.0003 22.808 47.1528 22.808 42.4062C22.808 37.6596 22.625 33.3823 26.5102 33.3823C37.4978 33.8021 35.399 41.9571 35.399 46.7037Z" fill="#E9B05B"/>
<path d="M44.5374 31.7872C44.5374 39.2773 47.6318 48.4876 34.1392 48.4876C20.6466 48.4876 20.6466 39.2773 20.6466 31.7872C18.6083 22.8884 19.028 12.3945 32.88 12.3945C46.7319 12.3945 44.5374 24.2963 44.5374 31.7872Z" fill="#FFCB7E"/>
<path d="M37.9173 35.9009H37.0778C36.6141 35.9009 36.2383 36.2767 36.2383 36.7404C36.2383 37.204 36.6141 37.5799 37.0778 37.5799H37.9173C38.381 37.5799 38.7568 37.204 38.7568 36.7404C38.7568 36.2767 38.381 35.9009 37.9173 35.9009Z" fill="#F0BD70"/>
<path fill-rule="evenodd" clip-rule="evenodd" d="M44.6061 28.7507C45.303 28.3574 45.8364 27.7283 46.1104 26.9765C46.3844 26.2248 46.3809 25.3999 46.1005 24.6505C46.8668 24.281 47.4644 23.6345 47.7724 22.8414C48.0804 22.0484 48.076 21.168 47.7599 20.3781C47.4439 19.5882 46.8398 18.9478 46.0697 18.5861C45.2996 18.2244 44.421 18.1686 43.6113 18.4297C44.8009 21.5141 44.7136 25.3288 44.6061 28.7507Z" fill="#47280B"/>
<path fill-rule="evenodd" clip-rule="evenodd" d="M36.4871 20.5882C35.7221 21.2608 34.7379 21.6309 33.7192 21.6292C32.7902 21.6307 31.8872 21.3226 31.1529 20.7536C30.6079 21.2983 29.9609 21.7302 29.2488 22.0245C28.5368 22.3188 27.7736 22.4698 27.0031 22.4687C26.4214 22.4691 25.8428 22.3831 25.2864 22.2135C25.0675 22.453 24.8153 22.6597 24.5375 22.8272C24.868 23.2204 25.1039 23.6843 25.227 24.183C25.3501 24.6817 25.3571 25.202 25.2475 25.7038C25.138 26.2057 24.9148 26.6757 24.595 27.0778C24.2753 27.4798 23.8676 27.8032 23.4033 28.0229C23.5419 28.2127 23.6246 28.4375 23.642 28.6719C23.6595 28.9063 23.611 29.1408 23.5021 29.3491C23.3931 29.5573 23.2281 29.7309 23.0257 29.8502C22.8232 29.9696 22.5914 30.0299 22.3565 30.0243C21.9449 30.7404 21.2839 31.2797 20.4998 31.5391C19.7157 31.7985 18.8635 31.7599 18.1061 31.4306C17.3487 31.1013 16.7392 30.5044 16.3941 29.754C16.049 29.0036 15.9926 28.1524 16.2356 27.3631C15.9228 27.0516 15.6746 26.6814 15.5055 26.2736C15.3363 25.8659 15.2495 25.4287 15.25 24.9873C15.25 24.0588 15.6269 23.2184 16.2356 22.6114C16.0734 22.0811 16.0452 21.5189 16.1533 20.975C16.2614 20.431 16.5025 19.9224 16.8551 19.4943C16.4184 18.7248 16.161 17.8666 16.1022 16.9837C16.0433 16.1008 16.1845 15.216 16.5152 14.3953C16.8459 13.5746 17.3576 12.8391 18.0121 12.2437C18.6667 11.6483 19.4472 11.2083 20.2955 10.9565C20.2518 10.3532 20.372 9.74928 20.6432 9.2086C20.9144 8.66791 21.3267 8.21053 21.8364 7.88478C22.3461 7.55903 22.9343 7.377 23.5389 7.35793C24.1435 7.33887 24.742 7.48346 25.2712 7.77645C25.787 6.88298 26.5289 6.1411 27.4225 5.62544C28.316 5.10978 29.3296 4.83854 30.3612 4.839C31.5138 4.839 32.5893 5.17061 33.4968 5.74484C34.1201 5.07332 34.9025 4.56953 35.7718 4.27989C36.641 3.99026 37.5692 3.9241 38.4708 4.08752C39.3724 4.25094 40.2183 4.63868 40.9306 5.21499C41.6429 5.7913 42.1987 6.53765 42.5467 7.38524C42.9908 7.44281 43.4189 7.58863 43.8058 7.81412C44.1928 8.03961 44.5307 8.34022 44.7997 8.69825C45.0687 9.05628 45.2634 9.46451 45.3723 9.8989C45.4812 10.3333 45.5021 10.7851 45.4338 11.2277C46.9911 12.3812 47.9909 14.1676 47.9909 16.1724C47.9909 19.6496 44.9838 22.4687 41.2748 22.4687C39.4002 22.4687 37.7052 21.7484 36.4871 20.5882Z" fill="#47280B"/>
<path d="M30.3008 40.0983C30.3008 39.8756 30.3892 39.6621 30.5467 39.5047C30.7041 39.3472 30.9176 39.2588 31.1403 39.2588H38.8159C39.0386 39.2588 39.2521 39.3472 39.4096 39.5047C39.567 39.6621 39.6554 39.8756 39.6554 40.0983C39.6554 41.2116 39.2132 42.2792 38.426 43.0664C37.6388 43.8536 36.5712 44.2959 35.4579 44.2959H34.4983C33.3851 44.2959 32.3174 43.8536 31.5302 43.0664C30.743 42.2792 30.3008 41.2116 30.3008 40.0983Z" fill="#66253C"/>
<path fill-rule="evenodd" clip-rule="evenodd" d="M36.8713 44.0524C36.4179 44.2142 35.9399 44.2965 35.4584 44.2959H34.4989C33.4147 44.2959 32.3726 43.8764 31.5907 43.1252C30.8089 42.3741 30.3481 41.3496 30.3047 40.2662C30.9461 40.0261 31.8981 40.0538 32.8375 40.0815C33.1364 40.0899 33.4335 40.0983 33.719 40.0983C35.5743 40.0983 37.077 41.4138 37.077 43.0366C37.077 43.3934 37.004 43.7359 36.8713 44.0524Z" fill="#B03E67"/>
<path d="M31.2012 39.2588H39.5963V40.0983C39.5963 40.321 39.5078 40.5345 39.3504 40.6919C39.193 40.8494 38.9794 40.9378 38.7568 40.9378H32.0407C31.818 40.9378 31.6045 40.8494 31.4471 40.6919C31.2896 40.5345 31.2012 40.321 31.2012 40.0983V39.2588Z" fill="white"/>
<path d="M33.7197 32.9626C33.7197 32.2672 33.1559 31.7034 32.4604 31.7034C31.765 31.7034 31.2012 32.2672 31.2012 32.9626V33.8021C31.2012 34.4976 31.765 35.0614 32.4604 35.0614C33.1559 35.0614 33.7197 34.4976 33.7197 33.8021V32.9626Z" fill="#1B0B47"/>
<path d="M42.1142 32.9626C42.1142 32.2672 41.5504 31.7034 40.855 31.7034C40.1595 31.7034 39.5957 32.2672 39.5957 32.9626V33.8021C39.5957 34.4976 40.1595 35.0614 40.855 35.0614C41.5504 35.0614 42.1142 34.4976 42.1142 33.8021V32.9626Z" fill="#1B0B47"/>
<path d="M29.1023 34.2219H27.4233C26.7279 34.2219 26.1641 34.7857 26.1641 35.4812C26.1641 36.1767 26.7279 36.7405 27.4233 36.7405H29.1023C29.7978 36.7405 30.3616 36.1767 30.3616 35.4812C30.3616 34.7857 29.7978 34.2219 29.1023 34.2219Z" fill="#FF859B"/>
<path d="M44.214 34.2219H43.3745C42.679 34.2219 42.1152 34.7857 42.1152 35.4812C42.1152 36.1767 42.679 36.7405 43.3745 36.7405H44.214C44.9095 36.7405 45.4733 36.1767 45.4733 35.4812C45.4733 34.7857 44.9095 34.2219 44.214 34.2219Z" fill="#FF859B"/>
</svg>
