<svg width="521" height="281" viewBox="0 0 521 281" fill="none" xmlns="http://www.w3.org/2000/svg">
<path d="M443.574 176.945C445.304 177.027 447.03 176.705 448.616 176.005C450.201 175.305 451.603 174.246 452.71 172.911C453.817 171.576 454.599 170.002 454.995 168.313C455.391 166.623 455.389 164.865 454.991 163.176C454.593 161.488 453.808 159.915 452.699 158.581C451.59 157.248 450.187 156.191 448.601 155.493C447.014 154.796 445.288 154.477 443.557 154.561C441.827 154.646 440.14 155.132 438.629 155.981L440.605 161.405L436.539 157.495C434.358 159.491 433.058 162.273 432.925 165.229C432.873 166.266 432.969 167.304 433.208 168.314C433.764 170.686 435.077 172.811 436.947 174.369C438.818 175.926 441.144 176.83 443.574 176.945Z" fill="#FD7685"/>
<path d="M476.267 236.812C473.895 232.414 476.586 227.023 479.679 223.101C482.773 219.178 486.543 215.097 486.463 210.1C486.347 202.917 478.735 198.676 472.653 194.868C468.141 192.042 463.979 188.69 460.254 184.883C458.761 183.356 457.317 181.724 456.444 179.774C455.186 176.966 455.221 173.771 455.3 170.694C455.564 160.445 456.07 150.206 456.817 139.977" stroke="#3F3D56" stroke-miterlimit="10"/>
<path d="M443.574 175.389C445.304 175.471 447.03 175.149 448.616 174.45C450.201 173.75 451.603 172.69 452.71 171.356C453.817 170.021 454.599 168.446 454.995 166.757C455.391 165.068 455.389 163.309 454.991 161.621C454.593 159.932 453.808 158.359 452.699 157.026C451.59 155.692 450.187 154.635 448.601 153.938C447.014 153.24 445.288 152.921 443.557 153.006C441.827 153.09 440.14 153.576 438.629 154.425L440.605 159.849L436.539 155.939C434.358 157.936 433.058 160.717 432.925 163.673C432.873 164.71 432.969 165.749 433.208 166.759C433.764 169.13 435.077 171.256 436.947 172.813C438.818 174.37 441.144 175.275 443.574 175.389V175.389Z" stroke="#3F3D56" stroke-miterlimit="10"/>
<path d="M445.255 141.489C445.342 139.613 445.899 137.789 446.875 136.185C447.851 134.581 449.214 133.248 450.839 132.311L453.344 137.272L453.268 131.266C455.543 130.595 457.972 130.665 460.204 131.467C462.436 132.268 464.357 133.759 465.688 135.725C467.019 137.691 467.691 140.029 467.609 142.403C467.526 144.776 466.693 147.062 465.228 148.931C463.764 150.799 461.745 152.152 459.462 152.796C457.18 153.44 454.752 153.341 452.529 152.513C450.306 151.685 448.404 150.171 447.097 148.189C445.789 146.208 445.145 143.862 445.255 141.489Z" fill="#FD7685"/>
<path d="M445.255 139.416C445.342 137.54 445.899 135.715 446.875 134.111C447.851 132.507 449.214 131.175 450.839 130.238L453.344 135.199L453.268 129.193C455.543 128.522 457.972 128.592 460.204 129.394C462.436 130.195 464.357 131.686 465.688 133.652C467.019 135.618 467.691 137.956 467.609 140.33C467.526 142.703 466.693 144.989 465.228 146.857C463.764 148.725 461.745 150.079 459.462 150.723C457.18 151.367 454.752 151.268 452.529 150.44C450.306 149.612 448.404 148.098 447.097 146.116C445.789 144.135 445.145 141.788 445.255 139.416V139.416Z" stroke="#3F3D56" stroke-miterlimit="10"/>
<path d="M470.811 195.558C473.555 195.686 476.251 194.799 478.383 193.065C480.516 191.331 481.937 188.871 482.376 186.155C482.814 183.439 482.24 180.657 480.761 178.338C479.283 176.019 477.004 174.326 474.36 173.581L474.418 178.197L471.886 173.176C471.876 173.175 471.865 173.174 471.855 173.174C470.388 173.106 468.921 173.327 467.539 173.826C466.157 174.325 464.887 175.092 463.801 176.083C462.715 177.073 461.834 178.269 461.209 179.6C460.584 180.932 460.227 182.373 460.159 183.843C460.09 185.313 460.311 186.782 460.81 188.166C461.308 189.55 462.073 190.822 463.063 191.91C464.052 192.998 465.245 193.88 466.575 194.506C467.904 195.132 469.344 195.489 470.811 195.558Z" fill="#FD7685"/>
<path d="M470.725 193.485C473.469 193.614 476.165 192.726 478.297 190.992C480.43 189.258 481.851 186.799 482.29 184.083C482.728 181.367 482.154 178.584 480.675 176.265C479.197 173.946 476.919 172.253 474.274 171.509L474.332 176.125L471.8 171.104C471.79 171.103 471.78 171.102 471.769 171.102C470.302 171.033 468.835 171.255 467.453 171.754C466.071 172.253 464.801 173.02 463.715 174.01C462.629 175.001 461.748 176.196 461.123 177.528C460.498 178.859 460.141 180.301 460.073 181.771C460.004 183.241 460.225 184.709 460.724 186.094C461.222 187.478 461.987 188.75 462.977 189.838C463.966 190.926 465.159 191.808 466.489 192.433C467.818 193.059 469.258 193.417 470.725 193.485V193.485Z" stroke="#3F3D56" stroke-miterlimit="10"/>
<path d="M465.203 216.788C466.377 219.072 468.299 220.883 470.648 221.916C472.996 222.95 475.628 223.143 478.102 222.463C480.576 221.784 482.742 220.273 484.235 218.184C485.729 216.096 486.46 213.556 486.306 210.992C486.153 208.427 485.123 205.994 483.39 204.099C481.657 202.205 479.327 200.964 476.789 200.587C474.252 200.209 471.662 200.716 469.454 202.024C467.246 203.331 465.554 205.36 464.662 207.768L471.648 213.462L463.962 211.678C463.961 213.456 464.387 215.209 465.203 216.788Z" fill="#FD7685"/>
<path d="M465.203 215.233C466.377 217.518 468.299 219.328 470.648 220.362C472.996 221.395 475.628 221.588 478.102 220.909C480.576 220.229 482.742 218.718 484.235 216.63C485.729 214.541 486.46 212.002 486.306 209.437C486.153 206.872 485.123 204.439 483.39 202.544C481.657 200.65 479.327 199.41 476.789 199.032C474.252 198.654 471.662 199.162 469.454 200.469C467.246 201.777 465.554 203.805 464.662 206.214L471.648 211.907L463.962 210.123C463.961 211.902 464.387 213.654 465.203 215.233V215.233Z" stroke="#3F3D56" stroke-miterlimit="10"/>
<path d="M379.87 45.1472C381.218 50.4648 380.191 56.1834 377.909 61.1709C375.627 66.1585 372.16 70.5056 368.491 74.5795C366.645 76.6293 364.647 78.8081 364.256 81.5405C363.733 85.1835 366.186 88.4805 367.833 91.7704C369.274 94.6517 370.148 97.7836 370.407 100.995C370.629 103.753 370.284 106.793 368.355 108.774C366.496 110.684 363.64 111.146 360.987 111.393C353.683 112.072 346.324 111.894 339.061 110.862C341.096 108.151 340.331 106.469 340.14 103.083C339.765 96.4391 334.937 90.4243 334 83.8367C333.254 78.5994 336.716 73.7914 339.988 69.6383L354.991 50.5951C357.477 47.4396 359.953 44.1893 361.738 40.5716C363.014 37.9863 363.253 33.1325 366.463 32.2705C372.51 30.6462 378.694 40.5091 379.87 45.1472Z" fill="#47465A"/>
<path d="M306.245 60.8438C306.245 60.8438 295.896 91.4217 290.721 93.4948C285.546 95.5679 321.77 132.883 321.77 132.883L348.161 119.927L349.196 95.0496L338.847 94.5313C338.847 94.5313 337.294 84.1659 342.469 78.9832C347.644 73.8005 306.245 60.8438 306.245 60.8438Z" fill="#FBBEBE"/>
<path opacity="0.1" d="M306.245 60.8438C306.245 60.8438 295.896 91.4217 290.721 93.4948C285.546 95.5679 321.77 132.883 321.77 132.883L348.161 119.927L349.196 95.0496L338.847 94.5313C338.847 94.5313 337.294 84.1659 342.469 78.9832C347.644 73.8005 306.245 60.8438 306.245 60.8438Z" fill="#FCD3D4"/>
<path d="M318.147 112.671C318.147 112.671 295.896 97.6407 294.861 85.2021C294.861 85.2021 278.301 96.0858 273.126 95.5676C267.952 95.0493 253.979 98.1589 253.979 100.232C253.979 102.305 266.917 160.87 266.917 160.87C266.917 160.87 257.602 185.747 262.259 193.521C266.917 201.295 269.504 237.574 269.504 237.574H377.14C377.14 237.574 362.651 212.179 370.413 194.039C378.175 175.9 381.28 99.7137 381.28 99.7137C381.28 99.7137 375.588 95.5676 369.895 96.6041C364.203 97.6407 357.476 93.4945 353.336 92.9762C349.196 92.4579 339.814 94.5795 339.814 94.5795L318.147 112.671Z" fill="#FAE3E8"/>
<path d="M521 237.018V259.822C521 263.835 519.421 267.687 516.605 270.542C513.789 273.397 509.964 275.026 505.957 275.075L26.8636 280.999C25.7058 281.013 24.5567 280.797 23.4829 280.364C22.4092 279.93 21.4321 279.287 20.6083 278.472C19.7845 277.657 19.1305 276.686 18.6841 275.616C18.2377 274.546 18.0078 273.398 18.0078 272.239V247.031C18.0078 244.774 18.885 242.606 20.4536 240.985C22.0222 239.365 24.159 238.42 26.4113 238.351L507.072 223.493C508.881 223.437 510.682 223.745 512.369 224.4C514.056 225.054 515.595 226.042 516.894 227.303C518.193 228.565 519.226 230.075 519.931 231.744C520.637 233.412 521 235.206 521 237.018Z" fill="#363544"/>
<path opacity="0.1" d="M521 253.641V259.823C521 263.836 519.421 267.687 516.605 270.542C513.789 273.397 509.964 275.026 505.957 275.076L26.8636 281C25.7058 281.014 24.5567 280.798 23.4829 280.364C22.4092 279.93 21.4321 279.287 20.6083 278.472C19.7845 277.657 19.1305 276.687 18.6841 275.617C18.2377 274.547 18.0078 273.399 18.0078 272.239V271.428L521 253.641Z" fill="#3F4251"/>
<path d="M426.818 237.574L366.201 229.696L258.411 233.635L297.448 245.866L426.818 237.574Z" fill="#F2F2F2"/>
<path d="M265.882 233.946V240.165L206.889 253.64L201.124 252.308L200.162 252.085L157.728 229.281L265.882 233.946Z" fill="#9493B6"/>
<path opacity="0.1" d="M265.881 233.945V240.165L206.888 253.64L201.124 252.308L200.161 245.866L265.881 233.945Z" fill="black"/>
<path d="M198.091 243.792C199.126 243.274 220.86 239.128 220.86 239.128L181.532 235.5L198.091 243.792Z" fill="#47465A"/>
<path d="M334.189 87.2756C352.766 87.2756 367.825 72.1932 367.825 53.588C367.825 34.9828 352.766 19.9004 334.189 19.9004C315.612 19.9004 300.553 34.9828 300.553 53.588C300.553 72.1932 315.612 87.2756 334.189 87.2756Z" fill="#FCD3D4"/>
<path d="M236.385 205.958C236.385 205.958 206.371 218.915 199.126 215.287C191.881 211.659 170.147 202.33 163.42 221.506C157.995 236.971 189.665 237.942 202.128 237.738C203.635 237.714 205.119 237.362 206.477 236.707C207.835 236.052 209.034 235.11 209.993 233.945L253.203 219.174C253.203 219.174 243.63 202.849 236.385 205.958Z" fill="#FCD3D4"/>
<path d="M321.252 182.119L324.874 185.229L291.238 232.91C291.238 232.91 286.063 233.428 287.616 230.837L321.252 182.119Z" fill="#47465A"/>
<path d="M323.322 185.228L326.944 180.564L325.392 179.527L321.77 183.673L323.322 185.228Z" fill="#47465A"/>
<path d="M262 96.8633C262 96.8633 244.406 99.9729 244.924 113.448C245.441 126.923 241.042 142.212 236.903 149.468C232.763 156.724 235.868 162.425 236.903 172.272C237.938 182.119 231.728 192.484 234.833 197.667C237.938 202.85 201.196 206.478 201.196 211.66C201.196 216.843 224.483 226.69 220.343 233.428C217.365 238.275 238.358 230.112 250.373 225.15C253.502 223.886 256.28 221.886 258.471 219.317C260.663 216.749 262.204 213.689 262.963 210.397C263.326 208.745 263.423 207.255 263.035 206.218C261.483 202.072 279.854 196.63 280.371 186.265C280.888 175.9 277.784 165.534 275.196 155.169C272.609 144.803 262 96.8633 262 96.8633Z" fill="#FAE3E8"/>
<path d="M5.57671 151.106L157.323 152.544C158.372 152.554 159.396 152.863 160.276 153.436C161.156 154.008 161.854 154.82 162.29 155.775L203.185 245.514C203.576 246.371 203.741 247.313 203.666 248.251C203.59 249.19 203.277 250.094 202.755 250.877C202.233 251.66 201.52 252.296 200.683 252.726C199.847 253.155 198.915 253.364 197.975 253.331L45.6964 248.056C44.6824 248.021 43.6977 247.706 42.8506 247.147C42.0035 246.588 41.3267 245.805 40.8947 244.886L0.532017 158.985C0.134399 158.138 -0.0422713 157.205 0.0185546 156.272C0.0793806 155.338 0.375712 154.436 0.879795 153.649C1.38388 152.861 2.07922 152.215 2.9007 151.77C3.72219 151.326 4.64293 151.097 5.57671 151.106Z" fill="#3F3D56"/>
<path d="M363.686 205.959C363.686 205.959 333.672 218.916 326.427 215.288C319.182 211.66 297.448 202.332 290.721 221.508C285.296 236.972 316.966 237.943 329.429 237.739C330.936 237.715 332.42 237.363 333.777 236.708C335.135 236.053 336.335 235.111 337.294 233.946L381.28 229.282C381.28 229.282 370.93 202.85 363.686 205.959Z" fill="#FCD3D4"/>
<path opacity="0.1" d="M381.539 107.747C381.539 107.747 389.042 97.6405 392.664 106.969C396.287 116.298 395.769 152.577 395.769 152.577C395.769 152.577 401.979 170.717 399.909 182.637C397.839 194.557 401.979 196.112 401.979 196.112C401.979 196.112 403.014 201.295 399.909 203.886C396.804 206.477 394.734 217.879 395.769 219.434C396.804 220.989 394.217 230.836 392.147 230.836C390.077 230.836 385.678 230.059 385.678 230.059C385.678 230.059 375.07 210.624 352.818 209.069C352.818 209.069 356.441 203.886 354.371 193.521C352.301 183.155 381.539 107.747 381.539 107.747Z" fill="black"/>
<path d="M380.245 100.231C380.245 100.231 388.784 96.8623 392.406 106.191C396.028 115.52 399.392 152.576 399.392 152.576C399.392 152.576 405.602 170.716 403.532 182.636C401.462 194.556 405.602 196.111 405.602 196.111C405.602 196.111 406.637 201.294 403.532 203.885C400.427 206.477 398.357 217.879 399.392 219.433C400.427 220.988 397.839 230.835 395.77 230.835C393.7 230.835 374.553 233.945 374.553 233.945C374.553 233.945 378.693 210.623 356.441 209.068C356.441 209.068 360.063 203.885 357.993 193.52C355.923 183.154 380.245 100.231 380.245 100.231Z" fill="#FAE3E8"/>
<path d="M345.457 6.0476C340.296 2.81503 334.457 0.82725 328.399 0.241009C322.341 -0.345231 316.229 0.486093 310.546 2.66944C304.454 5.06935 299.073 8.97677 294.04 13.1697C290.003 16.5333 286.066 20.2027 283.586 24.8387C279.825 31.8677 279.836 40.2349 279.938 48.2088C280.026 55.1511 280.117 62.1147 281.061 68.9928C282.357 78.4267 285.26 87.7667 284.593 97.2659C283.926 106.765 278.352 116.9 269.034 118.795C277.702 119.452 286.415 119.2 295.032 118.045C300.462 117.316 306.163 116.07 310.133 112.289C313.033 109.527 314.671 105.72 316.097 101.975C317.53 98.212 318.842 94.3012 318.792 90.2737C318.687 81.8935 312.877 74.864 309.085 67.393C308.021 65.296 307.087 63.0415 307.123 60.6894C307.16 58.3374 308.387 55.8682 310.569 54.9996C313.263 53.9279 316.381 55.5266 319.181 54.7776C323.68 53.5741 324.848 47.3168 328.978 45.1635C332.034 43.5702 335.935 44.7649 338.505 47.0635C339.654 48.0914 340.638 49.3339 341.971 50.1082C343.778 51.1579 345.973 51.2089 348.062 51.232C351.962 51.2752 365.273 45.1528 368.084 42.4447C370.826 56.5691 391.214 44.2767 379.513 23.4382C375.439 16.1825 370.036 9.44361 362.847 5.26471C355.659 1.08581 346.487 -0.210309 338.941 3.27865" fill="#47465A"/>
<path d="M310.644 69.9128C313.216 69.9128 315.301 66.2002 315.301 61.6205C315.301 57.0407 313.216 53.3281 310.644 53.3281C308.071 53.3281 305.986 57.0407 305.986 61.6205C305.986 66.2002 308.071 69.9128 310.644 69.9128Z" fill="#FCD3D4"/>
<path d="M356.441 93.7637C356.441 93.7637 385.161 97.9003 386.714 99.9733C388.266 102.046 385.161 114.485 385.161 114.485L364.462 118.113L348.534 114.673L356.441 93.7637Z" fill="#FAE3E8"/>
<path opacity="0.1" d="M268.407 114.057C264.082 113.311 259.863 117.231 257.624 122.4C255.384 127.57 254.776 133.764 254.555 139.781C254.337 145.762 254.466 151.87 255.826 157.556C258.618 169.232 266.115 177.487 270.453 188.223C273.786 196.742 275.133 205.91 274.393 215.029" fill="black"/>
<path d="M271.512 114.057C267.187 113.311 262.968 117.231 260.728 122.4C258.489 127.57 257.881 133.764 257.66 139.781C257.442 145.762 257.571 151.87 258.931 157.556C261.723 169.232 269.22 177.487 273.558 188.223C276.891 196.742 278.238 205.91 277.498 215.029" fill="#FAE3E8"/>
<path d="M437.841 229.861L487.901 249.916L519.189 244.275L516.46 221.846L516.06 218.581L463.497 202.286L459.742 206.046L437.841 229.861Z" fill="#EAFD76"/>
<path opacity="0.1" d="M466.626 206.278V227.981L519.189 244.275L516.461 221.846L466.626 206.278Z" fill="#EAFD76"/>
<path d="M418.238 234.548L421.782 235.862L464.031 251.533L467.315 252.751C467.418 252.79 467.529 252.803 467.639 252.79C467.749 252.777 467.854 252.738 467.945 252.677L471.814 250.078L512.063 223.034L515.865 220.481C515.975 220.407 516.062 220.303 516.115 220.182C516.168 220.061 516.187 219.927 516.167 219.797C516.148 219.666 516.092 219.543 516.005 219.442C515.919 219.342 515.806 219.268 515.68 219.23L509.617 217.37L466.996 204.294L463.275 203.15C463.175 203.119 463.07 203.111 462.967 203.127C462.864 203.142 462.765 203.181 462.679 203.239L459.747 205.218L421.774 230.829L418.094 233.312C417.987 233.384 417.902 233.484 417.849 233.6C417.795 233.717 417.774 233.847 417.789 233.974C417.804 234.102 417.854 234.223 417.933 234.325C418.013 234.426 418.118 234.503 418.238 234.548Z" fill="#4D4C64"/>
<path d="M505.413 222.812L467.7 248.5C467.518 248.625 467.309 248.704 467.09 248.731C466.872 248.758 466.65 248.733 466.443 248.657L426.405 234.018C426.162 233.928 425.948 233.772 425.787 233.568C425.627 233.364 425.527 233.119 425.497 232.86C425.468 232.602 425.511 232.341 425.621 232.105C425.731 231.87 425.905 231.67 426.122 231.528L462.625 207.671C462.796 207.559 462.989 207.486 463.192 207.458C463.394 207.429 463.6 207.446 463.795 207.507L505.043 220.315C505.294 220.394 505.518 220.542 505.689 220.742C505.86 220.942 505.971 221.187 506.01 221.447C506.048 221.708 506.013 221.974 505.907 222.216C505.802 222.457 505.63 222.664 505.413 222.812Z" fill="#F2F2F2"/>
<path d="M509.617 217.369V223.033H512.063L515.865 220.48C515.975 220.406 516.062 220.302 516.115 220.181C516.169 220.06 516.187 219.927 516.167 219.796C516.148 219.665 516.092 219.542 516.006 219.442C515.919 219.341 515.806 219.267 515.68 219.229L509.617 217.369Z" fill="#EAFD76"/>
<path d="M464.031 249.759V251.533L467.315 252.75C467.418 252.789 467.529 252.803 467.639 252.79C467.749 252.777 467.853 252.738 467.945 252.676L471.814 250.078V249.759H464.031Z" fill="#EAFD76"/>
<path d="M418.239 234.547L421.782 235.861V230.828H421.774L418.094 233.311C417.987 233.383 417.902 233.483 417.849 233.599C417.795 233.716 417.774 233.846 417.789 233.973C417.804 234.101 417.854 234.222 417.933 234.324C418.013 234.425 418.118 234.502 418.239 234.547Z" fill="#EAFD76"/>
<path d="M459.747 205.218H466.996V204.294L463.275 203.15C463.176 203.119 463.07 203.111 462.967 203.127C462.864 203.142 462.765 203.181 462.679 203.239L459.747 205.218Z" fill="#EAFD76"/>
<path d="M443.895 217.879C444.181 217.879 444.413 217.647 444.413 217.361C444.413 217.075 444.181 216.843 443.895 216.843C443.61 216.843 443.378 217.075 443.378 217.361C443.378 217.647 443.61 217.879 443.895 217.879Z" fill="#F2F2F2"/>
</svg>
