<svg width="39" height="48" viewBox="0 0 39 48" fill="none" xmlns="http://www.w3.org/2000/svg">
<path d="M33.6 0H4.8C2.1528 0 0 2.1528 0 4.8V45.6C0 46.2365 0.252857 46.847 0.702944 47.2971C1.15303 47.7471 1.76348 48 2.4 48H36C36.6365 48 37.247 47.7471 37.6971 47.2971C38.1471 46.847 38.4 46.2365 38.4 45.6V4.8C38.4 2.1528 36.2472 0 33.6 0ZM33.6 43.2H4.8V4.8H33.6V43.2Z" fill="black"/>
<path d="M9.6001 9.59961H16.8001V14.3996H9.6001V9.59961ZM21.6001 9.59961H28.8001V14.3996H21.6001V9.59961ZM9.6001 19.1996H16.8001V23.9996H9.6001V19.1996ZM21.6001 19.274H28.8001V23.9996H21.6001V19.274ZM9.6001 28.7996H16.8001V33.5996H9.6001V28.7996ZM21.6001 28.7996H28.8001V33.5996H21.6001V28.7996Z" fill="black"/>
</svg>
