<svg width="51" height="51" viewBox="0 0 51 51" fill="none" xmlns="http://www.w3.org/2000/svg">
<path fill-rule="evenodd" clip-rule="evenodd" d="M10.625 5.80408C10.625 2.51317 25.5 0 25.5 0C25.5 0 40.375 2.51317 40.375 5.80408C40.375 10.1915 37.6692 12.0417 37.6692 12.0417H13.3308C13.3308 12.0417 10.625 10.1915 10.625 5.80408V5.80408ZM27.625 6.375C27.625 6.93858 27.4011 7.47909 27.0026 7.8776C26.6041 8.27612 26.0636 8.5 25.5 8.5C24.9364 8.5 24.3959 8.27612 23.9974 7.8776C23.5989 7.47909 23.375 6.93858 23.375 6.375C23.375 5.81141 23.5989 5.27091 23.9974 4.8724C24.3959 4.47388 24.9364 4.25 25.5 4.25C26.0636 4.25 26.6041 4.47388 27.0026 4.8724C27.4011 5.27091 27.625 5.81141 27.625 6.375Z" fill="white"/>
<path fill-rule="evenodd" clip-rule="evenodd" d="M36.5697 17.396C38.5389 15.8589 38.2329 14.166 38.2329 14.166H12.7669C12.7669 14.166 12.4595 15.8589 14.4301 17.396C14.0673 19.0511 14.0803 20.7664 14.468 22.4158C14.8557 24.0652 15.6083 25.6067 16.6704 26.9268C17.7326 28.247 19.0772 29.3122 20.6053 30.044C22.1335 30.7759 23.8062 31.1558 25.5006 31.1558C27.195 31.1558 28.8678 30.7759 30.3959 30.044C31.9241 29.3122 33.2687 28.247 34.3308 26.9268C35.3929 25.6067 36.1455 24.0652 36.5332 22.4158C36.9209 20.7664 36.9339 19.0511 36.5711 17.396H36.5697ZM25.4999 19.8327C29.3546 19.8327 32.0491 19.3878 33.9319 18.7475C34.0851 19.9451 33.9814 21.1615 33.6278 22.3159C33.2741 23.4702 32.6787 24.536 31.881 25.4422C31.0833 26.3485 30.1017 27.0744 29.0015 27.5716C27.9014 28.0689 26.7079 28.3261 25.5006 28.3261C24.2933 28.3261 23.0998 28.0689 21.9997 27.5716C20.8995 27.0744 19.9179 26.3485 19.1202 25.4422C18.3226 24.536 17.7271 23.4702 17.3734 22.3159C17.0198 21.1615 16.9161 19.9451 17.0693 18.7475C18.9506 19.3878 21.6451 19.8327 25.4999 19.8327Z" fill="white"/>
<path fill-rule="evenodd" clip-rule="evenodd" d="M27.625 34C28.0007 34 28.3611 34.1493 28.6267 34.4149C28.8924 34.6806 29.0417 35.0409 29.0417 35.4167V37.3745C29.0415 37.6375 28.9682 37.8953 28.8298 38.119C28.6914 38.3427 28.4935 38.5234 28.2582 38.641L27.625 38.9583L28.4424 43.0454L34.4491 34.0354C34.8599 34.0354 35.2424 34.0382 35.5881 34.0411C43.2452 35.7878 51 39.3493 51 44.7072V51H0V44.7072C0 39.3493 8.09342 35.7468 15.7505 34C15.7236 34.0057 16.0112 34.0099 16.5368 34.0142L22.6058 43.1163L23.375 38.9583L22.7417 38.641C22.5065 38.5234 22.3086 38.3427 22.1702 38.119C22.0318 37.8953 21.9585 37.6375 21.9583 37.3745V35.4167C21.9583 35.0409 22.1076 34.6806 22.3733 34.4149C22.6389 34.1493 22.9993 34 23.375 34H27.625ZM41.0833 41.5551C41.0833 41.5551 39.1949 40.6116 38.25 39.6667C37.3051 40.6116 35.4167 41.5551 35.4167 41.5551C35.4167 41.5551 36.4055 45.3333 38.25 45.3333C40.0945 45.3333 41.0833 41.5551 41.0833 41.5551Z" fill="white"/>
</svg>
