<svg width="51" height="51" viewBox="0 0 51 51" fill="none" xmlns="http://www.w3.org/2000/svg">
<path d="M25.4878 9.93549C26.0511 9.93549 26.5913 9.71172 26.9897 9.31339C27.388 8.91506 27.6118 8.37482 27.6118 7.8115C27.6118 7.24818 27.388 6.70793 26.9897 6.3096C26.5913 5.91128 26.0511 5.6875 25.4878 5.6875C24.9244 5.6875 24.3842 5.91128 23.9859 6.3096C23.5875 6.70793 23.3638 7.24818 23.3638 7.8115C23.3638 8.37482 23.5875 8.91506 23.9859 9.31339C24.3842 9.71172 24.9244 9.93549 25.4878 9.93549Z" fill="black"/>
<path fill-rule="evenodd" clip-rule="evenodd" d="M25.2276 0.0481445L25.2162 0.0509763L25.1837 0.0566399L25.0661 0.0792962L24.6272 0.167088C24.2505 0.243552 23.7139 0.356832 23.0724 0.502679C21.7909 0.794375 20.0705 1.22059 18.343 1.75442C16.6324 2.28259 14.8412 2.93961 13.4521 3.7085C12.7611 4.09082 12.0984 4.53969 11.5929 5.06786C11.0902 5.59036 10.6201 6.32243 10.6201 7.24141C10.6201 9.71233 11.314 11.522 12.0474 12.7355C12.4085 13.333 12.7753 13.7791 13.0641 14.0849C13.0783 14.2478 13.0995 14.4304 13.1392 14.6287C13.2822 15.3735 13.6404 16.3222 14.4617 17.244C14.0706 18.9068 14.0606 20.6364 14.4325 22.3036C14.8043 23.9708 15.5484 25.5322 16.609 26.8712C17.6695 28.2102 19.0192 29.292 20.5569 30.0356C22.0947 30.7793 23.7807 31.1656 25.4888 31.1656C27.1969 31.1656 28.8829 30.7793 30.4207 30.0356C31.9584 29.292 33.3081 28.2102 34.3686 26.8712C35.4292 25.5322 36.1733 23.9708 36.5451 22.3036C36.917 20.6364 36.907 18.9068 36.5159 17.244C37.3358 16.3222 37.694 15.3749 37.837 14.6287C37.8767 14.4304 37.8993 14.2478 37.9121 14.0849C38.2977 13.6723 38.6385 13.22 38.9288 12.7355C39.6637 11.522 40.3561 9.71233 40.3561 7.24141C40.3561 6.32243 39.886 5.59036 39.3833 5.06786C38.8778 4.53969 38.2151 4.09082 37.5241 3.7085C36.135 2.93961 34.3437 2.28259 32.6318 1.75442C31.0718 1.27893 29.4947 0.861397 27.9038 0.502679C27.2412 0.351704 26.5766 0.210091 25.9101 0.0778803L25.7925 0.0566399L25.76 0.0509763L25.7486 0.0481445L25.4881 0L25.2276 0.0481445V0.0481445ZM25.4881 1.44007L25.7486 0.0481445L25.4881 1.44007ZM25.2276 0.0481445L25.4881 1.44007L25.2276 0.0481445ZM25.4881 17.724C28.6132 17.724 30.7117 17.3191 32.115 16.7923C33.303 16.3463 33.9954 15.8139 34.3947 15.365C34.5406 15.2022 34.6553 15.0436 34.7459 14.8921H16.2303C16.3209 15.0436 16.4356 15.2036 16.5801 15.365C16.9822 15.8139 17.6732 16.3463 18.8598 16.7923C20.2645 17.3191 22.363 17.724 25.4881 17.724ZM35.9268 12.0601H15.0494C14.8323 11.8151 14.6384 11.5506 14.4702 11.2699C13.9845 10.4671 13.4578 9.16859 13.4521 7.27115C13.4994 7.18024 13.5616 7.09792 13.6362 7.0276C13.8656 6.7883 14.2536 6.50085 14.8242 6.1865C15.957 5.55921 17.5288 4.97015 19.1798 4.45898C20.6712 4.00548 22.1789 3.60732 23.6997 3.26529C24.2941 3.13 24.8903 3.00255 25.4881 2.88297C25.5688 2.89713 25.6679 2.91837 25.7826 2.94103C26.1423 3.01466 26.6577 3.12511 27.2765 3.26529C28.5169 3.54707 30.1609 3.95488 31.7964 4.46039C33.4474 4.97015 35.0192 5.55921 36.152 6.1865C36.7226 6.50085 37.1106 6.7883 37.3414 7.0276C37.4689 7.16212 37.5113 7.24141 37.5241 7.27115C37.5184 9.16859 36.9917 10.4671 36.5046 11.2699C36.295 11.6197 36.0868 11.8802 35.9268 12.0601V12.0601ZM16.9921 19.848C16.9921 19.5932 17.0034 19.3411 17.0247 19.0919C18.9193 19.9797 21.6323 20.556 25.4881 20.556C28.8086 20.556 31.2781 20.1312 33.109 19.4445C33.4064 19.334 33.6867 19.2151 33.9515 19.0905C34.0518 20.2325 33.9199 21.383 33.5638 22.4727C33.2077 23.5624 32.6347 24.5687 31.8794 25.4311C31.1241 26.2936 30.202 26.9942 29.1688 27.4908C28.1355 27.9875 27.0125 28.2699 25.8672 28.3211C24.7219 28.3722 23.5782 28.1911 22.5048 27.7885C21.4314 27.386 20.4505 26.7703 19.6213 25.9787C18.7921 25.1871 18.1317 24.2358 17.6799 23.1822C17.228 22.1286 16.9941 20.9945 16.9921 19.848V19.848ZM13.4479 7.28389V7.27965V7.28389Z" fill="black"/>
<path d="M38.2319 39.6719C39.1764 40.6163 41.0639 41.5594 41.0639 41.5594C41.0639 41.5594 40.0755 45.3359 38.2319 45.3359C36.3883 45.3359 35.3999 41.5594 35.3999 41.5594C35.3999 41.5594 37.2874 40.6163 38.2319 39.6719Z" fill="black"/>
<path fill-rule="evenodd" clip-rule="evenodd" d="M20.532 35.4238C20.532 34.6727 20.8303 33.9524 21.3614 33.4213C21.8925 32.8902 22.6129 32.5918 23.364 32.5918H27.612C28.3631 32.5918 29.0834 32.8902 29.6145 33.4213C30.1456 33.9524 30.444 34.6727 30.444 35.4238V37.3807C30.4439 37.8418 30.3313 38.2959 30.1158 38.7035C29.9004 39.1112 29.5887 39.4601 29.2078 39.7199L29.3678 40.5214L34.2275 34.6209C34.3913 34.4219 34.6063 34.2713 34.8493 34.1855C35.0924 34.0997 35.3542 34.0818 35.6067 34.1338C39.2373 34.8871 42.9515 36.0284 45.7948 37.5945C48.5447 39.1096 50.9759 41.3087 50.9759 44.3417V49.5838C50.9759 49.9593 50.8267 50.3195 50.5612 50.585C50.2956 50.8506 49.9355 50.9998 49.5599 50.9998H1.416C1.04045 50.9998 0.680288 50.8506 0.414736 50.585C0.149185 50.3195 0 49.9593 0 49.5838V44.3417C0 41.3257 2.478 39.1408 5.22787 37.6384C8.08252 36.0766 11.7981 34.9268 15.3848 34.1636C15.6384 34.1097 15.9019 34.1265 16.1466 34.2122C16.3913 34.2978 16.6078 34.449 16.7725 34.6492L21.6294 40.5483L21.7823 39.7298C21.3972 39.4705 21.0817 39.1205 20.8637 38.7107C20.6457 38.3008 20.5317 37.8436 20.532 37.3793V35.4238V35.4238ZM26.2243 39.2413L27.0441 43.3435L25.488 45.2324L23.9813 43.4029L24.7559 39.2215C24.812 38.9194 24.7683 38.6072 24.6314 38.3321C24.4945 38.057 24.2718 37.8339 23.9969 37.6965L23.364 37.3807V35.4238H27.612V37.3807L26.979 37.6979C26.7012 37.8366 26.4766 38.0629 26.34 38.3418C26.2034 38.6207 26.1622 38.9367 26.2229 39.2413H26.2243ZM26.7383 48.1678L35.863 37.0876C39.0631 37.8041 42.1316 38.8109 44.4269 40.0753C47.0168 41.5013 48.1439 42.9753 48.1439 44.3417V48.1678H26.7397H26.7383ZM15.1356 37.1187L24.2362 48.1678H2.832V44.3417C2.832 43.0192 3.96479 41.5565 6.58581 40.1221C8.89813 38.8576 11.9723 37.8451 15.1384 37.1187H15.1356Z" fill="black"/>
</svg>
